%TF.GenerationSoftware,KiCad,Pcbnew,9.0.0+dfsg-1*%
%TF.CreationDate,2025-03-19T00:38:02+01:00*%
%TF.ProjectId,control-matrix-2,636f6e74-726f-46c2-9d6d-61747269782d,1.0*%
%TF.SameCoordinates,Original*%
%TF.FileFunction,Legend,Top*%
%TF.FilePolarity,Positive*%
%FSLAX46Y46*%
G04 Gerber Fmt 4.6, Leading zero omitted, Abs format (unit mm)*
G04 Created by KiCad (PCBNEW 9.0.0+dfsg-1) date 2025-03-19 00:38:02*
%MOMM*%
%LPD*%
G01*
G04 APERTURE LIST*
%ADD10C,0.200000*%
%ADD11C,0.254000*%
%ADD12C,0.150000*%
%ADD13C,0.100000*%
%ADD14C,0.120000*%
G04 APERTURE END LIST*
D10*
X111293482Y-80514838D02*
X111198244Y-80467219D01*
X111198244Y-80467219D02*
X111055387Y-80467219D01*
X111055387Y-80467219D02*
X110912530Y-80514838D01*
X110912530Y-80514838D02*
X110817292Y-80610076D01*
X110817292Y-80610076D02*
X110769673Y-80705314D01*
X110769673Y-80705314D02*
X110722054Y-80895790D01*
X110722054Y-80895790D02*
X110722054Y-81038647D01*
X110722054Y-81038647D02*
X110769673Y-81229123D01*
X110769673Y-81229123D02*
X110817292Y-81324361D01*
X110817292Y-81324361D02*
X110912530Y-81419600D01*
X110912530Y-81419600D02*
X111055387Y-81467219D01*
X111055387Y-81467219D02*
X111150625Y-81467219D01*
X111150625Y-81467219D02*
X111293482Y-81419600D01*
X111293482Y-81419600D02*
X111341101Y-81371980D01*
X111341101Y-81371980D02*
X111341101Y-81038647D01*
X111341101Y-81038647D02*
X111150625Y-81038647D01*
X111769673Y-81467219D02*
X111769673Y-80467219D01*
X111769673Y-80467219D02*
X112341101Y-81467219D01*
X112341101Y-81467219D02*
X112341101Y-80467219D01*
X112817292Y-81467219D02*
X112817292Y-80467219D01*
X112817292Y-80467219D02*
X113055387Y-80467219D01*
X113055387Y-80467219D02*
X113198244Y-80514838D01*
X113198244Y-80514838D02*
X113293482Y-80610076D01*
X113293482Y-80610076D02*
X113341101Y-80705314D01*
X113341101Y-80705314D02*
X113388720Y-80895790D01*
X113388720Y-80895790D02*
X113388720Y-81038647D01*
X113388720Y-81038647D02*
X113341101Y-81229123D01*
X113341101Y-81229123D02*
X113293482Y-81324361D01*
X113293482Y-81324361D02*
X113198244Y-81419600D01*
X113198244Y-81419600D02*
X113055387Y-81467219D01*
X113055387Y-81467219D02*
X112817292Y-81467219D01*
X115341102Y-81086266D02*
X116103007Y-81086266D01*
X115722054Y-81467219D02*
X115722054Y-80705314D01*
X117103006Y-81467219D02*
X116531578Y-81467219D01*
X116817292Y-81467219D02*
X116817292Y-80467219D01*
X116817292Y-80467219D02*
X116722054Y-80610076D01*
X116722054Y-80610076D02*
X116626816Y-80705314D01*
X116626816Y-80705314D02*
X116531578Y-80752933D01*
X117483959Y-80562457D02*
X117531578Y-80514838D01*
X117531578Y-80514838D02*
X117626816Y-80467219D01*
X117626816Y-80467219D02*
X117864911Y-80467219D01*
X117864911Y-80467219D02*
X117960149Y-80514838D01*
X117960149Y-80514838D02*
X118007768Y-80562457D01*
X118007768Y-80562457D02*
X118055387Y-80657695D01*
X118055387Y-80657695D02*
X118055387Y-80752933D01*
X118055387Y-80752933D02*
X118007768Y-80895790D01*
X118007768Y-80895790D02*
X117436340Y-81467219D01*
X117436340Y-81467219D02*
X118055387Y-81467219D01*
X118341102Y-80467219D02*
X118674435Y-81467219D01*
X118674435Y-81467219D02*
X119007768Y-80467219D01*
D11*
X95589776Y-95545062D02*
X95771205Y-95605538D01*
X95771205Y-95605538D02*
X96073586Y-95605538D01*
X96073586Y-95605538D02*
X96194538Y-95545062D01*
X96194538Y-95545062D02*
X96255014Y-95484585D01*
X96255014Y-95484585D02*
X96315491Y-95363633D01*
X96315491Y-95363633D02*
X96315491Y-95242681D01*
X96315491Y-95242681D02*
X96255014Y-95121728D01*
X96255014Y-95121728D02*
X96194538Y-95061252D01*
X96194538Y-95061252D02*
X96073586Y-95000776D01*
X96073586Y-95000776D02*
X95831681Y-94940300D01*
X95831681Y-94940300D02*
X95710729Y-94879823D01*
X95710729Y-94879823D02*
X95650252Y-94819347D01*
X95650252Y-94819347D02*
X95589776Y-94698395D01*
X95589776Y-94698395D02*
X95589776Y-94577442D01*
X95589776Y-94577442D02*
X95650252Y-94456490D01*
X95650252Y-94456490D02*
X95710729Y-94396014D01*
X95710729Y-94396014D02*
X95831681Y-94335538D01*
X95831681Y-94335538D02*
X96134062Y-94335538D01*
X96134062Y-94335538D02*
X96315491Y-94396014D01*
X96738824Y-94335538D02*
X97041205Y-95605538D01*
X97041205Y-95605538D02*
X97283110Y-94698395D01*
X97283110Y-94698395D02*
X97525015Y-95605538D01*
X97525015Y-95605538D02*
X97827396Y-94335538D01*
X98976444Y-95605538D02*
X98250729Y-95605538D01*
X98613586Y-95605538D02*
X98613586Y-94335538D01*
X98613586Y-94335538D02*
X98492634Y-94516966D01*
X98492634Y-94516966D02*
X98371682Y-94637919D01*
X98371682Y-94637919D02*
X98250729Y-94698395D01*
D12*
X78484819Y-103526666D02*
X78008628Y-103859999D01*
X78484819Y-104098094D02*
X77484819Y-104098094D01*
X77484819Y-104098094D02*
X77484819Y-103717142D01*
X77484819Y-103717142D02*
X77532438Y-103621904D01*
X77532438Y-103621904D02*
X77580057Y-103574285D01*
X77580057Y-103574285D02*
X77675295Y-103526666D01*
X77675295Y-103526666D02*
X77818152Y-103526666D01*
X77818152Y-103526666D02*
X77913390Y-103574285D01*
X77913390Y-103574285D02*
X77961009Y-103621904D01*
X77961009Y-103621904D02*
X78008628Y-103717142D01*
X78008628Y-103717142D02*
X78008628Y-104098094D01*
X77580057Y-103145713D02*
X77532438Y-103098094D01*
X77532438Y-103098094D02*
X77484819Y-103002856D01*
X77484819Y-103002856D02*
X77484819Y-102764761D01*
X77484819Y-102764761D02*
X77532438Y-102669523D01*
X77532438Y-102669523D02*
X77580057Y-102621904D01*
X77580057Y-102621904D02*
X77675295Y-102574285D01*
X77675295Y-102574285D02*
X77770533Y-102574285D01*
X77770533Y-102574285D02*
X77913390Y-102621904D01*
X77913390Y-102621904D02*
X78484819Y-103193332D01*
X78484819Y-103193332D02*
X78484819Y-102574285D01*
X83814819Y-95738094D02*
X82814819Y-95738094D01*
X82814819Y-95738094D02*
X82814819Y-95499999D01*
X82814819Y-95499999D02*
X82862438Y-95357142D01*
X82862438Y-95357142D02*
X82957676Y-95261904D01*
X82957676Y-95261904D02*
X83052914Y-95214285D01*
X83052914Y-95214285D02*
X83243390Y-95166666D01*
X83243390Y-95166666D02*
X83386247Y-95166666D01*
X83386247Y-95166666D02*
X83576723Y-95214285D01*
X83576723Y-95214285D02*
X83671961Y-95261904D01*
X83671961Y-95261904D02*
X83767200Y-95357142D01*
X83767200Y-95357142D02*
X83814819Y-95499999D01*
X83814819Y-95499999D02*
X83814819Y-95738094D01*
X82910057Y-94785713D02*
X82862438Y-94738094D01*
X82862438Y-94738094D02*
X82814819Y-94642856D01*
X82814819Y-94642856D02*
X82814819Y-94404761D01*
X82814819Y-94404761D02*
X82862438Y-94309523D01*
X82862438Y-94309523D02*
X82910057Y-94261904D01*
X82910057Y-94261904D02*
X83005295Y-94214285D01*
X83005295Y-94214285D02*
X83100533Y-94214285D01*
X83100533Y-94214285D02*
X83243390Y-94261904D01*
X83243390Y-94261904D02*
X83814819Y-94833332D01*
X83814819Y-94833332D02*
X83814819Y-94214285D01*
X63484819Y-103526666D02*
X63008628Y-103859999D01*
X63484819Y-104098094D02*
X62484819Y-104098094D01*
X62484819Y-104098094D02*
X62484819Y-103717142D01*
X62484819Y-103717142D02*
X62532438Y-103621904D01*
X62532438Y-103621904D02*
X62580057Y-103574285D01*
X62580057Y-103574285D02*
X62675295Y-103526666D01*
X62675295Y-103526666D02*
X62818152Y-103526666D01*
X62818152Y-103526666D02*
X62913390Y-103574285D01*
X62913390Y-103574285D02*
X62961009Y-103621904D01*
X62961009Y-103621904D02*
X63008628Y-103717142D01*
X63008628Y-103717142D02*
X63008628Y-104098094D01*
X63484819Y-102574285D02*
X63484819Y-103145713D01*
X63484819Y-102859999D02*
X62484819Y-102859999D01*
X62484819Y-102859999D02*
X62627676Y-102955237D01*
X62627676Y-102955237D02*
X62722914Y-103050475D01*
X62722914Y-103050475D02*
X62770533Y-103145713D01*
X68814819Y-95738094D02*
X67814819Y-95738094D01*
X67814819Y-95738094D02*
X67814819Y-95499999D01*
X67814819Y-95499999D02*
X67862438Y-95357142D01*
X67862438Y-95357142D02*
X67957676Y-95261904D01*
X67957676Y-95261904D02*
X68052914Y-95214285D01*
X68052914Y-95214285D02*
X68243390Y-95166666D01*
X68243390Y-95166666D02*
X68386247Y-95166666D01*
X68386247Y-95166666D02*
X68576723Y-95214285D01*
X68576723Y-95214285D02*
X68671961Y-95261904D01*
X68671961Y-95261904D02*
X68767200Y-95357142D01*
X68767200Y-95357142D02*
X68814819Y-95499999D01*
X68814819Y-95499999D02*
X68814819Y-95738094D01*
X68814819Y-94214285D02*
X68814819Y-94785713D01*
X68814819Y-94499999D02*
X67814819Y-94499999D01*
X67814819Y-94499999D02*
X67957676Y-94595237D01*
X67957676Y-94595237D02*
X68052914Y-94690475D01*
X68052914Y-94690475D02*
X68100533Y-94785713D01*
X65106666Y-88704819D02*
X65106666Y-89419104D01*
X65106666Y-89419104D02*
X65059047Y-89561961D01*
X65059047Y-89561961D02*
X64963809Y-89657200D01*
X64963809Y-89657200D02*
X64820952Y-89704819D01*
X64820952Y-89704819D02*
X64725714Y-89704819D01*
X66106666Y-89704819D02*
X65535238Y-89704819D01*
X65820952Y-89704819D02*
X65820952Y-88704819D01*
X65820952Y-88704819D02*
X65725714Y-88847676D01*
X65725714Y-88847676D02*
X65630476Y-88942914D01*
X65630476Y-88942914D02*
X65535238Y-88990533D01*
X80106666Y-88704819D02*
X80106666Y-89419104D01*
X80106666Y-89419104D02*
X80059047Y-89561961D01*
X80059047Y-89561961D02*
X79963809Y-89657200D01*
X79963809Y-89657200D02*
X79820952Y-89704819D01*
X79820952Y-89704819D02*
X79725714Y-89704819D01*
X80535238Y-88800057D02*
X80582857Y-88752438D01*
X80582857Y-88752438D02*
X80678095Y-88704819D01*
X80678095Y-88704819D02*
X80916190Y-88704819D01*
X80916190Y-88704819D02*
X81011428Y-88752438D01*
X81011428Y-88752438D02*
X81059047Y-88800057D01*
X81059047Y-88800057D02*
X81106666Y-88895295D01*
X81106666Y-88895295D02*
X81106666Y-88990533D01*
X81106666Y-88990533D02*
X81059047Y-89133390D01*
X81059047Y-89133390D02*
X80487619Y-89704819D01*
X80487619Y-89704819D02*
X81106666Y-89704819D01*
X114266666Y-88634819D02*
X114266666Y-89349104D01*
X114266666Y-89349104D02*
X114219047Y-89491961D01*
X114219047Y-89491961D02*
X114123809Y-89587200D01*
X114123809Y-89587200D02*
X113980952Y-89634819D01*
X113980952Y-89634819D02*
X113885714Y-89634819D01*
X114790476Y-89634819D02*
X114980952Y-89634819D01*
X114980952Y-89634819D02*
X115076190Y-89587200D01*
X115076190Y-89587200D02*
X115123809Y-89539580D01*
X115123809Y-89539580D02*
X115219047Y-89396723D01*
X115219047Y-89396723D02*
X115266666Y-89206247D01*
X115266666Y-89206247D02*
X115266666Y-88825295D01*
X115266666Y-88825295D02*
X115219047Y-88730057D01*
X115219047Y-88730057D02*
X115171428Y-88682438D01*
X115171428Y-88682438D02*
X115076190Y-88634819D01*
X115076190Y-88634819D02*
X114885714Y-88634819D01*
X114885714Y-88634819D02*
X114790476Y-88682438D01*
X114790476Y-88682438D02*
X114742857Y-88730057D01*
X114742857Y-88730057D02*
X114695238Y-88825295D01*
X114695238Y-88825295D02*
X114695238Y-89063390D01*
X114695238Y-89063390D02*
X114742857Y-89158628D01*
X114742857Y-89158628D02*
X114790476Y-89206247D01*
X114790476Y-89206247D02*
X114885714Y-89253866D01*
X114885714Y-89253866D02*
X115076190Y-89253866D01*
X115076190Y-89253866D02*
X115171428Y-89206247D01*
X115171428Y-89206247D02*
X115219047Y-89158628D01*
X115219047Y-89158628D02*
X115266666Y-89063390D01*
%TO.C,SW1*%
X94791220Y-108475000D02*
G75*
G02*
X94653220Y-108475000I-69000J0D01*
G01*
X94653220Y-108475000D02*
G75*
G02*
X94791220Y-108475000I69000J0D01*
G01*
D13*
X110727110Y-94878220D02*
G75*
G02*
X84527110Y-94878220I-13100000J0D01*
G01*
X84527110Y-94878220D02*
G75*
G02*
X110727110Y-94878220I13100000J0D01*
G01*
D14*
%TO.C,R2*%
X79030000Y-100090000D02*
X79360000Y-100090000D01*
X79030000Y-106630000D02*
X79030000Y-100090000D01*
X79360000Y-106630000D02*
X79030000Y-106630000D01*
X81440000Y-106630000D02*
X81770000Y-106630000D01*
X81770000Y-100090000D02*
X81440000Y-100090000D01*
X81770000Y-106630000D02*
X81770000Y-100090000D01*
%TO.C,D2*%
X79320000Y-93440000D02*
X79164000Y-93440000D01*
X81636000Y-93440000D02*
X81480000Y-93440000D01*
X79319939Y-96671397D02*
G75*
G02*
X79164484Y-93440000I1080061J1671397D01*
G01*
X79319951Y-96040910D02*
G75*
G02*
X79320000Y-93959039I1080049J1040910D01*
G01*
X81480000Y-93959039D02*
G75*
G02*
X81480049Y-96040910I-1080000J-1040961D01*
G01*
X81635516Y-93440000D02*
G75*
G02*
X81480061Y-96671397I-1235516J-1560000D01*
G01*
%TO.C,R1*%
X64030000Y-100090000D02*
X64360000Y-100090000D01*
X64030000Y-106630000D02*
X64030000Y-100090000D01*
X64360000Y-106630000D02*
X64030000Y-106630000D01*
X66440000Y-106630000D02*
X66770000Y-106630000D01*
X66770000Y-100090000D02*
X66440000Y-100090000D01*
X66770000Y-106630000D02*
X66770000Y-100090000D01*
%TO.C,D1*%
X64320000Y-93440000D02*
X64164000Y-93440000D01*
X66636000Y-93440000D02*
X66480000Y-93440000D01*
X64319939Y-96671397D02*
G75*
G02*
X64164484Y-93440000I1080061J1671397D01*
G01*
X64319951Y-96040910D02*
G75*
G02*
X64320000Y-93959039I1080049J1040910D01*
G01*
X66480000Y-93959039D02*
G75*
G02*
X66480049Y-96040910I-1080000J-1040961D01*
G01*
X66635516Y-93440000D02*
G75*
G02*
X66480061Y-96671397I-1235516J-1560000D01*
G01*
%TD*%
M02*
