%TF.GenerationSoftware,KiCad,Pcbnew,9.0.0+dfsg-1*%
%TF.CreationDate,2025-03-19T00:38:02+01:00*%
%TF.ProjectId,control-matrix-2,636f6e74-726f-46c2-9d6d-61747269782d,1.0*%
%TF.SameCoordinates,Original*%
%TF.FileFunction,Copper,L1,Top*%
%TF.FilePolarity,Positive*%
%FSLAX46Y46*%
G04 Gerber Fmt 4.6, Leading zero omitted, Abs format (unit mm)*
G04 Created by KiCad (PCBNEW 9.0.0+dfsg-1) date 2025-03-19 00:38:02*
%MOMM*%
%LPD*%
G01*
G04 APERTURE LIST*
%TA.AperFunction,ComponentPad*%
%ADD10C,2.250000*%
%TD*%
%TA.AperFunction,ComponentPad*%
%ADD11C,1.600000*%
%TD*%
%TA.AperFunction,ComponentPad*%
%ADD12O,1.600000X1.600000*%
%TD*%
%TA.AperFunction,ComponentPad*%
%ADD13R,1.800000X1.800000*%
%TD*%
%TA.AperFunction,ComponentPad*%
%ADD14C,1.800000*%
%TD*%
%TA.AperFunction,ComponentPad*%
%ADD15R,3.000000X3.000000*%
%TD*%
%TA.AperFunction,ComponentPad*%
%ADD16C,3.000000*%
%TD*%
%TA.AperFunction,Conductor*%
%ADD17C,0.400000*%
%TD*%
G04 APERTURE END LIST*
D10*
%TO.P,SW1,1,1*%
%TO.N,unconnected-(SW1-Pad1)*%
X94754220Y-105600000D03*
%TO.P,SW1,2,2*%
%TO.N,Net-(D1-K)*%
X89778230Y-102727110D03*
%TO.P,SW1,3,3*%
%TO.N,Net-(D2-K)*%
X86905330Y-97751110D03*
%TO.P,SW1,4,4*%
%TO.N,unconnected-(SW1-Pad4)*%
X86905330Y-92005330D03*
%TO.P,SW1,5,5*%
%TO.N,unconnected-(SW1-Pad5)*%
X89778230Y-87029340D03*
%TO.P,SW1,6,6*%
%TO.N,unconnected-(SW1-Pad6)*%
X94754220Y-84156450D03*
%TO.P,SW1,7,7*%
%TO.N,unconnected-(SW1-Pad7)*%
X100500000Y-84156450D03*
%TO.P,SW1,8,8*%
%TO.N,unconnected-(SW1-Pad8)*%
X105476000Y-87029340D03*
%TO.P,SW1,9,9*%
%TO.N,unconnected-(SW1-Pad9)*%
X108348890Y-92005329D03*
%TO.P,SW1,10,10*%
%TO.N,unconnected-(SW1-Pad10)*%
X108348890Y-97751110D03*
%TO.P,SW1,11,11*%
%TO.N,unconnected-(SW1-Pad11)*%
X105476000Y-102727110D03*
%TO.P,SW1,12,12*%
%TO.N,unconnected-(SW1-Pad12)*%
X100500000Y-105600000D03*
%TO.P,SW1,13,13*%
%TO.N,GND*%
X94904750Y-97600580D03*
%TD*%
D11*
%TO.P,R2,1*%
%TO.N,+12V*%
X80400000Y-107170000D03*
D12*
%TO.P,R2,2*%
%TO.N,Net-(D2-A)*%
X80400000Y-99550000D03*
%TD*%
D13*
%TO.P,D2,1,K*%
%TO.N,Net-(D2-K)*%
X80400000Y-93730000D03*
D14*
%TO.P,D2,2,A*%
%TO.N,Net-(D2-A)*%
X80400000Y-96270000D03*
%TD*%
D11*
%TO.P,R1,1*%
%TO.N,+12V*%
X65400000Y-107170000D03*
D12*
%TO.P,R1,2*%
%TO.N,Net-(D1-A)*%
X65400000Y-99550000D03*
%TD*%
D13*
%TO.P,D1,1,K*%
%TO.N,Net-(D1-K)*%
X65400000Y-93730000D03*
D14*
%TO.P,D1,2,A*%
%TO.N,Net-(D1-A)*%
X65400000Y-96270000D03*
%TD*%
D15*
%TO.P,J1,1,Pin_1*%
%TO.N,Net-(D1-K)*%
X62900000Y-84170000D03*
D16*
%TO.P,J1,2,Pin_2*%
X67980000Y-84170000D03*
%TD*%
D15*
%TO.P,J2,1,Pin_1*%
%TO.N,Net-(D2-K)*%
X77900000Y-84170000D03*
D16*
%TO.P,J2,2,Pin_2*%
X82980000Y-84170000D03*
%TD*%
D15*
%TO.P,J9,1,Pin_1*%
%TO.N,GND*%
X112060000Y-84100000D03*
D16*
%TO.P,J9,2,Pin_2*%
%TO.N,+12V*%
X117140000Y-84100000D03*
%TD*%
D17*
%TO.N,Net-(D1-K)*%
X67980000Y-84170000D02*
X65400000Y-86750000D01*
X68700000Y-95200000D02*
X68700000Y-101200000D01*
X65400000Y-93730000D02*
X67230000Y-93730000D01*
X67230000Y-93730000D02*
X68700000Y-95200000D01*
X70227110Y-102727110D02*
X89778230Y-102727110D01*
X62900000Y-84170000D02*
X67980000Y-84170000D01*
X65400000Y-86750000D02*
X65400000Y-93730000D01*
X68700000Y-101200000D02*
X70227110Y-102727110D01*
%TO.N,Net-(D1-A)*%
X65400000Y-96270000D02*
X65400000Y-99550000D01*
%TO.N,Net-(D2-A)*%
X80400000Y-96270000D02*
X80400000Y-99550000D01*
%TO.N,Net-(D2-K)*%
X80400000Y-86750000D02*
X80400000Y-93730000D01*
X82980000Y-84170000D02*
X80400000Y-86750000D01*
X77900000Y-84170000D02*
X82980000Y-84170000D01*
X82884220Y-93730000D02*
X86905330Y-97751110D01*
X80400000Y-93730000D02*
X82884220Y-93730000D01*
%TO.N,+12V*%
X82479000Y-109249000D02*
X110551000Y-109249000D01*
X67479000Y-109249000D02*
X77750000Y-109249000D01*
X117140000Y-102660000D02*
X117140000Y-84100000D01*
X78301000Y-109249000D02*
X80380000Y-107170000D01*
X110551000Y-109249000D02*
X117140000Y-102660000D01*
X80380000Y-107170000D02*
X80400000Y-107170000D01*
X77750000Y-109249000D02*
X78301000Y-109249000D01*
X65400000Y-107170000D02*
X67479000Y-109249000D01*
X80400000Y-107170000D02*
X82479000Y-109249000D01*
%TD*%
%TA.AperFunction,Conductor*%
%TO.N,GND*%
G36*
X119442539Y-80520185D02*
G01*
X119488294Y-80572989D01*
X119499500Y-80624500D01*
X119499500Y-109375500D01*
X119479815Y-109442539D01*
X119427011Y-109488294D01*
X119375500Y-109499500D01*
X111590519Y-109499500D01*
X111523480Y-109479815D01*
X111477725Y-109427011D01*
X111467781Y-109357853D01*
X111496806Y-109294297D01*
X111502838Y-109287819D01*
X117684112Y-103106545D01*
X117684114Y-103106543D01*
X117760775Y-102991811D01*
X117813580Y-102864329D01*
X117821298Y-102825527D01*
X117840500Y-102728993D01*
X117840500Y-86058022D01*
X117860185Y-85990983D01*
X117912989Y-85945228D01*
X117917048Y-85943461D01*
X118026685Y-85898048D01*
X118026685Y-85898047D01*
X118026697Y-85898043D01*
X118253803Y-85766924D01*
X118461851Y-85607282D01*
X118461855Y-85607277D01*
X118461860Y-85607274D01*
X118647274Y-85421860D01*
X118647277Y-85421855D01*
X118647282Y-85421851D01*
X118806924Y-85213803D01*
X118938043Y-84986697D01*
X118956148Y-84942989D01*
X119038394Y-84744428D01*
X119038398Y-84744419D01*
X119106270Y-84491116D01*
X119140500Y-84231120D01*
X119140500Y-83968880D01*
X119106270Y-83708884D01*
X119038398Y-83455581D01*
X119026351Y-83426497D01*
X118938046Y-83213309D01*
X118938041Y-83213299D01*
X118806924Y-82986196D01*
X118647281Y-82778148D01*
X118647274Y-82778140D01*
X118461860Y-82592726D01*
X118461851Y-82592718D01*
X118253803Y-82433075D01*
X118026700Y-82301958D01*
X118026690Y-82301953D01*
X117784428Y-82201605D01*
X117784421Y-82201603D01*
X117784419Y-82201602D01*
X117531116Y-82133730D01*
X117473339Y-82126123D01*
X117271127Y-82099500D01*
X117271120Y-82099500D01*
X117008880Y-82099500D01*
X117008872Y-82099500D01*
X116777772Y-82129926D01*
X116748884Y-82133730D01*
X116591473Y-82175908D01*
X116495581Y-82201602D01*
X116495571Y-82201605D01*
X116253309Y-82301953D01*
X116253299Y-82301958D01*
X116026196Y-82433075D01*
X115818148Y-82592718D01*
X115632718Y-82778148D01*
X115473075Y-82986196D01*
X115341958Y-83213299D01*
X115341953Y-83213309D01*
X115241605Y-83455571D01*
X115241602Y-83455581D01*
X115173730Y-83708885D01*
X115139500Y-83968872D01*
X115139500Y-84231127D01*
X115151423Y-84321684D01*
X115173730Y-84491116D01*
X115198745Y-84584472D01*
X115241602Y-84744418D01*
X115241605Y-84744428D01*
X115341953Y-84986690D01*
X115341958Y-84986700D01*
X115473075Y-85213803D01*
X115632718Y-85421851D01*
X115632726Y-85421860D01*
X115818140Y-85607274D01*
X115818148Y-85607281D01*
X116026196Y-85766924D01*
X116253299Y-85898041D01*
X116253314Y-85898048D01*
X116362952Y-85943461D01*
X116417356Y-85987301D01*
X116439421Y-86053595D01*
X116439500Y-86058022D01*
X116439500Y-102318481D01*
X116419815Y-102385520D01*
X116403181Y-102406162D01*
X110297162Y-108512181D01*
X110235839Y-108545666D01*
X110209481Y-108548500D01*
X82820519Y-108548500D01*
X82753480Y-108528815D01*
X82732838Y-108512181D01*
X81716805Y-107496148D01*
X81683320Y-107434825D01*
X81682013Y-107389068D01*
X81700500Y-107272349D01*
X81700500Y-107067648D01*
X81668477Y-106865465D01*
X81605218Y-106670776D01*
X81571503Y-106604607D01*
X81512287Y-106488390D01*
X81485810Y-106451947D01*
X81391971Y-106322786D01*
X81247213Y-106178028D01*
X81081613Y-106057715D01*
X81081612Y-106057714D01*
X81081610Y-106057713D01*
X81024653Y-106028691D01*
X80899223Y-105964781D01*
X80704534Y-105901522D01*
X80529995Y-105873878D01*
X80502352Y-105869500D01*
X80297648Y-105869500D01*
X80273329Y-105873351D01*
X80095465Y-105901522D01*
X79900776Y-105964781D01*
X79718386Y-106057715D01*
X79552786Y-106178028D01*
X79408028Y-106322786D01*
X79287715Y-106488386D01*
X79194781Y-106670776D01*
X79131522Y-106865465D01*
X79099500Y-107067648D01*
X79099500Y-107272357D01*
X79115251Y-107371803D01*
X79106297Y-107441096D01*
X79080459Y-107478882D01*
X78047162Y-108512181D01*
X77985839Y-108545666D01*
X77959481Y-108548500D01*
X67820519Y-108548500D01*
X67753480Y-108528815D01*
X67732838Y-108512181D01*
X66716805Y-107496148D01*
X66683320Y-107434825D01*
X66682013Y-107389068D01*
X66700500Y-107272349D01*
X66700500Y-107067648D01*
X66668477Y-106865465D01*
X66605218Y-106670776D01*
X66571503Y-106604607D01*
X66512287Y-106488390D01*
X66485810Y-106451947D01*
X66391971Y-106322786D01*
X66247213Y-106178028D01*
X66081613Y-106057715D01*
X66081612Y-106057714D01*
X66081610Y-106057713D01*
X66024653Y-106028691D01*
X65899223Y-105964781D01*
X65704534Y-105901522D01*
X65529995Y-105873878D01*
X65502352Y-105869500D01*
X65297648Y-105869500D01*
X65273329Y-105873351D01*
X65095465Y-105901522D01*
X64900776Y-105964781D01*
X64718386Y-106057715D01*
X64552786Y-106178028D01*
X64408028Y-106322786D01*
X64287715Y-106488386D01*
X64194781Y-106670776D01*
X64131522Y-106865465D01*
X64099500Y-107067648D01*
X64099500Y-107272351D01*
X64131522Y-107474534D01*
X64194781Y-107669223D01*
X64287715Y-107851613D01*
X64408028Y-108017213D01*
X64552786Y-108161971D01*
X64707749Y-108274556D01*
X64718390Y-108282287D01*
X64834607Y-108341503D01*
X64900776Y-108375218D01*
X64900778Y-108375218D01*
X64900781Y-108375220D01*
X65005137Y-108409127D01*
X65095465Y-108438477D01*
X65196557Y-108454488D01*
X65297648Y-108470500D01*
X65297649Y-108470500D01*
X65502350Y-108470500D01*
X65502352Y-108470500D01*
X65619068Y-108452013D01*
X65688362Y-108460967D01*
X65726148Y-108486805D01*
X66527162Y-109287819D01*
X66560647Y-109349142D01*
X66555663Y-109418834D01*
X66513791Y-109474767D01*
X66448327Y-109499184D01*
X66439481Y-109499500D01*
X60624500Y-109499500D01*
X60557461Y-109479815D01*
X60511706Y-109427011D01*
X60500500Y-109375500D01*
X60500500Y-105472070D01*
X93128720Y-105472070D01*
X93128720Y-105727929D01*
X93168746Y-105980640D01*
X93247808Y-106223972D01*
X93247809Y-106223975D01*
X93363970Y-106451950D01*
X93514352Y-106658935D01*
X93514356Y-106658940D01*
X93695279Y-106839863D01*
X93695284Y-106839867D01*
X93875827Y-106971038D01*
X93902273Y-106990252D01*
X94051300Y-107066185D01*
X94130244Y-107106410D01*
X94130247Y-107106411D01*
X94251913Y-107145942D01*
X94373581Y-107185474D01*
X94626290Y-107225500D01*
X94626291Y-107225500D01*
X94882149Y-107225500D01*
X94882150Y-107225500D01*
X95134859Y-107185474D01*
X95378195Y-107106410D01*
X95606167Y-106990252D01*
X95813162Y-106839862D01*
X95994082Y-106658942D01*
X96144472Y-106451947D01*
X96260630Y-106223975D01*
X96339694Y-105980639D01*
X96379720Y-105727930D01*
X96379720Y-105472070D01*
X98874500Y-105472070D01*
X98874500Y-105727929D01*
X98914526Y-105980640D01*
X98993588Y-106223972D01*
X98993589Y-106223975D01*
X99109750Y-106451950D01*
X99260132Y-106658935D01*
X99260136Y-106658940D01*
X99441059Y-106839863D01*
X99441064Y-106839867D01*
X99621607Y-106971038D01*
X99648053Y-106990252D01*
X99797080Y-107066185D01*
X99876024Y-107106410D01*
X99876027Y-107106411D01*
X99997693Y-107145942D01*
X100119361Y-107185474D01*
X100372070Y-107225500D01*
X100372071Y-107225500D01*
X100627929Y-107225500D01*
X100627930Y-107225500D01*
X100880639Y-107185474D01*
X101123975Y-107106410D01*
X101351947Y-106990252D01*
X101558942Y-106839862D01*
X101739862Y-106658942D01*
X101890252Y-106451947D01*
X102006410Y-106223975D01*
X102085474Y-105980639D01*
X102125500Y-105727930D01*
X102125500Y-105472070D01*
X102085474Y-105219361D01*
X102006410Y-104976025D01*
X102006410Y-104976024D01*
X101966185Y-104897080D01*
X101890252Y-104748053D01*
X101871038Y-104721607D01*
X101739867Y-104541064D01*
X101739863Y-104541059D01*
X101558940Y-104360136D01*
X101558935Y-104360132D01*
X101351950Y-104209750D01*
X101351949Y-104209749D01*
X101351947Y-104209748D01*
X101278910Y-104172533D01*
X101123975Y-104093589D01*
X101123972Y-104093588D01*
X100880640Y-104014526D01*
X100754284Y-103994513D01*
X100627930Y-103974500D01*
X100372070Y-103974500D01*
X100287833Y-103987842D01*
X100119359Y-104014526D01*
X99876027Y-104093588D01*
X99876024Y-104093589D01*
X99648049Y-104209750D01*
X99441064Y-104360132D01*
X99441059Y-104360136D01*
X99260136Y-104541059D01*
X99260132Y-104541064D01*
X99109750Y-104748049D01*
X98993589Y-104976024D01*
X98993588Y-104976027D01*
X98914526Y-105219359D01*
X98874500Y-105472070D01*
X96379720Y-105472070D01*
X96339694Y-105219361D01*
X96260630Y-104976025D01*
X96260630Y-104976024D01*
X96220405Y-104897080D01*
X96144472Y-104748053D01*
X96125258Y-104721607D01*
X95994087Y-104541064D01*
X95994083Y-104541059D01*
X95813160Y-104360136D01*
X95813155Y-104360132D01*
X95606170Y-104209750D01*
X95606169Y-104209749D01*
X95606167Y-104209748D01*
X95533130Y-104172533D01*
X95378195Y-104093589D01*
X95378192Y-104093588D01*
X95134860Y-104014526D01*
X95008504Y-103994513D01*
X94882150Y-103974500D01*
X94626290Y-103974500D01*
X94542053Y-103987842D01*
X94373579Y-104014526D01*
X94130247Y-104093588D01*
X94130244Y-104093589D01*
X93902269Y-104209750D01*
X93695284Y-104360132D01*
X93695279Y-104360136D01*
X93514356Y-104541059D01*
X93514352Y-104541064D01*
X93363970Y-104748049D01*
X93247809Y-104976024D01*
X93247808Y-104976027D01*
X93168746Y-105219359D01*
X93128720Y-105472070D01*
X60500500Y-105472070D01*
X60500500Y-82622135D01*
X60899500Y-82622135D01*
X60899500Y-85717870D01*
X60899501Y-85717876D01*
X60905908Y-85777483D01*
X60956202Y-85912328D01*
X60956206Y-85912335D01*
X61042452Y-86027544D01*
X61042455Y-86027547D01*
X61157664Y-86113793D01*
X61157671Y-86113797D01*
X61292517Y-86164091D01*
X61292516Y-86164091D01*
X61299444Y-86164835D01*
X61352127Y-86170500D01*
X64447872Y-86170499D01*
X64507483Y-86164091D01*
X64642331Y-86113796D01*
X64757546Y-86027546D01*
X64843796Y-85912331D01*
X64894091Y-85777483D01*
X64900500Y-85717873D01*
X64900500Y-84994500D01*
X64920185Y-84927461D01*
X64972989Y-84881706D01*
X65024500Y-84870500D01*
X65989480Y-84870500D01*
X66056519Y-84890185D01*
X66102274Y-84942989D01*
X66112218Y-85012147D01*
X66083193Y-85075703D01*
X66077161Y-85082181D01*
X64855890Y-86303451D01*
X64855887Y-86303454D01*
X64787793Y-86405366D01*
X64787792Y-86405367D01*
X64779227Y-86418184D01*
X64779222Y-86418193D01*
X64726421Y-86545667D01*
X64726418Y-86545677D01*
X64699500Y-86681004D01*
X64699500Y-92205500D01*
X64679815Y-92272539D01*
X64627011Y-92318294D01*
X64575501Y-92329500D01*
X64452130Y-92329500D01*
X64452123Y-92329501D01*
X64392516Y-92335908D01*
X64257671Y-92386202D01*
X64257664Y-92386206D01*
X64142455Y-92472452D01*
X64142452Y-92472455D01*
X64056206Y-92587664D01*
X64056202Y-92587671D01*
X64005908Y-92722517D01*
X63999501Y-92782116D01*
X63999501Y-92782123D01*
X63999500Y-92782135D01*
X63999500Y-94677870D01*
X63999501Y-94677876D01*
X64005908Y-94737483D01*
X64056202Y-94872328D01*
X64056206Y-94872335D01*
X64142452Y-94987544D01*
X64142455Y-94987547D01*
X64257664Y-95073793D01*
X64257671Y-95073797D01*
X64337580Y-95103601D01*
X64393514Y-95145472D01*
X64417931Y-95210936D01*
X64403080Y-95279209D01*
X64381929Y-95307463D01*
X64331756Y-95357636D01*
X64331752Y-95357641D01*
X64202187Y-95535974D01*
X64102104Y-95732393D01*
X64102103Y-95732396D01*
X64033985Y-95942047D01*
X64033985Y-95942049D01*
X63999500Y-96159778D01*
X63999500Y-96380222D01*
X64001724Y-96394265D01*
X64033985Y-96597952D01*
X64102103Y-96807603D01*
X64102104Y-96807606D01*
X64202187Y-97004025D01*
X64331752Y-97182358D01*
X64331756Y-97182363D01*
X64331758Y-97182365D01*
X64487635Y-97338242D01*
X64648386Y-97455034D01*
X64691051Y-97510362D01*
X64699500Y-97555351D01*
X64699500Y-98388255D01*
X64679815Y-98455294D01*
X64648385Y-98488573D01*
X64552787Y-98558028D01*
X64552782Y-98558032D01*
X64408028Y-98702786D01*
X64287715Y-98868386D01*
X64194781Y-99050776D01*
X64131522Y-99245465D01*
X64099500Y-99447648D01*
X64099500Y-99652351D01*
X64131522Y-99854534D01*
X64194781Y-100049223D01*
X64287715Y-100231613D01*
X64408028Y-100397213D01*
X64552786Y-100541971D01*
X64707749Y-100654556D01*
X64718390Y-100662287D01*
X64834607Y-100721503D01*
X64900776Y-100755218D01*
X64900778Y-100755218D01*
X64900781Y-100755220D01*
X65005137Y-100789127D01*
X65095465Y-100818477D01*
X65196557Y-100834488D01*
X65297648Y-100850500D01*
X65297649Y-100850500D01*
X65502351Y-100850500D01*
X65502352Y-100850500D01*
X65704534Y-100818477D01*
X65899219Y-100755220D01*
X66081610Y-100662287D01*
X66174590Y-100594732D01*
X66247213Y-100541971D01*
X66247215Y-100541968D01*
X66247219Y-100541966D01*
X66391966Y-100397219D01*
X66391968Y-100397215D01*
X66391971Y-100397213D01*
X66444732Y-100324590D01*
X66512287Y-100231610D01*
X66605220Y-100049219D01*
X66668477Y-99854534D01*
X66700500Y-99652352D01*
X66700500Y-99447648D01*
X66682909Y-99336583D01*
X66668477Y-99245465D01*
X66605218Y-99050776D01*
X66534878Y-98912728D01*
X66512287Y-98868390D01*
X66504556Y-98857749D01*
X66391971Y-98702786D01*
X66247217Y-98558032D01*
X66247212Y-98558028D01*
X66151615Y-98488573D01*
X66108949Y-98433243D01*
X66100500Y-98388255D01*
X66100500Y-97555351D01*
X66120185Y-97488312D01*
X66151611Y-97455035D01*
X66312365Y-97338242D01*
X66468242Y-97182365D01*
X66597815Y-97004022D01*
X66697895Y-96807606D01*
X66766015Y-96597951D01*
X66800500Y-96380222D01*
X66800500Y-96159778D01*
X66766015Y-95942049D01*
X66697895Y-95732394D01*
X66697895Y-95732393D01*
X66628451Y-95596104D01*
X66597815Y-95535978D01*
X66538137Y-95453838D01*
X66468247Y-95357641D01*
X66468243Y-95357636D01*
X66418071Y-95307464D01*
X66384586Y-95246141D01*
X66389570Y-95176449D01*
X66431442Y-95120516D01*
X66462420Y-95103601D01*
X66542326Y-95073798D01*
X66542326Y-95073797D01*
X66542331Y-95073796D01*
X66657546Y-94987546D01*
X66743796Y-94872331D01*
X66794091Y-94737483D01*
X66800500Y-94677873D01*
X66800500Y-94590519D01*
X66820185Y-94523480D01*
X66872989Y-94477725D01*
X66942147Y-94467781D01*
X67005703Y-94496806D01*
X67012181Y-94502838D01*
X67963181Y-95453838D01*
X67996666Y-95515161D01*
X67999500Y-95541519D01*
X67999500Y-101131006D01*
X67999500Y-101268994D01*
X67999500Y-101268996D01*
X67999499Y-101268996D01*
X68026418Y-101404322D01*
X68026421Y-101404332D01*
X68079222Y-101531807D01*
X68155887Y-101646545D01*
X69780564Y-103271222D01*
X69895302Y-103347887D01*
X70022777Y-103400688D01*
X70022782Y-103400690D01*
X70022786Y-103400690D01*
X70022787Y-103400691D01*
X70158113Y-103427610D01*
X70158116Y-103427610D01*
X70158117Y-103427610D01*
X88234824Y-103427610D01*
X88301863Y-103447295D01*
X88345309Y-103495315D01*
X88387980Y-103579060D01*
X88538362Y-103786045D01*
X88538366Y-103786050D01*
X88719289Y-103966973D01*
X88719294Y-103966977D01*
X88899837Y-104098148D01*
X88926283Y-104117362D01*
X89075310Y-104193295D01*
X89154254Y-104233520D01*
X89154257Y-104233521D01*
X89275923Y-104273052D01*
X89397591Y-104312584D01*
X89650300Y-104352610D01*
X89650301Y-104352610D01*
X89906159Y-104352610D01*
X89906160Y-104352610D01*
X90158869Y-104312584D01*
X90402205Y-104233520D01*
X90630177Y-104117362D01*
X90837172Y-103966972D01*
X91018092Y-103786052D01*
X91168482Y-103579057D01*
X91284640Y-103351085D01*
X91363704Y-103107749D01*
X91403730Y-102855040D01*
X91403730Y-102599180D01*
X103850500Y-102599180D01*
X103850500Y-102855039D01*
X103890526Y-103107750D01*
X103969588Y-103351082D01*
X103969589Y-103351085D01*
X104085750Y-103579060D01*
X104236132Y-103786045D01*
X104236136Y-103786050D01*
X104417059Y-103966973D01*
X104417064Y-103966977D01*
X104597607Y-104098148D01*
X104624053Y-104117362D01*
X104773080Y-104193295D01*
X104852024Y-104233520D01*
X104852027Y-104233521D01*
X104973693Y-104273052D01*
X105095361Y-104312584D01*
X105348070Y-104352610D01*
X105348071Y-104352610D01*
X105603929Y-104352610D01*
X105603930Y-104352610D01*
X105856639Y-104312584D01*
X106099975Y-104233520D01*
X106327947Y-104117362D01*
X106534942Y-103966972D01*
X106715862Y-103786052D01*
X106866252Y-103579057D01*
X106982410Y-103351085D01*
X107061474Y-103107749D01*
X107101500Y-102855040D01*
X107101500Y-102599180D01*
X107061474Y-102346471D01*
X106982410Y-102103135D01*
X106982410Y-102103134D01*
X106924913Y-101990291D01*
X106866252Y-101875163D01*
X106847038Y-101848717D01*
X106715867Y-101668174D01*
X106715863Y-101668169D01*
X106534940Y-101487246D01*
X106534935Y-101487242D01*
X106327950Y-101336860D01*
X106327949Y-101336859D01*
X106327947Y-101336858D01*
X106254910Y-101299643D01*
X106099975Y-101220699D01*
X106099972Y-101220698D01*
X105856640Y-101141636D01*
X105730284Y-101121623D01*
X105603930Y-101101610D01*
X105348070Y-101101610D01*
X105263833Y-101114952D01*
X105095359Y-101141636D01*
X104852027Y-101220698D01*
X104852024Y-101220699D01*
X104624049Y-101336860D01*
X104417064Y-101487242D01*
X104417059Y-101487246D01*
X104236136Y-101668169D01*
X104236132Y-101668174D01*
X104085750Y-101875159D01*
X103969589Y-102103134D01*
X103969588Y-102103137D01*
X103890526Y-102346469D01*
X103850500Y-102599180D01*
X91403730Y-102599180D01*
X91363704Y-102346471D01*
X91284640Y-102103135D01*
X91284640Y-102103134D01*
X91227143Y-101990291D01*
X91168482Y-101875163D01*
X91149268Y-101848717D01*
X91018097Y-101668174D01*
X91018093Y-101668169D01*
X90837170Y-101487246D01*
X90837165Y-101487242D01*
X90630180Y-101336860D01*
X90630179Y-101336859D01*
X90630177Y-101336858D01*
X90557140Y-101299643D01*
X90402205Y-101220699D01*
X90402202Y-101220698D01*
X90158870Y-101141636D01*
X90032514Y-101121623D01*
X89906160Y-101101610D01*
X89650300Y-101101610D01*
X89566063Y-101114952D01*
X89397589Y-101141636D01*
X89154257Y-101220698D01*
X89154254Y-101220699D01*
X88926279Y-101336860D01*
X88719294Y-101487242D01*
X88719289Y-101487246D01*
X88538366Y-101668169D01*
X88538362Y-101668174D01*
X88387980Y-101875159D01*
X88345309Y-101958905D01*
X88297334Y-102009701D01*
X88234824Y-102026610D01*
X70568629Y-102026610D01*
X70501590Y-102006925D01*
X70480948Y-101990291D01*
X69436819Y-100946162D01*
X69403334Y-100884839D01*
X69400500Y-100858481D01*
X69400500Y-95131006D01*
X69400052Y-95128755D01*
X69400051Y-95128754D01*
X69399124Y-95124091D01*
X69373580Y-94995672D01*
X69325133Y-94878711D01*
X71149500Y-94878711D01*
X71149500Y-95121288D01*
X71181161Y-95361785D01*
X71243947Y-95596104D01*
X71336773Y-95820205D01*
X71336776Y-95820212D01*
X71458064Y-96030289D01*
X71458066Y-96030292D01*
X71458067Y-96030293D01*
X71605733Y-96222736D01*
X71605739Y-96222743D01*
X71777256Y-96394260D01*
X71777263Y-96394266D01*
X71890321Y-96481018D01*
X71969711Y-96541936D01*
X72179788Y-96663224D01*
X72249668Y-96692169D01*
X72386604Y-96748890D01*
X72403900Y-96756054D01*
X72638211Y-96818838D01*
X72818586Y-96842584D01*
X72878711Y-96850500D01*
X72878712Y-96850500D01*
X73121289Y-96850500D01*
X73169388Y-96844167D01*
X73361789Y-96818838D01*
X73596100Y-96756054D01*
X73820212Y-96663224D01*
X74030289Y-96541936D01*
X74222738Y-96394265D01*
X74394265Y-96222738D01*
X74541936Y-96030289D01*
X74663224Y-95820212D01*
X74756054Y-95596100D01*
X74818838Y-95361789D01*
X74850500Y-95121288D01*
X74850500Y-94878712D01*
X74849660Y-94872335D01*
X74824060Y-94677876D01*
X74818838Y-94638211D01*
X74756054Y-94403900D01*
X74663224Y-94179788D01*
X74541936Y-93969711D01*
X74394265Y-93777262D01*
X74394260Y-93777256D01*
X74222743Y-93605739D01*
X74222736Y-93605733D01*
X74030293Y-93458067D01*
X74030292Y-93458066D01*
X74030289Y-93458064D01*
X73820212Y-93336776D01*
X73820205Y-93336773D01*
X73596104Y-93243947D01*
X73478944Y-93212554D01*
X73361789Y-93181162D01*
X73361788Y-93181161D01*
X73361785Y-93181161D01*
X73121289Y-93149500D01*
X73121288Y-93149500D01*
X72878712Y-93149500D01*
X72878711Y-93149500D01*
X72638214Y-93181161D01*
X72403895Y-93243947D01*
X72179794Y-93336773D01*
X72179785Y-93336777D01*
X71969706Y-93458067D01*
X71777263Y-93605733D01*
X71777256Y-93605739D01*
X71605739Y-93777256D01*
X71605733Y-93777263D01*
X71458067Y-93969706D01*
X71336777Y-94179785D01*
X71336773Y-94179794D01*
X71243947Y-94403895D01*
X71181161Y-94638214D01*
X71149500Y-94878711D01*
X69325133Y-94878711D01*
X69320775Y-94868189D01*
X69244114Y-94753457D01*
X69244112Y-94753454D01*
X67676545Y-93185887D01*
X67561807Y-93109222D01*
X67434332Y-93056421D01*
X67434322Y-93056418D01*
X67298996Y-93029500D01*
X67298994Y-93029500D01*
X67298993Y-93029500D01*
X66924499Y-93029500D01*
X66857460Y-93009815D01*
X66811705Y-92957011D01*
X66800499Y-92905500D01*
X66800499Y-92782129D01*
X66800498Y-92782123D01*
X66800497Y-92782116D01*
X66794091Y-92722517D01*
X66743796Y-92587669D01*
X66743795Y-92587668D01*
X66743793Y-92587664D01*
X66657547Y-92472455D01*
X66657544Y-92472452D01*
X66542335Y-92386206D01*
X66542328Y-92386202D01*
X66407482Y-92335908D01*
X66407483Y-92335908D01*
X66347883Y-92329501D01*
X66347881Y-92329500D01*
X66347873Y-92329500D01*
X66347865Y-92329500D01*
X66224500Y-92329500D01*
X66157461Y-92309815D01*
X66111706Y-92257011D01*
X66100500Y-92205500D01*
X66100500Y-87091518D01*
X66120185Y-87024479D01*
X66136814Y-87003841D01*
X67090799Y-86049856D01*
X67152120Y-86016373D01*
X67221811Y-86021357D01*
X67225860Y-86022949D01*
X67335581Y-86068398D01*
X67588884Y-86136270D01*
X67837188Y-86168960D01*
X67848864Y-86170498D01*
X67848880Y-86170500D01*
X67848887Y-86170500D01*
X68111113Y-86170500D01*
X68111120Y-86170500D01*
X68371116Y-86136270D01*
X68624419Y-86068398D01*
X68866697Y-85968043D01*
X69093803Y-85836924D01*
X69301851Y-85677282D01*
X69301855Y-85677277D01*
X69301860Y-85677274D01*
X69487274Y-85491860D01*
X69487277Y-85491855D01*
X69487282Y-85491851D01*
X69646924Y-85283803D01*
X69778043Y-85056697D01*
X69878398Y-84814419D01*
X69946270Y-84561116D01*
X69980500Y-84301120D01*
X69980500Y-84038880D01*
X69946270Y-83778884D01*
X69878398Y-83525581D01*
X69878394Y-83525571D01*
X69778046Y-83283309D01*
X69778041Y-83283299D01*
X69646924Y-83056196D01*
X69487281Y-82848148D01*
X69487274Y-82848140D01*
X69301860Y-82662726D01*
X69301851Y-82662718D01*
X69248963Y-82622135D01*
X75899500Y-82622135D01*
X75899500Y-85717870D01*
X75899501Y-85717876D01*
X75905908Y-85777483D01*
X75956202Y-85912328D01*
X75956206Y-85912335D01*
X76042452Y-86027544D01*
X76042455Y-86027547D01*
X76157664Y-86113793D01*
X76157671Y-86113797D01*
X76292517Y-86164091D01*
X76292516Y-86164091D01*
X76299444Y-86164835D01*
X76352127Y-86170500D01*
X79447872Y-86170499D01*
X79507483Y-86164091D01*
X79642331Y-86113796D01*
X79757546Y-86027546D01*
X79843796Y-85912331D01*
X79894091Y-85777483D01*
X79900500Y-85717873D01*
X79900500Y-84994500D01*
X79920185Y-84927461D01*
X79972989Y-84881706D01*
X80024500Y-84870500D01*
X80989480Y-84870500D01*
X81056519Y-84890185D01*
X81102274Y-84942989D01*
X81112218Y-85012147D01*
X81083193Y-85075703D01*
X81077161Y-85082181D01*
X79855890Y-86303451D01*
X79855887Y-86303454D01*
X79787793Y-86405366D01*
X79787792Y-86405367D01*
X79779227Y-86418184D01*
X79779222Y-86418193D01*
X79726421Y-86545667D01*
X79726418Y-86545677D01*
X79699500Y-86681004D01*
X79699500Y-92205500D01*
X79679815Y-92272539D01*
X79627011Y-92318294D01*
X79575501Y-92329500D01*
X79452130Y-92329500D01*
X79452123Y-92329501D01*
X79392516Y-92335908D01*
X79257671Y-92386202D01*
X79257664Y-92386206D01*
X79142455Y-92472452D01*
X79142452Y-92472455D01*
X79056206Y-92587664D01*
X79056202Y-92587671D01*
X79005908Y-92722517D01*
X78999501Y-92782116D01*
X78999501Y-92782123D01*
X78999500Y-92782135D01*
X78999500Y-94677870D01*
X78999501Y-94677876D01*
X79005908Y-94737483D01*
X79056202Y-94872328D01*
X79056206Y-94872335D01*
X79142452Y-94987544D01*
X79142455Y-94987547D01*
X79257664Y-95073793D01*
X79257671Y-95073797D01*
X79337580Y-95103601D01*
X79393514Y-95145472D01*
X79417931Y-95210936D01*
X79403080Y-95279209D01*
X79381929Y-95307463D01*
X79331756Y-95357636D01*
X79331752Y-95357641D01*
X79202187Y-95535974D01*
X79102104Y-95732393D01*
X79102103Y-95732396D01*
X79033985Y-95942047D01*
X79033985Y-95942049D01*
X78999500Y-96159778D01*
X78999500Y-96380222D01*
X79001724Y-96394265D01*
X79033985Y-96597952D01*
X79102103Y-96807603D01*
X79102104Y-96807606D01*
X79202187Y-97004025D01*
X79331752Y-97182358D01*
X79331756Y-97182363D01*
X79331758Y-97182365D01*
X79487635Y-97338242D01*
X79648386Y-97455034D01*
X79691051Y-97510362D01*
X79699500Y-97555351D01*
X79699500Y-98388255D01*
X79679815Y-98455294D01*
X79648385Y-98488573D01*
X79552787Y-98558028D01*
X79552782Y-98558032D01*
X79408028Y-98702786D01*
X79287715Y-98868386D01*
X79194781Y-99050776D01*
X79131522Y-99245465D01*
X79099500Y-99447648D01*
X79099500Y-99652351D01*
X79131522Y-99854534D01*
X79194781Y-100049223D01*
X79287715Y-100231613D01*
X79408028Y-100397213D01*
X79552786Y-100541971D01*
X79707749Y-100654556D01*
X79718390Y-100662287D01*
X79834607Y-100721503D01*
X79900776Y-100755218D01*
X79900778Y-100755218D01*
X79900781Y-100755220D01*
X80005137Y-100789127D01*
X80095465Y-100818477D01*
X80196557Y-100834488D01*
X80297648Y-100850500D01*
X80297649Y-100850500D01*
X80502351Y-100850500D01*
X80502352Y-100850500D01*
X80704534Y-100818477D01*
X80899219Y-100755220D01*
X81081610Y-100662287D01*
X81174590Y-100594732D01*
X81247213Y-100541971D01*
X81247215Y-100541968D01*
X81247219Y-100541966D01*
X81391966Y-100397219D01*
X81391968Y-100397215D01*
X81391971Y-100397213D01*
X81444732Y-100324590D01*
X81512287Y-100231610D01*
X81605220Y-100049219D01*
X81668477Y-99854534D01*
X81700500Y-99652352D01*
X81700500Y-99447648D01*
X81682909Y-99336583D01*
X81668477Y-99245465D01*
X81605218Y-99050776D01*
X81534878Y-98912728D01*
X81512287Y-98868390D01*
X81504556Y-98857749D01*
X81391971Y-98702786D01*
X81247217Y-98558032D01*
X81247212Y-98558028D01*
X81151615Y-98488573D01*
X81108949Y-98433243D01*
X81100500Y-98388255D01*
X81100500Y-97555351D01*
X81120185Y-97488312D01*
X81151611Y-97455035D01*
X81312365Y-97338242D01*
X81468242Y-97182365D01*
X81597815Y-97004022D01*
X81697895Y-96807606D01*
X81766015Y-96597951D01*
X81800500Y-96380222D01*
X81800500Y-96159778D01*
X81766015Y-95942049D01*
X81697895Y-95732394D01*
X81697895Y-95732393D01*
X81628451Y-95596104D01*
X81597815Y-95535978D01*
X81538137Y-95453838D01*
X81468247Y-95357641D01*
X81468243Y-95357636D01*
X81418071Y-95307464D01*
X81384586Y-95246141D01*
X81389570Y-95176449D01*
X81431442Y-95120516D01*
X81462420Y-95103601D01*
X81542326Y-95073798D01*
X81542326Y-95073797D01*
X81542331Y-95073796D01*
X81657546Y-94987546D01*
X81743796Y-94872331D01*
X81794091Y-94737483D01*
X81800500Y-94677873D01*
X81800500Y-94554500D01*
X81820185Y-94487461D01*
X81872989Y-94441706D01*
X81924500Y-94430500D01*
X82542701Y-94430500D01*
X82609740Y-94450185D01*
X82630382Y-94466819D01*
X85318648Y-97155085D01*
X85352133Y-97216408D01*
X85348898Y-97281083D01*
X85319856Y-97370467D01*
X85279830Y-97623180D01*
X85279830Y-97879039D01*
X85319856Y-98131750D01*
X85398918Y-98375082D01*
X85398919Y-98375085D01*
X85456745Y-98488573D01*
X85492719Y-98559176D01*
X85515080Y-98603060D01*
X85665462Y-98810045D01*
X85665466Y-98810050D01*
X85846389Y-98990973D01*
X85846394Y-98990977D01*
X86005438Y-99106528D01*
X86053383Y-99141362D01*
X86202410Y-99217295D01*
X86281354Y-99257520D01*
X86281357Y-99257521D01*
X86403023Y-99297052D01*
X86524691Y-99336584D01*
X86777400Y-99376610D01*
X86777401Y-99376610D01*
X87033259Y-99376610D01*
X87033260Y-99376610D01*
X87285969Y-99336584D01*
X87529305Y-99257520D01*
X87757277Y-99141362D01*
X87964272Y-98990972D01*
X88145192Y-98810052D01*
X88295582Y-98603057D01*
X88411740Y-98375085D01*
X88490804Y-98131749D01*
X88530830Y-97879040D01*
X88530830Y-97623180D01*
X88520087Y-97555351D01*
X88509295Y-97487216D01*
X88506994Y-97472690D01*
X93279750Y-97472690D01*
X93279750Y-97728469D01*
X93319763Y-97981103D01*
X93398801Y-98224361D01*
X93398802Y-98224364D01*
X93514925Y-98452266D01*
X93592600Y-98559175D01*
X93592600Y-98559176D01*
X94227171Y-97924604D01*
X94240109Y-97955838D01*
X94322187Y-98078677D01*
X94426653Y-98183143D01*
X94549492Y-98265221D01*
X94580724Y-98278157D01*
X93946152Y-98912728D01*
X94053063Y-98990404D01*
X94280965Y-99106527D01*
X94280968Y-99106528D01*
X94524226Y-99185566D01*
X94776861Y-99225580D01*
X95032639Y-99225580D01*
X95285273Y-99185566D01*
X95528531Y-99106528D01*
X95528534Y-99106527D01*
X95756435Y-98990405D01*
X95863345Y-98912728D01*
X95863346Y-98912728D01*
X95228775Y-98278158D01*
X95260008Y-98265221D01*
X95382847Y-98183143D01*
X95487313Y-98078677D01*
X95569391Y-97955838D01*
X95582328Y-97924605D01*
X96216898Y-98559176D01*
X96216898Y-98559175D01*
X96294575Y-98452265D01*
X96410697Y-98224364D01*
X96410698Y-98224361D01*
X96489736Y-97981103D01*
X96529750Y-97728469D01*
X96529750Y-97623180D01*
X106723390Y-97623180D01*
X106723390Y-97879039D01*
X106763416Y-98131750D01*
X106842478Y-98375082D01*
X106842479Y-98375085D01*
X106900305Y-98488573D01*
X106936279Y-98559176D01*
X106958640Y-98603060D01*
X107109022Y-98810045D01*
X107109026Y-98810050D01*
X107289949Y-98990973D01*
X107289954Y-98990977D01*
X107448998Y-99106528D01*
X107496943Y-99141362D01*
X107645970Y-99217295D01*
X107724914Y-99257520D01*
X107724917Y-99257521D01*
X107846583Y-99297052D01*
X107968251Y-99336584D01*
X108220960Y-99376610D01*
X108220961Y-99376610D01*
X108476819Y-99376610D01*
X108476820Y-99376610D01*
X108729529Y-99336584D01*
X108972865Y-99257520D01*
X109200837Y-99141362D01*
X109407832Y-98990972D01*
X109588752Y-98810052D01*
X109739142Y-98603057D01*
X109855300Y-98375085D01*
X109934364Y-98131749D01*
X109974390Y-97879040D01*
X109974390Y-97623180D01*
X109934364Y-97370471D01*
X109873243Y-97182358D01*
X109855301Y-97127137D01*
X109855300Y-97127134D01*
X109792572Y-97004025D01*
X109739142Y-96899163D01*
X109635168Y-96756054D01*
X109588757Y-96692174D01*
X109588753Y-96692169D01*
X109407830Y-96511246D01*
X109407825Y-96511242D01*
X109200840Y-96360860D01*
X109200839Y-96360859D01*
X109200837Y-96360858D01*
X109058690Y-96288430D01*
X108972865Y-96244699D01*
X108972862Y-96244698D01*
X108729530Y-96165636D01*
X108603174Y-96145623D01*
X108476820Y-96125610D01*
X108220960Y-96125610D01*
X108136723Y-96138952D01*
X107968249Y-96165636D01*
X107724917Y-96244698D01*
X107724914Y-96244699D01*
X107496939Y-96360860D01*
X107289954Y-96511242D01*
X107289949Y-96511246D01*
X107109026Y-96692169D01*
X107109022Y-96692174D01*
X106958640Y-96899159D01*
X106842479Y-97127134D01*
X106842478Y-97127137D01*
X106763416Y-97370469D01*
X106723390Y-97623180D01*
X96529750Y-97623180D01*
X96529750Y-97472690D01*
X96489736Y-97220056D01*
X96410698Y-96976798D01*
X96410697Y-96976795D01*
X96294574Y-96748893D01*
X96216898Y-96641983D01*
X96216898Y-96641982D01*
X95582327Y-97276553D01*
X95569391Y-97245322D01*
X95487313Y-97122483D01*
X95382847Y-97018017D01*
X95260008Y-96935939D01*
X95228774Y-96923001D01*
X95863346Y-96288430D01*
X95756436Y-96210755D01*
X95528534Y-96094632D01*
X95528531Y-96094631D01*
X95285273Y-96015593D01*
X95032639Y-95975580D01*
X94776861Y-95975580D01*
X94524226Y-96015593D01*
X94280968Y-96094631D01*
X94280965Y-96094632D01*
X94053060Y-96210757D01*
X93946153Y-96288429D01*
X93946152Y-96288430D01*
X94580724Y-96923001D01*
X94549492Y-96935939D01*
X94426653Y-97018017D01*
X94322187Y-97122483D01*
X94240109Y-97245322D01*
X94227171Y-97276554D01*
X93592600Y-96641982D01*
X93592599Y-96641983D01*
X93514927Y-96748890D01*
X93398802Y-96976795D01*
X93398801Y-96976798D01*
X93319763Y-97220056D01*
X93279750Y-97472690D01*
X88506994Y-97472690D01*
X88492600Y-97381813D01*
X88490804Y-97370471D01*
X88429683Y-97182358D01*
X88411741Y-97127137D01*
X88411740Y-97127134D01*
X88349012Y-97004025D01*
X88295582Y-96899163D01*
X88191608Y-96756054D01*
X88145197Y-96692174D01*
X88145193Y-96692169D01*
X87964270Y-96511246D01*
X87964265Y-96511242D01*
X87860714Y-96436008D01*
X87757280Y-96360860D01*
X87757279Y-96360859D01*
X87757277Y-96360858D01*
X87615130Y-96288430D01*
X87529305Y-96244699D01*
X87529302Y-96244698D01*
X87285970Y-96165636D01*
X87159614Y-96145623D01*
X87033260Y-96125610D01*
X86777400Y-96125610D01*
X86726858Y-96133615D01*
X86524687Y-96165636D01*
X86435303Y-96194678D01*
X86365461Y-96196673D01*
X86309305Y-96164428D01*
X83330766Y-93185888D01*
X83330765Y-93185887D01*
X83216027Y-93109222D01*
X83088552Y-93056421D01*
X83088542Y-93056418D01*
X82953216Y-93029500D01*
X82953214Y-93029500D01*
X82953213Y-93029500D01*
X81924499Y-93029500D01*
X81857460Y-93009815D01*
X81811705Y-92957011D01*
X81800499Y-92905500D01*
X81800499Y-92782129D01*
X81800498Y-92782123D01*
X81800497Y-92782116D01*
X81794091Y-92722517D01*
X81743796Y-92587669D01*
X81743795Y-92587668D01*
X81743793Y-92587664D01*
X81657547Y-92472455D01*
X81657544Y-92472452D01*
X81542335Y-92386206D01*
X81542328Y-92386202D01*
X81407482Y-92335908D01*
X81407483Y-92335908D01*
X81347883Y-92329501D01*
X81347881Y-92329500D01*
X81347873Y-92329500D01*
X81347865Y-92329500D01*
X81224500Y-92329500D01*
X81157461Y-92309815D01*
X81111706Y-92257011D01*
X81100500Y-92205500D01*
X81100500Y-91877400D01*
X85279830Y-91877400D01*
X85279830Y-92133259D01*
X85319856Y-92385970D01*
X85398918Y-92629302D01*
X85398919Y-92629305D01*
X85446414Y-92722517D01*
X85515077Y-92857276D01*
X85515080Y-92857280D01*
X85665462Y-93064265D01*
X85665466Y-93064270D01*
X85846389Y-93245193D01*
X85846394Y-93245197D01*
X86026937Y-93376368D01*
X86053383Y-93395582D01*
X86202410Y-93471515D01*
X86281354Y-93511740D01*
X86281357Y-93511741D01*
X86403023Y-93551272D01*
X86524691Y-93590804D01*
X86777400Y-93630830D01*
X86777401Y-93630830D01*
X87033259Y-93630830D01*
X87033260Y-93630830D01*
X87285969Y-93590804D01*
X87529305Y-93511740D01*
X87757277Y-93395582D01*
X87964272Y-93245192D01*
X88145192Y-93064272D01*
X88295582Y-92857277D01*
X88411740Y-92629305D01*
X88490804Y-92385969D01*
X88530830Y-92133260D01*
X88530830Y-91877400D01*
X88530830Y-91877399D01*
X106723390Y-91877399D01*
X106723390Y-92133258D01*
X106763416Y-92385969D01*
X106842478Y-92629301D01*
X106842479Y-92629304D01*
X106958640Y-92857279D01*
X107109022Y-93064264D01*
X107109026Y-93064269D01*
X107289949Y-93245192D01*
X107289954Y-93245196D01*
X107416006Y-93336777D01*
X107496943Y-93395581D01*
X107645970Y-93471514D01*
X107724914Y-93511739D01*
X107724917Y-93511740D01*
X107846583Y-93551271D01*
X107968251Y-93590803D01*
X108220960Y-93630829D01*
X108220961Y-93630829D01*
X108476819Y-93630829D01*
X108476820Y-93630829D01*
X108729529Y-93590803D01*
X108972865Y-93511739D01*
X109200837Y-93395581D01*
X109407832Y-93245191D01*
X109588752Y-93064271D01*
X109739142Y-92857276D01*
X109855300Y-92629304D01*
X109934364Y-92385968D01*
X109974390Y-92133259D01*
X109974390Y-91877399D01*
X109934364Y-91624690D01*
X109855300Y-91381355D01*
X109855300Y-91381353D01*
X109815075Y-91302409D01*
X109739142Y-91153382D01*
X109719928Y-91126936D01*
X109588757Y-90946393D01*
X109588753Y-90946388D01*
X109407830Y-90765465D01*
X109407825Y-90765461D01*
X109200840Y-90615079D01*
X109200839Y-90615078D01*
X109200837Y-90615077D01*
X109127800Y-90577862D01*
X108972865Y-90498918D01*
X108972862Y-90498917D01*
X108729530Y-90419855D01*
X108603174Y-90399842D01*
X108476820Y-90379829D01*
X108220960Y-90379829D01*
X108136723Y-90393171D01*
X107968249Y-90419855D01*
X107724917Y-90498917D01*
X107724914Y-90498918D01*
X107496939Y-90615079D01*
X107289954Y-90765461D01*
X107289949Y-90765465D01*
X107109026Y-90946388D01*
X107109022Y-90946393D01*
X106958640Y-91153378D01*
X106842479Y-91381353D01*
X106842478Y-91381356D01*
X106763416Y-91624688D01*
X106723390Y-91877399D01*
X88530830Y-91877399D01*
X88490804Y-91624691D01*
X88411740Y-91381356D01*
X88411740Y-91381354D01*
X88371515Y-91302410D01*
X88295582Y-91153383D01*
X88276368Y-91126937D01*
X88145197Y-90946394D01*
X88145193Y-90946389D01*
X87964270Y-90765466D01*
X87964265Y-90765462D01*
X87757280Y-90615080D01*
X87757279Y-90615079D01*
X87757277Y-90615078D01*
X87684240Y-90577863D01*
X87529305Y-90498919D01*
X87529302Y-90498918D01*
X87285970Y-90419856D01*
X87159614Y-90399843D01*
X87033260Y-90379830D01*
X86777400Y-90379830D01*
X86693163Y-90393172D01*
X86524689Y-90419856D01*
X86281357Y-90498918D01*
X86281354Y-90498919D01*
X86053379Y-90615080D01*
X85846394Y-90765462D01*
X85846389Y-90765466D01*
X85665466Y-90946389D01*
X85665462Y-90946394D01*
X85515080Y-91153379D01*
X85398919Y-91381354D01*
X85398918Y-91381357D01*
X85319856Y-91624689D01*
X85279830Y-91877400D01*
X81100500Y-91877400D01*
X81100500Y-87091518D01*
X81120185Y-87024479D01*
X81136814Y-87003841D01*
X81239245Y-86901410D01*
X88152730Y-86901410D01*
X88152730Y-87157269D01*
X88192756Y-87409980D01*
X88271818Y-87653312D01*
X88271819Y-87653315D01*
X88387980Y-87881290D01*
X88538362Y-88088275D01*
X88538366Y-88088280D01*
X88719289Y-88269203D01*
X88719294Y-88269207D01*
X88899837Y-88400378D01*
X88926283Y-88419592D01*
X89075310Y-88495525D01*
X89154254Y-88535750D01*
X89154257Y-88535751D01*
X89275923Y-88575282D01*
X89397591Y-88614814D01*
X89650300Y-88654840D01*
X89650301Y-88654840D01*
X89906159Y-88654840D01*
X89906160Y-88654840D01*
X90158869Y-88614814D01*
X90402205Y-88535750D01*
X90630177Y-88419592D01*
X90837172Y-88269202D01*
X91018092Y-88088282D01*
X91168482Y-87881287D01*
X91284640Y-87653315D01*
X91363704Y-87409979D01*
X91403730Y-87157270D01*
X91403730Y-86901410D01*
X103850500Y-86901410D01*
X103850500Y-87157269D01*
X103890526Y-87409980D01*
X103969588Y-87653312D01*
X103969589Y-87653315D01*
X104085750Y-87881290D01*
X104236132Y-88088275D01*
X104236136Y-88088280D01*
X104417059Y-88269203D01*
X104417064Y-88269207D01*
X104597607Y-88400378D01*
X104624053Y-88419592D01*
X104773080Y-88495525D01*
X104852024Y-88535750D01*
X104852027Y-88535751D01*
X104973693Y-88575282D01*
X105095361Y-88614814D01*
X105348070Y-88654840D01*
X105348071Y-88654840D01*
X105603929Y-88654840D01*
X105603930Y-88654840D01*
X105856639Y-88614814D01*
X106099975Y-88535750D01*
X106327947Y-88419592D01*
X106534942Y-88269202D01*
X106715862Y-88088282D01*
X106866252Y-87881287D01*
X106982410Y-87653315D01*
X107061474Y-87409979D01*
X107101500Y-87157270D01*
X107101500Y-86901410D01*
X107061474Y-86648701D01*
X107027997Y-86545667D01*
X106982411Y-86405366D01*
X106982410Y-86405364D01*
X106930485Y-86303457D01*
X106866252Y-86177393D01*
X106787060Y-86068394D01*
X106715867Y-85970404D01*
X106715863Y-85970399D01*
X106534940Y-85789476D01*
X106534935Y-85789472D01*
X106327950Y-85639090D01*
X106327949Y-85639089D01*
X106327947Y-85639088D01*
X106254910Y-85601873D01*
X106099975Y-85522929D01*
X106099972Y-85522928D01*
X105856640Y-85443866D01*
X105717645Y-85421851D01*
X105603930Y-85403840D01*
X105348070Y-85403840D01*
X105263833Y-85417182D01*
X105095359Y-85443866D01*
X104852027Y-85522928D01*
X104852024Y-85522929D01*
X104624049Y-85639090D01*
X104417064Y-85789472D01*
X104417059Y-85789476D01*
X104236136Y-85970399D01*
X104236132Y-85970404D01*
X104085750Y-86177389D01*
X103969589Y-86405364D01*
X103969589Y-86405366D01*
X103890526Y-86648699D01*
X103850500Y-86901410D01*
X91403730Y-86901410D01*
X91363704Y-86648701D01*
X91330227Y-86545667D01*
X91284641Y-86405366D01*
X91284640Y-86405364D01*
X91232715Y-86303457D01*
X91168482Y-86177393D01*
X91089290Y-86068394D01*
X91018097Y-85970404D01*
X91018093Y-85970399D01*
X90837170Y-85789476D01*
X90837165Y-85789472D01*
X90630180Y-85639090D01*
X90630179Y-85639089D01*
X90630177Y-85639088D01*
X90557140Y-85601873D01*
X90402205Y-85522929D01*
X90402202Y-85522928D01*
X90158870Y-85443866D01*
X90019875Y-85421851D01*
X89906160Y-85403840D01*
X89650300Y-85403840D01*
X89566063Y-85417182D01*
X89397589Y-85443866D01*
X89154257Y-85522928D01*
X89154254Y-85522929D01*
X88926279Y-85639090D01*
X88719294Y-85789472D01*
X88719289Y-85789476D01*
X88538366Y-85970399D01*
X88538362Y-85970404D01*
X88387980Y-86177389D01*
X88271819Y-86405364D01*
X88271819Y-86405366D01*
X88192756Y-86648699D01*
X88152730Y-86901410D01*
X81239245Y-86901410D01*
X82090799Y-86049856D01*
X82152120Y-86016373D01*
X82221811Y-86021357D01*
X82225860Y-86022949D01*
X82335581Y-86068398D01*
X82588884Y-86136270D01*
X82837188Y-86168960D01*
X82848864Y-86170498D01*
X82848880Y-86170500D01*
X82848887Y-86170500D01*
X83111113Y-86170500D01*
X83111120Y-86170500D01*
X83371116Y-86136270D01*
X83624419Y-86068398D01*
X83866697Y-85968043D01*
X84093803Y-85836924D01*
X84301851Y-85677282D01*
X84301855Y-85677277D01*
X84301860Y-85677274D01*
X84487274Y-85491860D01*
X84487277Y-85491855D01*
X84487282Y-85491851D01*
X84646924Y-85283803D01*
X84778043Y-85056697D01*
X84878398Y-84814419D01*
X84946270Y-84561116D01*
X84980500Y-84301120D01*
X84980500Y-84038880D01*
X84979136Y-84028520D01*
X93128720Y-84028520D01*
X93128720Y-84284380D01*
X93139113Y-84350000D01*
X93168746Y-84537090D01*
X93247808Y-84780422D01*
X93247809Y-84780425D01*
X93322729Y-84927461D01*
X93352911Y-84986697D01*
X93363970Y-85008400D01*
X93514352Y-85215385D01*
X93514356Y-85215390D01*
X93695279Y-85396313D01*
X93695284Y-85396317D01*
X93875827Y-85527488D01*
X93902273Y-85546702D01*
X94051300Y-85622635D01*
X94130244Y-85662860D01*
X94130247Y-85662861D01*
X94251913Y-85702392D01*
X94373581Y-85741924D01*
X94626290Y-85781950D01*
X94626291Y-85781950D01*
X94882149Y-85781950D01*
X94882150Y-85781950D01*
X95134859Y-85741924D01*
X95378195Y-85662860D01*
X95606167Y-85546702D01*
X95813162Y-85396312D01*
X95994082Y-85215392D01*
X96144472Y-85008397D01*
X96260630Y-84780425D01*
X96339694Y-84537089D01*
X96379720Y-84284380D01*
X96379720Y-84028520D01*
X98874500Y-84028520D01*
X98874500Y-84284380D01*
X98884893Y-84350000D01*
X98914526Y-84537090D01*
X98993588Y-84780422D01*
X98993589Y-84780425D01*
X99068509Y-84927461D01*
X99098691Y-84986697D01*
X99109750Y-85008400D01*
X99260132Y-85215385D01*
X99260136Y-85215390D01*
X99441059Y-85396313D01*
X99441064Y-85396317D01*
X99621607Y-85527488D01*
X99648053Y-85546702D01*
X99797080Y-85622635D01*
X99876024Y-85662860D01*
X99876027Y-85662861D01*
X99997693Y-85702392D01*
X100119361Y-85741924D01*
X100372070Y-85781950D01*
X100372071Y-85781950D01*
X100627929Y-85781950D01*
X100627930Y-85781950D01*
X100880639Y-85741924D01*
X101123975Y-85662860D01*
X101351947Y-85546702D01*
X101558942Y-85396312D01*
X101739862Y-85215392D01*
X101890252Y-85008397D01*
X102006410Y-84780425D01*
X102085474Y-84537089D01*
X102125500Y-84284380D01*
X102125500Y-84028520D01*
X102085474Y-83775811D01*
X102006410Y-83532475D01*
X102006410Y-83532474D01*
X101964292Y-83449815D01*
X101890252Y-83304503D01*
X101823989Y-83213299D01*
X101739867Y-83097514D01*
X101739863Y-83097509D01*
X101558940Y-82916586D01*
X101558935Y-82916582D01*
X101351950Y-82766200D01*
X101351949Y-82766199D01*
X101351947Y-82766198D01*
X101148857Y-82662718D01*
X101142220Y-82659336D01*
X101142218Y-82659334D01*
X101123980Y-82650042D01*
X101123972Y-82650038D01*
X100880640Y-82570976D01*
X100761810Y-82552155D01*
X110060000Y-82552155D01*
X110060000Y-83850000D01*
X111340936Y-83850000D01*
X111329207Y-83878316D01*
X111300000Y-84025147D01*
X111300000Y-84174853D01*
X111329207Y-84321684D01*
X111340936Y-84350000D01*
X110060000Y-84350000D01*
X110060000Y-85647844D01*
X110066401Y-85707372D01*
X110066403Y-85707379D01*
X110116645Y-85842086D01*
X110116649Y-85842093D01*
X110202809Y-85957187D01*
X110202812Y-85957190D01*
X110317906Y-86043350D01*
X110317913Y-86043354D01*
X110452620Y-86093596D01*
X110452627Y-86093598D01*
X110512155Y-86099999D01*
X110512172Y-86100000D01*
X111810000Y-86100000D01*
X111810000Y-84819064D01*
X111838316Y-84830793D01*
X111985147Y-84860000D01*
X112134853Y-84860000D01*
X112281684Y-84830793D01*
X112310000Y-84819064D01*
X112310000Y-86100000D01*
X113607828Y-86100000D01*
X113607844Y-86099999D01*
X113667372Y-86093598D01*
X113667379Y-86093596D01*
X113802086Y-86043354D01*
X113802093Y-86043350D01*
X113917187Y-85957190D01*
X113917190Y-85957187D01*
X114003350Y-85842093D01*
X114003354Y-85842086D01*
X114053596Y-85707379D01*
X114053598Y-85707372D01*
X114059999Y-85647844D01*
X114060000Y-85647827D01*
X114060000Y-84350000D01*
X112779064Y-84350000D01*
X112790793Y-84321684D01*
X112820000Y-84174853D01*
X112820000Y-84025147D01*
X112790793Y-83878316D01*
X112779064Y-83850000D01*
X114060000Y-83850000D01*
X114060000Y-82552172D01*
X114059999Y-82552155D01*
X114053598Y-82492627D01*
X114053596Y-82492620D01*
X114003354Y-82357913D01*
X114003350Y-82357906D01*
X113917190Y-82242812D01*
X113917187Y-82242809D01*
X113802093Y-82156649D01*
X113802086Y-82156645D01*
X113667379Y-82106403D01*
X113667372Y-82106401D01*
X113607844Y-82100000D01*
X112310000Y-82100000D01*
X112310000Y-83380935D01*
X112281684Y-83369207D01*
X112134853Y-83340000D01*
X111985147Y-83340000D01*
X111838316Y-83369207D01*
X111810000Y-83380935D01*
X111810000Y-82100000D01*
X110512155Y-82100000D01*
X110452627Y-82106401D01*
X110452620Y-82106403D01*
X110317913Y-82156645D01*
X110317906Y-82156649D01*
X110202812Y-82242809D01*
X110202809Y-82242812D01*
X110116649Y-82357906D01*
X110116645Y-82357913D01*
X110066403Y-82492620D01*
X110066401Y-82492627D01*
X110060000Y-82552155D01*
X100761810Y-82552155D01*
X100754284Y-82550963D01*
X100627930Y-82530950D01*
X100372070Y-82530950D01*
X100287833Y-82544292D01*
X100119359Y-82570976D01*
X99876027Y-82650038D01*
X99876024Y-82650039D01*
X99648049Y-82766200D01*
X99441064Y-82916582D01*
X99441059Y-82916586D01*
X99260136Y-83097509D01*
X99260132Y-83097514D01*
X99109750Y-83304499D01*
X98993589Y-83532474D01*
X98993588Y-83532477D01*
X98914526Y-83775809D01*
X98883946Y-83968880D01*
X98874500Y-84028520D01*
X96379720Y-84028520D01*
X96339694Y-83775811D01*
X96260630Y-83532475D01*
X96260630Y-83532474D01*
X96218512Y-83449815D01*
X96144472Y-83304503D01*
X96078209Y-83213299D01*
X95994087Y-83097514D01*
X95994083Y-83097509D01*
X95813160Y-82916586D01*
X95813155Y-82916582D01*
X95606170Y-82766200D01*
X95606169Y-82766199D01*
X95606167Y-82766198D01*
X95533130Y-82728983D01*
X95378195Y-82650039D01*
X95378192Y-82650038D01*
X95134860Y-82570976D01*
X95008504Y-82550963D01*
X94882150Y-82530950D01*
X94626290Y-82530950D01*
X94542053Y-82544292D01*
X94373579Y-82570976D01*
X94130247Y-82650038D01*
X94130244Y-82650039D01*
X93902269Y-82766200D01*
X93695284Y-82916582D01*
X93695279Y-82916586D01*
X93514356Y-83097509D01*
X93514352Y-83097514D01*
X93363970Y-83304499D01*
X93247809Y-83532474D01*
X93247808Y-83532477D01*
X93168746Y-83775809D01*
X93138166Y-83968880D01*
X93128720Y-84028520D01*
X84979136Y-84028520D01*
X84946270Y-83778884D01*
X84878398Y-83525581D01*
X84878394Y-83525571D01*
X84778046Y-83283309D01*
X84778041Y-83283299D01*
X84646924Y-83056196D01*
X84487281Y-82848148D01*
X84487274Y-82848140D01*
X84301860Y-82662726D01*
X84301851Y-82662718D01*
X84093803Y-82503075D01*
X83866700Y-82371958D01*
X83866690Y-82371953D01*
X83624428Y-82271605D01*
X83624421Y-82271603D01*
X83624419Y-82271602D01*
X83371116Y-82203730D01*
X83313339Y-82196123D01*
X83111127Y-82169500D01*
X83111120Y-82169500D01*
X82848880Y-82169500D01*
X82848872Y-82169500D01*
X82617772Y-82199926D01*
X82588884Y-82203730D01*
X82335581Y-82271602D01*
X82335571Y-82271605D01*
X82093309Y-82371953D01*
X82093299Y-82371958D01*
X81866196Y-82503075D01*
X81658148Y-82662718D01*
X81472718Y-82848148D01*
X81313075Y-83056196D01*
X81181958Y-83283299D01*
X81181951Y-83283314D01*
X81136539Y-83392952D01*
X81092699Y-83447356D01*
X81026405Y-83469421D01*
X81021978Y-83469500D01*
X80024499Y-83469500D01*
X79957460Y-83449815D01*
X79911705Y-83397011D01*
X79900499Y-83345500D01*
X79900499Y-82622129D01*
X79900498Y-82622123D01*
X79900497Y-82622116D01*
X79894091Y-82562517D01*
X79890226Y-82552155D01*
X79843797Y-82427671D01*
X79843793Y-82427664D01*
X79757547Y-82312455D01*
X79757544Y-82312452D01*
X79642335Y-82226206D01*
X79642328Y-82226202D01*
X79507482Y-82175908D01*
X79507483Y-82175908D01*
X79447883Y-82169501D01*
X79447881Y-82169500D01*
X79447873Y-82169500D01*
X79447864Y-82169500D01*
X76352129Y-82169500D01*
X76352123Y-82169501D01*
X76292516Y-82175908D01*
X76157671Y-82226202D01*
X76157664Y-82226206D01*
X76042455Y-82312452D01*
X76042452Y-82312455D01*
X75956206Y-82427664D01*
X75956202Y-82427671D01*
X75905908Y-82562517D01*
X75899501Y-82622116D01*
X75899501Y-82622123D01*
X75899500Y-82622135D01*
X69248963Y-82622135D01*
X69093803Y-82503075D01*
X68866700Y-82371958D01*
X68866690Y-82371953D01*
X68624428Y-82271605D01*
X68624421Y-82271603D01*
X68624419Y-82271602D01*
X68371116Y-82203730D01*
X68313339Y-82196123D01*
X68111127Y-82169500D01*
X68111120Y-82169500D01*
X67848880Y-82169500D01*
X67848872Y-82169500D01*
X67617772Y-82199926D01*
X67588884Y-82203730D01*
X67335581Y-82271602D01*
X67335571Y-82271605D01*
X67093309Y-82371953D01*
X67093299Y-82371958D01*
X66866196Y-82503075D01*
X66658148Y-82662718D01*
X66472718Y-82848148D01*
X66313075Y-83056196D01*
X66181958Y-83283299D01*
X66181951Y-83283314D01*
X66136539Y-83392952D01*
X66092699Y-83447356D01*
X66026405Y-83469421D01*
X66021978Y-83469500D01*
X65024499Y-83469500D01*
X64957460Y-83449815D01*
X64911705Y-83397011D01*
X64900499Y-83345500D01*
X64900499Y-82622129D01*
X64900498Y-82622123D01*
X64900497Y-82622116D01*
X64894091Y-82562517D01*
X64890226Y-82552155D01*
X64843797Y-82427671D01*
X64843793Y-82427664D01*
X64757547Y-82312455D01*
X64757544Y-82312452D01*
X64642335Y-82226206D01*
X64642328Y-82226202D01*
X64507482Y-82175908D01*
X64507483Y-82175908D01*
X64447883Y-82169501D01*
X64447881Y-82169500D01*
X64447873Y-82169500D01*
X64447864Y-82169500D01*
X61352129Y-82169500D01*
X61352123Y-82169501D01*
X61292516Y-82175908D01*
X61157671Y-82226202D01*
X61157664Y-82226206D01*
X61042455Y-82312452D01*
X61042452Y-82312455D01*
X60956206Y-82427664D01*
X60956202Y-82427671D01*
X60905908Y-82562517D01*
X60899501Y-82622116D01*
X60899501Y-82622123D01*
X60899500Y-82622135D01*
X60500500Y-82622135D01*
X60500500Y-80624500D01*
X60520185Y-80557461D01*
X60572989Y-80511706D01*
X60624500Y-80500500D01*
X119375500Y-80500500D01*
X119442539Y-80520185D01*
G37*
%TD.AperFunction*%
%TD*%
M02*
