%TF.GenerationSoftware,KiCad,Pcbnew,9.0.0+dfsg-1*%
%TF.CreationDate,2025-03-18T18:42:39+01:00*%
%TF.ProjectId,control-matrix-2-alt,636f6e74-726f-46c2-9d6d-61747269782d,1.0*%
%TF.SameCoordinates,Original*%
%TF.FileFunction,Copper,L1,Top*%
%TF.FilePolarity,Positive*%
%FSLAX46Y46*%
G04 Gerber Fmt 4.6, Leading zero omitted, Abs format (unit mm)*
G04 Created by KiCad (PCBNEW 9.0.0+dfsg-1) date 2025-03-18 18:42:39*
%MOMM*%
%LPD*%
G01*
G04 APERTURE LIST*
%TA.AperFunction,ComponentPad*%
%ADD10C,3.000000*%
%TD*%
%TA.AperFunction,ComponentPad*%
%ADD11R,3.000000X3.000000*%
%TD*%
%TA.AperFunction,ComponentPad*%
%ADD12C,1.600000*%
%TD*%
%TA.AperFunction,ComponentPad*%
%ADD13O,1.600000X1.600000*%
%TD*%
%TA.AperFunction,ComponentPad*%
%ADD14R,1.800000X1.800000*%
%TD*%
%TA.AperFunction,ComponentPad*%
%ADD15C,1.800000*%
%TD*%
%TA.AperFunction,ComponentPad*%
%ADD16C,2.775000*%
%TD*%
%TA.AperFunction,Conductor*%
%ADD17C,0.400000*%
%TD*%
G04 APERTURE END LIST*
D10*
%TO.P,J9,2,Pin_2*%
%TO.N,+12V*%
X82580000Y-84170000D03*
D11*
%TO.P,J9,1,Pin_1*%
%TO.N,GND*%
X77500000Y-84170000D03*
%TD*%
D12*
%TO.P,R1,1*%
%TO.N,+12V*%
X65400000Y-107170000D03*
D13*
%TO.P,R1,2*%
%TO.N,Net-(D1-A)*%
X65400000Y-99550000D03*
%TD*%
D14*
%TO.P,D1,1,K*%
%TO.N,Net-(D1-K)*%
X65400000Y-93730000D03*
D15*
%TO.P,D1,2,A*%
%TO.N,Net-(D1-A)*%
X65400000Y-96270000D03*
%TD*%
D11*
%TO.P,J1,1,Pin_1*%
%TO.N,Net-(D1-K)*%
X62900000Y-84170000D03*
D10*
%TO.P,J1,2,Pin_2*%
X67980000Y-84170000D03*
%TD*%
D12*
%TO.P,R2,1*%
%TO.N,+12V*%
X94600000Y-107170000D03*
D13*
%TO.P,R2,2*%
%TO.N,Net-(D2-A)*%
X94600000Y-99550000D03*
%TD*%
D11*
%TO.P,J2,1,Pin_1*%
%TO.N,Net-(D2-K)*%
X92100000Y-84170000D03*
D10*
%TO.P,J2,2,Pin_2*%
X97180000Y-84170000D03*
%TD*%
D14*
%TO.P,D2,1,K*%
%TO.N,Net-(D2-K)*%
X94600000Y-93730000D03*
D15*
%TO.P,D2,2,A*%
%TO.N,Net-(D2-A)*%
X94600000Y-96270000D03*
%TD*%
D16*
%TO.P,SW1,1,A*%
%TO.N,Net-(D1-K)*%
X84700000Y-95000000D03*
%TO.P,SW1,2,B*%
%TO.N,GND*%
X80000000Y-95000000D03*
%TO.P,SW1,3,C*%
%TO.N,Net-(D2-K)*%
X75300000Y-95000000D03*
%TD*%
D17*
%TO.N,Net-(D1-K)*%
X65400000Y-93730000D02*
X69170000Y-93730000D01*
X69170000Y-93730000D02*
X71300000Y-91600000D01*
X71300000Y-91600000D02*
X76400000Y-91600000D01*
X76400000Y-91600000D02*
X77700000Y-92900000D01*
X77700000Y-92900000D02*
X77700000Y-96900000D01*
X77700000Y-96900000D02*
X79100000Y-98300000D01*
X79100000Y-98300000D02*
X83400000Y-98300000D01*
X83400000Y-98300000D02*
X84700000Y-97000000D01*
X84700000Y-97000000D02*
X84700000Y-95000000D01*
%TO.N,Net-(D2-K)*%
X75300000Y-95000000D02*
X75300000Y-99600000D01*
X75300000Y-99600000D02*
X76900000Y-101200000D01*
X76900000Y-101200000D02*
X88200000Y-101200000D01*
X88200000Y-101200000D02*
X89800000Y-99600000D01*
X89800000Y-99600000D02*
X89800000Y-95200000D01*
X89800000Y-95200000D02*
X91270000Y-93730000D01*
X91270000Y-93730000D02*
X94600000Y-93730000D01*
%TO.N,+12V*%
X65400000Y-107170000D02*
X65430000Y-107200000D01*
X65430000Y-107200000D02*
X94570000Y-107200000D01*
X94570000Y-107200000D02*
X94600000Y-107170000D01*
X82580000Y-84170000D02*
X85750000Y-81000000D01*
X85750000Y-81000000D02*
X98100000Y-81000000D01*
X99299000Y-105301000D02*
X97430000Y-107170000D01*
X97430000Y-107170000D02*
X94600000Y-107170000D01*
X98100000Y-81000000D02*
X99299000Y-82199000D01*
X99299000Y-82199000D02*
X99299000Y-105301000D01*
%TO.N,GND*%
X80000000Y-95000000D02*
X80000000Y-91100000D01*
X80000000Y-91100000D02*
X77500000Y-88600000D01*
X77500000Y-88600000D02*
X77500000Y-84170000D01*
%TO.N,Net-(D1-K)*%
X67980000Y-84170000D02*
X65400000Y-86750000D01*
X62900000Y-84170000D02*
X67980000Y-84170000D01*
X65400000Y-86750000D02*
X65400000Y-93730000D01*
%TO.N,Net-(D1-A)*%
X65400000Y-96270000D02*
X65400000Y-99550000D01*
%TO.N,Net-(D2-K)*%
X94600000Y-86750000D02*
X94600000Y-93730000D01*
X97180000Y-84170000D02*
X94600000Y-86750000D01*
X92100000Y-84170000D02*
X97180000Y-84170000D01*
%TD*%
M02*
