%TF.GenerationSoftware,KiCad,Pcbnew,9.0.0+dfsg-1*%
%TF.CreationDate,2025-03-19T00:38:55+01:00*%
%TF.ProjectId,control-matrix-2-alt,636f6e74-726f-46c2-9d6d-61747269782d,1.0*%
%TF.SameCoordinates,Original*%
%TF.FileFunction,Copper,L1,Top*%
%TF.FilePolarity,Positive*%
%FSLAX46Y46*%
G04 Gerber Fmt 4.6, Leading zero omitted, Abs format (unit mm)*
G04 Created by KiCad (PCBNEW 9.0.0+dfsg-1) date 2025-03-19 00:38:55*
%MOMM*%
%LPD*%
G01*
G04 APERTURE LIST*
%TA.AperFunction,ComponentPad*%
%ADD10C,2.775000*%
%TD*%
%TA.AperFunction,ComponentPad*%
%ADD11C,1.600000*%
%TD*%
%TA.AperFunction,ComponentPad*%
%ADD12O,1.600000X1.600000*%
%TD*%
%TA.AperFunction,ComponentPad*%
%ADD13R,1.800000X1.800000*%
%TD*%
%TA.AperFunction,ComponentPad*%
%ADD14C,1.800000*%
%TD*%
%TA.AperFunction,ComponentPad*%
%ADD15R,3.000000X3.000000*%
%TD*%
%TA.AperFunction,ComponentPad*%
%ADD16C,3.000000*%
%TD*%
%TA.AperFunction,Conductor*%
%ADD17C,0.400000*%
%TD*%
G04 APERTURE END LIST*
D10*
%TO.P,SW1,1,A*%
%TO.N,Net-(D1-K)*%
X84700000Y-95000000D03*
%TO.P,SW1,2,B*%
%TO.N,GND*%
X80000000Y-95000000D03*
%TO.P,SW1,3,C*%
%TO.N,Net-(D2-K)*%
X75300000Y-95000000D03*
%TD*%
D11*
%TO.P,R2,1*%
%TO.N,+12V*%
X94600000Y-107170000D03*
D12*
%TO.P,R2,2*%
%TO.N,Net-(D2-A)*%
X94600000Y-99550000D03*
%TD*%
D13*
%TO.P,D2,1,K*%
%TO.N,Net-(D2-K)*%
X94600000Y-93730000D03*
D14*
%TO.P,D2,2,A*%
%TO.N,Net-(D2-A)*%
X94600000Y-96270000D03*
%TD*%
D11*
%TO.P,R1,1*%
%TO.N,+12V*%
X65400000Y-107170000D03*
D12*
%TO.P,R1,2*%
%TO.N,Net-(D1-A)*%
X65400000Y-99550000D03*
%TD*%
D13*
%TO.P,D1,1,K*%
%TO.N,Net-(D1-K)*%
X65400000Y-93730000D03*
D14*
%TO.P,D1,2,A*%
%TO.N,Net-(D1-A)*%
X65400000Y-96270000D03*
%TD*%
D15*
%TO.P,J1,1,Pin_1*%
%TO.N,Net-(D1-K)*%
X62900000Y-84170000D03*
D16*
%TO.P,J1,2,Pin_2*%
X67980000Y-84170000D03*
%TD*%
D15*
%TO.P,J2,1,Pin_1*%
%TO.N,Net-(D2-K)*%
X92100000Y-84170000D03*
D16*
%TO.P,J2,2,Pin_2*%
X97180000Y-84170000D03*
%TD*%
D15*
%TO.P,J9,1,Pin_1*%
%TO.N,GND*%
X77500000Y-84170000D03*
D16*
%TO.P,J9,2,Pin_2*%
%TO.N,+12V*%
X82580000Y-84170000D03*
%TD*%
D17*
%TO.N,Net-(D1-K)*%
X79100000Y-98300000D02*
X83400000Y-98300000D01*
X77700000Y-92900000D02*
X77700000Y-96900000D01*
X67980000Y-84170000D02*
X65400000Y-86750000D01*
X83400000Y-98300000D02*
X84700000Y-97000000D01*
X69170000Y-93730000D02*
X71300000Y-91600000D01*
X84700000Y-97000000D02*
X84700000Y-95000000D01*
X65400000Y-93730000D02*
X69170000Y-93730000D01*
X76400000Y-91600000D02*
X77700000Y-92900000D01*
X62900000Y-84170000D02*
X67980000Y-84170000D01*
X77700000Y-96900000D02*
X79100000Y-98300000D01*
X65400000Y-86750000D02*
X65400000Y-93730000D01*
X71300000Y-91600000D02*
X76400000Y-91600000D01*
%TO.N,Net-(D1-A)*%
X65400000Y-96270000D02*
X65400000Y-99550000D01*
%TO.N,Net-(D2-K)*%
X88200000Y-101200000D02*
X89800000Y-99600000D01*
X91270000Y-93730000D02*
X94600000Y-93730000D01*
X75300000Y-95000000D02*
X75300000Y-99600000D01*
X94600000Y-86750000D02*
X94600000Y-93730000D01*
X97180000Y-84170000D02*
X94600000Y-86750000D01*
X76900000Y-101200000D02*
X88200000Y-101200000D01*
X75300000Y-99600000D02*
X76900000Y-101200000D01*
X92100000Y-84170000D02*
X97180000Y-84170000D01*
X89800000Y-95200000D02*
X91270000Y-93730000D01*
X89800000Y-99600000D02*
X89800000Y-95200000D01*
%TO.N,+12V*%
X98100000Y-81000000D02*
X99299000Y-82199000D01*
X99299000Y-82199000D02*
X99299000Y-105301000D01*
X94570000Y-107200000D02*
X94600000Y-107170000D01*
X85750000Y-81000000D02*
X98100000Y-81000000D01*
X82580000Y-84170000D02*
X85750000Y-81000000D01*
X99299000Y-105301000D02*
X97430000Y-107170000D01*
X65400000Y-107170000D02*
X65430000Y-107200000D01*
X97430000Y-107170000D02*
X94600000Y-107170000D01*
X65430000Y-107200000D02*
X94570000Y-107200000D01*
%TD*%
%TA.AperFunction,Conductor*%
%TO.N,GND*%
G36*
X85026520Y-80520185D02*
G01*
X85072275Y-80572989D01*
X85082219Y-80642147D01*
X85053194Y-80705703D01*
X85047162Y-80712181D01*
X83469201Y-82290140D01*
X83407878Y-82323625D01*
X83338186Y-82318641D01*
X83334079Y-82317024D01*
X83269174Y-82290140D01*
X83224428Y-82271605D01*
X83224421Y-82271603D01*
X83224419Y-82271602D01*
X82971116Y-82203730D01*
X82913339Y-82196123D01*
X82711127Y-82169500D01*
X82711120Y-82169500D01*
X82448880Y-82169500D01*
X82448872Y-82169500D01*
X82217772Y-82199926D01*
X82188884Y-82203730D01*
X82103364Y-82226645D01*
X81935581Y-82271602D01*
X81935571Y-82271605D01*
X81693309Y-82371953D01*
X81693299Y-82371958D01*
X81466196Y-82503075D01*
X81258148Y-82662718D01*
X81072718Y-82848148D01*
X80913075Y-83056196D01*
X80781958Y-83283299D01*
X80781953Y-83283309D01*
X80681605Y-83525571D01*
X80681602Y-83525581D01*
X80613730Y-83778885D01*
X80579500Y-84038872D01*
X80579500Y-84301127D01*
X80591423Y-84391684D01*
X80613730Y-84561116D01*
X80638745Y-84654472D01*
X80681602Y-84814418D01*
X80681605Y-84814428D01*
X80781953Y-85056690D01*
X80781958Y-85056700D01*
X80913075Y-85283803D01*
X81072718Y-85491851D01*
X81072726Y-85491860D01*
X81258140Y-85677274D01*
X81258148Y-85677281D01*
X81466196Y-85836924D01*
X81693299Y-85968041D01*
X81693309Y-85968046D01*
X81935571Y-86068394D01*
X81935581Y-86068398D01*
X82188884Y-86136270D01*
X82437188Y-86168960D01*
X82448864Y-86170498D01*
X82448880Y-86170500D01*
X82448887Y-86170500D01*
X82711113Y-86170500D01*
X82711120Y-86170500D01*
X82971116Y-86136270D01*
X83224419Y-86068398D01*
X83466697Y-85968043D01*
X83693803Y-85836924D01*
X83901851Y-85677282D01*
X83901855Y-85677277D01*
X83901860Y-85677274D01*
X84087274Y-85491860D01*
X84087277Y-85491855D01*
X84087282Y-85491851D01*
X84246924Y-85283803D01*
X84378043Y-85056697D01*
X84478398Y-84814419D01*
X84546270Y-84561116D01*
X84580500Y-84301120D01*
X84580500Y-84038880D01*
X84546270Y-83778884D01*
X84478398Y-83525581D01*
X84432977Y-83415927D01*
X84425509Y-83346462D01*
X84456783Y-83283983D01*
X84459829Y-83280826D01*
X86003838Y-81736819D01*
X86065161Y-81703334D01*
X86091519Y-81700500D01*
X97758481Y-81700500D01*
X97825520Y-81720185D01*
X97846162Y-81736819D01*
X98381652Y-82272309D01*
X98415137Y-82333632D01*
X98410153Y-82403324D01*
X98368281Y-82459257D01*
X98302817Y-82483674D01*
X98234544Y-82468822D01*
X98231971Y-82467377D01*
X98066700Y-82371958D01*
X98066690Y-82371953D01*
X97824428Y-82271605D01*
X97824421Y-82271603D01*
X97824419Y-82271602D01*
X97571116Y-82203730D01*
X97513339Y-82196123D01*
X97311127Y-82169500D01*
X97311120Y-82169500D01*
X97048880Y-82169500D01*
X97048872Y-82169500D01*
X96817772Y-82199926D01*
X96788884Y-82203730D01*
X96703364Y-82226645D01*
X96535581Y-82271602D01*
X96535571Y-82271605D01*
X96293309Y-82371953D01*
X96293299Y-82371958D01*
X96066196Y-82503075D01*
X95858148Y-82662718D01*
X95672718Y-82848148D01*
X95513075Y-83056196D01*
X95381958Y-83283299D01*
X95381951Y-83283314D01*
X95336539Y-83392952D01*
X95292699Y-83447356D01*
X95226405Y-83469421D01*
X95221978Y-83469500D01*
X94224499Y-83469500D01*
X94157460Y-83449815D01*
X94111705Y-83397011D01*
X94100499Y-83345500D01*
X94100499Y-82622129D01*
X94100498Y-82622123D01*
X94100497Y-82622116D01*
X94094091Y-82562517D01*
X94064684Y-82483674D01*
X94043797Y-82427671D01*
X94043793Y-82427664D01*
X93957547Y-82312455D01*
X93957544Y-82312452D01*
X93842335Y-82226206D01*
X93842328Y-82226202D01*
X93707482Y-82175908D01*
X93707483Y-82175908D01*
X93647883Y-82169501D01*
X93647881Y-82169500D01*
X93647873Y-82169500D01*
X93647864Y-82169500D01*
X90552129Y-82169500D01*
X90552123Y-82169501D01*
X90492516Y-82175908D01*
X90357671Y-82226202D01*
X90357664Y-82226206D01*
X90242455Y-82312452D01*
X90242452Y-82312455D01*
X90156206Y-82427664D01*
X90156202Y-82427671D01*
X90105908Y-82562517D01*
X90099501Y-82622116D01*
X90099501Y-82622123D01*
X90099500Y-82622135D01*
X90099500Y-85717870D01*
X90099501Y-85717876D01*
X90105908Y-85777483D01*
X90156202Y-85912328D01*
X90156206Y-85912335D01*
X90242452Y-86027544D01*
X90242455Y-86027547D01*
X90357664Y-86113793D01*
X90357671Y-86113797D01*
X90492517Y-86164091D01*
X90492516Y-86164091D01*
X90499444Y-86164835D01*
X90552127Y-86170500D01*
X93647872Y-86170499D01*
X93707483Y-86164091D01*
X93842331Y-86113796D01*
X93957546Y-86027546D01*
X94043796Y-85912331D01*
X94094091Y-85777483D01*
X94100500Y-85717873D01*
X94100500Y-84994500D01*
X94120185Y-84927461D01*
X94172989Y-84881706D01*
X94224500Y-84870500D01*
X95189480Y-84870500D01*
X95256519Y-84890185D01*
X95302274Y-84942989D01*
X95312218Y-85012147D01*
X95283193Y-85075703D01*
X95277161Y-85082181D01*
X94055888Y-86303453D01*
X94055887Y-86303454D01*
X93979222Y-86418192D01*
X93926421Y-86545667D01*
X93926418Y-86545677D01*
X93899500Y-86681004D01*
X93899500Y-92205500D01*
X93879815Y-92272539D01*
X93827011Y-92318294D01*
X93775501Y-92329500D01*
X93652130Y-92329500D01*
X93652123Y-92329501D01*
X93592516Y-92335908D01*
X93457671Y-92386202D01*
X93457664Y-92386206D01*
X93342455Y-92472452D01*
X93342454Y-92472454D01*
X93256206Y-92587664D01*
X93256202Y-92587671D01*
X93205908Y-92722517D01*
X93199501Y-92782116D01*
X93199501Y-92782123D01*
X93199500Y-92782135D01*
X93199500Y-92905500D01*
X93179815Y-92972539D01*
X93127011Y-93018294D01*
X93075500Y-93029500D01*
X91201004Y-93029500D01*
X91065677Y-93056418D01*
X91065667Y-93056421D01*
X90938192Y-93109222D01*
X90823454Y-93185887D01*
X89255887Y-94753454D01*
X89179222Y-94868192D01*
X89126421Y-94995667D01*
X89126418Y-94995679D01*
X89100877Y-95124085D01*
X89100876Y-95124091D01*
X89099500Y-95131006D01*
X89099500Y-99258481D01*
X89079815Y-99325520D01*
X89063181Y-99346162D01*
X87946162Y-100463181D01*
X87884839Y-100496666D01*
X87858481Y-100499500D01*
X77241519Y-100499500D01*
X77174480Y-100479815D01*
X77153838Y-100463181D01*
X76036819Y-99346162D01*
X76003334Y-99284839D01*
X76000500Y-99258481D01*
X76000500Y-96836253D01*
X76020185Y-96769214D01*
X76072989Y-96723459D01*
X76077026Y-96721701D01*
X76136833Y-96696929D01*
X76351167Y-96573183D01*
X76547516Y-96422519D01*
X76722519Y-96247516D01*
X76777124Y-96176352D01*
X76833551Y-96135150D01*
X76903297Y-96130995D01*
X76964218Y-96165207D01*
X76996971Y-96226924D01*
X76999500Y-96251839D01*
X76999500Y-96831006D01*
X76999500Y-96968994D01*
X76999500Y-96968996D01*
X76999499Y-96968996D01*
X77026418Y-97104322D01*
X77026421Y-97104332D01*
X77079222Y-97231807D01*
X77155887Y-97346545D01*
X78653454Y-98844112D01*
X78768192Y-98920777D01*
X78895667Y-98973578D01*
X78895672Y-98973580D01*
X78895676Y-98973580D01*
X78895677Y-98973581D01*
X79031003Y-99000500D01*
X79031006Y-99000500D01*
X83468996Y-99000500D01*
X83560040Y-98982389D01*
X83604328Y-98973580D01*
X83668069Y-98947177D01*
X83731807Y-98920777D01*
X83731808Y-98920776D01*
X83731811Y-98920775D01*
X83846543Y-98844114D01*
X85244114Y-97446543D01*
X85320775Y-97331811D01*
X85373580Y-97204328D01*
X85400500Y-97068994D01*
X85400500Y-96931006D01*
X85400500Y-96836253D01*
X85420185Y-96769214D01*
X85472989Y-96723459D01*
X85477026Y-96721701D01*
X85536833Y-96696929D01*
X85751167Y-96573183D01*
X85947516Y-96422519D01*
X86122519Y-96247516D01*
X86273183Y-96051167D01*
X86396929Y-95836833D01*
X86491640Y-95608180D01*
X86555696Y-95369121D01*
X86588000Y-95123746D01*
X86588000Y-94876254D01*
X86555696Y-94630879D01*
X86491640Y-94391820D01*
X86396929Y-94163167D01*
X86396927Y-94163164D01*
X86396925Y-94163159D01*
X86273187Y-93948840D01*
X86273183Y-93948833D01*
X86148844Y-93786791D01*
X86122520Y-93752485D01*
X86122514Y-93752478D01*
X85947521Y-93577485D01*
X85947514Y-93577479D01*
X85751175Y-93426823D01*
X85751173Y-93426821D01*
X85751167Y-93426817D01*
X85751162Y-93426814D01*
X85751159Y-93426812D01*
X85536840Y-93303074D01*
X85536829Y-93303069D01*
X85308184Y-93208361D01*
X85069117Y-93144303D01*
X84823756Y-93112001D01*
X84823751Y-93112000D01*
X84823746Y-93112000D01*
X84576254Y-93112000D01*
X84576248Y-93112000D01*
X84576243Y-93112001D01*
X84330882Y-93144303D01*
X84091815Y-93208361D01*
X83863170Y-93303069D01*
X83863159Y-93303074D01*
X83648840Y-93426812D01*
X83648824Y-93426823D01*
X83452485Y-93577479D01*
X83452478Y-93577485D01*
X83277485Y-93752478D01*
X83277479Y-93752485D01*
X83126823Y-93948824D01*
X83126812Y-93948840D01*
X83003074Y-94163159D01*
X83003069Y-94163170D01*
X82908361Y-94391815D01*
X82844303Y-94630882D01*
X82812001Y-94876243D01*
X82812000Y-94876260D01*
X82812000Y-95123739D01*
X82812001Y-95123756D01*
X82844303Y-95369117D01*
X82908361Y-95608184D01*
X83003069Y-95836829D01*
X83003074Y-95836840D01*
X83126812Y-96051159D01*
X83126823Y-96051175D01*
X83277479Y-96247514D01*
X83277485Y-96247521D01*
X83452478Y-96422514D01*
X83452484Y-96422519D01*
X83648833Y-96573183D01*
X83648840Y-96573187D01*
X83817835Y-96670757D01*
X83866051Y-96721324D01*
X83879273Y-96789931D01*
X83853305Y-96854796D01*
X83843516Y-96865825D01*
X83146162Y-97563181D01*
X83084839Y-97596666D01*
X83058481Y-97599500D01*
X79441519Y-97599500D01*
X79374480Y-97579815D01*
X79353838Y-97563181D01*
X78436819Y-96646162D01*
X78422115Y-96619234D01*
X78405523Y-96593416D01*
X78404631Y-96587215D01*
X78403334Y-96584839D01*
X78400500Y-96558481D01*
X78400500Y-96271981D01*
X78420185Y-96204942D01*
X78472989Y-96159187D01*
X78490464Y-96155980D01*
X79191497Y-95454947D01*
X79281505Y-95589653D01*
X79410347Y-95718495D01*
X79545051Y-95808501D01*
X78853869Y-96499683D01*
X78949110Y-96572764D01*
X78949118Y-96572770D01*
X79163381Y-96696476D01*
X79163392Y-96696481D01*
X79391971Y-96791162D01*
X79391981Y-96791165D01*
X79630974Y-96855202D01*
X79630985Y-96855204D01*
X79876279Y-96887499D01*
X79876294Y-96887500D01*
X80123706Y-96887500D01*
X80123720Y-96887499D01*
X80369014Y-96855204D01*
X80369025Y-96855202D01*
X80608018Y-96791165D01*
X80608028Y-96791162D01*
X80836607Y-96696481D01*
X80836618Y-96696476D01*
X81050881Y-96572770D01*
X81050899Y-96572758D01*
X81146129Y-96499684D01*
X81146129Y-96499682D01*
X80454948Y-95808501D01*
X80589653Y-95718495D01*
X80718495Y-95589653D01*
X80808501Y-95454948D01*
X81499682Y-96146129D01*
X81499684Y-96146129D01*
X81572758Y-96050899D01*
X81572770Y-96050881D01*
X81696476Y-95836618D01*
X81696481Y-95836607D01*
X81791162Y-95608028D01*
X81791165Y-95608018D01*
X81855202Y-95369025D01*
X81855204Y-95369014D01*
X81887499Y-95123720D01*
X81887500Y-95123706D01*
X81887500Y-94876293D01*
X81887499Y-94876279D01*
X81855204Y-94630985D01*
X81855202Y-94630974D01*
X81791165Y-94391981D01*
X81791162Y-94391971D01*
X81696481Y-94163392D01*
X81696476Y-94163381D01*
X81572770Y-93949118D01*
X81572764Y-93949110D01*
X81499683Y-93853869D01*
X80808501Y-94545051D01*
X80718495Y-94410347D01*
X80589653Y-94281505D01*
X80454948Y-94191497D01*
X81146129Y-93500315D01*
X81050889Y-93427235D01*
X81050881Y-93427229D01*
X80836618Y-93303523D01*
X80836607Y-93303518D01*
X80608028Y-93208837D01*
X80608018Y-93208834D01*
X80369025Y-93144797D01*
X80369014Y-93144795D01*
X80123720Y-93112500D01*
X79876279Y-93112500D01*
X79630985Y-93144795D01*
X79630974Y-93144797D01*
X79391981Y-93208834D01*
X79391971Y-93208837D01*
X79163392Y-93303518D01*
X79163381Y-93303523D01*
X78949118Y-93427229D01*
X78949101Y-93427240D01*
X78853869Y-93500314D01*
X78853869Y-93500315D01*
X79545051Y-94191497D01*
X79410347Y-94281505D01*
X79281505Y-94410347D01*
X79191498Y-94545051D01*
X78489088Y-93842642D01*
X78486383Y-93841407D01*
X78464423Y-93836492D01*
X78455214Y-93827172D01*
X78443297Y-93821730D01*
X78431130Y-93802797D01*
X78415314Y-93786791D01*
X78411746Y-93772635D01*
X78405523Y-93762952D01*
X78400500Y-93728017D01*
X78400500Y-92831004D01*
X78373581Y-92695677D01*
X78373580Y-92695676D01*
X78373580Y-92695672D01*
X78328842Y-92587664D01*
X78320778Y-92568195D01*
X78320771Y-92568182D01*
X78256807Y-92472454D01*
X78256805Y-92472451D01*
X78244116Y-92453459D01*
X78244114Y-92453457D01*
X76846546Y-91055888D01*
X76846545Y-91055887D01*
X76731807Y-90979222D01*
X76604332Y-90926421D01*
X76604322Y-90926418D01*
X76468996Y-90899500D01*
X76468994Y-90899500D01*
X76468993Y-90899500D01*
X71368994Y-90899500D01*
X71231006Y-90899500D01*
X71231004Y-90899500D01*
X71095677Y-90926418D01*
X71095667Y-90926421D01*
X70968192Y-90979222D01*
X70853454Y-91055887D01*
X70853453Y-91055888D01*
X68916162Y-92993181D01*
X68854839Y-93026666D01*
X68828481Y-93029500D01*
X66924499Y-93029500D01*
X66857460Y-93009815D01*
X66811705Y-92957011D01*
X66800499Y-92905500D01*
X66800499Y-92782129D01*
X66800498Y-92782123D01*
X66800497Y-92782116D01*
X66794091Y-92722517D01*
X66784080Y-92695677D01*
X66743797Y-92587671D01*
X66743793Y-92587664D01*
X66657546Y-92472454D01*
X66657544Y-92472452D01*
X66542335Y-92386206D01*
X66542328Y-92386202D01*
X66407482Y-92335908D01*
X66407483Y-92335908D01*
X66347883Y-92329501D01*
X66347881Y-92329500D01*
X66347873Y-92329500D01*
X66347865Y-92329500D01*
X66224500Y-92329500D01*
X66157461Y-92309815D01*
X66111706Y-92257011D01*
X66100500Y-92205500D01*
X66100500Y-87091518D01*
X66120185Y-87024479D01*
X66136814Y-87003841D01*
X67090799Y-86049856D01*
X67152120Y-86016373D01*
X67221811Y-86021357D01*
X67225860Y-86022949D01*
X67335581Y-86068398D01*
X67588884Y-86136270D01*
X67837188Y-86168960D01*
X67848864Y-86170498D01*
X67848880Y-86170500D01*
X67848887Y-86170500D01*
X68111113Y-86170500D01*
X68111120Y-86170500D01*
X68371116Y-86136270D01*
X68624419Y-86068398D01*
X68866697Y-85968043D01*
X69093803Y-85836924D01*
X69301851Y-85677282D01*
X69301855Y-85677277D01*
X69301860Y-85677274D01*
X69487274Y-85491860D01*
X69487277Y-85491855D01*
X69487282Y-85491851D01*
X69646924Y-85283803D01*
X69778043Y-85056697D01*
X69878398Y-84814419D01*
X69946270Y-84561116D01*
X69980500Y-84301120D01*
X69980500Y-84038880D01*
X69946270Y-83778884D01*
X69878398Y-83525581D01*
X69866351Y-83496497D01*
X69778046Y-83283309D01*
X69778041Y-83283299D01*
X69646924Y-83056196D01*
X69487281Y-82848148D01*
X69487274Y-82848140D01*
X69301860Y-82662726D01*
X69301851Y-82662718D01*
X69248989Y-82622155D01*
X75500000Y-82622155D01*
X75500000Y-83920000D01*
X76780936Y-83920000D01*
X76769207Y-83948316D01*
X76740000Y-84095147D01*
X76740000Y-84244853D01*
X76769207Y-84391684D01*
X76780936Y-84420000D01*
X75500000Y-84420000D01*
X75500000Y-85717844D01*
X75506401Y-85777372D01*
X75506403Y-85777379D01*
X75556645Y-85912086D01*
X75556649Y-85912093D01*
X75642809Y-86027187D01*
X75642812Y-86027190D01*
X75757906Y-86113350D01*
X75757913Y-86113354D01*
X75892620Y-86163596D01*
X75892627Y-86163598D01*
X75952155Y-86169999D01*
X75952172Y-86170000D01*
X77250000Y-86170000D01*
X77250000Y-84889064D01*
X77278316Y-84900793D01*
X77425147Y-84930000D01*
X77574853Y-84930000D01*
X77721684Y-84900793D01*
X77750000Y-84889064D01*
X77750000Y-86170000D01*
X79047828Y-86170000D01*
X79047844Y-86169999D01*
X79107372Y-86163598D01*
X79107379Y-86163596D01*
X79242086Y-86113354D01*
X79242093Y-86113350D01*
X79357187Y-86027190D01*
X79357190Y-86027187D01*
X79443350Y-85912093D01*
X79443354Y-85912086D01*
X79493596Y-85777379D01*
X79493598Y-85777372D01*
X79499999Y-85717844D01*
X79500000Y-85717827D01*
X79500000Y-84420000D01*
X78219064Y-84420000D01*
X78230793Y-84391684D01*
X78260000Y-84244853D01*
X78260000Y-84095147D01*
X78230793Y-83948316D01*
X78219064Y-83920000D01*
X79500000Y-83920000D01*
X79500000Y-82622172D01*
X79499999Y-82622155D01*
X79493598Y-82562627D01*
X79493596Y-82562620D01*
X79443354Y-82427913D01*
X79443350Y-82427906D01*
X79357190Y-82312812D01*
X79357187Y-82312809D01*
X79242093Y-82226649D01*
X79242086Y-82226645D01*
X79107379Y-82176403D01*
X79107372Y-82176401D01*
X79047844Y-82170000D01*
X77750000Y-82170000D01*
X77750000Y-83450935D01*
X77721684Y-83439207D01*
X77574853Y-83410000D01*
X77425147Y-83410000D01*
X77278316Y-83439207D01*
X77250000Y-83450935D01*
X77250000Y-82170000D01*
X75952155Y-82170000D01*
X75892627Y-82176401D01*
X75892620Y-82176403D01*
X75757913Y-82226645D01*
X75757906Y-82226649D01*
X75642812Y-82312809D01*
X75642809Y-82312812D01*
X75556649Y-82427906D01*
X75556645Y-82427913D01*
X75506403Y-82562620D01*
X75506401Y-82562627D01*
X75500000Y-82622155D01*
X69248989Y-82622155D01*
X69093803Y-82503075D01*
X68866700Y-82371958D01*
X68866690Y-82371953D01*
X68624428Y-82271605D01*
X68624421Y-82271603D01*
X68624419Y-82271602D01*
X68371116Y-82203730D01*
X68313339Y-82196123D01*
X68111127Y-82169500D01*
X68111120Y-82169500D01*
X67848880Y-82169500D01*
X67848872Y-82169500D01*
X67617772Y-82199926D01*
X67588884Y-82203730D01*
X67503364Y-82226645D01*
X67335581Y-82271602D01*
X67335571Y-82271605D01*
X67093309Y-82371953D01*
X67093299Y-82371958D01*
X66866196Y-82503075D01*
X66658148Y-82662718D01*
X66472718Y-82848148D01*
X66313075Y-83056196D01*
X66181958Y-83283299D01*
X66181951Y-83283314D01*
X66136539Y-83392952D01*
X66092699Y-83447356D01*
X66026405Y-83469421D01*
X66021978Y-83469500D01*
X65024499Y-83469500D01*
X64957460Y-83449815D01*
X64911705Y-83397011D01*
X64900499Y-83345500D01*
X64900499Y-82622129D01*
X64900498Y-82622123D01*
X64900497Y-82622116D01*
X64894091Y-82562517D01*
X64864684Y-82483674D01*
X64843797Y-82427671D01*
X64843793Y-82427664D01*
X64757547Y-82312455D01*
X64757544Y-82312452D01*
X64642335Y-82226206D01*
X64642328Y-82226202D01*
X64507482Y-82175908D01*
X64507483Y-82175908D01*
X64447883Y-82169501D01*
X64447881Y-82169500D01*
X64447873Y-82169500D01*
X64447864Y-82169500D01*
X61352129Y-82169500D01*
X61352123Y-82169501D01*
X61292516Y-82175908D01*
X61157671Y-82226202D01*
X61157664Y-82226206D01*
X61042455Y-82312452D01*
X61042452Y-82312455D01*
X60956206Y-82427664D01*
X60956202Y-82427671D01*
X60905908Y-82562517D01*
X60899501Y-82622116D01*
X60899501Y-82622123D01*
X60899500Y-82622135D01*
X60899500Y-85717870D01*
X60899501Y-85717876D01*
X60905908Y-85777483D01*
X60956202Y-85912328D01*
X60956206Y-85912335D01*
X61042452Y-86027544D01*
X61042455Y-86027547D01*
X61157664Y-86113793D01*
X61157671Y-86113797D01*
X61292517Y-86164091D01*
X61292516Y-86164091D01*
X61299444Y-86164835D01*
X61352127Y-86170500D01*
X64447872Y-86170499D01*
X64507483Y-86164091D01*
X64642331Y-86113796D01*
X64757546Y-86027546D01*
X64843796Y-85912331D01*
X64894091Y-85777483D01*
X64900500Y-85717873D01*
X64900500Y-84994500D01*
X64920185Y-84927461D01*
X64972989Y-84881706D01*
X65024500Y-84870500D01*
X65989480Y-84870500D01*
X66056519Y-84890185D01*
X66102274Y-84942989D01*
X66112218Y-85012147D01*
X66083193Y-85075703D01*
X66077161Y-85082181D01*
X64855888Y-86303453D01*
X64855887Y-86303454D01*
X64779222Y-86418192D01*
X64726421Y-86545667D01*
X64726418Y-86545677D01*
X64699500Y-86681004D01*
X64699500Y-92205500D01*
X64679815Y-92272539D01*
X64627011Y-92318294D01*
X64575501Y-92329500D01*
X64452130Y-92329500D01*
X64452123Y-92329501D01*
X64392516Y-92335908D01*
X64257671Y-92386202D01*
X64257664Y-92386206D01*
X64142455Y-92472452D01*
X64142454Y-92472454D01*
X64056206Y-92587664D01*
X64056202Y-92587671D01*
X64005908Y-92722517D01*
X63999501Y-92782116D01*
X63999501Y-92782123D01*
X63999500Y-92782135D01*
X63999500Y-94677870D01*
X63999501Y-94677876D01*
X64005908Y-94737483D01*
X64056202Y-94872328D01*
X64056206Y-94872335D01*
X64142452Y-94987544D01*
X64142455Y-94987547D01*
X64257664Y-95073793D01*
X64257671Y-95073797D01*
X64337580Y-95103601D01*
X64393514Y-95145472D01*
X64417931Y-95210936D01*
X64403080Y-95279209D01*
X64381929Y-95307463D01*
X64331756Y-95357636D01*
X64331752Y-95357641D01*
X64202187Y-95535974D01*
X64102104Y-95732393D01*
X64102103Y-95732396D01*
X64033985Y-95942047D01*
X64016702Y-96051167D01*
X63999500Y-96159778D01*
X63999500Y-96380222D01*
X64006199Y-96422519D01*
X64033985Y-96597952D01*
X64102103Y-96807603D01*
X64102104Y-96807606D01*
X64202187Y-97004025D01*
X64331752Y-97182358D01*
X64331756Y-97182363D01*
X64331758Y-97182365D01*
X64487635Y-97338242D01*
X64648386Y-97455034D01*
X64691051Y-97510362D01*
X64699500Y-97555351D01*
X64699500Y-98388255D01*
X64679815Y-98455294D01*
X64648385Y-98488573D01*
X64552787Y-98558028D01*
X64552782Y-98558032D01*
X64408028Y-98702786D01*
X64287715Y-98868386D01*
X64194781Y-99050776D01*
X64131522Y-99245465D01*
X64099500Y-99447648D01*
X64099500Y-99652351D01*
X64131522Y-99854534D01*
X64194781Y-100049223D01*
X64287715Y-100231613D01*
X64408028Y-100397213D01*
X64552786Y-100541971D01*
X64707749Y-100654556D01*
X64718390Y-100662287D01*
X64834607Y-100721503D01*
X64900776Y-100755218D01*
X64900778Y-100755218D01*
X64900781Y-100755220D01*
X65005137Y-100789127D01*
X65095465Y-100818477D01*
X65196557Y-100834488D01*
X65297648Y-100850500D01*
X65297649Y-100850500D01*
X65502351Y-100850500D01*
X65502352Y-100850500D01*
X65704534Y-100818477D01*
X65899219Y-100755220D01*
X66081610Y-100662287D01*
X66174590Y-100594732D01*
X66247213Y-100541971D01*
X66247215Y-100541968D01*
X66247219Y-100541966D01*
X66391966Y-100397219D01*
X66391968Y-100397215D01*
X66391971Y-100397213D01*
X66444732Y-100324590D01*
X66512287Y-100231610D01*
X66605220Y-100049219D01*
X66668477Y-99854534D01*
X66700500Y-99652352D01*
X66700500Y-99447648D01*
X66681157Y-99325520D01*
X66668477Y-99245465D01*
X66605218Y-99050776D01*
X66571503Y-98984607D01*
X66512287Y-98868390D01*
X66494648Y-98844112D01*
X66391971Y-98702786D01*
X66247217Y-98558032D01*
X66247212Y-98558028D01*
X66151615Y-98488573D01*
X66108949Y-98433243D01*
X66100500Y-98388255D01*
X66100500Y-97555351D01*
X66120185Y-97488312D01*
X66151611Y-97455035D01*
X66312365Y-97338242D01*
X66468242Y-97182365D01*
X66597815Y-97004022D01*
X66697895Y-96807606D01*
X66766015Y-96597951D01*
X66800500Y-96380222D01*
X66800500Y-96159778D01*
X66766015Y-95942049D01*
X66697895Y-95732394D01*
X66697895Y-95732393D01*
X66634604Y-95608180D01*
X66597815Y-95535978D01*
X66564524Y-95490157D01*
X66468247Y-95357641D01*
X66468243Y-95357636D01*
X66418071Y-95307464D01*
X66384586Y-95246141D01*
X66389570Y-95176449D01*
X66431442Y-95120516D01*
X66462420Y-95103601D01*
X66542326Y-95073798D01*
X66542326Y-95073797D01*
X66542331Y-95073796D01*
X66657546Y-94987546D01*
X66743796Y-94872331D01*
X66794091Y-94737483D01*
X66800500Y-94677873D01*
X66800500Y-94554500D01*
X66820185Y-94487461D01*
X66872989Y-94441706D01*
X66924500Y-94430500D01*
X69238996Y-94430500D01*
X69340308Y-94410347D01*
X69374328Y-94403580D01*
X69438069Y-94377177D01*
X69501807Y-94350777D01*
X69501808Y-94350776D01*
X69501811Y-94350775D01*
X69616543Y-94274114D01*
X71553838Y-92336819D01*
X71615161Y-92303334D01*
X71641519Y-92300500D01*
X76058481Y-92300500D01*
X76125520Y-92320185D01*
X76146162Y-92336819D01*
X76963181Y-93153838D01*
X76996666Y-93215161D01*
X76999500Y-93241519D01*
X76999500Y-93748160D01*
X76979815Y-93815199D01*
X76927011Y-93860954D01*
X76857853Y-93870898D01*
X76794297Y-93841873D01*
X76777124Y-93823646D01*
X76722520Y-93752485D01*
X76722514Y-93752478D01*
X76547521Y-93577485D01*
X76547514Y-93577479D01*
X76351175Y-93426823D01*
X76351173Y-93426821D01*
X76351167Y-93426817D01*
X76351162Y-93426814D01*
X76351159Y-93426812D01*
X76136840Y-93303074D01*
X76136829Y-93303069D01*
X75908184Y-93208361D01*
X75669117Y-93144303D01*
X75423756Y-93112001D01*
X75423751Y-93112000D01*
X75423746Y-93112000D01*
X75176254Y-93112000D01*
X75176248Y-93112000D01*
X75176243Y-93112001D01*
X74930882Y-93144303D01*
X74691815Y-93208361D01*
X74463170Y-93303069D01*
X74463159Y-93303074D01*
X74248840Y-93426812D01*
X74248824Y-93426823D01*
X74052485Y-93577479D01*
X74052478Y-93577485D01*
X73877485Y-93752478D01*
X73877479Y-93752485D01*
X73726823Y-93948824D01*
X73726812Y-93948840D01*
X73603074Y-94163159D01*
X73603069Y-94163170D01*
X73508361Y-94391815D01*
X73444303Y-94630882D01*
X73412001Y-94876243D01*
X73412000Y-94876260D01*
X73412000Y-95123739D01*
X73412001Y-95123756D01*
X73444303Y-95369117D01*
X73508361Y-95608184D01*
X73603069Y-95836829D01*
X73603074Y-95836840D01*
X73726812Y-96051159D01*
X73726823Y-96051175D01*
X73877479Y-96247514D01*
X73877485Y-96247521D01*
X74052478Y-96422514D01*
X74052484Y-96422519D01*
X74248833Y-96573183D01*
X74463167Y-96696929D01*
X74522951Y-96721692D01*
X74577355Y-96765531D01*
X74599421Y-96831825D01*
X74599500Y-96836253D01*
X74599500Y-99531006D01*
X74599500Y-99668994D01*
X74599500Y-99668996D01*
X74599499Y-99668996D01*
X74626418Y-99804322D01*
X74626421Y-99804332D01*
X74679222Y-99931807D01*
X74755887Y-100046545D01*
X76453454Y-101744112D01*
X76568192Y-101820777D01*
X76695667Y-101873578D01*
X76695672Y-101873580D01*
X76695676Y-101873580D01*
X76695677Y-101873581D01*
X76831003Y-101900500D01*
X76831006Y-101900500D01*
X88268996Y-101900500D01*
X88360040Y-101882389D01*
X88404328Y-101873580D01*
X88468069Y-101847177D01*
X88531807Y-101820777D01*
X88531808Y-101820776D01*
X88531811Y-101820775D01*
X88646543Y-101744114D01*
X90344114Y-100046543D01*
X90420775Y-99931811D01*
X90473580Y-99804328D01*
X90500500Y-99668994D01*
X90500500Y-99531006D01*
X90500500Y-99447648D01*
X93299500Y-99447648D01*
X93299500Y-99652351D01*
X93331522Y-99854534D01*
X93394781Y-100049223D01*
X93487715Y-100231613D01*
X93608028Y-100397213D01*
X93752786Y-100541971D01*
X93907749Y-100654556D01*
X93918390Y-100662287D01*
X94034607Y-100721503D01*
X94100776Y-100755218D01*
X94100778Y-100755218D01*
X94100781Y-100755220D01*
X94205137Y-100789127D01*
X94295465Y-100818477D01*
X94396557Y-100834488D01*
X94497648Y-100850500D01*
X94497649Y-100850500D01*
X94702351Y-100850500D01*
X94702352Y-100850500D01*
X94904534Y-100818477D01*
X95099219Y-100755220D01*
X95281610Y-100662287D01*
X95374590Y-100594732D01*
X95447213Y-100541971D01*
X95447215Y-100541968D01*
X95447219Y-100541966D01*
X95591966Y-100397219D01*
X95591968Y-100397215D01*
X95591971Y-100397213D01*
X95644732Y-100324590D01*
X95712287Y-100231610D01*
X95805220Y-100049219D01*
X95868477Y-99854534D01*
X95900500Y-99652352D01*
X95900500Y-99447648D01*
X95881157Y-99325520D01*
X95868477Y-99245465D01*
X95805218Y-99050776D01*
X95771503Y-98984607D01*
X95712287Y-98868390D01*
X95694648Y-98844112D01*
X95591971Y-98702786D01*
X95447213Y-98558028D01*
X95281613Y-98437715D01*
X95281612Y-98437714D01*
X95281610Y-98437713D01*
X95224653Y-98408691D01*
X95099223Y-98344781D01*
X94904534Y-98281522D01*
X94729995Y-98253878D01*
X94702352Y-98249500D01*
X94497648Y-98249500D01*
X94473329Y-98253351D01*
X94295465Y-98281522D01*
X94100776Y-98344781D01*
X93918386Y-98437715D01*
X93752786Y-98558028D01*
X93608028Y-98702786D01*
X93487715Y-98868386D01*
X93394781Y-99050776D01*
X93331522Y-99245465D01*
X93299500Y-99447648D01*
X90500500Y-99447648D01*
X90500500Y-95541519D01*
X90520185Y-95474480D01*
X90536819Y-95453838D01*
X91523838Y-94466819D01*
X91585161Y-94433334D01*
X91611519Y-94430500D01*
X93075501Y-94430500D01*
X93142540Y-94450185D01*
X93188295Y-94502989D01*
X93199501Y-94554500D01*
X93199501Y-94677876D01*
X93205908Y-94737483D01*
X93256202Y-94872328D01*
X93256206Y-94872335D01*
X93342452Y-94987544D01*
X93342455Y-94987547D01*
X93457664Y-95073793D01*
X93457671Y-95073797D01*
X93537580Y-95103601D01*
X93593514Y-95145472D01*
X93617931Y-95210936D01*
X93603080Y-95279209D01*
X93581929Y-95307463D01*
X93531756Y-95357636D01*
X93531752Y-95357641D01*
X93402187Y-95535974D01*
X93302104Y-95732393D01*
X93302103Y-95732396D01*
X93233985Y-95942047D01*
X93216702Y-96051167D01*
X93199500Y-96159778D01*
X93199500Y-96380222D01*
X93206199Y-96422519D01*
X93233985Y-96597952D01*
X93302103Y-96807603D01*
X93302104Y-96807606D01*
X93402187Y-97004025D01*
X93531752Y-97182358D01*
X93531756Y-97182363D01*
X93687636Y-97338243D01*
X93687641Y-97338247D01*
X93836699Y-97446543D01*
X93865978Y-97467815D01*
X93994375Y-97533237D01*
X94062393Y-97567895D01*
X94062396Y-97567896D01*
X94150943Y-97596666D01*
X94272049Y-97636015D01*
X94489778Y-97670500D01*
X94489779Y-97670500D01*
X94710221Y-97670500D01*
X94710222Y-97670500D01*
X94927951Y-97636015D01*
X95137606Y-97567895D01*
X95334022Y-97467815D01*
X95512365Y-97338242D01*
X95668242Y-97182365D01*
X95797815Y-97004022D01*
X95897895Y-96807606D01*
X95966015Y-96597951D01*
X96000500Y-96380222D01*
X96000500Y-96159778D01*
X95966015Y-95942049D01*
X95897895Y-95732394D01*
X95897895Y-95732393D01*
X95834604Y-95608180D01*
X95797815Y-95535978D01*
X95764524Y-95490157D01*
X95668247Y-95357641D01*
X95668243Y-95357636D01*
X95618071Y-95307464D01*
X95584586Y-95246141D01*
X95589570Y-95176449D01*
X95631442Y-95120516D01*
X95662420Y-95103601D01*
X95742326Y-95073798D01*
X95742326Y-95073797D01*
X95742331Y-95073796D01*
X95857546Y-94987546D01*
X95943796Y-94872331D01*
X95994091Y-94737483D01*
X96000500Y-94677873D01*
X96000499Y-92782128D01*
X95994091Y-92722517D01*
X95984080Y-92695677D01*
X95943797Y-92587671D01*
X95943793Y-92587664D01*
X95857546Y-92472454D01*
X95857544Y-92472452D01*
X95742335Y-92386206D01*
X95742328Y-92386202D01*
X95607482Y-92335908D01*
X95607483Y-92335908D01*
X95547883Y-92329501D01*
X95547881Y-92329500D01*
X95547873Y-92329500D01*
X95547865Y-92329500D01*
X95424500Y-92329500D01*
X95357461Y-92309815D01*
X95311706Y-92257011D01*
X95300500Y-92205500D01*
X95300500Y-87091518D01*
X95320185Y-87024479D01*
X95336814Y-87003841D01*
X96290799Y-86049856D01*
X96352120Y-86016373D01*
X96421811Y-86021357D01*
X96425860Y-86022949D01*
X96535581Y-86068398D01*
X96788884Y-86136270D01*
X97037188Y-86168960D01*
X97048864Y-86170498D01*
X97048880Y-86170500D01*
X97048887Y-86170500D01*
X97311113Y-86170500D01*
X97311120Y-86170500D01*
X97571116Y-86136270D01*
X97824419Y-86068398D01*
X98066697Y-85968043D01*
X98293803Y-85836924D01*
X98349938Y-85793850D01*
X98399013Y-85756193D01*
X98464182Y-85730998D01*
X98532627Y-85745036D01*
X98582617Y-85793850D01*
X98598500Y-85854568D01*
X98598500Y-104959481D01*
X98578815Y-105026520D01*
X98562181Y-105047162D01*
X97176162Y-106433181D01*
X97114839Y-106466666D01*
X97088481Y-106469500D01*
X95761744Y-106469500D01*
X95694705Y-106449815D01*
X95661425Y-106418384D01*
X95591969Y-106322784D01*
X95447213Y-106178028D01*
X95281613Y-106057715D01*
X95281612Y-106057714D01*
X95281610Y-106057713D01*
X95224653Y-106028691D01*
X95099223Y-105964781D01*
X94904534Y-105901522D01*
X94729995Y-105873878D01*
X94702352Y-105869500D01*
X94497648Y-105869500D01*
X94473329Y-105873351D01*
X94295465Y-105901522D01*
X94100776Y-105964781D01*
X93918386Y-106057715D01*
X93752786Y-106178028D01*
X93608032Y-106322782D01*
X93608028Y-106322787D01*
X93516777Y-106448385D01*
X93461448Y-106491051D01*
X93416459Y-106499500D01*
X66583541Y-106499500D01*
X66516502Y-106479815D01*
X66483223Y-106448385D01*
X66391971Y-106322787D01*
X66391967Y-106322782D01*
X66247213Y-106178028D01*
X66081613Y-106057715D01*
X66081612Y-106057714D01*
X66081610Y-106057713D01*
X66024653Y-106028691D01*
X65899223Y-105964781D01*
X65704534Y-105901522D01*
X65529995Y-105873878D01*
X65502352Y-105869500D01*
X65297648Y-105869500D01*
X65273329Y-105873351D01*
X65095465Y-105901522D01*
X64900776Y-105964781D01*
X64718386Y-106057715D01*
X64552786Y-106178028D01*
X64408028Y-106322786D01*
X64287715Y-106488386D01*
X64194781Y-106670776D01*
X64131522Y-106865465D01*
X64099500Y-107067648D01*
X64099500Y-107272351D01*
X64131522Y-107474534D01*
X64194781Y-107669223D01*
X64217655Y-107714114D01*
X64283620Y-107843578D01*
X64287715Y-107851613D01*
X64408028Y-108017213D01*
X64552786Y-108161971D01*
X64707749Y-108274556D01*
X64718390Y-108282287D01*
X64834607Y-108341503D01*
X64900776Y-108375218D01*
X64900778Y-108375218D01*
X64900781Y-108375220D01*
X65005137Y-108409127D01*
X65095465Y-108438477D01*
X65196557Y-108454488D01*
X65297648Y-108470500D01*
X65297649Y-108470500D01*
X65502351Y-108470500D01*
X65502352Y-108470500D01*
X65704534Y-108438477D01*
X65899219Y-108375220D01*
X66081610Y-108282287D01*
X66174590Y-108214732D01*
X66247213Y-108161971D01*
X66247215Y-108161968D01*
X66247219Y-108161966D01*
X66391966Y-108017219D01*
X66439629Y-107951615D01*
X66494959Y-107908949D01*
X66539948Y-107900500D01*
X93460052Y-107900500D01*
X93527091Y-107920185D01*
X93560371Y-107951616D01*
X93608030Y-108017215D01*
X93752786Y-108161971D01*
X93907749Y-108274556D01*
X93918390Y-108282287D01*
X94034607Y-108341503D01*
X94100776Y-108375218D01*
X94100778Y-108375218D01*
X94100781Y-108375220D01*
X94205137Y-108409127D01*
X94295465Y-108438477D01*
X94396557Y-108454488D01*
X94497648Y-108470500D01*
X94497649Y-108470500D01*
X94702351Y-108470500D01*
X94702352Y-108470500D01*
X94904534Y-108438477D01*
X95099219Y-108375220D01*
X95281610Y-108282287D01*
X95374590Y-108214732D01*
X95447213Y-108161971D01*
X95447215Y-108161968D01*
X95447219Y-108161966D01*
X95591966Y-108017219D01*
X95661425Y-107921615D01*
X95716755Y-107878949D01*
X95761744Y-107870500D01*
X97498996Y-107870500D01*
X97593959Y-107851610D01*
X97634328Y-107843580D01*
X97698069Y-107817177D01*
X97761807Y-107790777D01*
X97761808Y-107790776D01*
X97761811Y-107790775D01*
X97876543Y-107714114D01*
X99287819Y-106302838D01*
X99349142Y-106269353D01*
X99418834Y-106274337D01*
X99474767Y-106316209D01*
X99499184Y-106381673D01*
X99499500Y-106390519D01*
X99499500Y-109375500D01*
X99479815Y-109442539D01*
X99427011Y-109488294D01*
X99375500Y-109499500D01*
X60624500Y-109499500D01*
X60557461Y-109479815D01*
X60511706Y-109427011D01*
X60500500Y-109375500D01*
X60500500Y-80624500D01*
X60520185Y-80557461D01*
X60572989Y-80511706D01*
X60624500Y-80500500D01*
X84959481Y-80500500D01*
X85026520Y-80520185D01*
G37*
%TD.AperFunction*%
%TD*%
M02*
