%TF.GenerationSoftware,KiCad,Pcbnew,9.0.0+dfsg-1*%
%TF.CreationDate,2025-03-20T15:03:27+01:00*%
%TF.ProjectId,relays-array-2,72656c61-7973-42d6-9172-7261792d322e,1.0*%
%TF.SameCoordinates,Original*%
%TF.FileFunction,Copper,L2,Bot*%
%TF.FilePolarity,Positive*%
%FSLAX46Y46*%
G04 Gerber Fmt 4.6, Leading zero omitted, Abs format (unit mm)*
G04 Created by KiCad (PCBNEW 9.0.0+dfsg-1) date 2025-03-20 15:03:27*
%MOMM*%
%LPD*%
G01*
G04 APERTURE LIST*
G04 Aperture macros list*
%AMRoundRect*
0 Rectangle with rounded corners*
0 $1 Rounding radius*
0 $2 $3 $4 $5 $6 $7 $8 $9 X,Y pos of 4 corners*
0 Add a 4 corners polygon primitive as box body*
4,1,4,$2,$3,$4,$5,$6,$7,$8,$9,$2,$3,0*
0 Add four circle primitives for the rounded corners*
1,1,$1+$1,$2,$3*
1,1,$1+$1,$4,$5*
1,1,$1+$1,$6,$7*
1,1,$1+$1,$8,$9*
0 Add four rect primitives between the rounded corners*
20,1,$1+$1,$2,$3,$4,$5,0*
20,1,$1+$1,$4,$5,$6,$7,0*
20,1,$1+$1,$6,$7,$8,$9,0*
20,1,$1+$1,$8,$9,$2,$3,0*%
%AMFreePoly0*
4,1,23,0.500000,-0.750000,0.000000,-0.750000,0.000000,-0.745722,-0.065263,-0.745722,-0.191342,-0.711940,-0.304381,-0.646677,-0.396677,-0.554381,-0.461940,-0.441342,-0.495722,-0.315263,-0.495722,-0.250000,-0.500000,-0.250000,-0.500000,0.250000,-0.495722,0.250000,-0.495722,0.315263,-0.461940,0.441342,-0.396677,0.554381,-0.304381,0.646677,-0.191342,0.711940,-0.065263,0.745722,0.000000,0.745722,
0.000000,0.750000,0.500000,0.750000,0.500000,-0.750000,0.500000,-0.750000,$1*%
%AMFreePoly1*
4,1,23,0.000000,0.745722,0.065263,0.745722,0.191342,0.711940,0.304381,0.646677,0.396677,0.554381,0.461940,0.441342,0.495722,0.315263,0.495722,0.250000,0.500000,0.250000,0.500000,-0.250000,0.495722,-0.250000,0.495722,-0.315263,0.461940,-0.441342,0.396677,-0.554381,0.304381,-0.646677,0.191342,-0.711940,0.065263,-0.745722,0.000000,-0.745722,0.000000,-0.750000,-0.500000,-0.750000,
-0.500000,0.750000,0.000000,0.750000,0.000000,0.745722,0.000000,0.745722,$1*%
G04 Aperture macros list end*
%TA.AperFunction,EtchedComponent*%
%ADD10C,0.000000*%
%TD*%
%TA.AperFunction,ComponentPad*%
%ADD11R,3.000000X3.000000*%
%TD*%
%TA.AperFunction,ComponentPad*%
%ADD12C,3.000000*%
%TD*%
%TA.AperFunction,ComponentPad*%
%ADD13R,2.200000X2.200000*%
%TD*%
%TA.AperFunction,ComponentPad*%
%ADD14O,2.200000X2.200000*%
%TD*%
%TA.AperFunction,ComponentPad*%
%ADD15C,1.600000*%
%TD*%
%TA.AperFunction,ComponentPad*%
%ADD16O,1.600000X1.600000*%
%TD*%
%TA.AperFunction,ComponentPad*%
%ADD17R,1.600000X1.600000*%
%TD*%
%TA.AperFunction,ComponentPad*%
%ADD18C,2.400000*%
%TD*%
%TA.AperFunction,ComponentPad*%
%ADD19O,2.400000X2.400000*%
%TD*%
%TA.AperFunction,ComponentPad*%
%ADD20C,2.000000*%
%TD*%
%TA.AperFunction,ComponentPad*%
%ADD21R,2.000000X2.000000*%
%TD*%
%TA.AperFunction,ComponentPad*%
%ADD22RoundRect,0.250000X-0.950000X-0.550000X0.950000X-0.550000X0.950000X0.550000X-0.950000X0.550000X0*%
%TD*%
%TA.AperFunction,ComponentPad*%
%ADD23O,2.400000X1.600000*%
%TD*%
%TA.AperFunction,SMDPad,CuDef*%
%ADD24FreePoly0,0.000000*%
%TD*%
%TA.AperFunction,SMDPad,CuDef*%
%ADD25FreePoly1,0.000000*%
%TD*%
%TA.AperFunction,ViaPad*%
%ADD26C,0.600000*%
%TD*%
%TA.AperFunction,Conductor*%
%ADD27C,0.500000*%
%TD*%
%TA.AperFunction,Conductor*%
%ADD28C,2.000000*%
%TD*%
G04 APERTURE END LIST*
D10*
%TA.AperFunction,EtchedComponent*%
%TO.C,JP1*%
G36*
X47722851Y-120744036D02*
G01*
X47222851Y-120744036D01*
X47222851Y-120144036D01*
X47722851Y-120144036D01*
X47722851Y-120744036D01*
G37*
%TD.AperFunction*%
%TD*%
D11*
%TO.P,J16,1,Pin_1*%
%TO.N,GND*%
X50180000Y-114500000D03*
D12*
%TO.P,J16,2,Pin_2*%
%TO.N,Net-(J16-Pin_2)*%
X45100000Y-114500000D03*
%TD*%
D13*
%TO.P,D2,1,K*%
%TO.N,+12V*%
X103560000Y-70250000D03*
D14*
%TO.P,D2,2,A*%
%TO.N,Net-(D2-A)*%
X95940000Y-70250000D03*
%TD*%
D15*
%TO.P,C2,1*%
%TO.N,Net-(U1-+)*%
X38100000Y-98200000D03*
%TO.P,C2,2*%
%TO.N,Net-(J16-Pin_2)*%
X43100000Y-98200000D03*
%TD*%
%TO.P,R13,1*%
%TO.N,VCC*%
X55100000Y-84100000D03*
D16*
%TO.P,R13,2*%
%TO.N,+12V*%
X55100000Y-76480000D03*
%TD*%
D17*
%TO.P,C8,1*%
%TO.N,Net-(U1--)*%
X58800000Y-89700000D03*
D15*
%TO.P,C8,2*%
%TO.N,/SIGNAL*%
X58800000Y-91700000D03*
%TD*%
D12*
%TO.P,J2,R*%
%TO.N,unconnected-(J2-PadR)*%
X105000000Y-116350000D03*
%TO.P,J2,RN*%
%TO.N,unconnected-(J2-PadRN)*%
X88770000Y-116350000D03*
%TO.P,J2,S*%
%TO.N,Net-(J2-PadS)*%
X105000000Y-122700000D03*
%TO.P,J2,SN*%
%TO.N,unconnected-(J2-PadSN)*%
X88770000Y-122700000D03*
%TO.P,J2,T*%
%TO.N,Net-(J2-PadT)*%
X105000000Y-110000000D03*
%TO.P,J2,TN*%
%TO.N,unconnected-(J2-PadTN)*%
X88770000Y-110000000D03*
%TD*%
D17*
%TO.P,C10,1*%
%TO.N,GNDS*%
X38100000Y-77200000D03*
D15*
%TO.P,C10,2*%
%TO.N,GND*%
X40100000Y-77200000D03*
%TD*%
D13*
%TO.P,D9,1,K*%
%TO.N,+12V*%
X49200000Y-76410000D03*
D14*
%TO.P,D9,2,A*%
%TO.N,GND*%
X49200000Y-68790000D03*
%TD*%
D12*
%TO.P,J14,R*%
%TO.N,unconnected-(J14-PadR)*%
X55000000Y-116350000D03*
%TO.P,J14,RN*%
%TO.N,unconnected-(J14-PadRN)*%
X38770000Y-116350000D03*
%TO.P,J14,S*%
%TO.N,GND*%
X55000000Y-122700000D03*
%TO.P,J14,SN*%
%TO.N,unconnected-(J14-PadSN)*%
X38770000Y-122700000D03*
%TO.P,J14,T*%
%TO.N,Net-(J16-Pin_2)*%
X55000000Y-110000000D03*
%TO.P,J14,TN*%
%TO.N,unconnected-(J14-PadTN)*%
X38770000Y-110000000D03*
%TD*%
D18*
%TO.P,R2,1*%
%TO.N,Net-(JP2-B)*%
X88750000Y-95000000D03*
D19*
%TO.P,R2,2*%
%TO.N,Net-(JP2-A)*%
X88750000Y-79760000D03*
%TD*%
D20*
%TO.P,K1,11*%
%TO.N,Net-(J1-PadS)*%
X65000000Y-95000000D03*
%TO.P,K1,12*%
%TO.N,Net-(JP3-A)*%
X65000000Y-90000000D03*
%TO.P,K1,14*%
%TO.N,GND*%
X65000000Y-100000000D03*
%TO.P,K1,21*%
%TO.N,Net-(J1-PadT)*%
X72500000Y-95000000D03*
%TO.P,K1,22*%
%TO.N,Net-(JP3-B)*%
X72500000Y-90000000D03*
%TO.P,K1,24*%
%TO.N,/SIGNAL*%
X72500000Y-100000000D03*
D21*
%TO.P,K1,A1*%
%TO.N,Net-(D1-A)*%
X65000000Y-75000000D03*
D20*
%TO.P,K1,A2*%
%TO.N,+12V*%
X72500000Y-75000000D03*
%TD*%
D13*
%TO.P,D1,1,K*%
%TO.N,+12V*%
X72560000Y-70250000D03*
D14*
%TO.P,D1,2,A*%
%TO.N,Net-(D1-A)*%
X64940000Y-70250000D03*
%TD*%
D15*
%TO.P,R16,1*%
%TO.N,GNDS*%
X38100000Y-82080000D03*
D16*
%TO.P,R16,2*%
%TO.N,Net-(U1-+)*%
X38100000Y-89700000D03*
%TD*%
D12*
%TO.P,J1,R*%
%TO.N,unconnected-(J1-PadR)*%
X80000000Y-116350000D03*
%TO.P,J1,RN*%
%TO.N,unconnected-(J1-PadRN)*%
X63770000Y-116350000D03*
%TO.P,J1,S*%
%TO.N,Net-(J1-PadS)*%
X80000000Y-122700000D03*
%TO.P,J1,SN*%
%TO.N,unconnected-(J1-PadSN)*%
X63770000Y-122700000D03*
%TO.P,J1,T*%
%TO.N,Net-(J1-PadT)*%
X80000000Y-110000000D03*
%TO.P,J1,TN*%
%TO.N,unconnected-(J1-PadTN)*%
X63770000Y-110000000D03*
%TD*%
D20*
%TO.P,K2,11*%
%TO.N,Net-(J2-PadS)*%
X96000000Y-95000000D03*
%TO.P,K2,12*%
%TO.N,Net-(JP2-A)*%
X96000000Y-90000000D03*
%TO.P,K2,14*%
%TO.N,GND*%
X96000000Y-100000000D03*
%TO.P,K2,21*%
%TO.N,Net-(J2-PadT)*%
X103500000Y-95000000D03*
%TO.P,K2,22*%
%TO.N,Net-(JP2-B)*%
X103500000Y-90000000D03*
%TO.P,K2,24*%
%TO.N,/SIGNAL*%
X103500000Y-100000000D03*
D21*
%TO.P,K2,A1*%
%TO.N,Net-(D2-A)*%
X96000000Y-75000000D03*
D20*
%TO.P,K2,A2*%
%TO.N,+12V*%
X103500000Y-75000000D03*
%TD*%
D15*
%TO.P,R9,1*%
%TO.N,GND*%
X59300000Y-107600000D03*
D16*
%TO.P,R9,2*%
%TO.N,/SIGNAL*%
X59300000Y-99980000D03*
%TD*%
D15*
%TO.P,C1,1*%
%TO.N,/SIGNAL*%
X53500000Y-94700000D03*
%TO.P,C1,2*%
%TO.N,Net-(U1--)*%
X53500000Y-89700000D03*
%TD*%
D18*
%TO.P,R1,1*%
%TO.N,Net-(JP3-B)*%
X80000000Y-95000000D03*
D19*
%TO.P,R1,2*%
%TO.N,Net-(JP3-A)*%
X80000000Y-79760000D03*
%TD*%
D15*
%TO.P,R15,1*%
%TO.N,GNDS*%
X38080000Y-68800000D03*
D16*
%TO.P,R15,2*%
%TO.N,GND*%
X45700000Y-68800000D03*
%TD*%
D11*
%TO.P,J3,1,Pin_1*%
%TO.N,Net-(D2-A)*%
X87040000Y-71000000D03*
D12*
%TO.P,J3,2,Pin_2*%
%TO.N,Net-(D1-A)*%
X81960000Y-71000000D03*
%TD*%
D22*
%TO.P,U1,1,VOS*%
%TO.N,unconnected-(U1-VOS-Pad1)*%
X41790000Y-84590000D03*
D23*
%TO.P,U1,2,-*%
%TO.N,Net-(U1--)*%
X41790000Y-87130000D03*
%TO.P,U1,3,+*%
%TO.N,Net-(U1-+)*%
X41790000Y-89670000D03*
%TO.P,U1,4,V-*%
%TO.N,GND*%
X41790000Y-92210000D03*
%TO.P,U1,5,NC*%
%TO.N,unconnected-(U1-NC-Pad5)*%
X49410000Y-92210000D03*
%TO.P,U1,6*%
%TO.N,Net-(U1--)*%
X49410000Y-89670000D03*
%TO.P,U1,7,V+*%
%TO.N,VCC*%
X49410000Y-87130000D03*
%TO.P,U1,8,VOS*%
%TO.N,unconnected-(U1-VOS-Pad8)*%
X49410000Y-84590000D03*
%TD*%
D11*
%TO.P,J15,1,Pin_1*%
%TO.N,/SIGNAL*%
X55000000Y-100000000D03*
D12*
%TO.P,J15,2,Pin_2*%
%TO.N,GND*%
X55000000Y-105080000D03*
%TD*%
D15*
%TO.P,R14,1*%
%TO.N,+12V*%
X45700000Y-72300000D03*
D16*
%TO.P,R14,2*%
%TO.N,GNDS*%
X38080000Y-72300000D03*
%TD*%
D17*
%TO.P,C7,1*%
%TO.N,VCC*%
X44700000Y-79155113D03*
D15*
%TO.P,C7,2*%
%TO.N,GND*%
X44700000Y-77155113D03*
%TD*%
%TO.P,C3,1*%
%TO.N,VCC*%
X59800000Y-84100000D03*
%TO.P,C3,2*%
%TO.N,GND*%
X59800000Y-79100000D03*
%TD*%
D11*
%TO.P,J10,1,Pin_1*%
%TO.N,+12V*%
X59280000Y-70900000D03*
D12*
%TO.P,J10,2,Pin_2*%
%TO.N,GND*%
X54200000Y-70900000D03*
%TD*%
D24*
%TO.P,JP1,1,A*%
%TO.N,Earth*%
X46822851Y-120444036D03*
D25*
%TO.P,JP1,2,B*%
%TO.N,GND*%
X48122851Y-120444036D03*
%TD*%
D26*
%TO.N,Earth*%
X43000000Y-120600000D03*
%TD*%
D27*
%TO.N,+12V*%
X60350000Y-67800000D02*
X70110000Y-67800000D01*
X59280000Y-70900000D02*
X59280000Y-68870000D01*
X70110000Y-67800000D02*
X72560000Y-70250000D01*
X72560000Y-70250000D02*
X75060000Y-67750000D01*
X75060000Y-67750000D02*
X101060000Y-67750000D01*
X59280000Y-68870000D02*
X60350000Y-67800000D01*
X101060000Y-67750000D02*
X103560000Y-70250000D01*
D28*
%TO.N,Net-(J1-PadS)*%
X68650000Y-111350000D02*
X68650000Y-98650000D01*
X68650000Y-98650000D02*
X65050000Y-95050000D01*
X80050000Y-122750000D02*
X68650000Y-111350000D01*
%TO.N,Net-(J1-PadT)*%
X80050000Y-102550000D02*
X72550000Y-95050000D01*
X80050000Y-110050000D02*
X80050000Y-102550000D01*
%TO.N,Net-(J2-PadS)*%
X99800000Y-117400000D02*
X99800000Y-98700000D01*
X99800000Y-98700000D02*
X96000000Y-94900000D01*
X105000000Y-122600000D02*
X99800000Y-117400000D01*
%TO.N,Net-(J2-PadT)*%
X105000000Y-110000000D02*
X105000000Y-103900000D01*
X107000000Y-101900000D02*
X107000000Y-98500000D01*
X107000000Y-98500000D02*
X103500000Y-95000000D01*
X105000000Y-103900000D02*
X107000000Y-101900000D01*
D27*
%TO.N,GND*%
X50180000Y-120480000D02*
X50180000Y-114500000D01*
X43490000Y-92210000D02*
X44300000Y-91400000D01*
X50180000Y-114500000D02*
X50180000Y-96280000D01*
X55000000Y-122700000D02*
X52400000Y-122700000D01*
X43344887Y-77155113D02*
X44700000Y-77155113D01*
X52400000Y-122700000D02*
X50180000Y-120480000D01*
X42600000Y-77900000D02*
X43344887Y-77155113D01*
X44300000Y-91400000D02*
X44300000Y-83000000D01*
X44300000Y-83000000D02*
X42600000Y-81300000D01*
D28*
X59300000Y-105700000D02*
X59920000Y-105080000D01*
D27*
X42800000Y-94800000D02*
X41790000Y-93790000D01*
X50180000Y-96280000D02*
X48700000Y-94800000D01*
X48700000Y-94800000D02*
X42800000Y-94800000D01*
D28*
X59300000Y-107600000D02*
X59300000Y-105700000D01*
X55000000Y-105080000D02*
X59920000Y-105080000D01*
D27*
X50178922Y-120478922D02*
X50180000Y-120480000D01*
D28*
X59920000Y-105080000D02*
X65000000Y-100000000D01*
D27*
X41790000Y-92210000D02*
X43490000Y-92210000D01*
X42600000Y-81300000D02*
X42600000Y-77900000D01*
X41790000Y-93790000D02*
X41790000Y-92210000D01*
X48084310Y-120478922D02*
X50178922Y-120478922D01*
D28*
%TO.N,Net-(JP2-B)*%
X93000000Y-86250000D02*
X99750000Y-86250000D01*
X88750000Y-95000000D02*
X88750000Y-90500000D01*
X88750000Y-90500000D02*
X93000000Y-86250000D01*
X99750000Y-86250000D02*
X103500000Y-90000000D01*
%TO.N,Net-(JP3-B)*%
X72500000Y-90000000D02*
X75000000Y-90000000D01*
X75000000Y-90000000D02*
X80000000Y-95000000D01*
%TD*%
%TA.AperFunction,Conductor*%
%TO.N,Earth*%
G36*
X45394118Y-67270462D02*
G01*
X45448656Y-67325000D01*
X45468618Y-67399500D01*
X45448656Y-67474000D01*
X45394118Y-67528538D01*
X45365662Y-67541207D01*
X45200787Y-67594778D01*
X45200775Y-67594782D01*
X45018387Y-67687714D01*
X44852787Y-67808028D01*
X44852779Y-67808035D01*
X44708035Y-67952779D01*
X44708028Y-67952787D01*
X44587714Y-68118387D01*
X44494782Y-68300775D01*
X44494778Y-68300787D01*
X44431523Y-68495465D01*
X44428509Y-68514495D01*
X44399500Y-68697648D01*
X44399500Y-68902352D01*
X44431523Y-69104534D01*
X44492602Y-69292517D01*
X44494778Y-69299212D01*
X44494782Y-69299224D01*
X44587714Y-69481612D01*
X44708028Y-69647212D01*
X44708035Y-69647220D01*
X44852779Y-69791964D01*
X44852787Y-69791971D01*
X44967363Y-69875214D01*
X45018390Y-69912287D01*
X45200781Y-70005220D01*
X45395466Y-70068477D01*
X45597648Y-70100500D01*
X45597653Y-70100500D01*
X45802347Y-70100500D01*
X45802352Y-70100500D01*
X46004534Y-70068477D01*
X46199219Y-70005220D01*
X46381610Y-69912287D01*
X46547219Y-69791966D01*
X46691966Y-69647219D01*
X46812287Y-69481610D01*
X46905220Y-69299219D01*
X46968477Y-69104534D01*
X47000500Y-68902352D01*
X47000500Y-68697648D01*
X46968477Y-68495466D01*
X46905220Y-68300781D01*
X46812287Y-68118390D01*
X46812285Y-68118387D01*
X46691971Y-67952787D01*
X46691964Y-67952779D01*
X46547220Y-67808035D01*
X46547212Y-67808028D01*
X46381612Y-67687714D01*
X46199224Y-67594782D01*
X46199220Y-67594780D01*
X46199219Y-67594780D01*
X46034337Y-67541206D01*
X45969653Y-67499200D01*
X45934638Y-67430479D01*
X45938675Y-67353456D01*
X45980682Y-67288771D01*
X46049403Y-67253756D01*
X46080382Y-67250500D01*
X48137431Y-67250500D01*
X48211931Y-67270462D01*
X48266469Y-67325000D01*
X48286431Y-67399500D01*
X48266469Y-67474000D01*
X48225011Y-67520043D01*
X48157353Y-67569199D01*
X48157342Y-67569208D01*
X47979208Y-67747342D01*
X47979206Y-67747345D01*
X47831131Y-67951152D01*
X47831131Y-67951153D01*
X47716762Y-68175615D01*
X47716757Y-68175627D01*
X47638911Y-68415212D01*
X47638910Y-68415212D01*
X47626199Y-68495466D01*
X47599500Y-68664038D01*
X47599500Y-68915962D01*
X47638910Y-69164785D01*
X47716759Y-69404379D01*
X47805300Y-69578151D01*
X47831131Y-69628846D01*
X47831131Y-69628847D01*
X47836053Y-69635621D01*
X47979207Y-69832656D01*
X48157344Y-70010793D01*
X48361155Y-70158870D01*
X48585621Y-70273241D01*
X48825215Y-70351090D01*
X49074038Y-70390500D01*
X49074043Y-70390500D01*
X49325957Y-70390500D01*
X49325962Y-70390500D01*
X49574785Y-70351090D01*
X49814379Y-70273241D01*
X50038845Y-70158870D01*
X50242656Y-70010793D01*
X50420793Y-69832656D01*
X50568870Y-69628845D01*
X50683241Y-69404379D01*
X50761090Y-69164785D01*
X50800500Y-68915962D01*
X50800500Y-68664038D01*
X50761090Y-68415215D01*
X50683241Y-68175621D01*
X50568870Y-67951155D01*
X50420793Y-67747344D01*
X50242656Y-67569207D01*
X50242654Y-67569205D01*
X50242646Y-67569199D01*
X50174989Y-67520043D01*
X50126451Y-67460104D01*
X50114385Y-67383925D01*
X50142026Y-67311920D01*
X50201965Y-67263382D01*
X50262569Y-67250500D01*
X59478415Y-67250500D01*
X59552915Y-67270462D01*
X59607453Y-67325000D01*
X59627415Y-67399500D01*
X59607453Y-67474000D01*
X59583774Y-67504859D01*
X58697046Y-68391586D01*
X58697045Y-68391588D01*
X58681261Y-68415212D01*
X58681259Y-68415214D01*
X58614921Y-68514495D01*
X58614913Y-68514510D01*
X58558341Y-68651087D01*
X58532784Y-68779570D01*
X58498670Y-68848744D01*
X58434540Y-68891593D01*
X58386647Y-68899500D01*
X57732136Y-68899500D01*
X57732111Y-68899502D01*
X57672521Y-68905908D01*
X57672515Y-68905909D01*
X57537670Y-68956202D01*
X57537666Y-68956204D01*
X57422455Y-69042452D01*
X57422452Y-69042455D01*
X57336204Y-69157666D01*
X57336202Y-69157670D01*
X57285908Y-69292517D01*
X57279500Y-69352114D01*
X57279500Y-72447863D01*
X57279502Y-72447888D01*
X57285908Y-72507478D01*
X57285909Y-72507484D01*
X57336202Y-72642329D01*
X57336204Y-72642333D01*
X57422452Y-72757544D01*
X57422455Y-72757547D01*
X57537666Y-72843795D01*
X57537670Y-72843797D01*
X57672517Y-72894091D01*
X57732114Y-72900499D01*
X57732118Y-72900499D01*
X57732127Y-72900500D01*
X60827872Y-72900499D01*
X60887483Y-72894091D01*
X60985471Y-72857544D01*
X61022329Y-72843797D01*
X61022333Y-72843795D01*
X61083453Y-72798040D01*
X61137546Y-72757546D01*
X61223796Y-72642331D01*
X61236794Y-72607483D01*
X61259022Y-72547885D01*
X61274091Y-72507483D01*
X61279246Y-72459538D01*
X61280499Y-72447885D01*
X61280499Y-72447882D01*
X61280500Y-72447873D01*
X61280499Y-69352128D01*
X61274091Y-69292517D01*
X61240315Y-69201959D01*
X61223797Y-69157670D01*
X61223795Y-69157666D01*
X61137547Y-69042455D01*
X61137544Y-69042452D01*
X61022333Y-68956204D01*
X61022329Y-68956202D01*
X60887482Y-68905908D01*
X60827885Y-68899500D01*
X60827873Y-68899500D01*
X60671585Y-68899500D01*
X60652637Y-68894423D01*
X60633021Y-68894423D01*
X60616033Y-68884615D01*
X60597085Y-68879538D01*
X60583213Y-68865666D01*
X60566226Y-68855859D01*
X60556418Y-68838871D01*
X60542547Y-68825000D01*
X60537469Y-68806051D01*
X60527662Y-68789064D01*
X60527662Y-68769447D01*
X60522585Y-68750500D01*
X60527662Y-68731552D01*
X60527662Y-68711936D01*
X60537469Y-68694948D01*
X60542547Y-68676000D01*
X60566226Y-68645141D01*
X60617226Y-68594141D01*
X60684021Y-68555577D01*
X60722585Y-68550500D01*
X64129423Y-68550500D01*
X64203923Y-68570462D01*
X64258461Y-68625000D01*
X64278423Y-68699500D01*
X64258461Y-68774000D01*
X64203923Y-68828538D01*
X64197068Y-68832260D01*
X64101153Y-68881131D01*
X64101152Y-68881131D01*
X63897345Y-69029206D01*
X63897342Y-69029208D01*
X63719208Y-69207342D01*
X63719206Y-69207345D01*
X63571131Y-69411152D01*
X63571131Y-69411153D01*
X63456762Y-69635615D01*
X63456757Y-69635627D01*
X63378910Y-69875214D01*
X63373039Y-69912285D01*
X63339500Y-70124038D01*
X63339500Y-70375962D01*
X63378910Y-70624785D01*
X63456759Y-70864379D01*
X63541719Y-71031123D01*
X63571131Y-71088846D01*
X63571131Y-71088847D01*
X63642962Y-71187713D01*
X63719207Y-71292656D01*
X63897344Y-71470793D01*
X64101155Y-71618870D01*
X64325621Y-71733241D01*
X64565215Y-71811090D01*
X64814038Y-71850500D01*
X64814043Y-71850500D01*
X65065957Y-71850500D01*
X65065962Y-71850500D01*
X65314785Y-71811090D01*
X65554379Y-71733241D01*
X65778845Y-71618870D01*
X65982656Y-71470793D01*
X66160793Y-71292656D01*
X66308870Y-71088845D01*
X66423241Y-70864379D01*
X66501090Y-70624785D01*
X66540500Y-70375962D01*
X66540500Y-70124038D01*
X66501090Y-69875215D01*
X66423241Y-69635621D01*
X66308870Y-69411155D01*
X66160793Y-69207344D01*
X65982656Y-69029207D01*
X65778845Y-68881130D01*
X65682931Y-68832259D01*
X65625615Y-68780651D01*
X65601781Y-68707298D01*
X65617817Y-68631855D01*
X65669426Y-68574538D01*
X65742779Y-68550704D01*
X65750577Y-68550500D01*
X69737414Y-68550500D01*
X69811914Y-68570462D01*
X69842773Y-68594141D01*
X70915859Y-69667226D01*
X70954423Y-69734021D01*
X70959500Y-69772585D01*
X70959500Y-71397863D01*
X70959502Y-71397888D01*
X70965908Y-71457478D01*
X70965909Y-71457484D01*
X71016202Y-71592329D01*
X71016204Y-71592333D01*
X71102452Y-71707544D01*
X71102455Y-71707547D01*
X71217666Y-71793795D01*
X71217670Y-71793797D01*
X71352517Y-71844091D01*
X71412114Y-71850499D01*
X71412118Y-71850499D01*
X71412127Y-71850500D01*
X73707872Y-71850499D01*
X73767483Y-71844091D01*
X73883587Y-71800787D01*
X73902329Y-71793797D01*
X73902333Y-71793795D01*
X73959938Y-71750671D01*
X74017546Y-71707546D01*
X74083929Y-71618870D01*
X74103795Y-71592333D01*
X74103797Y-71592329D01*
X74124174Y-71537693D01*
X74154091Y-71457483D01*
X74155823Y-71441370D01*
X74160499Y-71397885D01*
X74160500Y-71397867D01*
X74160500Y-70868876D01*
X79959500Y-70868876D01*
X79959500Y-71131123D01*
X79993728Y-71391107D01*
X79993728Y-71391110D01*
X80061600Y-71644415D01*
X80061600Y-71644416D01*
X80120537Y-71786701D01*
X80146962Y-71850497D01*
X80161959Y-71886701D01*
X80293078Y-72113806D01*
X80293078Y-72113807D01*
X80452715Y-72321848D01*
X80638151Y-72507284D01*
X80846193Y-72666921D01*
X80846197Y-72666924D01*
X81073303Y-72798043D01*
X81238020Y-72866271D01*
X81315583Y-72898399D01*
X81403332Y-72921910D01*
X81568884Y-72966270D01*
X81568890Y-72966270D01*
X81568891Y-72966271D01*
X81605834Y-72971134D01*
X81828877Y-73000499D01*
X81828878Y-73000500D01*
X81828880Y-73000500D01*
X82091122Y-73000500D01*
X82091122Y-73000499D01*
X82351108Y-72966271D01*
X82351110Y-72966271D01*
X82351111Y-72966270D01*
X82351116Y-72966270D01*
X82604415Y-72898399D01*
X82604416Y-72898399D01*
X82604417Y-72898398D01*
X82604419Y-72898398D01*
X82846697Y-72798043D01*
X83073803Y-72666924D01*
X83281848Y-72507284D01*
X83281849Y-72507284D01*
X83467284Y-72321849D01*
X83467284Y-72321848D01*
X83544018Y-72221848D01*
X83597115Y-72152650D01*
X83626921Y-72113807D01*
X83626921Y-72113806D01*
X83626924Y-72113803D01*
X83758043Y-71886697D01*
X83858398Y-71644419D01*
X83926270Y-71391116D01*
X83960500Y-71131120D01*
X83960500Y-70868880D01*
X83926270Y-70608884D01*
X83883242Y-70448302D01*
X83858399Y-70355584D01*
X83858399Y-70355583D01*
X83824292Y-70273242D01*
X83758043Y-70113303D01*
X83626924Y-69886197D01*
X83626921Y-69886193D01*
X83626921Y-69886192D01*
X83467284Y-69678151D01*
X83281848Y-69492715D01*
X83228936Y-69452114D01*
X85039500Y-69452114D01*
X85039500Y-72547863D01*
X85039502Y-72547888D01*
X85045908Y-72607478D01*
X85045909Y-72607484D01*
X85096202Y-72742329D01*
X85096204Y-72742333D01*
X85182452Y-72857544D01*
X85182455Y-72857547D01*
X85297666Y-72943795D01*
X85297670Y-72943797D01*
X85432517Y-72994091D01*
X85492114Y-73000499D01*
X85492118Y-73000499D01*
X85492127Y-73000500D01*
X88587872Y-73000499D01*
X88647483Y-72994091D01*
X88743447Y-72958298D01*
X88782329Y-72943797D01*
X88782333Y-72943795D01*
X88848728Y-72894091D01*
X88897546Y-72857546D01*
X88942092Y-72798040D01*
X88983795Y-72742333D01*
X88983797Y-72742329D01*
X89021093Y-72642333D01*
X89034091Y-72607483D01*
X89038452Y-72566921D01*
X89040499Y-72547885D01*
X89040499Y-72547882D01*
X89040500Y-72547873D01*
X89040499Y-69452128D01*
X89034091Y-69392517D01*
X88996795Y-69292521D01*
X88983797Y-69257670D01*
X88983795Y-69257666D01*
X88897547Y-69142455D01*
X88897544Y-69142452D01*
X88782333Y-69056204D01*
X88782329Y-69056202D01*
X88647482Y-69005908D01*
X88587876Y-68999500D01*
X85492136Y-68999500D01*
X85492111Y-68999502D01*
X85432521Y-69005908D01*
X85432515Y-69005909D01*
X85297670Y-69056202D01*
X85297666Y-69056204D01*
X85182455Y-69142452D01*
X85182452Y-69142455D01*
X85096204Y-69257666D01*
X85096202Y-69257670D01*
X85045908Y-69392517D01*
X85039500Y-69452114D01*
X83228936Y-69452114D01*
X83073806Y-69333078D01*
X83015160Y-69299219D01*
X82943188Y-69257666D01*
X82846701Y-69201959D01*
X82846699Y-69201958D01*
X82846697Y-69201957D01*
X82739779Y-69157670D01*
X82604416Y-69101600D01*
X82352265Y-69034038D01*
X82351116Y-69033730D01*
X82351114Y-69033729D01*
X82351108Y-69033728D01*
X82091123Y-68999500D01*
X82091120Y-68999500D01*
X81828880Y-68999500D01*
X81828876Y-68999500D01*
X81568892Y-69033728D01*
X81568889Y-69033728D01*
X81315584Y-69101600D01*
X81315583Y-69101600D01*
X81073298Y-69201959D01*
X80846193Y-69333078D01*
X80846192Y-69333078D01*
X80638151Y-69492715D01*
X80638151Y-69492716D01*
X80638149Y-69492718D01*
X80452718Y-69678149D01*
X80452716Y-69678151D01*
X80452715Y-69678151D01*
X80293078Y-69886192D01*
X80293078Y-69886193D01*
X80161959Y-70113298D01*
X80061600Y-70355583D01*
X80061600Y-70355584D01*
X79993728Y-70608889D01*
X79993728Y-70608892D01*
X79959500Y-70868876D01*
X74160500Y-70868876D01*
X74160500Y-70864002D01*
X74160499Y-69772585D01*
X74180461Y-69698085D01*
X74204136Y-69667230D01*
X75327227Y-68544141D01*
X75394022Y-68505577D01*
X75432586Y-68500500D01*
X95227554Y-68500500D01*
X95302054Y-68520462D01*
X95356592Y-68575000D01*
X95376554Y-68649500D01*
X95356592Y-68724000D01*
X95302054Y-68778538D01*
X95295206Y-68782256D01*
X95204373Y-68828538D01*
X95101153Y-68881131D01*
X95101152Y-68881131D01*
X94897345Y-69029206D01*
X94897342Y-69029208D01*
X94719208Y-69207342D01*
X94719206Y-69207345D01*
X94571131Y-69411152D01*
X94571131Y-69411153D01*
X94456762Y-69635615D01*
X94456757Y-69635627D01*
X94378910Y-69875214D01*
X94373039Y-69912285D01*
X94339500Y-70124038D01*
X94339500Y-70375962D01*
X94378910Y-70624785D01*
X94456759Y-70864379D01*
X94541719Y-71031123D01*
X94571131Y-71088846D01*
X94571131Y-71088847D01*
X94642962Y-71187713D01*
X94719207Y-71292656D01*
X94897344Y-71470793D01*
X95101155Y-71618870D01*
X95325621Y-71733241D01*
X95565215Y-71811090D01*
X95814038Y-71850500D01*
X95814043Y-71850500D01*
X96065957Y-71850500D01*
X96065962Y-71850500D01*
X96314785Y-71811090D01*
X96554379Y-71733241D01*
X96778845Y-71618870D01*
X96982656Y-71470793D01*
X97160793Y-71292656D01*
X97308870Y-71088845D01*
X97423241Y-70864379D01*
X97501090Y-70624785D01*
X97540500Y-70375962D01*
X97540500Y-70124038D01*
X97501090Y-69875215D01*
X97423241Y-69635621D01*
X97308870Y-69411155D01*
X97160793Y-69207344D01*
X96982656Y-69029207D01*
X96778845Y-68881130D01*
X96584800Y-68782259D01*
X96527484Y-68730651D01*
X96503650Y-68657298D01*
X96519686Y-68581855D01*
X96571295Y-68524538D01*
X96644648Y-68500704D01*
X96652446Y-68500500D01*
X100687414Y-68500500D01*
X100761914Y-68520462D01*
X100792773Y-68544141D01*
X101915859Y-69667227D01*
X101954423Y-69734022D01*
X101959500Y-69772586D01*
X101959500Y-71397863D01*
X101959502Y-71397888D01*
X101965908Y-71457478D01*
X101965909Y-71457484D01*
X102016202Y-71592329D01*
X102016204Y-71592333D01*
X102102452Y-71707544D01*
X102102455Y-71707547D01*
X102217666Y-71793795D01*
X102217670Y-71793797D01*
X102352517Y-71844091D01*
X102412114Y-71850499D01*
X102412118Y-71850499D01*
X102412127Y-71850500D01*
X104707872Y-71850499D01*
X104767483Y-71844091D01*
X104883587Y-71800787D01*
X104902329Y-71793797D01*
X104902333Y-71793795D01*
X104959938Y-71750671D01*
X105017546Y-71707546D01*
X105083929Y-71618870D01*
X105103795Y-71592333D01*
X105103797Y-71592329D01*
X105124174Y-71537693D01*
X105154091Y-71457483D01*
X105155823Y-71441370D01*
X105160499Y-71397885D01*
X105160499Y-71397882D01*
X105160500Y-71397873D01*
X105160499Y-69102128D01*
X105154091Y-69042517D01*
X105123142Y-68959538D01*
X105103797Y-68907670D01*
X105103795Y-68907666D01*
X105017547Y-68792455D01*
X105017544Y-68792452D01*
X104902333Y-68706204D01*
X104902329Y-68706202D01*
X104767482Y-68655908D01*
X104707885Y-68649500D01*
X104707873Y-68649500D01*
X103082586Y-68649500D01*
X103008086Y-68629538D01*
X102977227Y-68605859D01*
X101876227Y-67504859D01*
X101837663Y-67438064D01*
X101837663Y-67360936D01*
X101876227Y-67294141D01*
X101943022Y-67255577D01*
X101981586Y-67250500D01*
X108350500Y-67250500D01*
X108425000Y-67270462D01*
X108479538Y-67325000D01*
X108499500Y-67399500D01*
X108499500Y-97552506D01*
X108479538Y-97627006D01*
X108425000Y-97681544D01*
X108350500Y-97701506D01*
X108276000Y-97681544D01*
X108229957Y-97640087D01*
X108144519Y-97522493D01*
X108144517Y-97522490D01*
X104477510Y-93855483D01*
X104477506Y-93855480D01*
X104477503Y-93855477D01*
X104286435Y-93716658D01*
X104286434Y-93716657D01*
X104075992Y-93609432D01*
X103851368Y-93536447D01*
X103618092Y-93499500D01*
X103381908Y-93499500D01*
X103148632Y-93536447D01*
X102924008Y-93609432D01*
X102924003Y-93609434D01*
X102923997Y-93609437D01*
X102713569Y-93716655D01*
X102713564Y-93716658D01*
X102522496Y-93855477D01*
X102355477Y-94022496D01*
X102216658Y-94213564D01*
X102216655Y-94213569D01*
X102109437Y-94423997D01*
X102109435Y-94424002D01*
X102109432Y-94424008D01*
X102036447Y-94648632D01*
X101999500Y-94881908D01*
X101999500Y-95118092D01*
X102036447Y-95351368D01*
X102109432Y-95575992D01*
X102216657Y-95786434D01*
X102248621Y-95830429D01*
X102355477Y-95977503D01*
X102355480Y-95977506D01*
X102355483Y-95977510D01*
X105455860Y-99077887D01*
X105494423Y-99144680D01*
X105499500Y-99183244D01*
X105499500Y-101216755D01*
X105479538Y-101291255D01*
X105455859Y-101322114D01*
X103855477Y-102922496D01*
X103716658Y-103113564D01*
X103716655Y-103113569D01*
X103609437Y-103323997D01*
X103609434Y-103324003D01*
X103609432Y-103324008D01*
X103536447Y-103548632D01*
X103499500Y-103781908D01*
X103499500Y-103781912D01*
X103499500Y-108618731D01*
X103479538Y-108693231D01*
X103468709Y-108709437D01*
X103333078Y-108886192D01*
X103333078Y-108886193D01*
X103201959Y-109113298D01*
X103101600Y-109355583D01*
X103101600Y-109355584D01*
X103033728Y-109608889D01*
X103033728Y-109608892D01*
X102999500Y-109868876D01*
X102999500Y-110131123D01*
X103033728Y-110391107D01*
X103033728Y-110391110D01*
X103101600Y-110644415D01*
X103101600Y-110644416D01*
X103201959Y-110886701D01*
X103333078Y-111113806D01*
X103333078Y-111113807D01*
X103492715Y-111321848D01*
X103678151Y-111507284D01*
X103886193Y-111666921D01*
X103886197Y-111666924D01*
X104113303Y-111798043D01*
X104317809Y-111882752D01*
X104355583Y-111898399D01*
X104443332Y-111921910D01*
X104608884Y-111966270D01*
X104608890Y-111966270D01*
X104608891Y-111966271D01*
X104645834Y-111971134D01*
X104868877Y-112000499D01*
X104868878Y-112000500D01*
X104868880Y-112000500D01*
X105131122Y-112000500D01*
X105131122Y-112000499D01*
X105391108Y-111966271D01*
X105391110Y-111966271D01*
X105391111Y-111966270D01*
X105391116Y-111966270D01*
X105644415Y-111898399D01*
X105644416Y-111898399D01*
X105644417Y-111898398D01*
X105644419Y-111898398D01*
X105886697Y-111798043D01*
X106113803Y-111666924D01*
X106321848Y-111507284D01*
X106321849Y-111507284D01*
X106507284Y-111321849D01*
X106507284Y-111321848D01*
X106666921Y-111113807D01*
X106666921Y-111113806D01*
X106666924Y-111113803D01*
X106798043Y-110886697D01*
X106898398Y-110644419D01*
X106966270Y-110391116D01*
X107000500Y-110131120D01*
X107000500Y-109868880D01*
X106966270Y-109608884D01*
X106898398Y-109355581D01*
X106798043Y-109113303D01*
X106666924Y-108886197D01*
X106666921Y-108886193D01*
X106666921Y-108886192D01*
X106531291Y-108709437D01*
X106501775Y-108638180D01*
X106500500Y-108618731D01*
X106500500Y-104583244D01*
X106520462Y-104508744D01*
X106544137Y-104477889D01*
X108144517Y-102877510D01*
X108229957Y-102759913D01*
X108289896Y-102711375D01*
X108366075Y-102699309D01*
X108438080Y-102726950D01*
X108486618Y-102786889D01*
X108499500Y-102847493D01*
X108499500Y-126100500D01*
X108479538Y-126175000D01*
X108425000Y-126229538D01*
X108350500Y-126249500D01*
X36649500Y-126249500D01*
X36575000Y-126229538D01*
X36520462Y-126175000D01*
X36500500Y-126100500D01*
X36500500Y-123061160D01*
X36520462Y-122986660D01*
X36575000Y-122932122D01*
X36649500Y-122912160D01*
X36724000Y-122932122D01*
X36778538Y-122986660D01*
X36797225Y-123041711D01*
X36803728Y-123091107D01*
X36803728Y-123091110D01*
X36871600Y-123344415D01*
X36871600Y-123344416D01*
X36971959Y-123586701D01*
X37103078Y-123813806D01*
X37103078Y-123813807D01*
X37262715Y-124021848D01*
X37448151Y-124207284D01*
X37656193Y-124366921D01*
X37656197Y-124366924D01*
X37883303Y-124498043D01*
X38087809Y-124582752D01*
X38125583Y-124598399D01*
X38213332Y-124621910D01*
X38378884Y-124666270D01*
X38378890Y-124666270D01*
X38378891Y-124666271D01*
X38415834Y-124671134D01*
X38638877Y-124700499D01*
X38638878Y-124700500D01*
X38638880Y-124700500D01*
X38901122Y-124700500D01*
X38901122Y-124700499D01*
X39161108Y-124666271D01*
X39161110Y-124666271D01*
X39161111Y-124666270D01*
X39161116Y-124666270D01*
X39414415Y-124598399D01*
X39414416Y-124598399D01*
X39414417Y-124598398D01*
X39414419Y-124598398D01*
X39656697Y-124498043D01*
X39883803Y-124366924D01*
X40091848Y-124207284D01*
X40091849Y-124207284D01*
X40277284Y-124021849D01*
X40277284Y-124021848D01*
X40436921Y-123813807D01*
X40436921Y-123813806D01*
X40436924Y-123813803D01*
X40568043Y-123586697D01*
X40668398Y-123344419D01*
X40736270Y-123091116D01*
X40770500Y-122831120D01*
X40770500Y-122568880D01*
X40736270Y-122308884D01*
X40668398Y-122055581D01*
X40568043Y-121813303D01*
X40436924Y-121586197D01*
X40436921Y-121586193D01*
X40436921Y-121586192D01*
X40277284Y-121378151D01*
X40091848Y-121192715D01*
X39883806Y-121033078D01*
X39656701Y-120901959D01*
X39656699Y-120901958D01*
X39656697Y-120901957D01*
X39581154Y-120870666D01*
X39414416Y-120801600D01*
X39188255Y-120741002D01*
X39161116Y-120733730D01*
X39161114Y-120733729D01*
X39161108Y-120733728D01*
X38901123Y-120699500D01*
X38901120Y-120699500D01*
X38638880Y-120699500D01*
X38638876Y-120699500D01*
X38378892Y-120733728D01*
X38378889Y-120733728D01*
X38125584Y-120801600D01*
X38125583Y-120801600D01*
X37883298Y-120901959D01*
X37656193Y-121033078D01*
X37656192Y-121033078D01*
X37448151Y-121192715D01*
X37448151Y-121192716D01*
X37448149Y-121192718D01*
X37262718Y-121378149D01*
X37262716Y-121378151D01*
X37262715Y-121378151D01*
X37103078Y-121586192D01*
X37103078Y-121586193D01*
X36971959Y-121813298D01*
X36871600Y-122055583D01*
X36871600Y-122055584D01*
X36803728Y-122308889D01*
X36803728Y-122308892D01*
X36797225Y-122358288D01*
X36767709Y-122429545D01*
X36706519Y-122476497D01*
X36630051Y-122486564D01*
X36558794Y-122457048D01*
X36511842Y-122395858D01*
X36500500Y-122338839D01*
X36500500Y-116711160D01*
X36520462Y-116636660D01*
X36575000Y-116582122D01*
X36649500Y-116562160D01*
X36724000Y-116582122D01*
X36778538Y-116636660D01*
X36797225Y-116691711D01*
X36803728Y-116741107D01*
X36803728Y-116741110D01*
X36871600Y-116994415D01*
X36871600Y-116994416D01*
X36971959Y-117236701D01*
X37103078Y-117463806D01*
X37103078Y-117463807D01*
X37262715Y-117671848D01*
X37448151Y-117857284D01*
X37602854Y-117975992D01*
X37656197Y-118016924D01*
X37883303Y-118148043D01*
X38087809Y-118232752D01*
X38125583Y-118248399D01*
X38213332Y-118271910D01*
X38378884Y-118316270D01*
X38378890Y-118316270D01*
X38378891Y-118316271D01*
X38415834Y-118321134D01*
X38638877Y-118350499D01*
X38638878Y-118350500D01*
X38638880Y-118350500D01*
X38901122Y-118350500D01*
X38901122Y-118350499D01*
X39161108Y-118316271D01*
X39161110Y-118316271D01*
X39161111Y-118316270D01*
X39161116Y-118316270D01*
X39414415Y-118248399D01*
X39414416Y-118248399D01*
X39414417Y-118248398D01*
X39414419Y-118248398D01*
X39656697Y-118148043D01*
X39883803Y-118016924D01*
X40091848Y-117857284D01*
X40091849Y-117857284D01*
X40277284Y-117671849D01*
X40277284Y-117671848D01*
X40436921Y-117463807D01*
X40436921Y-117463806D01*
X40436924Y-117463803D01*
X40568043Y-117236697D01*
X40668398Y-116994419D01*
X40736270Y-116741116D01*
X40770500Y-116481120D01*
X40770500Y-116218880D01*
X40736270Y-115958884D01*
X40668398Y-115705581D01*
X40568043Y-115463303D01*
X40436924Y-115236197D01*
X40436921Y-115236193D01*
X40436921Y-115236192D01*
X40277284Y-115028151D01*
X40091848Y-114842715D01*
X39883806Y-114683078D01*
X39656701Y-114551959D01*
X39656699Y-114551958D01*
X39656697Y-114551957D01*
X39509237Y-114490877D01*
X39414416Y-114451600D01*
X39188255Y-114391002D01*
X39161116Y-114383730D01*
X39161114Y-114383729D01*
X39161108Y-114383728D01*
X39048297Y-114368876D01*
X43099500Y-114368876D01*
X43099500Y-114631123D01*
X43133728Y-114891107D01*
X43133728Y-114891110D01*
X43201600Y-115144415D01*
X43201600Y-115144416D01*
X43301959Y-115386701D01*
X43433078Y-115613806D01*
X43433078Y-115613807D01*
X43592715Y-115821848D01*
X43778151Y-116007284D01*
X43908734Y-116107484D01*
X43986197Y-116166924D01*
X44213303Y-116298043D01*
X44417809Y-116382752D01*
X44455583Y-116398399D01*
X44543332Y-116421910D01*
X44708884Y-116466270D01*
X44708890Y-116466270D01*
X44708891Y-116466271D01*
X44745834Y-116471134D01*
X44968877Y-116500499D01*
X44968878Y-116500500D01*
X44968880Y-116500500D01*
X45231122Y-116500500D01*
X45231122Y-116500499D01*
X45491108Y-116466271D01*
X45491110Y-116466271D01*
X45491111Y-116466270D01*
X45491116Y-116466270D01*
X45744415Y-116398399D01*
X45744416Y-116398399D01*
X45744417Y-116398398D01*
X45744419Y-116398398D01*
X45986697Y-116298043D01*
X46213803Y-116166924D01*
X46421848Y-116007284D01*
X46421849Y-116007284D01*
X46607284Y-115821849D01*
X46607284Y-115821848D01*
X46766921Y-115613807D01*
X46766921Y-115613806D01*
X46766924Y-115613803D01*
X46898043Y-115386697D01*
X46998398Y-115144419D01*
X47066270Y-114891116D01*
X47100500Y-114631120D01*
X47100500Y-114368880D01*
X47066270Y-114108884D01*
X46998398Y-113855581D01*
X46898043Y-113613303D01*
X46766924Y-113386197D01*
X46766921Y-113386193D01*
X46766921Y-113386192D01*
X46607284Y-113178151D01*
X46421848Y-112992715D01*
X46213806Y-112833078D01*
X45986701Y-112701959D01*
X45986699Y-112701958D01*
X45986697Y-112701957D01*
X45843047Y-112642455D01*
X45744416Y-112601600D01*
X45518255Y-112541002D01*
X45491116Y-112533730D01*
X45491114Y-112533729D01*
X45491108Y-112533728D01*
X45231123Y-112499500D01*
X45231120Y-112499500D01*
X44968880Y-112499500D01*
X44968876Y-112499500D01*
X44708892Y-112533728D01*
X44708889Y-112533728D01*
X44455584Y-112601600D01*
X44455583Y-112601600D01*
X44213298Y-112701959D01*
X43986193Y-112833078D01*
X43986192Y-112833078D01*
X43778151Y-112992715D01*
X43778151Y-112992716D01*
X43778149Y-112992718D01*
X43592718Y-113178149D01*
X43592716Y-113178151D01*
X43592715Y-113178151D01*
X43433078Y-113386192D01*
X43433078Y-113386193D01*
X43301959Y-113613298D01*
X43201600Y-113855583D01*
X43201600Y-113855584D01*
X43133728Y-114108889D01*
X43133728Y-114108892D01*
X43099500Y-114368876D01*
X39048297Y-114368876D01*
X38901123Y-114349500D01*
X38901120Y-114349500D01*
X38638880Y-114349500D01*
X38638876Y-114349500D01*
X38378892Y-114383728D01*
X38378889Y-114383728D01*
X38125584Y-114451600D01*
X38125583Y-114451600D01*
X37883298Y-114551959D01*
X37656193Y-114683078D01*
X37656192Y-114683078D01*
X37448151Y-114842715D01*
X37448151Y-114842716D01*
X37448149Y-114842718D01*
X37262718Y-115028149D01*
X37262716Y-115028151D01*
X37262715Y-115028151D01*
X37103078Y-115236192D01*
X37103078Y-115236193D01*
X36971959Y-115463298D01*
X36871600Y-115705583D01*
X36871600Y-115705584D01*
X36803728Y-115958889D01*
X36803728Y-115958892D01*
X36797225Y-116008288D01*
X36767709Y-116079545D01*
X36706519Y-116126497D01*
X36630051Y-116136564D01*
X36558794Y-116107048D01*
X36511842Y-116045858D01*
X36500500Y-115988839D01*
X36500500Y-110361160D01*
X36520462Y-110286660D01*
X36575000Y-110232122D01*
X36649500Y-110212160D01*
X36724000Y-110232122D01*
X36778538Y-110286660D01*
X36797225Y-110341711D01*
X36803728Y-110391107D01*
X36803728Y-110391110D01*
X36871600Y-110644415D01*
X36871600Y-110644416D01*
X36971959Y-110886701D01*
X37103078Y-111113806D01*
X37103078Y-111113807D01*
X37262715Y-111321848D01*
X37448151Y-111507284D01*
X37656193Y-111666921D01*
X37656197Y-111666924D01*
X37883303Y-111798043D01*
X38087809Y-111882752D01*
X38125583Y-111898399D01*
X38213332Y-111921910D01*
X38378884Y-111966270D01*
X38378890Y-111966270D01*
X38378891Y-111966271D01*
X38415834Y-111971134D01*
X38638877Y-112000499D01*
X38638878Y-112000500D01*
X38638880Y-112000500D01*
X38901122Y-112000500D01*
X38901122Y-112000499D01*
X39161108Y-111966271D01*
X39161110Y-111966271D01*
X39161111Y-111966270D01*
X39161116Y-111966270D01*
X39414415Y-111898399D01*
X39414416Y-111898399D01*
X39414417Y-111898398D01*
X39414419Y-111898398D01*
X39656697Y-111798043D01*
X39883803Y-111666924D01*
X40091848Y-111507284D01*
X40091849Y-111507284D01*
X40277284Y-111321849D01*
X40277284Y-111321848D01*
X40436921Y-111113807D01*
X40436921Y-111113806D01*
X40436924Y-111113803D01*
X40568043Y-110886697D01*
X40668398Y-110644419D01*
X40736270Y-110391116D01*
X40770500Y-110131120D01*
X40770500Y-109868880D01*
X40736270Y-109608884D01*
X40668398Y-109355581D01*
X40568043Y-109113303D01*
X40436924Y-108886197D01*
X40436921Y-108886193D01*
X40436921Y-108886192D01*
X40277284Y-108678151D01*
X40091848Y-108492715D01*
X39883806Y-108333078D01*
X39656701Y-108201959D01*
X39656699Y-108201958D01*
X39656697Y-108201957D01*
X39581154Y-108170666D01*
X39414416Y-108101600D01*
X39188255Y-108041002D01*
X39161116Y-108033730D01*
X39161114Y-108033729D01*
X39161108Y-108033728D01*
X38901123Y-107999500D01*
X38901120Y-107999500D01*
X38638880Y-107999500D01*
X38638876Y-107999500D01*
X38378892Y-108033728D01*
X38378889Y-108033728D01*
X38125584Y-108101600D01*
X38125583Y-108101600D01*
X37883298Y-108201959D01*
X37656193Y-108333078D01*
X37656192Y-108333078D01*
X37448151Y-108492715D01*
X37448151Y-108492716D01*
X37448149Y-108492718D01*
X37262718Y-108678149D01*
X37262716Y-108678151D01*
X37262715Y-108678151D01*
X37103078Y-108886192D01*
X37103078Y-108886193D01*
X36971959Y-109113298D01*
X36871600Y-109355583D01*
X36871600Y-109355584D01*
X36803728Y-109608889D01*
X36803728Y-109608892D01*
X36797225Y-109658288D01*
X36767709Y-109729545D01*
X36706519Y-109776497D01*
X36630051Y-109786564D01*
X36558794Y-109757048D01*
X36511842Y-109695858D01*
X36500500Y-109638839D01*
X36500500Y-98097648D01*
X36799500Y-98097648D01*
X36799500Y-98302352D01*
X36831523Y-98504534D01*
X36865607Y-98609435D01*
X36894778Y-98699212D01*
X36894782Y-98699224D01*
X36987714Y-98881612D01*
X37108028Y-99047212D01*
X37108035Y-99047220D01*
X37252779Y-99191964D01*
X37252787Y-99191971D01*
X37394157Y-99294681D01*
X37418390Y-99312287D01*
X37600781Y-99405220D01*
X37795466Y-99468477D01*
X37997648Y-99500500D01*
X37997653Y-99500500D01*
X38202347Y-99500500D01*
X38202352Y-99500500D01*
X38404534Y-99468477D01*
X38599219Y-99405220D01*
X38781610Y-99312287D01*
X38947219Y-99191966D01*
X39091966Y-99047219D01*
X39212287Y-98881610D01*
X39305220Y-98699219D01*
X39368477Y-98504534D01*
X39400500Y-98302352D01*
X39400500Y-98097648D01*
X41799500Y-98097648D01*
X41799500Y-98302352D01*
X41831523Y-98504534D01*
X41865607Y-98609435D01*
X41894778Y-98699212D01*
X41894782Y-98699224D01*
X41987714Y-98881612D01*
X42108028Y-99047212D01*
X42108035Y-99047220D01*
X42252779Y-99191964D01*
X42252787Y-99191971D01*
X42394157Y-99294681D01*
X42418390Y-99312287D01*
X42600781Y-99405220D01*
X42795466Y-99468477D01*
X42997648Y-99500500D01*
X42997653Y-99500500D01*
X43202347Y-99500500D01*
X43202352Y-99500500D01*
X43404534Y-99468477D01*
X43599219Y-99405220D01*
X43781610Y-99312287D01*
X43947219Y-99191966D01*
X44091966Y-99047219D01*
X44212287Y-98881610D01*
X44305220Y-98699219D01*
X44368477Y-98504534D01*
X44400500Y-98302352D01*
X44400500Y-98097648D01*
X44368477Y-97895466D01*
X44305220Y-97700781D01*
X44212287Y-97518390D01*
X44212285Y-97518387D01*
X44091971Y-97352787D01*
X44091964Y-97352779D01*
X43947220Y-97208035D01*
X43947212Y-97208028D01*
X43781612Y-97087714D01*
X43599224Y-96994782D01*
X43599220Y-96994780D01*
X43599219Y-96994780D01*
X43404534Y-96931523D01*
X43202352Y-96899500D01*
X42997648Y-96899500D01*
X42829163Y-96926185D01*
X42795465Y-96931523D01*
X42600787Y-96994778D01*
X42600775Y-96994782D01*
X42418387Y-97087714D01*
X42252787Y-97208028D01*
X42252779Y-97208035D01*
X42108035Y-97352779D01*
X42108028Y-97352787D01*
X41987714Y-97518387D01*
X41894782Y-97700775D01*
X41894778Y-97700787D01*
X41841888Y-97863567D01*
X41831523Y-97895466D01*
X41799500Y-98097648D01*
X39400500Y-98097648D01*
X39368477Y-97895466D01*
X39305220Y-97700781D01*
X39212287Y-97518390D01*
X39212285Y-97518387D01*
X39091971Y-97352787D01*
X39091964Y-97352779D01*
X38947220Y-97208035D01*
X38947212Y-97208028D01*
X38781612Y-97087714D01*
X38599224Y-96994782D01*
X38599220Y-96994780D01*
X38599219Y-96994780D01*
X38404534Y-96931523D01*
X38202352Y-96899500D01*
X37997648Y-96899500D01*
X37829163Y-96926185D01*
X37795465Y-96931523D01*
X37600787Y-96994778D01*
X37600775Y-96994782D01*
X37418387Y-97087714D01*
X37252787Y-97208028D01*
X37252779Y-97208035D01*
X37108035Y-97352779D01*
X37108028Y-97352787D01*
X36987714Y-97518387D01*
X36894782Y-97700775D01*
X36894778Y-97700787D01*
X36841888Y-97863567D01*
X36831523Y-97895466D01*
X36799500Y-98097648D01*
X36500500Y-98097648D01*
X36500500Y-89597648D01*
X36799500Y-89597648D01*
X36799500Y-89802352D01*
X36831523Y-90004534D01*
X36885032Y-90169219D01*
X36894778Y-90199212D01*
X36894782Y-90199224D01*
X36987714Y-90381612D01*
X37108028Y-90547212D01*
X37108035Y-90547220D01*
X37252779Y-90691964D01*
X37252787Y-90691971D01*
X37382806Y-90786434D01*
X37418390Y-90812287D01*
X37600781Y-90905220D01*
X37795466Y-90968477D01*
X37997648Y-91000500D01*
X37997653Y-91000500D01*
X38202347Y-91000500D01*
X38202352Y-91000500D01*
X38404534Y-90968477D01*
X38599219Y-90905220D01*
X38781610Y-90812287D01*
X38947219Y-90691966D01*
X39091966Y-90547219D01*
X39212287Y-90381610D01*
X39305220Y-90199219D01*
X39368477Y-90004534D01*
X39400500Y-89802352D01*
X39400500Y-89597648D01*
X39368477Y-89395466D01*
X39305220Y-89200781D01*
X39212287Y-89018390D01*
X39152221Y-88935715D01*
X39091971Y-88852787D01*
X39091964Y-88852779D01*
X38947220Y-88708035D01*
X38947212Y-88708028D01*
X38781612Y-88587714D01*
X38599224Y-88494782D01*
X38599220Y-88494780D01*
X38599219Y-88494780D01*
X38404534Y-88431523D01*
X38202352Y-88399500D01*
X37997648Y-88399500D01*
X37829163Y-88426185D01*
X37795465Y-88431523D01*
X37600787Y-88494778D01*
X37600775Y-88494782D01*
X37418387Y-88587714D01*
X37252787Y-88708028D01*
X37252779Y-88708035D01*
X37108035Y-88852779D01*
X37108028Y-88852787D01*
X36987714Y-89018387D01*
X36894782Y-89200775D01*
X36894778Y-89200787D01*
X36841271Y-89365466D01*
X36831523Y-89395466D01*
X36799500Y-89597648D01*
X36500500Y-89597648D01*
X36500500Y-83989995D01*
X40089500Y-83989995D01*
X40089500Y-85190003D01*
X40097837Y-85271610D01*
X40100001Y-85292797D01*
X40155186Y-85459334D01*
X40247288Y-85608656D01*
X40371344Y-85732712D01*
X40520666Y-85824814D01*
X40556330Y-85836632D01*
X40620768Y-85879014D01*
X40655383Y-85947938D01*
X40650898Y-86024936D01*
X40608515Y-86089375D01*
X40597041Y-86098612D01*
X40542782Y-86138033D01*
X40542779Y-86138035D01*
X40398035Y-86282779D01*
X40398028Y-86282787D01*
X40277714Y-86448387D01*
X40184782Y-86630775D01*
X40184780Y-86630781D01*
X40121523Y-86825466D01*
X40089500Y-87027648D01*
X40089500Y-87232352D01*
X40121523Y-87434534D01*
X40184778Y-87629212D01*
X40184782Y-87629224D01*
X40277714Y-87811612D01*
X40398028Y-87977212D01*
X40398035Y-87977220D01*
X40542779Y-88121964D01*
X40542787Y-88121971D01*
X40632130Y-88186881D01*
X40708390Y-88242287D01*
X40757363Y-88267240D01*
X40814680Y-88318849D01*
X40838514Y-88392203D01*
X40822478Y-88467645D01*
X40770869Y-88524962D01*
X40757363Y-88532760D01*
X40708388Y-88557714D01*
X40542787Y-88678028D01*
X40542779Y-88678035D01*
X40398035Y-88822779D01*
X40398028Y-88822787D01*
X40277714Y-88988387D01*
X40184782Y-89170775D01*
X40184780Y-89170781D01*
X40121523Y-89365466D01*
X40089500Y-89567648D01*
X40089500Y-89772352D01*
X40113521Y-89924014D01*
X40121523Y-89974534D01*
X40184778Y-90169212D01*
X40184782Y-90169224D01*
X40277714Y-90351612D01*
X40398028Y-90517212D01*
X40398035Y-90517220D01*
X40542779Y-90661964D01*
X40542787Y-90661971D01*
X40632130Y-90726881D01*
X40708390Y-90782287D01*
X40757363Y-90807240D01*
X40814680Y-90858849D01*
X40838514Y-90932203D01*
X40822478Y-91007645D01*
X40770869Y-91064962D01*
X40757363Y-91072759D01*
X40728037Y-91087701D01*
X40708388Y-91097714D01*
X40542787Y-91218028D01*
X40542779Y-91218035D01*
X40398035Y-91362779D01*
X40398028Y-91362787D01*
X40277714Y-91528387D01*
X40184782Y-91710775D01*
X40184778Y-91710787D01*
X40130312Y-91878417D01*
X40121523Y-91905466D01*
X40089500Y-92107648D01*
X40089500Y-92312352D01*
X40100470Y-92381610D01*
X40121523Y-92514534D01*
X40184778Y-92709212D01*
X40184782Y-92709224D01*
X40277714Y-92891612D01*
X40398028Y-93057212D01*
X40398035Y-93057220D01*
X40542779Y-93201964D01*
X40542787Y-93201971D01*
X40708387Y-93322285D01*
X40708390Y-93322287D01*
X40750247Y-93343614D01*
X40890785Y-93415222D01*
X40936541Y-93430088D01*
X41001227Y-93472093D01*
X41036243Y-93540814D01*
X41039500Y-93571796D01*
X41039500Y-93863921D01*
X41068341Y-94008911D01*
X41068342Y-94008913D01*
X41120534Y-94134917D01*
X41124917Y-94145497D01*
X41124918Y-94145499D01*
X41157811Y-94194726D01*
X41157812Y-94194729D01*
X41207043Y-94268410D01*
X41207047Y-94268414D01*
X41207048Y-94268416D01*
X42321584Y-95382952D01*
X42380691Y-95422445D01*
X42444505Y-95465084D01*
X42501080Y-95488518D01*
X42581088Y-95521659D01*
X42697241Y-95544763D01*
X42726082Y-95550500D01*
X42726083Y-95550500D01*
X42873918Y-95550500D01*
X48327414Y-95550500D01*
X48401914Y-95570462D01*
X48432773Y-95594141D01*
X49385859Y-96547227D01*
X49424423Y-96614022D01*
X49429500Y-96652586D01*
X49429500Y-112350500D01*
X49409538Y-112425000D01*
X49355000Y-112479538D01*
X49280500Y-112499500D01*
X48632136Y-112499500D01*
X48632111Y-112499502D01*
X48572521Y-112505908D01*
X48572515Y-112505909D01*
X48437670Y-112556202D01*
X48437666Y-112556204D01*
X48322455Y-112642452D01*
X48322452Y-112642455D01*
X48236204Y-112757666D01*
X48236202Y-112757670D01*
X48185908Y-112892517D01*
X48179500Y-112952114D01*
X48179500Y-116047863D01*
X48179502Y-116047888D01*
X48185908Y-116107478D01*
X48185909Y-116107484D01*
X48236202Y-116242329D01*
X48236204Y-116242333D01*
X48322452Y-116357544D01*
X48322455Y-116357547D01*
X48437666Y-116443795D01*
X48437670Y-116443797D01*
X48572517Y-116494091D01*
X48632114Y-116500499D01*
X48632118Y-116500499D01*
X48632127Y-116500500D01*
X49280500Y-116500499D01*
X49355000Y-116520461D01*
X49409538Y-116574999D01*
X49429500Y-116649499D01*
X49429500Y-119579422D01*
X49409538Y-119653922D01*
X49355000Y-119708460D01*
X49280500Y-119728422D01*
X49101104Y-119728422D01*
X49026604Y-119708460D01*
X48972067Y-119653923D01*
X48960726Y-119634279D01*
X48960723Y-119634274D01*
X48880394Y-119529590D01*
X48880394Y-119529589D01*
X48787298Y-119436493D01*
X48787296Y-119436492D01*
X48682612Y-119356163D01*
X48682610Y-119356162D01*
X48568596Y-119290336D01*
X48568594Y-119290335D01*
X48446680Y-119239836D01*
X48319513Y-119205761D01*
X48319506Y-119205759D01*
X48319498Y-119205758D01*
X48188682Y-119188536D01*
X48188677Y-119188536D01*
X47622851Y-119188536D01*
X47622837Y-119188536D01*
X47550916Y-119193679D01*
X47550907Y-119193681D01*
X47412862Y-119234215D01*
X47412853Y-119234220D01*
X47291821Y-119312003D01*
X47291816Y-119312008D01*
X47197596Y-119420741D01*
X47137827Y-119551620D01*
X47137825Y-119551624D01*
X47117352Y-119694023D01*
X47117351Y-119694039D01*
X47117351Y-121194049D01*
X47122494Y-121265970D01*
X47122496Y-121265979D01*
X47163030Y-121404024D01*
X47163031Y-121404027D01*
X47163032Y-121404028D01*
X47240820Y-121525068D01*
X47285289Y-121563601D01*
X47349556Y-121619290D01*
X47390587Y-121638028D01*
X47480435Y-121679060D01*
X47480437Y-121679060D01*
X47480439Y-121679061D01*
X47589298Y-121694711D01*
X47622851Y-121699536D01*
X47622855Y-121699536D01*
X48188677Y-121699536D01*
X48319498Y-121682313D01*
X48319506Y-121682312D01*
X48319506Y-121682311D01*
X48319513Y-121682311D01*
X48446680Y-121648236D01*
X48568594Y-121597737D01*
X48682608Y-121531911D01*
X48787297Y-121451579D01*
X48787298Y-121451579D01*
X48880394Y-121358483D01*
X48880394Y-121358482D01*
X48934696Y-121287716D01*
X48995886Y-121240764D01*
X49052905Y-121229422D01*
X49806336Y-121229422D01*
X49880836Y-121249384D01*
X49911695Y-121273063D01*
X51817049Y-123178416D01*
X51921584Y-123282951D01*
X51970685Y-123315759D01*
X52044502Y-123365083D01*
X52075444Y-123377899D01*
X52181087Y-123421658D01*
X52326082Y-123450500D01*
X52326083Y-123450500D01*
X52473917Y-123450500D01*
X53045984Y-123450500D01*
X53120484Y-123470462D01*
X53175022Y-123525000D01*
X53183642Y-123542480D01*
X53201959Y-123586701D01*
X53333078Y-123813806D01*
X53333078Y-123813807D01*
X53492715Y-124021848D01*
X53678151Y-124207284D01*
X53886193Y-124366921D01*
X53886197Y-124366924D01*
X54113303Y-124498043D01*
X54317809Y-124582752D01*
X54355583Y-124598399D01*
X54443332Y-124621910D01*
X54608884Y-124666270D01*
X54608890Y-124666270D01*
X54608891Y-124666271D01*
X54645834Y-124671134D01*
X54868877Y-124700499D01*
X54868878Y-124700500D01*
X54868880Y-124700500D01*
X55131122Y-124700500D01*
X55131122Y-124700499D01*
X55391108Y-124666271D01*
X55391110Y-124666271D01*
X55391111Y-124666270D01*
X55391116Y-124666270D01*
X55644415Y-124598399D01*
X55644416Y-124598399D01*
X55644417Y-124598398D01*
X55644419Y-124598398D01*
X55886697Y-124498043D01*
X56113803Y-124366924D01*
X56321848Y-124207284D01*
X56321849Y-124207284D01*
X56507284Y-124021849D01*
X56507284Y-124021848D01*
X56666921Y-123813807D01*
X56666921Y-123813806D01*
X56666924Y-123813803D01*
X56798043Y-123586697D01*
X56898398Y-123344419D01*
X56966270Y-123091116D01*
X57000500Y-122831120D01*
X57000500Y-122568880D01*
X57000499Y-122568876D01*
X61769500Y-122568876D01*
X61769500Y-122831123D01*
X61803728Y-123091107D01*
X61803728Y-123091110D01*
X61871600Y-123344415D01*
X61871600Y-123344416D01*
X61971959Y-123586701D01*
X62103078Y-123813806D01*
X62103078Y-123813807D01*
X62262715Y-124021848D01*
X62448151Y-124207284D01*
X62656193Y-124366921D01*
X62656197Y-124366924D01*
X62883303Y-124498043D01*
X63087809Y-124582752D01*
X63125583Y-124598399D01*
X63213332Y-124621910D01*
X63378884Y-124666270D01*
X63378890Y-124666270D01*
X63378891Y-124666271D01*
X63415834Y-124671134D01*
X63638877Y-124700499D01*
X63638878Y-124700500D01*
X63638880Y-124700500D01*
X63901122Y-124700500D01*
X63901122Y-124700499D01*
X64161108Y-124666271D01*
X64161110Y-124666271D01*
X64161111Y-124666270D01*
X64161116Y-124666270D01*
X64414415Y-124598399D01*
X64414416Y-124598399D01*
X64414417Y-124598398D01*
X64414419Y-124598398D01*
X64656697Y-124498043D01*
X64883803Y-124366924D01*
X65091848Y-124207284D01*
X65091849Y-124207284D01*
X65277284Y-124021849D01*
X65277284Y-124021848D01*
X65436921Y-123813807D01*
X65436921Y-123813806D01*
X65436924Y-123813803D01*
X65568043Y-123586697D01*
X65668398Y-123344419D01*
X65736270Y-123091116D01*
X65770500Y-122831120D01*
X65770500Y-122568880D01*
X65736270Y-122308884D01*
X65668398Y-122055581D01*
X65568043Y-121813303D01*
X65436924Y-121586197D01*
X65436921Y-121586193D01*
X65436921Y-121586192D01*
X65277284Y-121378151D01*
X65091848Y-121192715D01*
X64883806Y-121033078D01*
X64656701Y-120901959D01*
X64656699Y-120901958D01*
X64656697Y-120901957D01*
X64581154Y-120870666D01*
X64414416Y-120801600D01*
X64188255Y-120741002D01*
X64161116Y-120733730D01*
X64161114Y-120733729D01*
X64161108Y-120733728D01*
X63901123Y-120699500D01*
X63901120Y-120699500D01*
X63638880Y-120699500D01*
X63638876Y-120699500D01*
X63378892Y-120733728D01*
X63378889Y-120733728D01*
X63125584Y-120801600D01*
X63125583Y-120801600D01*
X62883298Y-120901959D01*
X62656193Y-121033078D01*
X62656192Y-121033078D01*
X62448151Y-121192715D01*
X62448151Y-121192716D01*
X62448149Y-121192718D01*
X62262718Y-121378149D01*
X62262716Y-121378151D01*
X62262715Y-121378151D01*
X62103078Y-121586192D01*
X62103078Y-121586193D01*
X61971959Y-121813298D01*
X61871600Y-122055583D01*
X61871600Y-122055584D01*
X61803728Y-122308889D01*
X61803728Y-122308892D01*
X61769500Y-122568876D01*
X57000499Y-122568876D01*
X56966270Y-122308884D01*
X56898398Y-122055581D01*
X56798043Y-121813303D01*
X56666924Y-121586197D01*
X56666921Y-121586193D01*
X56666921Y-121586192D01*
X56507284Y-121378151D01*
X56321848Y-121192715D01*
X56113806Y-121033078D01*
X55886701Y-120901959D01*
X55886699Y-120901958D01*
X55886697Y-120901957D01*
X55811154Y-120870666D01*
X55644416Y-120801600D01*
X55418255Y-120741002D01*
X55391116Y-120733730D01*
X55391114Y-120733729D01*
X55391108Y-120733728D01*
X55131123Y-120699500D01*
X55131120Y-120699500D01*
X54868880Y-120699500D01*
X54868876Y-120699500D01*
X54608892Y-120733728D01*
X54608889Y-120733728D01*
X54355584Y-120801600D01*
X54355583Y-120801600D01*
X54113298Y-120901959D01*
X53886193Y-121033078D01*
X53886192Y-121033078D01*
X53678151Y-121192715D01*
X53678151Y-121192716D01*
X53678149Y-121192718D01*
X53492718Y-121378149D01*
X53492716Y-121378151D01*
X53492715Y-121378151D01*
X53333078Y-121586192D01*
X53333078Y-121586193D01*
X53201959Y-121813298D01*
X53183642Y-121857520D01*
X53177593Y-121865402D01*
X53175022Y-121875000D01*
X53154422Y-121895599D01*
X53136689Y-121918710D01*
X53127510Y-121922511D01*
X53120484Y-121929538D01*
X53092343Y-121937078D01*
X53065432Y-121948225D01*
X53045984Y-121949500D01*
X52772585Y-121949500D01*
X52698085Y-121929538D01*
X52667226Y-121905859D01*
X50974141Y-120212773D01*
X50935577Y-120145978D01*
X50930500Y-120107414D01*
X50930500Y-116649499D01*
X50950462Y-116574999D01*
X51005000Y-116520461D01*
X51079500Y-116500499D01*
X51727864Y-116500499D01*
X51727872Y-116500499D01*
X51787483Y-116494091D01*
X51883447Y-116458298D01*
X51922329Y-116443797D01*
X51922333Y-116443795D01*
X51982975Y-116398398D01*
X52037546Y-116357546D01*
X52123796Y-116242331D01*
X52132543Y-116218880D01*
X52132544Y-116218876D01*
X52999500Y-116218876D01*
X52999500Y-116481123D01*
X53033728Y-116741107D01*
X53033728Y-116741110D01*
X53101600Y-116994415D01*
X53101600Y-116994416D01*
X53201959Y-117236701D01*
X53333078Y-117463806D01*
X53333078Y-117463807D01*
X53492715Y-117671848D01*
X53678151Y-117857284D01*
X53832854Y-117975992D01*
X53886197Y-118016924D01*
X54113303Y-118148043D01*
X54317809Y-118232752D01*
X54355583Y-118248399D01*
X54443332Y-118271910D01*
X54608884Y-118316270D01*
X54608890Y-118316270D01*
X54608891Y-118316271D01*
X54645834Y-118321134D01*
X54868877Y-118350499D01*
X54868878Y-118350500D01*
X54868880Y-118350500D01*
X55131122Y-118350500D01*
X55131122Y-118350499D01*
X55391108Y-118316271D01*
X55391110Y-118316271D01*
X55391111Y-118316270D01*
X55391116Y-118316270D01*
X55644415Y-118248399D01*
X55644416Y-118248399D01*
X55644417Y-118248398D01*
X55644419Y-118248398D01*
X55886697Y-118148043D01*
X56113803Y-118016924D01*
X56321848Y-117857284D01*
X56321849Y-117857284D01*
X56507284Y-117671849D01*
X56507284Y-117671848D01*
X56666921Y-117463807D01*
X56666921Y-117463806D01*
X56666924Y-117463803D01*
X56798043Y-117236697D01*
X56898398Y-116994419D01*
X56966270Y-116741116D01*
X57000500Y-116481120D01*
X57000500Y-116218880D01*
X57000499Y-116218876D01*
X61769500Y-116218876D01*
X61769500Y-116481123D01*
X61803728Y-116741107D01*
X61803728Y-116741110D01*
X61871600Y-116994415D01*
X61871600Y-116994416D01*
X61971959Y-117236701D01*
X62103078Y-117463806D01*
X62103078Y-117463807D01*
X62262715Y-117671848D01*
X62448151Y-117857284D01*
X62602854Y-117975992D01*
X62656197Y-118016924D01*
X62883303Y-118148043D01*
X63087809Y-118232752D01*
X63125583Y-118248399D01*
X63213332Y-118271910D01*
X63378884Y-118316270D01*
X63378890Y-118316270D01*
X63378891Y-118316271D01*
X63415834Y-118321134D01*
X63638877Y-118350499D01*
X63638878Y-118350500D01*
X63638880Y-118350500D01*
X63901122Y-118350500D01*
X63901122Y-118350499D01*
X64161108Y-118316271D01*
X64161110Y-118316271D01*
X64161111Y-118316270D01*
X64161116Y-118316270D01*
X64414415Y-118248399D01*
X64414416Y-118248399D01*
X64414417Y-118248398D01*
X64414419Y-118248398D01*
X64656697Y-118148043D01*
X64883803Y-118016924D01*
X65091848Y-117857284D01*
X65091849Y-117857284D01*
X65277284Y-117671849D01*
X65277284Y-117671848D01*
X65436921Y-117463807D01*
X65436921Y-117463806D01*
X65436924Y-117463803D01*
X65568043Y-117236697D01*
X65668398Y-116994419D01*
X65736270Y-116741116D01*
X65770500Y-116481120D01*
X65770500Y-116218880D01*
X65736270Y-115958884D01*
X65668398Y-115705581D01*
X65568043Y-115463303D01*
X65436924Y-115236197D01*
X65436921Y-115236193D01*
X65436921Y-115236192D01*
X65277284Y-115028151D01*
X65091848Y-114842715D01*
X64883806Y-114683078D01*
X64656701Y-114551959D01*
X64656699Y-114551958D01*
X64656697Y-114551957D01*
X64535270Y-114501660D01*
X64414416Y-114451600D01*
X64188255Y-114391002D01*
X64161116Y-114383730D01*
X64161114Y-114383729D01*
X64161108Y-114383728D01*
X63901123Y-114349500D01*
X63901120Y-114349500D01*
X63638880Y-114349500D01*
X63638876Y-114349500D01*
X63378892Y-114383728D01*
X63378889Y-114383728D01*
X63125584Y-114451600D01*
X63125583Y-114451600D01*
X62883298Y-114551959D01*
X62656193Y-114683078D01*
X62656192Y-114683078D01*
X62448151Y-114842715D01*
X62448151Y-114842716D01*
X62448149Y-114842718D01*
X62262718Y-115028149D01*
X62262716Y-115028151D01*
X62262715Y-115028151D01*
X62103078Y-115236192D01*
X62103078Y-115236193D01*
X61971959Y-115463298D01*
X61871600Y-115705583D01*
X61871600Y-115705584D01*
X61803728Y-115958889D01*
X61803728Y-115958892D01*
X61769500Y-116218876D01*
X57000499Y-116218876D01*
X56966270Y-115958884D01*
X56898398Y-115705581D01*
X56798043Y-115463303D01*
X56666924Y-115236197D01*
X56666921Y-115236193D01*
X56666921Y-115236192D01*
X56507284Y-115028151D01*
X56321848Y-114842715D01*
X56113806Y-114683078D01*
X55886701Y-114551959D01*
X55886699Y-114551958D01*
X55886697Y-114551957D01*
X55765270Y-114501660D01*
X55644416Y-114451600D01*
X55418255Y-114391002D01*
X55391116Y-114383730D01*
X55391114Y-114383729D01*
X55391108Y-114383728D01*
X55131123Y-114349500D01*
X55131120Y-114349500D01*
X54868880Y-114349500D01*
X54868876Y-114349500D01*
X54608892Y-114383728D01*
X54608889Y-114383728D01*
X54355584Y-114451600D01*
X54355583Y-114451600D01*
X54113298Y-114551959D01*
X53886193Y-114683078D01*
X53886192Y-114683078D01*
X53678151Y-114842715D01*
X53678151Y-114842716D01*
X53678149Y-114842718D01*
X53492718Y-115028149D01*
X53492716Y-115028151D01*
X53492715Y-115028151D01*
X53333078Y-115236192D01*
X53333078Y-115236193D01*
X53201959Y-115463298D01*
X53101600Y-115705583D01*
X53101600Y-115705584D01*
X53033728Y-115958889D01*
X53033728Y-115958892D01*
X52999500Y-116218876D01*
X52132544Y-116218876D01*
X52153783Y-116161933D01*
X52166999Y-116126497D01*
X52174091Y-116107483D01*
X52177095Y-116079545D01*
X52180499Y-116047885D01*
X52180499Y-116047882D01*
X52180500Y-116047873D01*
X52180499Y-112952128D01*
X52174091Y-112892517D01*
X52151921Y-112833076D01*
X52123797Y-112757670D01*
X52123795Y-112757666D01*
X52037547Y-112642455D01*
X52037544Y-112642452D01*
X51922333Y-112556204D01*
X51922329Y-112556202D01*
X51787482Y-112505908D01*
X51727885Y-112499500D01*
X51727873Y-112499500D01*
X51079500Y-112499500D01*
X51005000Y-112479538D01*
X50950462Y-112425000D01*
X50930500Y-112350500D01*
X50930500Y-109868876D01*
X52999500Y-109868876D01*
X52999500Y-110131123D01*
X53033728Y-110391107D01*
X53033728Y-110391110D01*
X53101600Y-110644415D01*
X53101600Y-110644416D01*
X53201959Y-110886701D01*
X53333078Y-111113806D01*
X53333078Y-111113807D01*
X53492715Y-111321848D01*
X53678151Y-111507284D01*
X53886193Y-111666921D01*
X53886197Y-111666924D01*
X54113303Y-111798043D01*
X54317809Y-111882752D01*
X54355583Y-111898399D01*
X54443332Y-111921910D01*
X54608884Y-111966270D01*
X54608890Y-111966270D01*
X54608891Y-111966271D01*
X54645834Y-111971134D01*
X54868877Y-112000499D01*
X54868878Y-112000500D01*
X54868880Y-112000500D01*
X55131122Y-112000500D01*
X55131122Y-112000499D01*
X55391108Y-111966271D01*
X55391110Y-111966271D01*
X55391111Y-111966270D01*
X55391116Y-111966270D01*
X55644415Y-111898399D01*
X55644416Y-111898399D01*
X55644417Y-111898398D01*
X55644419Y-111898398D01*
X55886697Y-111798043D01*
X56113803Y-111666924D01*
X56321848Y-111507284D01*
X56321849Y-111507284D01*
X56507284Y-111321849D01*
X56507284Y-111321848D01*
X56666921Y-111113807D01*
X56666921Y-111113806D01*
X56666924Y-111113803D01*
X56798043Y-110886697D01*
X56898398Y-110644419D01*
X56966270Y-110391116D01*
X57000500Y-110131120D01*
X57000500Y-109868880D01*
X57000499Y-109868876D01*
X61769500Y-109868876D01*
X61769500Y-110131123D01*
X61803728Y-110391107D01*
X61803728Y-110391110D01*
X61871600Y-110644415D01*
X61871600Y-110644416D01*
X61971959Y-110886701D01*
X62103078Y-111113806D01*
X62103078Y-111113807D01*
X62262715Y-111321848D01*
X62448151Y-111507284D01*
X62656193Y-111666921D01*
X62656197Y-111666924D01*
X62883303Y-111798043D01*
X63087809Y-111882752D01*
X63125583Y-111898399D01*
X63213332Y-111921910D01*
X63378884Y-111966270D01*
X63378890Y-111966270D01*
X63378891Y-111966271D01*
X63415834Y-111971134D01*
X63638877Y-112000499D01*
X63638878Y-112000500D01*
X63638880Y-112000500D01*
X63901122Y-112000500D01*
X63901122Y-112000499D01*
X64161108Y-111966271D01*
X64161110Y-111966271D01*
X64161111Y-111966270D01*
X64161116Y-111966270D01*
X64414415Y-111898399D01*
X64414416Y-111898399D01*
X64414417Y-111898398D01*
X64414419Y-111898398D01*
X64656697Y-111798043D01*
X64883803Y-111666924D01*
X65091848Y-111507284D01*
X65091849Y-111507284D01*
X65277284Y-111321849D01*
X65277284Y-111321848D01*
X65436921Y-111113807D01*
X65436921Y-111113806D01*
X65436924Y-111113803D01*
X65568043Y-110886697D01*
X65668398Y-110644419D01*
X65736270Y-110391116D01*
X65770500Y-110131120D01*
X65770500Y-109868880D01*
X65736270Y-109608884D01*
X65668398Y-109355581D01*
X65568043Y-109113303D01*
X65436924Y-108886197D01*
X65436921Y-108886193D01*
X65436921Y-108886192D01*
X65277284Y-108678151D01*
X65091848Y-108492715D01*
X64883806Y-108333078D01*
X64656701Y-108201959D01*
X64656699Y-108201958D01*
X64656697Y-108201957D01*
X64581154Y-108170666D01*
X64414416Y-108101600D01*
X64188255Y-108041002D01*
X64161116Y-108033730D01*
X64161114Y-108033729D01*
X64161108Y-108033728D01*
X63901123Y-107999500D01*
X63901120Y-107999500D01*
X63638880Y-107999500D01*
X63638876Y-107999500D01*
X63378892Y-108033728D01*
X63378889Y-108033728D01*
X63125584Y-108101600D01*
X63125583Y-108101600D01*
X62883298Y-108201959D01*
X62656193Y-108333078D01*
X62656192Y-108333078D01*
X62448151Y-108492715D01*
X62448151Y-108492716D01*
X62448149Y-108492718D01*
X62262718Y-108678149D01*
X62262716Y-108678151D01*
X62262715Y-108678151D01*
X62103078Y-108886192D01*
X62103078Y-108886193D01*
X61971959Y-109113298D01*
X61871600Y-109355583D01*
X61871600Y-109355584D01*
X61803728Y-109608889D01*
X61803728Y-109608892D01*
X61769500Y-109868876D01*
X57000499Y-109868876D01*
X56966270Y-109608884D01*
X56898398Y-109355581D01*
X56798043Y-109113303D01*
X56666924Y-108886197D01*
X56666921Y-108886193D01*
X56666921Y-108886192D01*
X56507284Y-108678151D01*
X56321848Y-108492715D01*
X56113806Y-108333078D01*
X55886701Y-108201959D01*
X55886699Y-108201958D01*
X55886697Y-108201957D01*
X55811154Y-108170666D01*
X55644416Y-108101600D01*
X55418255Y-108041002D01*
X55391116Y-108033730D01*
X55391114Y-108033729D01*
X55391108Y-108033728D01*
X55131123Y-107999500D01*
X55131120Y-107999500D01*
X54868880Y-107999500D01*
X54868876Y-107999500D01*
X54608892Y-108033728D01*
X54608889Y-108033728D01*
X54355584Y-108101600D01*
X54355583Y-108101600D01*
X54113298Y-108201959D01*
X53886193Y-108333078D01*
X53886192Y-108333078D01*
X53678151Y-108492715D01*
X53678151Y-108492716D01*
X53678149Y-108492718D01*
X53492718Y-108678149D01*
X53492716Y-108678151D01*
X53492715Y-108678151D01*
X53333078Y-108886192D01*
X53333078Y-108886193D01*
X53201959Y-109113298D01*
X53101600Y-109355583D01*
X53101600Y-109355584D01*
X53033728Y-109608889D01*
X53033728Y-109608892D01*
X52999500Y-109868876D01*
X50930500Y-109868876D01*
X50930500Y-104948876D01*
X52999500Y-104948876D01*
X52999500Y-105211123D01*
X53033728Y-105471107D01*
X53033728Y-105471110D01*
X53101600Y-105724415D01*
X53101600Y-105724416D01*
X53201959Y-105966701D01*
X53333078Y-106193806D01*
X53333078Y-106193807D01*
X53492715Y-106401848D01*
X53678151Y-106587284D01*
X53766400Y-106655000D01*
X53886197Y-106746924D01*
X54113303Y-106878043D01*
X54317809Y-106962752D01*
X54355583Y-106978399D01*
X54443332Y-107001910D01*
X54608884Y-107046270D01*
X54608890Y-107046270D01*
X54608891Y-107046271D01*
X54645834Y-107051134D01*
X54868877Y-107080499D01*
X54868878Y-107080500D01*
X54868880Y-107080500D01*
X55131122Y-107080500D01*
X55131122Y-107080499D01*
X55391108Y-107046271D01*
X55391110Y-107046271D01*
X55391111Y-107046270D01*
X55391116Y-107046270D01*
X55644415Y-106978399D01*
X55644416Y-106978399D01*
X55644417Y-106978398D01*
X55644419Y-106978398D01*
X55886697Y-106878043D01*
X56113803Y-106746924D01*
X56113807Y-106746921D01*
X56290563Y-106611291D01*
X56361820Y-106581775D01*
X56381269Y-106580500D01*
X57650500Y-106580500D01*
X57725000Y-106600462D01*
X57779538Y-106655000D01*
X57799500Y-106729500D01*
X57799500Y-107718092D01*
X57836447Y-107951368D01*
X57909432Y-108175992D01*
X58016657Y-108386433D01*
X58155483Y-108577510D01*
X58322490Y-108744517D01*
X58513567Y-108883343D01*
X58724008Y-108990568D01*
X58948632Y-109063553D01*
X59181908Y-109100500D01*
X59181913Y-109100500D01*
X59418087Y-109100500D01*
X59418092Y-109100500D01*
X59651368Y-109063553D01*
X59875992Y-108990568D01*
X60086433Y-108883343D01*
X60277510Y-108744517D01*
X60444517Y-108577510D01*
X60583343Y-108386433D01*
X60690568Y-108175992D01*
X60763553Y-107951368D01*
X60800500Y-107718092D01*
X60800500Y-106383245D01*
X60820462Y-106308745D01*
X60844141Y-106277886D01*
X61064517Y-106057510D01*
X62173151Y-104948876D01*
X66144517Y-100977510D01*
X66283343Y-100786433D01*
X66390568Y-100575992D01*
X66463553Y-100351368D01*
X66500500Y-100118092D01*
X66500500Y-99881908D01*
X66463553Y-99648631D01*
X66390568Y-99424008D01*
X66283343Y-99213566D01*
X66144524Y-99022499D01*
X66144522Y-99022496D01*
X66144519Y-99022493D01*
X66144517Y-99022490D01*
X65977510Y-98855483D01*
X65977506Y-98855480D01*
X65977503Y-98855477D01*
X65786435Y-98716658D01*
X65786434Y-98716657D01*
X65575992Y-98609432D01*
X65351369Y-98536447D01*
X65118092Y-98499500D01*
X64881908Y-98499500D01*
X64648632Y-98536447D01*
X64508706Y-98581912D01*
X64424008Y-98609432D01*
X64424002Y-98609434D01*
X64424002Y-98609435D01*
X64213565Y-98716658D01*
X64022499Y-98855476D01*
X64022488Y-98855485D01*
X59342114Y-103535859D01*
X59275319Y-103574423D01*
X59236755Y-103579500D01*
X56381269Y-103579500D01*
X56306769Y-103559538D01*
X56290563Y-103548709D01*
X56113806Y-103413078D01*
X55886701Y-103281959D01*
X55886699Y-103281958D01*
X55886697Y-103281957D01*
X55769096Y-103233245D01*
X55644416Y-103181600D01*
X55418255Y-103121002D01*
X55391116Y-103113730D01*
X55391114Y-103113729D01*
X55391108Y-103113728D01*
X55131123Y-103079500D01*
X55131120Y-103079500D01*
X54868880Y-103079500D01*
X54868876Y-103079500D01*
X54608892Y-103113728D01*
X54608889Y-103113728D01*
X54355584Y-103181600D01*
X54355583Y-103181600D01*
X54113298Y-103281959D01*
X53886193Y-103413078D01*
X53886192Y-103413078D01*
X53678151Y-103572715D01*
X53678151Y-103572716D01*
X53678149Y-103572718D01*
X53492718Y-103758149D01*
X53492716Y-103758151D01*
X53492715Y-103758151D01*
X53333078Y-103966192D01*
X53333078Y-103966193D01*
X53201959Y-104193298D01*
X53101600Y-104435583D01*
X53101600Y-104435584D01*
X53033728Y-104688889D01*
X53033728Y-104688892D01*
X52999500Y-104948876D01*
X50930500Y-104948876D01*
X50930500Y-98452114D01*
X52999500Y-98452114D01*
X52999500Y-101547863D01*
X52999502Y-101547888D01*
X53005908Y-101607478D01*
X53005909Y-101607484D01*
X53056202Y-101742329D01*
X53056203Y-101742330D01*
X53142452Y-101857544D01*
X53142455Y-101857547D01*
X53257666Y-101943795D01*
X53257670Y-101943797D01*
X53392517Y-101994091D01*
X53452114Y-102000499D01*
X53452118Y-102000499D01*
X53452127Y-102000500D01*
X56547872Y-102000499D01*
X56607483Y-101994091D01*
X56703447Y-101958298D01*
X56742329Y-101943797D01*
X56742333Y-101943795D01*
X56799938Y-101900671D01*
X56857546Y-101857546D01*
X56914832Y-101781021D01*
X56943797Y-101742330D01*
X56943797Y-101742329D01*
X56964174Y-101687693D01*
X56994091Y-101607483D01*
X56997854Y-101572488D01*
X57000499Y-101547885D01*
X57000499Y-101547882D01*
X57000500Y-101547873D01*
X57000499Y-99877648D01*
X57999500Y-99877648D01*
X57999500Y-100082352D01*
X58005161Y-100118092D01*
X58031523Y-100284534D01*
X58094778Y-100479212D01*
X58094782Y-100479224D01*
X58187714Y-100661612D01*
X58308028Y-100827212D01*
X58308035Y-100827220D01*
X58452779Y-100971964D01*
X58452787Y-100971971D01*
X58618387Y-101092285D01*
X58618390Y-101092287D01*
X58800781Y-101185220D01*
X58995466Y-101248477D01*
X59197648Y-101280500D01*
X59197653Y-101280500D01*
X59402347Y-101280500D01*
X59402352Y-101280500D01*
X59604534Y-101248477D01*
X59799219Y-101185220D01*
X59981610Y-101092287D01*
X60147219Y-100971966D01*
X60291966Y-100827219D01*
X60412287Y-100661610D01*
X60505220Y-100479219D01*
X60568477Y-100284534D01*
X60600500Y-100082352D01*
X60600500Y-99877648D01*
X60568477Y-99675466D01*
X60505220Y-99480781D01*
X60412287Y-99298390D01*
X60392770Y-99271527D01*
X60291971Y-99132787D01*
X60291964Y-99132779D01*
X60147220Y-98988035D01*
X60147212Y-98988028D01*
X59981612Y-98867714D01*
X59799224Y-98774782D01*
X59799220Y-98774780D01*
X59799219Y-98774780D01*
X59604534Y-98711523D01*
X59402352Y-98679500D01*
X59197648Y-98679500D01*
X59029163Y-98706185D01*
X58995465Y-98711523D01*
X58800787Y-98774778D01*
X58800775Y-98774782D01*
X58618387Y-98867714D01*
X58452787Y-98988028D01*
X58452779Y-98988035D01*
X58308035Y-99132779D01*
X58308028Y-99132787D01*
X58187714Y-99298387D01*
X58094782Y-99480775D01*
X58094780Y-99480781D01*
X58031523Y-99675466D01*
X57999500Y-99877648D01*
X57000499Y-99877648D01*
X57000499Y-98452128D01*
X56994091Y-98392517D01*
X56960460Y-98302347D01*
X56943797Y-98257670D01*
X56943795Y-98257666D01*
X56857547Y-98142455D01*
X56857544Y-98142452D01*
X56742333Y-98056204D01*
X56742329Y-98056202D01*
X56607482Y-98005908D01*
X56547876Y-97999500D01*
X53452136Y-97999500D01*
X53452111Y-97999502D01*
X53392521Y-98005908D01*
X53392515Y-98005909D01*
X53257670Y-98056202D01*
X53257666Y-98056204D01*
X53142455Y-98142452D01*
X53142452Y-98142455D01*
X53056204Y-98257666D01*
X53056202Y-98257670D01*
X53005908Y-98392517D01*
X52999500Y-98452114D01*
X50930500Y-98452114D01*
X50930500Y-96206086D01*
X50930499Y-96206078D01*
X50901658Y-96061087D01*
X50901657Y-96061085D01*
X50845087Y-95924512D01*
X50845086Y-95924511D01*
X50845084Y-95924505D01*
X50812186Y-95875270D01*
X50762952Y-95801584D01*
X49559016Y-94597648D01*
X52199500Y-94597648D01*
X52199500Y-94802352D01*
X52231523Y-95004534D01*
X52266264Y-95111457D01*
X52294778Y-95199212D01*
X52294782Y-95199224D01*
X52387714Y-95381612D01*
X52508028Y-95547212D01*
X52508035Y-95547220D01*
X52652779Y-95691964D01*
X52652787Y-95691971D01*
X52803658Y-95801584D01*
X52818390Y-95812287D01*
X53000781Y-95905220D01*
X53195466Y-95968477D01*
X53397648Y-96000500D01*
X53397653Y-96000500D01*
X53602347Y-96000500D01*
X53602352Y-96000500D01*
X53804534Y-95968477D01*
X53999219Y-95905220D01*
X54181610Y-95812287D01*
X54347219Y-95691966D01*
X54491966Y-95547219D01*
X54612287Y-95381610D01*
X54705220Y-95199219D01*
X54768477Y-95004534D01*
X54787899Y-94881908D01*
X63499500Y-94881908D01*
X63499500Y-95118092D01*
X63536447Y-95351368D01*
X63609432Y-95575992D01*
X63716657Y-95786433D01*
X63855483Y-95977510D01*
X63905483Y-96027510D01*
X67105859Y-99227886D01*
X67144423Y-99294681D01*
X67149500Y-99333245D01*
X67149500Y-111231908D01*
X67149500Y-111468092D01*
X67186447Y-111701368D01*
X67259432Y-111925992D01*
X67259436Y-111926001D01*
X67259437Y-111926002D01*
X67366655Y-112136430D01*
X67366658Y-112136435D01*
X67505477Y-112327503D01*
X67505480Y-112327506D01*
X67505483Y-112327510D01*
X72849821Y-117671848D01*
X77962281Y-122784308D01*
X78000845Y-122851103D01*
X78004647Y-122870218D01*
X78033728Y-123091107D01*
X78033728Y-123091110D01*
X78101600Y-123344415D01*
X78101600Y-123344416D01*
X78201959Y-123586701D01*
X78333078Y-123813806D01*
X78333078Y-123813807D01*
X78492715Y-124021848D01*
X78678151Y-124207284D01*
X78886193Y-124366921D01*
X78886197Y-124366924D01*
X79113303Y-124498043D01*
X79317809Y-124582752D01*
X79355583Y-124598399D01*
X79443332Y-124621910D01*
X79608884Y-124666270D01*
X79608890Y-124666270D01*
X79608891Y-124666271D01*
X79645834Y-124671134D01*
X79868877Y-124700499D01*
X79868878Y-124700500D01*
X79868880Y-124700500D01*
X80131122Y-124700500D01*
X80131122Y-124700499D01*
X80391108Y-124666271D01*
X80391110Y-124666271D01*
X80391111Y-124666270D01*
X80391116Y-124666270D01*
X80644415Y-124598399D01*
X80644416Y-124598399D01*
X80644417Y-124598398D01*
X80644419Y-124598398D01*
X80886697Y-124498043D01*
X81113803Y-124366924D01*
X81321848Y-124207284D01*
X81321849Y-124207284D01*
X81507284Y-124021849D01*
X81507284Y-124021848D01*
X81666921Y-123813807D01*
X81666921Y-123813806D01*
X81666924Y-123813803D01*
X81798043Y-123586697D01*
X81898398Y-123344419D01*
X81966270Y-123091116D01*
X82000500Y-122831120D01*
X82000500Y-122568880D01*
X82000499Y-122568876D01*
X86769500Y-122568876D01*
X86769500Y-122831123D01*
X86803728Y-123091107D01*
X86803728Y-123091110D01*
X86871600Y-123344415D01*
X86871600Y-123344416D01*
X86971959Y-123586701D01*
X87103078Y-123813806D01*
X87103078Y-123813807D01*
X87262715Y-124021848D01*
X87448151Y-124207284D01*
X87656193Y-124366921D01*
X87656197Y-124366924D01*
X87883303Y-124498043D01*
X88087809Y-124582752D01*
X88125583Y-124598399D01*
X88213332Y-124621910D01*
X88378884Y-124666270D01*
X88378890Y-124666270D01*
X88378891Y-124666271D01*
X88415834Y-124671134D01*
X88638877Y-124700499D01*
X88638878Y-124700500D01*
X88638880Y-124700500D01*
X88901122Y-124700500D01*
X88901122Y-124700499D01*
X89161108Y-124666271D01*
X89161110Y-124666271D01*
X89161111Y-124666270D01*
X89161116Y-124666270D01*
X89414415Y-124598399D01*
X89414416Y-124598399D01*
X89414417Y-124598398D01*
X89414419Y-124598398D01*
X89656697Y-124498043D01*
X89883803Y-124366924D01*
X90091848Y-124207284D01*
X90091849Y-124207284D01*
X90277284Y-124021849D01*
X90277284Y-124021848D01*
X90436921Y-123813807D01*
X90436921Y-123813806D01*
X90436924Y-123813803D01*
X90568043Y-123586697D01*
X90668398Y-123344419D01*
X90736270Y-123091116D01*
X90770500Y-122831120D01*
X90770500Y-122568880D01*
X90736270Y-122308884D01*
X90668398Y-122055581D01*
X90568043Y-121813303D01*
X90436924Y-121586197D01*
X90436921Y-121586193D01*
X90436921Y-121586192D01*
X90277284Y-121378151D01*
X90091848Y-121192715D01*
X89883806Y-121033078D01*
X89656701Y-120901959D01*
X89656699Y-120901958D01*
X89656697Y-120901957D01*
X89581154Y-120870666D01*
X89414416Y-120801600D01*
X89188255Y-120741002D01*
X89161116Y-120733730D01*
X89161114Y-120733729D01*
X89161108Y-120733728D01*
X88901123Y-120699500D01*
X88901120Y-120699500D01*
X88638880Y-120699500D01*
X88638876Y-120699500D01*
X88378892Y-120733728D01*
X88378889Y-120733728D01*
X88125584Y-120801600D01*
X88125583Y-120801600D01*
X87883298Y-120901959D01*
X87656193Y-121033078D01*
X87656192Y-121033078D01*
X87448151Y-121192715D01*
X87448151Y-121192716D01*
X87448149Y-121192718D01*
X87262718Y-121378149D01*
X87262716Y-121378151D01*
X87262715Y-121378151D01*
X87103078Y-121586192D01*
X87103078Y-121586193D01*
X86971959Y-121813298D01*
X86871600Y-122055583D01*
X86871600Y-122055584D01*
X86803728Y-122308889D01*
X86803728Y-122308892D01*
X86769500Y-122568876D01*
X82000499Y-122568876D01*
X81966270Y-122308884D01*
X81898398Y-122055581D01*
X81798043Y-121813303D01*
X81666924Y-121586197D01*
X81666921Y-121586193D01*
X81666921Y-121586192D01*
X81507284Y-121378151D01*
X81321848Y-121192715D01*
X81113806Y-121033078D01*
X80886701Y-120901959D01*
X80886699Y-120901958D01*
X80886697Y-120901957D01*
X80811154Y-120870666D01*
X80644416Y-120801600D01*
X80418255Y-120741002D01*
X80391116Y-120733730D01*
X80391114Y-120733729D01*
X80391108Y-120733728D01*
X80170219Y-120704647D01*
X80098962Y-120675131D01*
X80084309Y-120662281D01*
X75640904Y-116218876D01*
X77999500Y-116218876D01*
X77999500Y-116481123D01*
X78033728Y-116741107D01*
X78033728Y-116741110D01*
X78101600Y-116994415D01*
X78101600Y-116994416D01*
X78201959Y-117236701D01*
X78333078Y-117463806D01*
X78333078Y-117463807D01*
X78492715Y-117671848D01*
X78678151Y-117857284D01*
X78832854Y-117975992D01*
X78886197Y-118016924D01*
X79113303Y-118148043D01*
X79317809Y-118232752D01*
X79355583Y-118248399D01*
X79443332Y-118271910D01*
X79608884Y-118316270D01*
X79608890Y-118316270D01*
X79608891Y-118316271D01*
X79645834Y-118321134D01*
X79868877Y-118350499D01*
X79868878Y-118350500D01*
X79868880Y-118350500D01*
X80131122Y-118350500D01*
X80131122Y-118350499D01*
X80391108Y-118316271D01*
X80391110Y-118316271D01*
X80391111Y-118316270D01*
X80391116Y-118316270D01*
X80644415Y-118248399D01*
X80644416Y-118248399D01*
X80644417Y-118248398D01*
X80644419Y-118248398D01*
X80886697Y-118148043D01*
X81113803Y-118016924D01*
X81321848Y-117857284D01*
X81321849Y-117857284D01*
X81507284Y-117671849D01*
X81507284Y-117671848D01*
X81666921Y-117463807D01*
X81666921Y-117463806D01*
X81666924Y-117463803D01*
X81798043Y-117236697D01*
X81898398Y-116994419D01*
X81966270Y-116741116D01*
X82000500Y-116481120D01*
X82000500Y-116218880D01*
X82000499Y-116218876D01*
X86769500Y-116218876D01*
X86769500Y-116481123D01*
X86803728Y-116741107D01*
X86803728Y-116741110D01*
X86871600Y-116994415D01*
X86871600Y-116994416D01*
X86971959Y-117236701D01*
X87103078Y-117463806D01*
X87103078Y-117463807D01*
X87262715Y-117671848D01*
X87448151Y-117857284D01*
X87602854Y-117975992D01*
X87656197Y-118016924D01*
X87883303Y-118148043D01*
X88087809Y-118232752D01*
X88125583Y-118248399D01*
X88213332Y-118271910D01*
X88378884Y-118316270D01*
X88378890Y-118316270D01*
X88378891Y-118316271D01*
X88415834Y-118321134D01*
X88638877Y-118350499D01*
X88638878Y-118350500D01*
X88638880Y-118350500D01*
X88901122Y-118350500D01*
X88901122Y-118350499D01*
X89161108Y-118316271D01*
X89161110Y-118316271D01*
X89161111Y-118316270D01*
X89161116Y-118316270D01*
X89414415Y-118248399D01*
X89414416Y-118248399D01*
X89414417Y-118248398D01*
X89414419Y-118248398D01*
X89656697Y-118148043D01*
X89883803Y-118016924D01*
X90091848Y-117857284D01*
X90091849Y-117857284D01*
X90277284Y-117671849D01*
X90277284Y-117671848D01*
X90436921Y-117463807D01*
X90436921Y-117463806D01*
X90436924Y-117463803D01*
X90568043Y-117236697D01*
X90668398Y-116994419D01*
X90736270Y-116741116D01*
X90770500Y-116481120D01*
X90770500Y-116218880D01*
X90736270Y-115958884D01*
X90668398Y-115705581D01*
X90568043Y-115463303D01*
X90436924Y-115236197D01*
X90436921Y-115236193D01*
X90436921Y-115236192D01*
X90277284Y-115028151D01*
X90091848Y-114842715D01*
X89883806Y-114683078D01*
X89656701Y-114551959D01*
X89656699Y-114551958D01*
X89656697Y-114551957D01*
X89535270Y-114501660D01*
X89414416Y-114451600D01*
X89188255Y-114391002D01*
X89161116Y-114383730D01*
X89161114Y-114383729D01*
X89161108Y-114383728D01*
X88901123Y-114349500D01*
X88901120Y-114349500D01*
X88638880Y-114349500D01*
X88638876Y-114349500D01*
X88378892Y-114383728D01*
X88378889Y-114383728D01*
X88125584Y-114451600D01*
X88125583Y-114451600D01*
X87883298Y-114551959D01*
X87656193Y-114683078D01*
X87656192Y-114683078D01*
X87448151Y-114842715D01*
X87448151Y-114842716D01*
X87448149Y-114842718D01*
X87262718Y-115028149D01*
X87262716Y-115028151D01*
X87262715Y-115028151D01*
X87103078Y-115236192D01*
X87103078Y-115236193D01*
X86971959Y-115463298D01*
X86871600Y-115705583D01*
X86871600Y-115705584D01*
X86803728Y-115958889D01*
X86803728Y-115958892D01*
X86769500Y-116218876D01*
X82000499Y-116218876D01*
X81966270Y-115958884D01*
X81898398Y-115705581D01*
X81798043Y-115463303D01*
X81666924Y-115236197D01*
X81666921Y-115236193D01*
X81666921Y-115236192D01*
X81507284Y-115028151D01*
X81321848Y-114842715D01*
X81113806Y-114683078D01*
X80886701Y-114551959D01*
X80886699Y-114551958D01*
X80886697Y-114551957D01*
X80765270Y-114501660D01*
X80644416Y-114451600D01*
X80418255Y-114391002D01*
X80391116Y-114383730D01*
X80391114Y-114383729D01*
X80391108Y-114383728D01*
X80131123Y-114349500D01*
X80131120Y-114349500D01*
X79868880Y-114349500D01*
X79868876Y-114349500D01*
X79608892Y-114383728D01*
X79608889Y-114383728D01*
X79355584Y-114451600D01*
X79355583Y-114451600D01*
X79113298Y-114551959D01*
X78886193Y-114683078D01*
X78886192Y-114683078D01*
X78678151Y-114842715D01*
X78678151Y-114842716D01*
X78678149Y-114842718D01*
X78492718Y-115028149D01*
X78492716Y-115028151D01*
X78492715Y-115028151D01*
X78333078Y-115236192D01*
X78333078Y-115236193D01*
X78201959Y-115463298D01*
X78101600Y-115705583D01*
X78101600Y-115705584D01*
X78033728Y-115958889D01*
X78033728Y-115958892D01*
X77999500Y-116218876D01*
X75640904Y-116218876D01*
X70194141Y-110772113D01*
X70155577Y-110705318D01*
X70150500Y-110666754D01*
X70150500Y-99881908D01*
X70999500Y-99881908D01*
X70999500Y-100118092D01*
X71036447Y-100351368D01*
X71109432Y-100575992D01*
X71216657Y-100786433D01*
X71355483Y-100977510D01*
X71522490Y-101144517D01*
X71713567Y-101283343D01*
X71924008Y-101390568D01*
X72148632Y-101463553D01*
X72381908Y-101500500D01*
X72381913Y-101500500D01*
X72618087Y-101500500D01*
X72618092Y-101500500D01*
X72851368Y-101463553D01*
X73075992Y-101390568D01*
X73286433Y-101283343D01*
X73477510Y-101144517D01*
X73644517Y-100977510D01*
X73783343Y-100786433D01*
X73890568Y-100575992D01*
X73963553Y-100351368D01*
X74000500Y-100118092D01*
X74000500Y-99881908D01*
X73963553Y-99648632D01*
X73890568Y-99424008D01*
X73783343Y-99213567D01*
X73644517Y-99022490D01*
X73477510Y-98855483D01*
X73286433Y-98716657D01*
X73075992Y-98609432D01*
X72851368Y-98536447D01*
X72618092Y-98499500D01*
X72381908Y-98499500D01*
X72148632Y-98536447D01*
X72008706Y-98581912D01*
X71924008Y-98609432D01*
X71924002Y-98609434D01*
X71924002Y-98609435D01*
X71713565Y-98716658D01*
X71522499Y-98855476D01*
X71522488Y-98855485D01*
X71355485Y-99022488D01*
X71355476Y-99022499D01*
X71216658Y-99213565D01*
X71216657Y-99213567D01*
X71109432Y-99424008D01*
X71036447Y-99648632D01*
X70999500Y-99881908D01*
X70150500Y-99881908D01*
X70150500Y-98531912D01*
X70150500Y-98531908D01*
X70113553Y-98298632D01*
X70040568Y-98074008D01*
X69933343Y-97863567D01*
X69794518Y-97672490D01*
X67003935Y-94881908D01*
X70999500Y-94881908D01*
X70999500Y-95118092D01*
X71036447Y-95351368D01*
X71109432Y-95575992D01*
X71216657Y-95786433D01*
X71355483Y-95977510D01*
X71405483Y-96027510D01*
X78505859Y-103127886D01*
X78544423Y-103194681D01*
X78549500Y-103233245D01*
X78549500Y-108559649D01*
X78529538Y-108634149D01*
X78505859Y-108665008D01*
X78492718Y-108678149D01*
X78492716Y-108678151D01*
X78492715Y-108678151D01*
X78333078Y-108886192D01*
X78333078Y-108886193D01*
X78201959Y-109113298D01*
X78101600Y-109355583D01*
X78101600Y-109355584D01*
X78033728Y-109608889D01*
X78033728Y-109608892D01*
X77999500Y-109868876D01*
X77999500Y-110131123D01*
X78033728Y-110391107D01*
X78033728Y-110391110D01*
X78101600Y-110644415D01*
X78101600Y-110644416D01*
X78201959Y-110886701D01*
X78333078Y-111113806D01*
X78333078Y-111113807D01*
X78492715Y-111321848D01*
X78678151Y-111507284D01*
X78886193Y-111666921D01*
X78886197Y-111666924D01*
X79113303Y-111798043D01*
X79317809Y-111882752D01*
X79355583Y-111898399D01*
X79443332Y-111921910D01*
X79608884Y-111966270D01*
X79608890Y-111966270D01*
X79608891Y-111966271D01*
X79645834Y-111971134D01*
X79868877Y-112000499D01*
X79868878Y-112000500D01*
X79868880Y-112000500D01*
X80131122Y-112000500D01*
X80131122Y-112000499D01*
X80391108Y-111966271D01*
X80391110Y-111966271D01*
X80391111Y-111966270D01*
X80391116Y-111966270D01*
X80644415Y-111898399D01*
X80644416Y-111898399D01*
X80644417Y-111898398D01*
X80644419Y-111898398D01*
X80886697Y-111798043D01*
X81113803Y-111666924D01*
X81321848Y-111507284D01*
X81321849Y-111507284D01*
X81507284Y-111321849D01*
X81507284Y-111321848D01*
X81666921Y-111113807D01*
X81666921Y-111113806D01*
X81666924Y-111113803D01*
X81798043Y-110886697D01*
X81898398Y-110644419D01*
X81966270Y-110391116D01*
X82000500Y-110131120D01*
X82000500Y-109868880D01*
X82000499Y-109868876D01*
X86769500Y-109868876D01*
X86769500Y-110131123D01*
X86803728Y-110391107D01*
X86803728Y-110391110D01*
X86871600Y-110644415D01*
X86871600Y-110644416D01*
X86971959Y-110886701D01*
X87103078Y-111113806D01*
X87103078Y-111113807D01*
X87262715Y-111321848D01*
X87448151Y-111507284D01*
X87656193Y-111666921D01*
X87656197Y-111666924D01*
X87883303Y-111798043D01*
X88087809Y-111882752D01*
X88125583Y-111898399D01*
X88213332Y-111921910D01*
X88378884Y-111966270D01*
X88378890Y-111966270D01*
X88378891Y-111966271D01*
X88415834Y-111971134D01*
X88638877Y-112000499D01*
X88638878Y-112000500D01*
X88638880Y-112000500D01*
X88901122Y-112000500D01*
X88901122Y-112000499D01*
X89161108Y-111966271D01*
X89161110Y-111966271D01*
X89161111Y-111966270D01*
X89161116Y-111966270D01*
X89414415Y-111898399D01*
X89414416Y-111898399D01*
X89414417Y-111898398D01*
X89414419Y-111898398D01*
X89656697Y-111798043D01*
X89883803Y-111666924D01*
X90091848Y-111507284D01*
X90091849Y-111507284D01*
X90277284Y-111321849D01*
X90277284Y-111321848D01*
X90436921Y-111113807D01*
X90436921Y-111113806D01*
X90436924Y-111113803D01*
X90568043Y-110886697D01*
X90668398Y-110644419D01*
X90736270Y-110391116D01*
X90770500Y-110131120D01*
X90770500Y-109868880D01*
X90736270Y-109608884D01*
X90668398Y-109355581D01*
X90568043Y-109113303D01*
X90436924Y-108886197D01*
X90436921Y-108886193D01*
X90436921Y-108886192D01*
X90277284Y-108678151D01*
X90091848Y-108492715D01*
X89883806Y-108333078D01*
X89656701Y-108201959D01*
X89656699Y-108201958D01*
X89656697Y-108201957D01*
X89581154Y-108170666D01*
X89414416Y-108101600D01*
X89188255Y-108041002D01*
X89161116Y-108033730D01*
X89161114Y-108033729D01*
X89161108Y-108033728D01*
X88901123Y-107999500D01*
X88901120Y-107999500D01*
X88638880Y-107999500D01*
X88638876Y-107999500D01*
X88378892Y-108033728D01*
X88378889Y-108033728D01*
X88125584Y-108101600D01*
X88125583Y-108101600D01*
X87883298Y-108201959D01*
X87656193Y-108333078D01*
X87656192Y-108333078D01*
X87448151Y-108492715D01*
X87448151Y-108492716D01*
X87448149Y-108492718D01*
X87262718Y-108678149D01*
X87262716Y-108678151D01*
X87262715Y-108678151D01*
X87103078Y-108886192D01*
X87103078Y-108886193D01*
X86971959Y-109113298D01*
X86871600Y-109355583D01*
X86871600Y-109355584D01*
X86803728Y-109608889D01*
X86803728Y-109608892D01*
X86769500Y-109868876D01*
X82000499Y-109868876D01*
X81966270Y-109608884D01*
X81898398Y-109355581D01*
X81798043Y-109113303D01*
X81666924Y-108886197D01*
X81666921Y-108886193D01*
X81666921Y-108886192D01*
X81581291Y-108774598D01*
X81551775Y-108703341D01*
X81550500Y-108683892D01*
X81550500Y-102431912D01*
X81550500Y-102431908D01*
X81513553Y-102198632D01*
X81440568Y-101974008D01*
X81333343Y-101763567D01*
X81317914Y-101742331D01*
X81194518Y-101572490D01*
X79503936Y-99881908D01*
X94499500Y-99881908D01*
X94499500Y-100118092D01*
X94536447Y-100351368D01*
X94609432Y-100575992D01*
X94716657Y-100786433D01*
X94855483Y-100977510D01*
X95022490Y-101144517D01*
X95213567Y-101283343D01*
X95424008Y-101390568D01*
X95648632Y-101463553D01*
X95881908Y-101500500D01*
X95881913Y-101500500D01*
X96118087Y-101500500D01*
X96118092Y-101500500D01*
X96351368Y-101463553D01*
X96575992Y-101390568D01*
X96786433Y-101283343D01*
X96977510Y-101144517D01*
X97144517Y-100977510D01*
X97283343Y-100786433D01*
X97390568Y-100575992D01*
X97463553Y-100351368D01*
X97500500Y-100118092D01*
X97500500Y-99881908D01*
X97463553Y-99648632D01*
X97390568Y-99424008D01*
X97283343Y-99213567D01*
X97144517Y-99022490D01*
X96977510Y-98855483D01*
X96786433Y-98716657D01*
X96575992Y-98609432D01*
X96351368Y-98536447D01*
X96118092Y-98499500D01*
X95881908Y-98499500D01*
X95648632Y-98536447D01*
X95508706Y-98581912D01*
X95424008Y-98609432D01*
X95424002Y-98609434D01*
X95424002Y-98609435D01*
X95213565Y-98716658D01*
X95022499Y-98855476D01*
X95022488Y-98855485D01*
X94855485Y-99022488D01*
X94855476Y-99022499D01*
X94716658Y-99213565D01*
X94716657Y-99213567D01*
X94609432Y-99424008D01*
X94536447Y-99648632D01*
X94499500Y-99881908D01*
X79503936Y-99881908D01*
X77344518Y-97722491D01*
X73527511Y-93905484D01*
X73527510Y-93905483D01*
X73477510Y-93855483D01*
X73286433Y-93716657D01*
X73075992Y-93609432D01*
X72851368Y-93536447D01*
X72618092Y-93499500D01*
X72381908Y-93499500D01*
X72148632Y-93536447D01*
X71924008Y-93609432D01*
X71924002Y-93609434D01*
X71924002Y-93609435D01*
X71713565Y-93716658D01*
X71522499Y-93855476D01*
X71522488Y-93855485D01*
X71355485Y-94022488D01*
X71355476Y-94022499D01*
X71216658Y-94213565D01*
X71160385Y-94324008D01*
X71109432Y-94424008D01*
X71036447Y-94648632D01*
X70999500Y-94881908D01*
X67003935Y-94881908D01*
X66027510Y-93905483D01*
X65977510Y-93855483D01*
X65786433Y-93716657D01*
X65575992Y-93609432D01*
X65351368Y-93536447D01*
X65118092Y-93499500D01*
X64881908Y-93499500D01*
X64648632Y-93536447D01*
X64424008Y-93609432D01*
X64424002Y-93609434D01*
X64424002Y-93609435D01*
X64213565Y-93716658D01*
X64022499Y-93855476D01*
X64022488Y-93855485D01*
X63855485Y-94022488D01*
X63855476Y-94022499D01*
X63716658Y-94213565D01*
X63660385Y-94324008D01*
X63609432Y-94424008D01*
X63536447Y-94648632D01*
X63499500Y-94881908D01*
X54787899Y-94881908D01*
X54800500Y-94802352D01*
X54800500Y-94597648D01*
X54768477Y-94395466D01*
X54705220Y-94200781D01*
X54612287Y-94018390D01*
X54603183Y-94005859D01*
X54491971Y-93852787D01*
X54491964Y-93852779D01*
X54347220Y-93708035D01*
X54347212Y-93708028D01*
X54181612Y-93587714D01*
X53999224Y-93494782D01*
X53999220Y-93494780D01*
X53999219Y-93494780D01*
X53804534Y-93431523D01*
X53602352Y-93399500D01*
X53397648Y-93399500D01*
X53260093Y-93421287D01*
X53195465Y-93431523D01*
X53000787Y-93494778D01*
X53000775Y-93494782D01*
X52818387Y-93587714D01*
X52652787Y-93708028D01*
X52652779Y-93708035D01*
X52508035Y-93852779D01*
X52508028Y-93852787D01*
X52387714Y-94018387D01*
X52294782Y-94200775D01*
X52294778Y-94200787D01*
X52254745Y-94323997D01*
X52231523Y-94395466D01*
X52199500Y-94597648D01*
X49559016Y-94597648D01*
X49178416Y-94217048D01*
X49178414Y-94217047D01*
X49178410Y-94217043D01*
X49093913Y-94160585D01*
X49093912Y-94160585D01*
X49055497Y-94134917D01*
X49055495Y-94134916D01*
X48918913Y-94078342D01*
X48918911Y-94078341D01*
X48918912Y-94078341D01*
X48773921Y-94049500D01*
X48773918Y-94049500D01*
X43172586Y-94049500D01*
X43098086Y-94029538D01*
X43067227Y-94005859D01*
X42693373Y-93632005D01*
X42654809Y-93565210D01*
X42654809Y-93488082D01*
X42693373Y-93421287D01*
X42731085Y-93393888D01*
X42871610Y-93322287D01*
X43037219Y-93201966D01*
X43181966Y-93057219D01*
X43207612Y-93021919D01*
X43267552Y-92973382D01*
X43328156Y-92960500D01*
X43563914Y-92960500D01*
X43563917Y-92960500D01*
X43563918Y-92960500D01*
X43708913Y-92931658D01*
X43845495Y-92875084D01*
X43939478Y-92812287D01*
X43968416Y-92792952D01*
X44882952Y-91878416D01*
X44884586Y-91875969D01*
X44946400Y-91783458D01*
X44946401Y-91783455D01*
X44946403Y-91783453D01*
X44965084Y-91755495D01*
X45021658Y-91618913D01*
X45050500Y-91473918D01*
X45050500Y-84487648D01*
X47709500Y-84487648D01*
X47709500Y-84692352D01*
X47735963Y-84859430D01*
X47741523Y-84894534D01*
X47804778Y-85089212D01*
X47804782Y-85089224D01*
X47897714Y-85271612D01*
X48018028Y-85437212D01*
X48018035Y-85437220D01*
X48162779Y-85581964D01*
X48162787Y-85581971D01*
X48251229Y-85646227D01*
X48328390Y-85702287D01*
X48377363Y-85727240D01*
X48434680Y-85778849D01*
X48458514Y-85852203D01*
X48442478Y-85927645D01*
X48390869Y-85984962D01*
X48377363Y-85992760D01*
X48328388Y-86017714D01*
X48162787Y-86138028D01*
X48162779Y-86138035D01*
X48018035Y-86282779D01*
X48018028Y-86282787D01*
X47897714Y-86448387D01*
X47804782Y-86630775D01*
X47804780Y-86630781D01*
X47741523Y-86825466D01*
X47709500Y-87027648D01*
X47709500Y-87232352D01*
X47741523Y-87434534D01*
X47804778Y-87629212D01*
X47804782Y-87629224D01*
X47897714Y-87811612D01*
X48018028Y-87977212D01*
X48018035Y-87977220D01*
X48162779Y-88121964D01*
X48162787Y-88121971D01*
X48252130Y-88186881D01*
X48328390Y-88242287D01*
X48377363Y-88267240D01*
X48434680Y-88318849D01*
X48458514Y-88392203D01*
X48442478Y-88467645D01*
X48390869Y-88524962D01*
X48377363Y-88532760D01*
X48328388Y-88557714D01*
X48162787Y-88678028D01*
X48162779Y-88678035D01*
X48018035Y-88822779D01*
X48018028Y-88822787D01*
X47897714Y-88988387D01*
X47804782Y-89170775D01*
X47804780Y-89170781D01*
X47741523Y-89365466D01*
X47709500Y-89567648D01*
X47709500Y-89772352D01*
X47733521Y-89924014D01*
X47741523Y-89974534D01*
X47804778Y-90169212D01*
X47804782Y-90169224D01*
X47897714Y-90351612D01*
X48018028Y-90517212D01*
X48018035Y-90517220D01*
X48162779Y-90661964D01*
X48162787Y-90661971D01*
X48252130Y-90726881D01*
X48328390Y-90782287D01*
X48377363Y-90807240D01*
X48434680Y-90858849D01*
X48458514Y-90932203D01*
X48442478Y-91007645D01*
X48390869Y-91064962D01*
X48377363Y-91072759D01*
X48348037Y-91087701D01*
X48328388Y-91097714D01*
X48162787Y-91218028D01*
X48162779Y-91218035D01*
X48018035Y-91362779D01*
X48018028Y-91362787D01*
X47897714Y-91528387D01*
X47804782Y-91710775D01*
X47804778Y-91710787D01*
X47750312Y-91878417D01*
X47741523Y-91905466D01*
X47709500Y-92107648D01*
X47709500Y-92312352D01*
X47720470Y-92381610D01*
X47741523Y-92514534D01*
X47804778Y-92709212D01*
X47804782Y-92709224D01*
X47897714Y-92891612D01*
X48018028Y-93057212D01*
X48018035Y-93057220D01*
X48162779Y-93201964D01*
X48162787Y-93201971D01*
X48328387Y-93322285D01*
X48328390Y-93322287D01*
X48510781Y-93415220D01*
X48705466Y-93478477D01*
X48907648Y-93510500D01*
X48907653Y-93510500D01*
X49912347Y-93510500D01*
X49912352Y-93510500D01*
X50114534Y-93478477D01*
X50309219Y-93415220D01*
X50491610Y-93322287D01*
X50657219Y-93201966D01*
X50801966Y-93057219D01*
X50922287Y-92891610D01*
X51015220Y-92709219D01*
X51078477Y-92514534D01*
X51110500Y-92312352D01*
X51110500Y-92107648D01*
X51078477Y-91905466D01*
X51015220Y-91710781D01*
X50922287Y-91528390D01*
X50902024Y-91500500D01*
X50801971Y-91362787D01*
X50801964Y-91362779D01*
X50657220Y-91218035D01*
X50657212Y-91218028D01*
X50491609Y-91097712D01*
X50442637Y-91072760D01*
X50385319Y-91021152D01*
X50361485Y-90947798D01*
X50377521Y-90872356D01*
X50429129Y-90815038D01*
X50442637Y-90807240D01*
X50491610Y-90782287D01*
X50657219Y-90661966D01*
X50801966Y-90517219D01*
X50922287Y-90351610D01*
X51015220Y-90169219D01*
X51078477Y-89974534D01*
X51110500Y-89772352D01*
X51110500Y-89597648D01*
X52199500Y-89597648D01*
X52199500Y-89802352D01*
X52231523Y-90004534D01*
X52285032Y-90169219D01*
X52294778Y-90199212D01*
X52294782Y-90199224D01*
X52387714Y-90381612D01*
X52508028Y-90547212D01*
X52508035Y-90547220D01*
X52652779Y-90691964D01*
X52652787Y-90691971D01*
X52782806Y-90786434D01*
X52818390Y-90812287D01*
X53000781Y-90905220D01*
X53195466Y-90968477D01*
X53397648Y-91000500D01*
X53397653Y-91000500D01*
X53602347Y-91000500D01*
X53602352Y-91000500D01*
X53804534Y-90968477D01*
X53999219Y-90905220D01*
X54181610Y-90812287D01*
X54347219Y-90691966D01*
X54491966Y-90547219D01*
X54612287Y-90381610D01*
X54705220Y-90199219D01*
X54768477Y-90004534D01*
X54800500Y-89802352D01*
X54800500Y-89597648D01*
X54768477Y-89395466D01*
X54705220Y-89200781D01*
X54612287Y-89018390D01*
X54552221Y-88935715D01*
X54491971Y-88852787D01*
X54491964Y-88852779D01*
X54491299Y-88852114D01*
X57499500Y-88852114D01*
X57499500Y-90547863D01*
X57499502Y-90547888D01*
X57505908Y-90607478D01*
X57505909Y-90607484D01*
X57556202Y-90742329D01*
X57556204Y-90742333D01*
X57642452Y-90857544D01*
X57649989Y-90865081D01*
X57647182Y-90867887D01*
X57681861Y-90912066D01*
X57692768Y-90988419D01*
X57677598Y-91038240D01*
X57594785Y-91200769D01*
X57594778Y-91200787D01*
X57533116Y-91390564D01*
X57531523Y-91395466D01*
X57499500Y-91597648D01*
X57499500Y-91802352D01*
X57511547Y-91878410D01*
X57531523Y-92004534D01*
X57594778Y-92199212D01*
X57594782Y-92199224D01*
X57687714Y-92381612D01*
X57808028Y-92547212D01*
X57808035Y-92547220D01*
X57952779Y-92691964D01*
X57952787Y-92691971D01*
X58118383Y-92812282D01*
X58118390Y-92812287D01*
X58300781Y-92905220D01*
X58495466Y-92968477D01*
X58697648Y-93000500D01*
X58697653Y-93000500D01*
X58902347Y-93000500D01*
X58902352Y-93000500D01*
X59104534Y-92968477D01*
X59299219Y-92905220D01*
X59481610Y-92812287D01*
X59647219Y-92691966D01*
X59791966Y-92547219D01*
X59912287Y-92381610D01*
X60005220Y-92199219D01*
X60068477Y-92004534D01*
X60100500Y-91802352D01*
X60100500Y-91597648D01*
X60068477Y-91395466D01*
X60005220Y-91200781D01*
X59922400Y-91038238D01*
X59906365Y-90962798D01*
X59930199Y-90889445D01*
X59951573Y-90866645D01*
X59950010Y-90865082D01*
X59957542Y-90857548D01*
X59957546Y-90857546D01*
X60010780Y-90786435D01*
X60043795Y-90742333D01*
X60043797Y-90742329D01*
X60073771Y-90661964D01*
X60094091Y-90607483D01*
X60097478Y-90575985D01*
X60100499Y-90547885D01*
X60100500Y-90547867D01*
X60100500Y-89881908D01*
X63499500Y-89881908D01*
X63499500Y-90118092D01*
X63536447Y-90351368D01*
X63609432Y-90575992D01*
X63716657Y-90786433D01*
X63855483Y-90977510D01*
X64022490Y-91144517D01*
X64213567Y-91283343D01*
X64424008Y-91390568D01*
X64648632Y-91463553D01*
X64881908Y-91500500D01*
X64881913Y-91500500D01*
X65118087Y-91500500D01*
X65118092Y-91500500D01*
X65351368Y-91463553D01*
X65575992Y-91390568D01*
X65786433Y-91283343D01*
X65977510Y-91144517D01*
X66144517Y-90977510D01*
X66283343Y-90786433D01*
X66390568Y-90575992D01*
X66463553Y-90351368D01*
X66500500Y-90118092D01*
X66500500Y-89881908D01*
X70999500Y-89881908D01*
X70999500Y-90118092D01*
X71036447Y-90351368D01*
X71109432Y-90575992D01*
X71216657Y-90786433D01*
X71355483Y-90977510D01*
X71522490Y-91144517D01*
X71713567Y-91283343D01*
X71924008Y-91390568D01*
X72148632Y-91463553D01*
X72381908Y-91500500D01*
X74316755Y-91500500D01*
X74391255Y-91520462D01*
X74422113Y-91544140D01*
X76387402Y-93509430D01*
X78343614Y-95465642D01*
X78382176Y-95532430D01*
X78386289Y-95547780D01*
X78386292Y-95547789D01*
X78471598Y-95753733D01*
X78583049Y-95946770D01*
X78583051Y-95946773D01*
X78583052Y-95946774D01*
X78718753Y-96123624D01*
X78876376Y-96281247D01*
X78879104Y-96283340D01*
X79053229Y-96416950D01*
X79246266Y-96528401D01*
X79246269Y-96528402D01*
X79246274Y-96528405D01*
X79411030Y-96596649D01*
X79452221Y-96613711D01*
X79559878Y-96642557D01*
X79667537Y-96671404D01*
X79888543Y-96700500D01*
X80111457Y-96700500D01*
X80332463Y-96671404D01*
X80547777Y-96613711D01*
X80547778Y-96613711D01*
X80547779Y-96613710D01*
X80547781Y-96613710D01*
X80753726Y-96528405D01*
X80946774Y-96416948D01*
X81123624Y-96281247D01*
X81281247Y-96123624D01*
X81416948Y-95946774D01*
X81528405Y-95753726D01*
X81613710Y-95547781D01*
X81671404Y-95332463D01*
X81700500Y-95111457D01*
X81700500Y-94888543D01*
X81700499Y-94888537D01*
X87049500Y-94888537D01*
X87049500Y-95111462D01*
X87078593Y-95332447D01*
X87078596Y-95332464D01*
X87136288Y-95547777D01*
X87136288Y-95547778D01*
X87221598Y-95753733D01*
X87333049Y-95946770D01*
X87333051Y-95946773D01*
X87333052Y-95946774D01*
X87468753Y-96123624D01*
X87626376Y-96281247D01*
X87629104Y-96283340D01*
X87803229Y-96416950D01*
X87996266Y-96528401D01*
X87996269Y-96528402D01*
X87996274Y-96528405D01*
X88161030Y-96596649D01*
X88202221Y-96613711D01*
X88309878Y-96642557D01*
X88417537Y-96671404D01*
X88638543Y-96700500D01*
X88861457Y-96700500D01*
X89082463Y-96671404D01*
X89297777Y-96613711D01*
X89297778Y-96613711D01*
X89297779Y-96613710D01*
X89297781Y-96613710D01*
X89503726Y-96528405D01*
X89696774Y-96416948D01*
X89873624Y-96281247D01*
X90031247Y-96123624D01*
X90166948Y-95946774D01*
X90278405Y-95753726D01*
X90363710Y-95547781D01*
X90421404Y-95332463D01*
X90450500Y-95111457D01*
X90450500Y-94888543D01*
X90436461Y-94781908D01*
X94499500Y-94781908D01*
X94499500Y-94881908D01*
X94499500Y-95118092D01*
X94536447Y-95351368D01*
X94609432Y-95575992D01*
X94716657Y-95786433D01*
X94855483Y-95977510D01*
X95022490Y-96144517D01*
X95022493Y-96144519D01*
X95213562Y-96283340D01*
X95213566Y-96283342D01*
X95213567Y-96283343D01*
X95289891Y-96322231D01*
X95327605Y-96349632D01*
X98255859Y-99277886D01*
X98294423Y-99344681D01*
X98299500Y-99383245D01*
X98299500Y-117281908D01*
X98299500Y-117518092D01*
X98336447Y-117751368D01*
X98409432Y-117975992D01*
X98409436Y-117976001D01*
X98409437Y-117976002D01*
X98516655Y-118186430D01*
X98516658Y-118186435D01*
X98655477Y-118377503D01*
X98655480Y-118377506D01*
X98655483Y-118377510D01*
X102955860Y-122677887D01*
X102994423Y-122744680D01*
X102999500Y-122783244D01*
X102999500Y-122831123D01*
X103033728Y-123091107D01*
X103033728Y-123091110D01*
X103101600Y-123344415D01*
X103101600Y-123344416D01*
X103201959Y-123586701D01*
X103333078Y-123813806D01*
X103333078Y-123813807D01*
X103492715Y-124021848D01*
X103678151Y-124207284D01*
X103886193Y-124366921D01*
X103886197Y-124366924D01*
X104113303Y-124498043D01*
X104317809Y-124582752D01*
X104355583Y-124598399D01*
X104443332Y-124621910D01*
X104608884Y-124666270D01*
X104608890Y-124666270D01*
X104608891Y-124666271D01*
X104645834Y-124671134D01*
X104868877Y-124700499D01*
X104868878Y-124700500D01*
X104868880Y-124700500D01*
X105131122Y-124700500D01*
X105131122Y-124700499D01*
X105391108Y-124666271D01*
X105391110Y-124666271D01*
X105391111Y-124666270D01*
X105391116Y-124666270D01*
X105644415Y-124598399D01*
X105644416Y-124598399D01*
X105644417Y-124598398D01*
X105644419Y-124598398D01*
X105886697Y-124498043D01*
X106113803Y-124366924D01*
X106321848Y-124207284D01*
X106321849Y-124207284D01*
X106507284Y-124021849D01*
X106507284Y-124021848D01*
X106666921Y-123813807D01*
X106666921Y-123813806D01*
X106666924Y-123813803D01*
X106798043Y-123586697D01*
X106898398Y-123344419D01*
X106966270Y-123091116D01*
X107000500Y-122831120D01*
X107000500Y-122568880D01*
X106966270Y-122308884D01*
X106898398Y-122055581D01*
X106798043Y-121813303D01*
X106666924Y-121586197D01*
X106666921Y-121586193D01*
X106666921Y-121586192D01*
X106507284Y-121378151D01*
X106321848Y-121192715D01*
X106113806Y-121033078D01*
X105886701Y-120901959D01*
X105886699Y-120901958D01*
X105886697Y-120901957D01*
X105644419Y-120801602D01*
X105644420Y-120801602D01*
X105644417Y-120801601D01*
X105391114Y-120733729D01*
X105391104Y-120733727D01*
X105285379Y-120719808D01*
X105214123Y-120690292D01*
X105199470Y-120677442D01*
X101344141Y-116822113D01*
X101305577Y-116755318D01*
X101300500Y-116716754D01*
X101300500Y-116218876D01*
X102999500Y-116218876D01*
X102999500Y-116481123D01*
X103033728Y-116741107D01*
X103033728Y-116741110D01*
X103101600Y-116994415D01*
X103101600Y-116994416D01*
X103201959Y-117236701D01*
X103333078Y-117463806D01*
X103333078Y-117463807D01*
X103492715Y-117671848D01*
X103678151Y-117857284D01*
X103832854Y-117975992D01*
X103886197Y-118016924D01*
X104113303Y-118148043D01*
X104317809Y-118232752D01*
X104355583Y-118248399D01*
X104443332Y-118271910D01*
X104608884Y-118316270D01*
X104608890Y-118316270D01*
X104608891Y-118316271D01*
X104645834Y-118321134D01*
X104868877Y-118350499D01*
X104868878Y-118350500D01*
X104868880Y-118350500D01*
X105131122Y-118350500D01*
X105131122Y-118350499D01*
X105391108Y-118316271D01*
X105391110Y-118316271D01*
X105391111Y-118316270D01*
X105391116Y-118316270D01*
X105644415Y-118248399D01*
X105644416Y-118248399D01*
X105644417Y-118248398D01*
X105644419Y-118248398D01*
X105886697Y-118148043D01*
X106113803Y-118016924D01*
X106321848Y-117857284D01*
X106321849Y-117857284D01*
X106507284Y-117671849D01*
X106507284Y-117671848D01*
X106666921Y-117463807D01*
X106666921Y-117463806D01*
X106666924Y-117463803D01*
X106798043Y-117236697D01*
X106898398Y-116994419D01*
X106966270Y-116741116D01*
X107000500Y-116481120D01*
X107000500Y-116218880D01*
X106966270Y-115958884D01*
X106898398Y-115705581D01*
X106798043Y-115463303D01*
X106666924Y-115236197D01*
X106666921Y-115236193D01*
X106666921Y-115236192D01*
X106507284Y-115028151D01*
X106321848Y-114842715D01*
X106113806Y-114683078D01*
X105886701Y-114551959D01*
X105886699Y-114551958D01*
X105886697Y-114551957D01*
X105765270Y-114501660D01*
X105644416Y-114451600D01*
X105418255Y-114391002D01*
X105391116Y-114383730D01*
X105391114Y-114383729D01*
X105391108Y-114383728D01*
X105131123Y-114349500D01*
X105131120Y-114349500D01*
X104868880Y-114349500D01*
X104868876Y-114349500D01*
X104608892Y-114383728D01*
X104608889Y-114383728D01*
X104355584Y-114451600D01*
X104355583Y-114451600D01*
X104113298Y-114551959D01*
X103886193Y-114683078D01*
X103886192Y-114683078D01*
X103678151Y-114842715D01*
X103678151Y-114842716D01*
X103678149Y-114842718D01*
X103492718Y-115028149D01*
X103492716Y-115028151D01*
X103492715Y-115028151D01*
X103333078Y-115236192D01*
X103333078Y-115236193D01*
X103201959Y-115463298D01*
X103101600Y-115705583D01*
X103101600Y-115705584D01*
X103033728Y-115958889D01*
X103033728Y-115958892D01*
X102999500Y-116218876D01*
X101300500Y-116218876D01*
X101300500Y-99881908D01*
X101999500Y-99881908D01*
X101999500Y-100118092D01*
X102036447Y-100351368D01*
X102109432Y-100575992D01*
X102216657Y-100786433D01*
X102355483Y-100977510D01*
X102522490Y-101144517D01*
X102713567Y-101283343D01*
X102924008Y-101390568D01*
X103148632Y-101463553D01*
X103381908Y-101500500D01*
X103381913Y-101500500D01*
X103618087Y-101500500D01*
X103618092Y-101500500D01*
X103851368Y-101463553D01*
X104075992Y-101390568D01*
X104286433Y-101283343D01*
X104477510Y-101144517D01*
X104644517Y-100977510D01*
X104783343Y-100786433D01*
X104890568Y-100575992D01*
X104963553Y-100351368D01*
X105000500Y-100118092D01*
X105000500Y-99881908D01*
X104963553Y-99648632D01*
X104890568Y-99424008D01*
X104783343Y-99213567D01*
X104644517Y-99022490D01*
X104477510Y-98855483D01*
X104286433Y-98716657D01*
X104075992Y-98609432D01*
X103851368Y-98536447D01*
X103618092Y-98499500D01*
X103381908Y-98499500D01*
X103148632Y-98536447D01*
X103008706Y-98581912D01*
X102924008Y-98609432D01*
X102924002Y-98609434D01*
X102924002Y-98609435D01*
X102713565Y-98716658D01*
X102522499Y-98855476D01*
X102522488Y-98855485D01*
X102355485Y-99022488D01*
X102355476Y-99022499D01*
X102216658Y-99213565D01*
X102216657Y-99213567D01*
X102109432Y-99424008D01*
X102036447Y-99648632D01*
X101999500Y-99881908D01*
X101300500Y-99881908D01*
X101300500Y-98581912D01*
X101300500Y-98581908D01*
X101263553Y-98348632D01*
X101190568Y-98124008D01*
X101083343Y-97913567D01*
X101047016Y-97863567D01*
X100944518Y-97722490D01*
X96977510Y-93755483D01*
X96977506Y-93755480D01*
X96977503Y-93755477D01*
X96830429Y-93648621D01*
X96786434Y-93616657D01*
X96575992Y-93509432D01*
X96351368Y-93436447D01*
X96118092Y-93399500D01*
X95881908Y-93399500D01*
X95648632Y-93436447D01*
X95517262Y-93479132D01*
X95424008Y-93509432D01*
X95424003Y-93509434D01*
X95423997Y-93509437D01*
X95213569Y-93616655D01*
X95213564Y-93616658D01*
X95022496Y-93755477D01*
X94855477Y-93922496D01*
X94716658Y-94113564D01*
X94716655Y-94113569D01*
X94609437Y-94323997D01*
X94609434Y-94324003D01*
X94609432Y-94324008D01*
X94536447Y-94548632D01*
X94499500Y-94781908D01*
X90436461Y-94781908D01*
X90421404Y-94667537D01*
X90363710Y-94452219D01*
X90278405Y-94246274D01*
X90278403Y-94246271D01*
X90278400Y-94246263D01*
X90270461Y-94232512D01*
X90250500Y-94158015D01*
X90250500Y-91183245D01*
X90270462Y-91108745D01*
X90294141Y-91077886D01*
X91490119Y-89881908D01*
X94499500Y-89881908D01*
X94499500Y-90118092D01*
X94536447Y-90351368D01*
X94609432Y-90575992D01*
X94716657Y-90786433D01*
X94855483Y-90977510D01*
X95022490Y-91144517D01*
X95213567Y-91283343D01*
X95424008Y-91390568D01*
X95648632Y-91463553D01*
X95881908Y-91500500D01*
X95881913Y-91500500D01*
X96118087Y-91500500D01*
X96118092Y-91500500D01*
X96351368Y-91463553D01*
X96575992Y-91390568D01*
X96786433Y-91283343D01*
X96977510Y-91144517D01*
X97144517Y-90977510D01*
X97283343Y-90786433D01*
X97390568Y-90575992D01*
X97463553Y-90351368D01*
X97500500Y-90118092D01*
X97500500Y-89881908D01*
X97463553Y-89648632D01*
X97390568Y-89424008D01*
X97283343Y-89213567D01*
X97144517Y-89022490D01*
X96977510Y-88855483D01*
X96786433Y-88716657D01*
X96575992Y-88609432D01*
X96351368Y-88536447D01*
X96118092Y-88499500D01*
X95881908Y-88499500D01*
X95648632Y-88536447D01*
X95424008Y-88609432D01*
X95424002Y-88609434D01*
X95424002Y-88609435D01*
X95213565Y-88716658D01*
X95022499Y-88855476D01*
X95022488Y-88855485D01*
X94855485Y-89022488D01*
X94855476Y-89022499D01*
X94725942Y-89200787D01*
X94716657Y-89213567D01*
X94609432Y-89424008D01*
X94536447Y-89648632D01*
X94499500Y-89881908D01*
X91490119Y-89881908D01*
X91601332Y-89770695D01*
X91948014Y-89424014D01*
X93577887Y-87794141D01*
X93644682Y-87755577D01*
X93683246Y-87750500D01*
X99066755Y-87750500D01*
X99141255Y-87770462D01*
X99172114Y-87794141D01*
X102522490Y-91144517D01*
X102713567Y-91283343D01*
X102924008Y-91390568D01*
X103148632Y-91463553D01*
X103381908Y-91500500D01*
X103381913Y-91500500D01*
X103618087Y-91500500D01*
X103618092Y-91500500D01*
X103851369Y-91463553D01*
X104075992Y-91390568D01*
X104286434Y-91283343D01*
X104477510Y-91144517D01*
X104644517Y-90977510D01*
X104783343Y-90786434D01*
X104890568Y-90575992D01*
X104963553Y-90351369D01*
X105000500Y-90118092D01*
X105000500Y-89881908D01*
X104963553Y-89648632D01*
X104890568Y-89424008D01*
X104783343Y-89213567D01*
X104644517Y-89022490D01*
X100727510Y-85105483D01*
X100727506Y-85105480D01*
X100727503Y-85105477D01*
X100536435Y-84966658D01*
X100536434Y-84966657D01*
X100325992Y-84859432D01*
X100101368Y-84786447D01*
X99868092Y-84749500D01*
X93118092Y-84749500D01*
X92881908Y-84749500D01*
X92648632Y-84786447D01*
X92424008Y-84859432D01*
X92424002Y-84859434D01*
X92424002Y-84859435D01*
X92213565Y-84966658D01*
X92213564Y-84966658D01*
X92022491Y-85105481D01*
X92022488Y-85105483D01*
X87605477Y-89522496D01*
X87466658Y-89713564D01*
X87466655Y-89713569D01*
X87428379Y-89788691D01*
X87359437Y-89923997D01*
X87359434Y-89924003D01*
X87359432Y-89924008D01*
X87286447Y-90148632D01*
X87249500Y-90381908D01*
X87249500Y-90381912D01*
X87249500Y-94158015D01*
X87229539Y-94232512D01*
X87221599Y-94246263D01*
X87136288Y-94452221D01*
X87136288Y-94452222D01*
X87078596Y-94667535D01*
X87078593Y-94667552D01*
X87049500Y-94888537D01*
X81700499Y-94888537D01*
X81671404Y-94667537D01*
X81613710Y-94452219D01*
X81528405Y-94246274D01*
X81528402Y-94246269D01*
X81528401Y-94246266D01*
X81416950Y-94053229D01*
X81414089Y-94049500D01*
X81281247Y-93876376D01*
X81123624Y-93718753D01*
X80946774Y-93583052D01*
X80946773Y-93583051D01*
X80946770Y-93583049D01*
X80753733Y-93471598D01*
X80547789Y-93386292D01*
X80547780Y-93386289D01*
X80532430Y-93382176D01*
X80465642Y-93343614D01*
X79434375Y-92312347D01*
X75977510Y-88855483D01*
X75977506Y-88855480D01*
X75977503Y-88855477D01*
X75786435Y-88716658D01*
X75786434Y-88716657D01*
X75575992Y-88609432D01*
X75351368Y-88536447D01*
X75118092Y-88499500D01*
X72381908Y-88499500D01*
X72148632Y-88536447D01*
X71924008Y-88609432D01*
X71924002Y-88609434D01*
X71924002Y-88609435D01*
X71713565Y-88716658D01*
X71522499Y-88855476D01*
X71522488Y-88855485D01*
X71355485Y-89022488D01*
X71355476Y-89022499D01*
X71225942Y-89200787D01*
X71216657Y-89213567D01*
X71109432Y-89424008D01*
X71036447Y-89648632D01*
X70999500Y-89881908D01*
X66500500Y-89881908D01*
X66463553Y-89648632D01*
X66390568Y-89424008D01*
X66283343Y-89213567D01*
X66144517Y-89022490D01*
X65977510Y-88855483D01*
X65786433Y-88716657D01*
X65575992Y-88609432D01*
X65351368Y-88536447D01*
X65118092Y-88499500D01*
X64881908Y-88499500D01*
X64648632Y-88536447D01*
X64424008Y-88609432D01*
X64424002Y-88609434D01*
X64424002Y-88609435D01*
X64213565Y-88716658D01*
X64022499Y-88855476D01*
X64022488Y-88855485D01*
X63855485Y-89022488D01*
X63855476Y-89022499D01*
X63725942Y-89200787D01*
X63716657Y-89213567D01*
X63609432Y-89424008D01*
X63536447Y-89648632D01*
X63499500Y-89881908D01*
X60100500Y-89881908D01*
X60100500Y-89876054D01*
X60100499Y-88852136D01*
X60100499Y-88852128D01*
X60094091Y-88792517D01*
X60079588Y-88753633D01*
X60043797Y-88657670D01*
X60043795Y-88657666D01*
X59957547Y-88542455D01*
X59957544Y-88542452D01*
X59842333Y-88456204D01*
X59842329Y-88456202D01*
X59707482Y-88405908D01*
X59647876Y-88399500D01*
X57952136Y-88399500D01*
X57952111Y-88399502D01*
X57892521Y-88405908D01*
X57892515Y-88405909D01*
X57757670Y-88456202D01*
X57757666Y-88456204D01*
X57642455Y-88542452D01*
X57642452Y-88542455D01*
X57556204Y-88657666D01*
X57556202Y-88657670D01*
X57505908Y-88792517D01*
X57499500Y-88852114D01*
X54491299Y-88852114D01*
X54347220Y-88708035D01*
X54347212Y-88708028D01*
X54181612Y-88587714D01*
X53999224Y-88494782D01*
X53999220Y-88494780D01*
X53999219Y-88494780D01*
X53804534Y-88431523D01*
X53602352Y-88399500D01*
X53397648Y-88399500D01*
X53229163Y-88426185D01*
X53195465Y-88431523D01*
X53000787Y-88494778D01*
X53000775Y-88494782D01*
X52818387Y-88587714D01*
X52652787Y-88708028D01*
X52652779Y-88708035D01*
X52508035Y-88852779D01*
X52508028Y-88852787D01*
X52387714Y-89018387D01*
X52294782Y-89200775D01*
X52294778Y-89200787D01*
X52241271Y-89365466D01*
X52231523Y-89395466D01*
X52199500Y-89597648D01*
X51110500Y-89597648D01*
X51110500Y-89567648D01*
X51078477Y-89365466D01*
X51015220Y-89170781D01*
X50922287Y-88988390D01*
X50884017Y-88935715D01*
X50801971Y-88822787D01*
X50801964Y-88822779D01*
X50657220Y-88678035D01*
X50657212Y-88678028D01*
X50491609Y-88557712D01*
X50442637Y-88532760D01*
X50385319Y-88481152D01*
X50361485Y-88407798D01*
X50377521Y-88332356D01*
X50429129Y-88275038D01*
X50442637Y-88267240D01*
X50491610Y-88242287D01*
X50657219Y-88121966D01*
X50801966Y-87977219D01*
X50922287Y-87811610D01*
X51015220Y-87629219D01*
X51078477Y-87434534D01*
X51110500Y-87232352D01*
X51110500Y-87027648D01*
X51078477Y-86825466D01*
X51015220Y-86630781D01*
X50922287Y-86448390D01*
X50890453Y-86404574D01*
X50801971Y-86282787D01*
X50801964Y-86282779D01*
X50657220Y-86138035D01*
X50657212Y-86138028D01*
X50491609Y-86017712D01*
X50442637Y-85992760D01*
X50385319Y-85941152D01*
X50361485Y-85867798D01*
X50377521Y-85792356D01*
X50429129Y-85735038D01*
X50442637Y-85727240D01*
X50470541Y-85713022D01*
X50491610Y-85702287D01*
X50657219Y-85581966D01*
X50801966Y-85437219D01*
X50922287Y-85271610D01*
X51015220Y-85089219D01*
X51078477Y-84894534D01*
X51110500Y-84692352D01*
X51110500Y-84487648D01*
X51078477Y-84285466D01*
X51015220Y-84090781D01*
X50967766Y-83997648D01*
X53799500Y-83997648D01*
X53799500Y-84202352D01*
X53831523Y-84404534D01*
X53894778Y-84599212D01*
X53894782Y-84599224D01*
X53987714Y-84781612D01*
X54108028Y-84947212D01*
X54108035Y-84947220D01*
X54252779Y-85091964D01*
X54252787Y-85091971D01*
X54418387Y-85212285D01*
X54418390Y-85212287D01*
X54600781Y-85305220D01*
X54795466Y-85368477D01*
X54997648Y-85400500D01*
X54997653Y-85400500D01*
X55202347Y-85400500D01*
X55202352Y-85400500D01*
X55404534Y-85368477D01*
X55599219Y-85305220D01*
X55781610Y-85212287D01*
X55947219Y-85091966D01*
X56091966Y-84947219D01*
X56212287Y-84781610D01*
X56305220Y-84599219D01*
X56368477Y-84404534D01*
X56400500Y-84202352D01*
X56400500Y-83997648D01*
X58499500Y-83997648D01*
X58499500Y-84202352D01*
X58531523Y-84404534D01*
X58594778Y-84599212D01*
X58594782Y-84599224D01*
X58687714Y-84781612D01*
X58808028Y-84947212D01*
X58808035Y-84947220D01*
X58952779Y-85091964D01*
X58952787Y-85091971D01*
X59118387Y-85212285D01*
X59118390Y-85212287D01*
X59300781Y-85305220D01*
X59495466Y-85368477D01*
X59697648Y-85400500D01*
X59697653Y-85400500D01*
X59902347Y-85400500D01*
X59902352Y-85400500D01*
X60104534Y-85368477D01*
X60299219Y-85305220D01*
X60481610Y-85212287D01*
X60647219Y-85091966D01*
X60791966Y-84947219D01*
X60912287Y-84781610D01*
X61005220Y-84599219D01*
X61068477Y-84404534D01*
X61100500Y-84202352D01*
X61100500Y-83997648D01*
X61068477Y-83795466D01*
X61005220Y-83600781D01*
X60912287Y-83418390D01*
X60841910Y-83321523D01*
X60791971Y-83252787D01*
X60791964Y-83252779D01*
X60647220Y-83108035D01*
X60647212Y-83108028D01*
X60481612Y-82987714D01*
X60299224Y-82894782D01*
X60299220Y-82894780D01*
X60299219Y-82894780D01*
X60104534Y-82831523D01*
X59902352Y-82799500D01*
X59697648Y-82799500D01*
X59529163Y-82826185D01*
X59495465Y-82831523D01*
X59300787Y-82894778D01*
X59300775Y-82894782D01*
X59118387Y-82987714D01*
X58952787Y-83108028D01*
X58952779Y-83108035D01*
X58808035Y-83252779D01*
X58808028Y-83252787D01*
X58687714Y-83418387D01*
X58594782Y-83600775D01*
X58594780Y-83600781D01*
X58531523Y-83795466D01*
X58499500Y-83997648D01*
X56400500Y-83997648D01*
X56368477Y-83795466D01*
X56305220Y-83600781D01*
X56212287Y-83418390D01*
X56141910Y-83321523D01*
X56091971Y-83252787D01*
X56091964Y-83252779D01*
X55947220Y-83108035D01*
X55947212Y-83108028D01*
X55781612Y-82987714D01*
X55599224Y-82894782D01*
X55599220Y-82894780D01*
X55599219Y-82894780D01*
X55404534Y-82831523D01*
X55202352Y-82799500D01*
X54997648Y-82799500D01*
X54829163Y-82826185D01*
X54795465Y-82831523D01*
X54600787Y-82894778D01*
X54600775Y-82894782D01*
X54418387Y-82987714D01*
X54252787Y-83108028D01*
X54252779Y-83108035D01*
X54108035Y-83252779D01*
X54108028Y-83252787D01*
X53987714Y-83418387D01*
X53894782Y-83600775D01*
X53894780Y-83600781D01*
X53831523Y-83795466D01*
X53799500Y-83997648D01*
X50967766Y-83997648D01*
X50922287Y-83908390D01*
X50906894Y-83887203D01*
X50801971Y-83742787D01*
X50801964Y-83742779D01*
X50657220Y-83598035D01*
X50657212Y-83598028D01*
X50491612Y-83477714D01*
X50309224Y-83384782D01*
X50309220Y-83384780D01*
X50309219Y-83384780D01*
X50114534Y-83321523D01*
X49912352Y-83289500D01*
X48907648Y-83289500D01*
X48739163Y-83316185D01*
X48705465Y-83321523D01*
X48510787Y-83384778D01*
X48510775Y-83384782D01*
X48328387Y-83477714D01*
X48162787Y-83598028D01*
X48162779Y-83598035D01*
X48018035Y-83742779D01*
X48018028Y-83742787D01*
X47897714Y-83908387D01*
X47804782Y-84090775D01*
X47804780Y-84090781D01*
X47741523Y-84285466D01*
X47709500Y-84487648D01*
X45050500Y-84487648D01*
X45050500Y-82926082D01*
X45021658Y-82781087D01*
X44965084Y-82644505D01*
X44932186Y-82595270D01*
X44882952Y-82521584D01*
X43394141Y-81032773D01*
X43355577Y-80965978D01*
X43350500Y-80927414D01*
X43350500Y-80466628D01*
X43370462Y-80392128D01*
X43425000Y-80337590D01*
X43499500Y-80317628D01*
X43574000Y-80337590D01*
X43588794Y-80347349D01*
X43657666Y-80398907D01*
X43657670Y-80398910D01*
X43792517Y-80449204D01*
X43852114Y-80455612D01*
X43852118Y-80455612D01*
X43852127Y-80455613D01*
X45547872Y-80455612D01*
X45607483Y-80449204D01*
X45703447Y-80413411D01*
X45742329Y-80398910D01*
X45742333Y-80398908D01*
X45811206Y-80347349D01*
X45857546Y-80312659D01*
X45943796Y-80197444D01*
X45994091Y-80062596D01*
X46000500Y-80002986D01*
X46000499Y-78997648D01*
X58499500Y-78997648D01*
X58499500Y-79202352D01*
X58531523Y-79404534D01*
X58538996Y-79427535D01*
X58594778Y-79599212D01*
X58594782Y-79599224D01*
X58687714Y-79781612D01*
X58808028Y-79947212D01*
X58808035Y-79947220D01*
X58952779Y-80091964D01*
X58952787Y-80091971D01*
X58953466Y-80092464D01*
X59118390Y-80212287D01*
X59300781Y-80305220D01*
X59495466Y-80368477D01*
X59697648Y-80400500D01*
X59697653Y-80400500D01*
X59902347Y-80400500D01*
X59902352Y-80400500D01*
X60104534Y-80368477D01*
X60299219Y-80305220D01*
X60481610Y-80212287D01*
X60647219Y-80091966D01*
X60791966Y-79947219D01*
X60912287Y-79781610D01*
X60980091Y-79648537D01*
X78299500Y-79648537D01*
X78299500Y-79871462D01*
X78328593Y-80092447D01*
X78328596Y-80092464D01*
X78386288Y-80307777D01*
X78386288Y-80307778D01*
X78471598Y-80513733D01*
X78583049Y-80706770D01*
X78583051Y-80706773D01*
X78583052Y-80706774D01*
X78718753Y-80883624D01*
X78876376Y-81041247D01*
X78937352Y-81088035D01*
X79053229Y-81176950D01*
X79246266Y-81288401D01*
X79246269Y-81288402D01*
X79246274Y-81288405D01*
X79411030Y-81356649D01*
X79452221Y-81373711D01*
X79544315Y-81398387D01*
X79667537Y-81431404D01*
X79888543Y-81460500D01*
X80111457Y-81460500D01*
X80332463Y-81431404D01*
X80547777Y-81373711D01*
X80547778Y-81373711D01*
X80547779Y-81373710D01*
X80547781Y-81373710D01*
X80753726Y-81288405D01*
X80946774Y-81176948D01*
X81123624Y-81041247D01*
X81281247Y-80883624D01*
X81416948Y-80706774D01*
X81528405Y-80513726D01*
X81613710Y-80307781D01*
X81671404Y-80092463D01*
X81700500Y-79871457D01*
X81700500Y-79648543D01*
X81700499Y-79648537D01*
X87049500Y-79648537D01*
X87049500Y-79871462D01*
X87078593Y-80092447D01*
X87078596Y-80092464D01*
X87136288Y-80307777D01*
X87136288Y-80307778D01*
X87221598Y-80513733D01*
X87333049Y-80706770D01*
X87333051Y-80706773D01*
X87333052Y-80706774D01*
X87468753Y-80883624D01*
X87626376Y-81041247D01*
X87687352Y-81088035D01*
X87803229Y-81176950D01*
X87996266Y-81288401D01*
X87996269Y-81288402D01*
X87996274Y-81288405D01*
X88161030Y-81356649D01*
X88202221Y-81373711D01*
X88294315Y-81398387D01*
X88417537Y-81431404D01*
X88638543Y-81460500D01*
X88861457Y-81460500D01*
X89082463Y-81431404D01*
X89297777Y-81373711D01*
X89297778Y-81373711D01*
X89297779Y-81373710D01*
X89297781Y-81373710D01*
X89503726Y-81288405D01*
X89696774Y-81176948D01*
X89873624Y-81041247D01*
X90031247Y-80883624D01*
X90166948Y-80706774D01*
X90278405Y-80513726D01*
X90363710Y-80307781D01*
X90421404Y-80092463D01*
X90450500Y-79871457D01*
X90450500Y-79648543D01*
X90421404Y-79427537D01*
X90363710Y-79212219D01*
X90278405Y-79006274D01*
X90278402Y-79006269D01*
X90278401Y-79006266D01*
X90166950Y-78813229D01*
X90153320Y-78795466D01*
X90031247Y-78636376D01*
X89873624Y-78478753D01*
X89696774Y-78343052D01*
X89696773Y-78343051D01*
X89696770Y-78343049D01*
X89503733Y-78231598D01*
X89297778Y-78146288D01*
X89082464Y-78088596D01*
X89082447Y-78088593D01*
X88861462Y-78059500D01*
X88861457Y-78059500D01*
X88638543Y-78059500D01*
X88638537Y-78059500D01*
X88417552Y-78088593D01*
X88417535Y-78088596D01*
X88202222Y-78146288D01*
X88202221Y-78146288D01*
X87996266Y-78231598D01*
X87803229Y-78343049D01*
X87626374Y-78478754D01*
X87468754Y-78636374D01*
X87333049Y-78813229D01*
X87221598Y-79006266D01*
X87136288Y-79212221D01*
X87136288Y-79212222D01*
X87078596Y-79427535D01*
X87078593Y-79427552D01*
X87049500Y-79648537D01*
X81700499Y-79648537D01*
X81671404Y-79427537D01*
X81613710Y-79212219D01*
X81528405Y-79006274D01*
X81528402Y-79006269D01*
X81528401Y-79006266D01*
X81416950Y-78813229D01*
X81403320Y-78795466D01*
X81281247Y-78636376D01*
X81123624Y-78478753D01*
X80946774Y-78343052D01*
X80946773Y-78343051D01*
X80946770Y-78343049D01*
X80753733Y-78231598D01*
X80547778Y-78146288D01*
X80332464Y-78088596D01*
X80332447Y-78088593D01*
X80111462Y-78059500D01*
X80111457Y-78059500D01*
X79888543Y-78059500D01*
X79888537Y-78059500D01*
X79667552Y-78088593D01*
X79667535Y-78088596D01*
X79452222Y-78146288D01*
X79452221Y-78146288D01*
X79246266Y-78231598D01*
X79053229Y-78343049D01*
X78876374Y-78478754D01*
X78718754Y-78636374D01*
X78583049Y-78813229D01*
X78471598Y-79006266D01*
X78386288Y-79212221D01*
X78386288Y-79212222D01*
X78328596Y-79427535D01*
X78328593Y-79427552D01*
X78299500Y-79648537D01*
X60980091Y-79648537D01*
X61005220Y-79599219D01*
X61068477Y-79404534D01*
X61100500Y-79202352D01*
X61100500Y-78997648D01*
X61068477Y-78795466D01*
X61005220Y-78600781D01*
X60912287Y-78418390D01*
X60902719Y-78405220D01*
X60791971Y-78252787D01*
X60791964Y-78252779D01*
X60647220Y-78108035D01*
X60647212Y-78108028D01*
X60481612Y-77987714D01*
X60299224Y-77894782D01*
X60299220Y-77894780D01*
X60299219Y-77894780D01*
X60104534Y-77831523D01*
X59902352Y-77799500D01*
X59697648Y-77799500D01*
X59529844Y-77826078D01*
X59495465Y-77831523D01*
X59300787Y-77894778D01*
X59300775Y-77894782D01*
X59118387Y-77987714D01*
X58952787Y-78108028D01*
X58952779Y-78108035D01*
X58808035Y-78252779D01*
X58808028Y-78252787D01*
X58687714Y-78418387D01*
X58594782Y-78600775D01*
X58594778Y-78600787D01*
X58531523Y-78795465D01*
X58525118Y-78835902D01*
X58499500Y-78997648D01*
X46000499Y-78997648D01*
X46000499Y-78307241D01*
X45994091Y-78247630D01*
X45956293Y-78146288D01*
X45943797Y-78112783D01*
X45943795Y-78112779D01*
X45857547Y-77997568D01*
X45850011Y-77990032D01*
X45852807Y-77987235D01*
X45818094Y-77942941D01*
X45807244Y-77866580D01*
X45822399Y-77816876D01*
X45905220Y-77654332D01*
X45968477Y-77459647D01*
X46000500Y-77257465D01*
X46000500Y-77052761D01*
X45968477Y-76850579D01*
X45905220Y-76655894D01*
X45812287Y-76473503D01*
X45752877Y-76391731D01*
X45691971Y-76307900D01*
X45691964Y-76307892D01*
X45547220Y-76163148D01*
X45547212Y-76163141D01*
X45381612Y-76042827D01*
X45199224Y-75949895D01*
X45199220Y-75949893D01*
X45199219Y-75949893D01*
X45004534Y-75886636D01*
X44802352Y-75854613D01*
X44597648Y-75854613D01*
X44429163Y-75881298D01*
X44395465Y-75886636D01*
X44200787Y-75949891D01*
X44200775Y-75949895D01*
X44018387Y-76042827D01*
X43852787Y-76163141D01*
X43852779Y-76163148D01*
X43708035Y-76307892D01*
X43708033Y-76307895D01*
X43682388Y-76343193D01*
X43622448Y-76391731D01*
X43561844Y-76404613D01*
X43270965Y-76404613D01*
X43125975Y-76433454D01*
X42989389Y-76490029D01*
X42866472Y-76572161D01*
X42866467Y-76572165D01*
X42017049Y-77421582D01*
X41991617Y-77459646D01*
X41991616Y-77459646D01*
X41934921Y-77544495D01*
X41934913Y-77544510D01*
X41878341Y-77681088D01*
X41849500Y-77826078D01*
X41849500Y-81373921D01*
X41878341Y-81518911D01*
X41934917Y-81655497D01*
X41934918Y-81655499D01*
X41967811Y-81704726D01*
X41967812Y-81704729D01*
X42017043Y-81778410D01*
X42017050Y-81778418D01*
X43505859Y-83267227D01*
X43515666Y-83284214D01*
X43529538Y-83298086D01*
X43534615Y-83317034D01*
X43544423Y-83334022D01*
X43549500Y-83372586D01*
X43549500Y-83428414D01*
X43529538Y-83502914D01*
X43475000Y-83557452D01*
X43400500Y-83577414D01*
X43326000Y-83557452D01*
X43295141Y-83533773D01*
X43208656Y-83447288D01*
X43178056Y-83428414D01*
X43059334Y-83355186D01*
X42944199Y-83317034D01*
X42892798Y-83300001D01*
X42874052Y-83298086D01*
X42790009Y-83289500D01*
X42790004Y-83289500D01*
X40789996Y-83289500D01*
X40687202Y-83300001D01*
X40520666Y-83355186D01*
X40371343Y-83447288D01*
X40247288Y-83571343D01*
X40155186Y-83720666D01*
X40100001Y-83887201D01*
X40089500Y-83989995D01*
X36500500Y-83989995D01*
X36500500Y-81977648D01*
X36799500Y-81977648D01*
X36799500Y-82182352D01*
X36831523Y-82384534D01*
X36894778Y-82579212D01*
X36894782Y-82579224D01*
X36987714Y-82761612D01*
X37108028Y-82927212D01*
X37108035Y-82927220D01*
X37252779Y-83071964D01*
X37252787Y-83071971D01*
X37418387Y-83192285D01*
X37418390Y-83192287D01*
X37600781Y-83285220D01*
X37795466Y-83348477D01*
X37997648Y-83380500D01*
X37997653Y-83380500D01*
X38202347Y-83380500D01*
X38202352Y-83380500D01*
X38404534Y-83348477D01*
X38599219Y-83285220D01*
X38781610Y-83192287D01*
X38947219Y-83071966D01*
X39091966Y-82927219D01*
X39212287Y-82761610D01*
X39305220Y-82579219D01*
X39368477Y-82384534D01*
X39400500Y-82182352D01*
X39400500Y-81977648D01*
X39368477Y-81775466D01*
X39305220Y-81580781D01*
X39212287Y-81398390D01*
X39212285Y-81398387D01*
X39091971Y-81232787D01*
X39091964Y-81232779D01*
X38947220Y-81088035D01*
X38947212Y-81088028D01*
X38781612Y-80967714D01*
X38599224Y-80874782D01*
X38599220Y-80874780D01*
X38599219Y-80874780D01*
X38404534Y-80811523D01*
X38202352Y-80779500D01*
X37997648Y-80779500D01*
X37829163Y-80806185D01*
X37795465Y-80811523D01*
X37600787Y-80874778D01*
X37600775Y-80874782D01*
X37418387Y-80967714D01*
X37252787Y-81088028D01*
X37252779Y-81088035D01*
X37108035Y-81232779D01*
X37108028Y-81232787D01*
X36987714Y-81398387D01*
X36894782Y-81580775D01*
X36894778Y-81580787D01*
X36870503Y-81655499D01*
X36831523Y-81775466D01*
X36799500Y-81977648D01*
X36500500Y-81977648D01*
X36500500Y-76352114D01*
X36799500Y-76352114D01*
X36799500Y-78047863D01*
X36799502Y-78047888D01*
X36805908Y-78107478D01*
X36805909Y-78107484D01*
X36856202Y-78242329D01*
X36856204Y-78242333D01*
X36942452Y-78357544D01*
X36942455Y-78357547D01*
X37057666Y-78443795D01*
X37057670Y-78443797D01*
X37192517Y-78494091D01*
X37252114Y-78500499D01*
X37252118Y-78500499D01*
X37252127Y-78500500D01*
X38947872Y-78500499D01*
X39007483Y-78494091D01*
X39103447Y-78458298D01*
X39142329Y-78443797D01*
X39142333Y-78443795D01*
X39199938Y-78400671D01*
X39257546Y-78357546D01*
X39257548Y-78357542D01*
X39265082Y-78350010D01*
X39267925Y-78352853D01*
X39311643Y-78318319D01*
X39387962Y-78307177D01*
X39438238Y-78322400D01*
X39600781Y-78405220D01*
X39795466Y-78468477D01*
X39997648Y-78500500D01*
X39997653Y-78500500D01*
X40202347Y-78500500D01*
X40202352Y-78500500D01*
X40404534Y-78468477D01*
X40599219Y-78405220D01*
X40781610Y-78312287D01*
X40947219Y-78191966D01*
X41091966Y-78047219D01*
X41212287Y-77881610D01*
X41305220Y-77699219D01*
X41368477Y-77504534D01*
X41400500Y-77302352D01*
X41400500Y-77097648D01*
X41368477Y-76895466D01*
X41305220Y-76700781D01*
X41212287Y-76518390D01*
X41172446Y-76463553D01*
X41091971Y-76352787D01*
X41091964Y-76352779D01*
X40947220Y-76208035D01*
X40947212Y-76208028D01*
X40781612Y-76087714D01*
X40599224Y-75994782D01*
X40599220Y-75994780D01*
X40599219Y-75994780D01*
X40404534Y-75931523D01*
X40202352Y-75899500D01*
X39997648Y-75899500D01*
X39829163Y-75926185D01*
X39795465Y-75931523D01*
X39643884Y-75980775D01*
X39600781Y-75994780D01*
X39600778Y-75994781D01*
X39600769Y-75994785D01*
X39438240Y-76077598D01*
X39362798Y-76093634D01*
X39289445Y-76069800D01*
X39266611Y-76048458D01*
X39265081Y-76049989D01*
X39257544Y-76042452D01*
X39142333Y-75956204D01*
X39142329Y-75956202D01*
X39007482Y-75905908D01*
X38947876Y-75899500D01*
X37252136Y-75899500D01*
X37252111Y-75899502D01*
X37192521Y-75905908D01*
X37192515Y-75905909D01*
X37057670Y-75956202D01*
X37057666Y-75956204D01*
X36942455Y-76042452D01*
X36942452Y-76042455D01*
X36856204Y-76157666D01*
X36856202Y-76157670D01*
X36805908Y-76292517D01*
X36799500Y-76352114D01*
X36500500Y-76352114D01*
X36500500Y-75262114D01*
X47599500Y-75262114D01*
X47599500Y-77557863D01*
X47599502Y-77557888D01*
X47605908Y-77617478D01*
X47605909Y-77617484D01*
X47656202Y-77752329D01*
X47656204Y-77752333D01*
X47742452Y-77867544D01*
X47742455Y-77867547D01*
X47857666Y-77953795D01*
X47857670Y-77953797D01*
X47992517Y-78004091D01*
X48052114Y-78010499D01*
X48052118Y-78010499D01*
X48052127Y-78010500D01*
X50347872Y-78010499D01*
X50407483Y-78004091D01*
X50503447Y-77968298D01*
X50542329Y-77953797D01*
X50542333Y-77953795D01*
X50638756Y-77881612D01*
X50657546Y-77867546D01*
X50743796Y-77752331D01*
X50745234Y-77748477D01*
X50780350Y-77654325D01*
X50794091Y-77617483D01*
X50796800Y-77592285D01*
X50800499Y-77557885D01*
X50800499Y-77557882D01*
X50800500Y-77557873D01*
X50800499Y-76377648D01*
X53799500Y-76377648D01*
X53799500Y-76582352D01*
X53818257Y-76700775D01*
X53831523Y-76784534D01*
X53894778Y-76979212D01*
X53894782Y-76979224D01*
X53987714Y-77161612D01*
X54108028Y-77327212D01*
X54108035Y-77327220D01*
X54252779Y-77471964D01*
X54252787Y-77471971D01*
X54371039Y-77557885D01*
X54418390Y-77592287D01*
X54467842Y-77617484D01*
X54592671Y-77681088D01*
X54600781Y-77685220D01*
X54795466Y-77748477D01*
X54997648Y-77780500D01*
X54997653Y-77780500D01*
X55202347Y-77780500D01*
X55202352Y-77780500D01*
X55404534Y-77748477D01*
X55599219Y-77685220D01*
X55781610Y-77592287D01*
X55947219Y-77471966D01*
X56091966Y-77327219D01*
X56212287Y-77161610D01*
X56305220Y-76979219D01*
X56368477Y-76784534D01*
X56400500Y-76582352D01*
X56400500Y-76377648D01*
X56368477Y-76175466D01*
X56305220Y-75980781D01*
X56212287Y-75798390D01*
X56203600Y-75786433D01*
X56091971Y-75632787D01*
X56091964Y-75632779D01*
X55947220Y-75488035D01*
X55947212Y-75488028D01*
X55781612Y-75367714D01*
X55599224Y-75274782D01*
X55599220Y-75274780D01*
X55599219Y-75274780D01*
X55404534Y-75211523D01*
X55202352Y-75179500D01*
X54997648Y-75179500D01*
X54829163Y-75206185D01*
X54795465Y-75211523D01*
X54600787Y-75274778D01*
X54600775Y-75274782D01*
X54418387Y-75367714D01*
X54252787Y-75488028D01*
X54252779Y-75488035D01*
X54108035Y-75632779D01*
X54108028Y-75632787D01*
X53987714Y-75798387D01*
X53894782Y-75980775D01*
X53894778Y-75980787D01*
X53835526Y-76163147D01*
X53831523Y-76175466D01*
X53799500Y-76377648D01*
X50800499Y-76377648D01*
X50800499Y-75262128D01*
X50794091Y-75202517D01*
X50762601Y-75118087D01*
X50743797Y-75067670D01*
X50743795Y-75067666D01*
X50657547Y-74952455D01*
X50657544Y-74952452D01*
X50542333Y-74866204D01*
X50542329Y-74866202D01*
X50407482Y-74815908D01*
X50347876Y-74809500D01*
X48052136Y-74809500D01*
X48052111Y-74809502D01*
X47992521Y-74815908D01*
X47992515Y-74815909D01*
X47857670Y-74866202D01*
X47857666Y-74866204D01*
X47742455Y-74952452D01*
X47742452Y-74952455D01*
X47656204Y-75067666D01*
X47656202Y-75067670D01*
X47605908Y-75202517D01*
X47599500Y-75262114D01*
X36500500Y-75262114D01*
X36500500Y-73952114D01*
X63499500Y-73952114D01*
X63499500Y-76047863D01*
X63499502Y-76047888D01*
X63505908Y-76107478D01*
X63505909Y-76107484D01*
X63556202Y-76242329D01*
X63556204Y-76242333D01*
X63642452Y-76357544D01*
X63642455Y-76357547D01*
X63757666Y-76443795D01*
X63757670Y-76443797D01*
X63892517Y-76494091D01*
X63952114Y-76500499D01*
X63952118Y-76500499D01*
X63952127Y-76500500D01*
X66047872Y-76500499D01*
X66107483Y-76494091D01*
X66203447Y-76458298D01*
X66242329Y-76443797D01*
X66242333Y-76443795D01*
X66330693Y-76377648D01*
X66357546Y-76357546D01*
X66406227Y-76292517D01*
X66443795Y-76242333D01*
X66443797Y-76242329D01*
X66475374Y-76157666D01*
X66494091Y-76107483D01*
X66498143Y-76069800D01*
X66500499Y-76047885D01*
X66500499Y-76047882D01*
X66500500Y-76047873D01*
X66500499Y-74881908D01*
X70999500Y-74881908D01*
X70999500Y-75118092D01*
X71036447Y-75351368D01*
X71109432Y-75575992D01*
X71216657Y-75786433D01*
X71355483Y-75977510D01*
X71522490Y-76144517D01*
X71713567Y-76283343D01*
X71924008Y-76390568D01*
X72148632Y-76463553D01*
X72381908Y-76500500D01*
X72381913Y-76500500D01*
X72618087Y-76500500D01*
X72618092Y-76500500D01*
X72851368Y-76463553D01*
X73075992Y-76390568D01*
X73286433Y-76283343D01*
X73477510Y-76144517D01*
X73644517Y-75977510D01*
X73783343Y-75786433D01*
X73890568Y-75575992D01*
X73963553Y-75351368D01*
X74000500Y-75118092D01*
X74000500Y-74881908D01*
X73963553Y-74648632D01*
X73890568Y-74424008D01*
X73783343Y-74213567D01*
X73644517Y-74022490D01*
X73574141Y-73952114D01*
X94499500Y-73952114D01*
X94499500Y-76047863D01*
X94499502Y-76047888D01*
X94505908Y-76107478D01*
X94505909Y-76107484D01*
X94556202Y-76242329D01*
X94556204Y-76242333D01*
X94642452Y-76357544D01*
X94642455Y-76357547D01*
X94757666Y-76443795D01*
X94757670Y-76443797D01*
X94892517Y-76494091D01*
X94952114Y-76500499D01*
X94952118Y-76500499D01*
X94952127Y-76500500D01*
X97047872Y-76500499D01*
X97107483Y-76494091D01*
X97203447Y-76458298D01*
X97242329Y-76443797D01*
X97242333Y-76443795D01*
X97330693Y-76377648D01*
X97357546Y-76357546D01*
X97406227Y-76292517D01*
X97443795Y-76242333D01*
X97443797Y-76242329D01*
X97475374Y-76157666D01*
X97494091Y-76107483D01*
X97498143Y-76069800D01*
X97500499Y-76047885D01*
X97500499Y-76047882D01*
X97500500Y-76047873D01*
X97500499Y-74881908D01*
X101999500Y-74881908D01*
X101999500Y-75118092D01*
X102036447Y-75351368D01*
X102109432Y-75575992D01*
X102216657Y-75786433D01*
X102355483Y-75977510D01*
X102522490Y-76144517D01*
X102713567Y-76283343D01*
X102924008Y-76390568D01*
X103148632Y-76463553D01*
X103381908Y-76500500D01*
X103381913Y-76500500D01*
X103618087Y-76500500D01*
X103618092Y-76500500D01*
X103851368Y-76463553D01*
X104075992Y-76390568D01*
X104286433Y-76283343D01*
X104477510Y-76144517D01*
X104644517Y-75977510D01*
X104783343Y-75786433D01*
X104890568Y-75575992D01*
X104963553Y-75351368D01*
X105000500Y-75118092D01*
X105000500Y-74881908D01*
X104963553Y-74648632D01*
X104890568Y-74424008D01*
X104783343Y-74213567D01*
X104644517Y-74022490D01*
X104477510Y-73855483D01*
X104286433Y-73716657D01*
X104075992Y-73609432D01*
X103851368Y-73536447D01*
X103618092Y-73499500D01*
X103381908Y-73499500D01*
X103148632Y-73536447D01*
X102924008Y-73609432D01*
X102924002Y-73609434D01*
X102924002Y-73609435D01*
X102713565Y-73716658D01*
X102522499Y-73855476D01*
X102522488Y-73855485D01*
X102355485Y-74022488D01*
X102355476Y-74022499D01*
X102216658Y-74213565D01*
X102216657Y-74213567D01*
X102109432Y-74424008D01*
X102036447Y-74648632D01*
X101999500Y-74881908D01*
X97500499Y-74881908D01*
X97500499Y-73952128D01*
X97494091Y-73892517D01*
X97479588Y-73853633D01*
X97443797Y-73757670D01*
X97443795Y-73757666D01*
X97357547Y-73642455D01*
X97357544Y-73642452D01*
X97242333Y-73556204D01*
X97242329Y-73556202D01*
X97107482Y-73505908D01*
X97047876Y-73499500D01*
X94952136Y-73499500D01*
X94952111Y-73499502D01*
X94892521Y-73505908D01*
X94892515Y-73505909D01*
X94757670Y-73556202D01*
X94757666Y-73556204D01*
X94642455Y-73642452D01*
X94642452Y-73642455D01*
X94556204Y-73757666D01*
X94556202Y-73757670D01*
X94505908Y-73892517D01*
X94499500Y-73952114D01*
X73574141Y-73952114D01*
X73477510Y-73855483D01*
X73286433Y-73716657D01*
X73075992Y-73609432D01*
X72851368Y-73536447D01*
X72618092Y-73499500D01*
X72381908Y-73499500D01*
X72148632Y-73536447D01*
X71924008Y-73609432D01*
X71924002Y-73609434D01*
X71924002Y-73609435D01*
X71713565Y-73716658D01*
X71522499Y-73855476D01*
X71522488Y-73855485D01*
X71355485Y-74022488D01*
X71355476Y-74022499D01*
X71216658Y-74213565D01*
X71216657Y-74213567D01*
X71109432Y-74424008D01*
X71036447Y-74648632D01*
X70999500Y-74881908D01*
X66500499Y-74881908D01*
X66500499Y-73952128D01*
X66494091Y-73892517D01*
X66479588Y-73853633D01*
X66443797Y-73757670D01*
X66443795Y-73757666D01*
X66357547Y-73642455D01*
X66357544Y-73642452D01*
X66242333Y-73556204D01*
X66242329Y-73556202D01*
X66107482Y-73505908D01*
X66047876Y-73499500D01*
X63952136Y-73499500D01*
X63952111Y-73499502D01*
X63892521Y-73505908D01*
X63892515Y-73505909D01*
X63757670Y-73556202D01*
X63757666Y-73556204D01*
X63642455Y-73642452D01*
X63642452Y-73642455D01*
X63556204Y-73757666D01*
X63556202Y-73757670D01*
X63505908Y-73892517D01*
X63499500Y-73952114D01*
X36500500Y-73952114D01*
X36500500Y-72534038D01*
X36520462Y-72459538D01*
X36575000Y-72405000D01*
X36649500Y-72385038D01*
X36724000Y-72405000D01*
X36778538Y-72459538D01*
X36796665Y-72510726D01*
X36811523Y-72604534D01*
X36874513Y-72798398D01*
X36874778Y-72799212D01*
X36874782Y-72799224D01*
X36967714Y-72981612D01*
X37088028Y-73147212D01*
X37088035Y-73147220D01*
X37232779Y-73291964D01*
X37232787Y-73291971D01*
X37398387Y-73412285D01*
X37398390Y-73412287D01*
X37580781Y-73505220D01*
X37775466Y-73568477D01*
X37977648Y-73600500D01*
X37977653Y-73600500D01*
X38182347Y-73600500D01*
X38182352Y-73600500D01*
X38384534Y-73568477D01*
X38579219Y-73505220D01*
X38761610Y-73412287D01*
X38927219Y-73291966D01*
X39071966Y-73147219D01*
X39192287Y-72981610D01*
X39285220Y-72799219D01*
X39348477Y-72604534D01*
X39380500Y-72402352D01*
X39380500Y-72197648D01*
X44399500Y-72197648D01*
X44399500Y-72402352D01*
X44431523Y-72604534D01*
X44494513Y-72798398D01*
X44494778Y-72799212D01*
X44494782Y-72799224D01*
X44587714Y-72981612D01*
X44708028Y-73147212D01*
X44708035Y-73147220D01*
X44852779Y-73291964D01*
X44852787Y-73291971D01*
X45018387Y-73412285D01*
X45018390Y-73412287D01*
X45200781Y-73505220D01*
X45395466Y-73568477D01*
X45597648Y-73600500D01*
X45597653Y-73600500D01*
X45802347Y-73600500D01*
X45802352Y-73600500D01*
X46004534Y-73568477D01*
X46199219Y-73505220D01*
X46381610Y-73412287D01*
X46547219Y-73291966D01*
X46691966Y-73147219D01*
X46812287Y-72981610D01*
X46905220Y-72799219D01*
X46968477Y-72604534D01*
X47000500Y-72402352D01*
X47000500Y-72197648D01*
X46968477Y-71995466D01*
X46905220Y-71800781D01*
X46901661Y-71793797D01*
X46870807Y-71733242D01*
X46812287Y-71618390D01*
X46793353Y-71592329D01*
X46691971Y-71452787D01*
X46691964Y-71452779D01*
X46547220Y-71308035D01*
X46547212Y-71308028D01*
X46381612Y-71187714D01*
X46199224Y-71094782D01*
X46199220Y-71094780D01*
X46199219Y-71094780D01*
X46004534Y-71031523D01*
X45802352Y-70999500D01*
X45597648Y-70999500D01*
X45429163Y-71026185D01*
X45395465Y-71031523D01*
X45200787Y-71094778D01*
X45200775Y-71094782D01*
X45018387Y-71187714D01*
X44852787Y-71308028D01*
X44852779Y-71308035D01*
X44708035Y-71452779D01*
X44708028Y-71452787D01*
X44587714Y-71618387D01*
X44494782Y-71800775D01*
X44494780Y-71800781D01*
X44431523Y-71995466D01*
X44399500Y-72197648D01*
X39380500Y-72197648D01*
X39348477Y-71995466D01*
X39285220Y-71800781D01*
X39281661Y-71793797D01*
X39250807Y-71733242D01*
X39192287Y-71618390D01*
X39173353Y-71592329D01*
X39071971Y-71452787D01*
X39071964Y-71452779D01*
X38927220Y-71308035D01*
X38927212Y-71308028D01*
X38761612Y-71187714D01*
X38579224Y-71094782D01*
X38579220Y-71094780D01*
X38579219Y-71094780D01*
X38384534Y-71031523D01*
X38182352Y-70999500D01*
X37977648Y-70999500D01*
X37809163Y-71026185D01*
X37775465Y-71031523D01*
X37580787Y-71094778D01*
X37580775Y-71094782D01*
X37398387Y-71187714D01*
X37232787Y-71308028D01*
X37232779Y-71308035D01*
X37088035Y-71452779D01*
X37088028Y-71452787D01*
X36967714Y-71618387D01*
X36874782Y-71800775D01*
X36874778Y-71800787D01*
X36811523Y-71995465D01*
X36796666Y-72089270D01*
X36765295Y-72159730D01*
X36702897Y-72205065D01*
X36626191Y-72213127D01*
X36555731Y-72181756D01*
X36510396Y-72119358D01*
X36500500Y-72065961D01*
X36500500Y-70768876D01*
X52199500Y-70768876D01*
X52199500Y-71031123D01*
X52233728Y-71291107D01*
X52233728Y-71291110D01*
X52301600Y-71544415D01*
X52301600Y-71544416D01*
X52401959Y-71786701D01*
X52533078Y-72013806D01*
X52533078Y-72013807D01*
X52692715Y-72221848D01*
X52878151Y-72407284D01*
X53008734Y-72507484D01*
X53086197Y-72566924D01*
X53313303Y-72698043D01*
X53517809Y-72782752D01*
X53555583Y-72798399D01*
X53643332Y-72821910D01*
X53808884Y-72866270D01*
X53808890Y-72866270D01*
X53808891Y-72866271D01*
X53845834Y-72871134D01*
X54068877Y-72900499D01*
X54068878Y-72900500D01*
X54068880Y-72900500D01*
X54331122Y-72900500D01*
X54331122Y-72900499D01*
X54591108Y-72866271D01*
X54591110Y-72866271D01*
X54591111Y-72866270D01*
X54591116Y-72866270D01*
X54844415Y-72798399D01*
X54844416Y-72798399D01*
X54844417Y-72798398D01*
X54844419Y-72798398D01*
X55086697Y-72698043D01*
X55313803Y-72566924D01*
X55521848Y-72407284D01*
X55521849Y-72407284D01*
X55707284Y-72221849D01*
X55707284Y-72221848D01*
X55725851Y-72197652D01*
X55866924Y-72013803D01*
X55998043Y-71786697D01*
X56098398Y-71544419D01*
X56166270Y-71291116D01*
X56200500Y-71031120D01*
X56200500Y-70768880D01*
X56166270Y-70508884D01*
X56098398Y-70255581D01*
X55998043Y-70013303D01*
X55866924Y-69786197D01*
X55866921Y-69786193D01*
X55866921Y-69786192D01*
X55707284Y-69578151D01*
X55521848Y-69392715D01*
X55313806Y-69233078D01*
X55269233Y-69207344D01*
X55091161Y-69104534D01*
X55086701Y-69101959D01*
X55086699Y-69101958D01*
X55086697Y-69101957D01*
X54976235Y-69056202D01*
X54844416Y-69001600D01*
X54618255Y-68941002D01*
X54591116Y-68933730D01*
X54591114Y-68933729D01*
X54591108Y-68933728D01*
X54331123Y-68899500D01*
X54331120Y-68899500D01*
X54068880Y-68899500D01*
X54068876Y-68899500D01*
X53808892Y-68933728D01*
X53808889Y-68933728D01*
X53555584Y-69001600D01*
X53555583Y-69001600D01*
X53313298Y-69101959D01*
X53086193Y-69233078D01*
X53086192Y-69233078D01*
X52878151Y-69392715D01*
X52878151Y-69392716D01*
X52878149Y-69392718D01*
X52692718Y-69578149D01*
X52692716Y-69578151D01*
X52692715Y-69578151D01*
X52533078Y-69786192D01*
X52533078Y-69786193D01*
X52401959Y-70013298D01*
X52301600Y-70255583D01*
X52301600Y-70255584D01*
X52233728Y-70508889D01*
X52233728Y-70508892D01*
X52199500Y-70768876D01*
X36500500Y-70768876D01*
X36500500Y-69034038D01*
X36520462Y-68959538D01*
X36575000Y-68905000D01*
X36649500Y-68885038D01*
X36724000Y-68905000D01*
X36778538Y-68959538D01*
X36796665Y-69010726D01*
X36811523Y-69104534D01*
X36872602Y-69292517D01*
X36874778Y-69299212D01*
X36874782Y-69299224D01*
X36967714Y-69481612D01*
X37088028Y-69647212D01*
X37088035Y-69647220D01*
X37232779Y-69791964D01*
X37232787Y-69791971D01*
X37347363Y-69875214D01*
X37398390Y-69912287D01*
X37580781Y-70005220D01*
X37775466Y-70068477D01*
X37977648Y-70100500D01*
X37977653Y-70100500D01*
X38182347Y-70100500D01*
X38182352Y-70100500D01*
X38384534Y-70068477D01*
X38579219Y-70005220D01*
X38761610Y-69912287D01*
X38927219Y-69791966D01*
X39071966Y-69647219D01*
X39192287Y-69481610D01*
X39285220Y-69299219D01*
X39348477Y-69104534D01*
X39380500Y-68902352D01*
X39380500Y-68697648D01*
X39348477Y-68495466D01*
X39285220Y-68300781D01*
X39192287Y-68118390D01*
X39192285Y-68118387D01*
X39071971Y-67952787D01*
X39071964Y-67952779D01*
X38927220Y-67808035D01*
X38927212Y-67808028D01*
X38761612Y-67687714D01*
X38579224Y-67594782D01*
X38579220Y-67594780D01*
X38579219Y-67594780D01*
X38414337Y-67541206D01*
X38349653Y-67499200D01*
X38314638Y-67430479D01*
X38318675Y-67353456D01*
X38360682Y-67288771D01*
X38429403Y-67253756D01*
X38460382Y-67250500D01*
X45319618Y-67250500D01*
X45394118Y-67270462D01*
G37*
%TD.AperFunction*%
%TD*%
M02*
