%TF.GenerationSoftware,KiCad,Pcbnew,9.0.0+dfsg-1*%
%TF.CreationDate,2025-03-12T14:23:05+01:00*%
%TF.ProjectId,relays-array-2,72656c61-7973-42d6-9172-7261792d322e,1.0*%
%TF.SameCoordinates,Original*%
%TF.FileFunction,Soldermask,Bot*%
%TF.FilePolarity,Negative*%
%FSLAX46Y46*%
G04 Gerber Fmt 4.6, Leading zero omitted, Abs format (unit mm)*
G04 Created by KiCad (PCBNEW 9.0.0+dfsg-1) date 2025-03-12 14:23:05*
%MOMM*%
%LPD*%
G01*
G04 APERTURE LIST*
G04 Aperture macros list*
%AMRoundRect*
0 Rectangle with rounded corners*
0 $1 Rounding radius*
0 $2 $3 $4 $5 $6 $7 $8 $9 X,Y pos of 4 corners*
0 Add a 4 corners polygon primitive as box body*
4,1,4,$2,$3,$4,$5,$6,$7,$8,$9,$2,$3,0*
0 Add four circle primitives for the rounded corners*
1,1,$1+$1,$2,$3*
1,1,$1+$1,$4,$5*
1,1,$1+$1,$6,$7*
1,1,$1+$1,$8,$9*
0 Add four rect primitives between the rounded corners*
20,1,$1+$1,$2,$3,$4,$5,0*
20,1,$1+$1,$4,$5,$6,$7,0*
20,1,$1+$1,$6,$7,$8,$9,0*
20,1,$1+$1,$8,$9,$2,$3,0*%
G04 Aperture macros list end*
%ADD10R,2.200000X2.200000*%
%ADD11O,2.200000X2.200000*%
%ADD12C,1.600000*%
%ADD13O,1.600000X1.600000*%
%ADD14R,1.600000X1.600000*%
%ADD15C,3.000000*%
%ADD16C,2.400000*%
%ADD17O,2.400000X2.400000*%
%ADD18C,2.000000*%
%ADD19R,2.000000X2.000000*%
%ADD20R,3.000000X3.000000*%
%ADD21RoundRect,0.250000X-0.950000X-0.550000X0.950000X-0.550000X0.950000X0.550000X-0.950000X0.550000X0*%
%ADD22O,2.400000X1.600000*%
G04 APERTURE END LIST*
D10*
%TO.C,D2*%
X103560000Y-70250000D03*
D11*
X95940000Y-70250000D03*
%TD*%
D12*
%TO.C,C2*%
X38100000Y-98200000D03*
X43100000Y-98200000D03*
%TD*%
%TO.C,R13*%
X55100000Y-84100000D03*
D13*
X55100000Y-76480000D03*
%TD*%
D14*
%TO.C,C8*%
X58800000Y-89700000D03*
D12*
X58800000Y-91700000D03*
%TD*%
D15*
%TO.C,J2*%
X105000000Y-116350000D03*
X88770000Y-116350000D03*
X105000000Y-122700000D03*
X88770000Y-122700000D03*
X105000000Y-110000000D03*
X88770000Y-110000000D03*
%TD*%
D14*
%TO.C,C10*%
X38100000Y-77200000D03*
D12*
X40100000Y-77200000D03*
%TD*%
D10*
%TO.C,D9*%
X49200000Y-76410000D03*
D11*
X49200000Y-68790000D03*
%TD*%
D15*
%TO.C,J14*%
X55000000Y-116350000D03*
X38770000Y-116350000D03*
X55000000Y-122700000D03*
X38770000Y-122700000D03*
X55000000Y-110000000D03*
X38770000Y-110000000D03*
%TD*%
D16*
%TO.C,R2*%
X88750000Y-95000000D03*
D17*
X88750000Y-79760000D03*
%TD*%
D18*
%TO.C,K1*%
X65000000Y-95000000D03*
X65000000Y-90000000D03*
X65000000Y-100000000D03*
X72500000Y-95000000D03*
X72500000Y-90000000D03*
X72500000Y-100000000D03*
D19*
X65000000Y-75000000D03*
D18*
X72500000Y-75000000D03*
%TD*%
D10*
%TO.C,D1*%
X72560000Y-70250000D03*
D11*
X64940000Y-70250000D03*
%TD*%
D12*
%TO.C,R16*%
X38100000Y-82080000D03*
D13*
X38100000Y-89700000D03*
%TD*%
D15*
%TO.C,J1*%
X80000000Y-116350000D03*
X63770000Y-116350000D03*
X80000000Y-122700000D03*
X63770000Y-122700000D03*
X80000000Y-110000000D03*
X63770000Y-110000000D03*
%TD*%
D18*
%TO.C,K2*%
X96000000Y-95000000D03*
X96000000Y-90000000D03*
X96000000Y-100000000D03*
X103500000Y-95000000D03*
X103500000Y-90000000D03*
X103500000Y-100000000D03*
D19*
X96000000Y-75000000D03*
D18*
X103500000Y-75000000D03*
%TD*%
D12*
%TO.C,R9*%
X59300000Y-107600000D03*
D13*
X59300000Y-99980000D03*
%TD*%
D12*
%TO.C,C1*%
X53500000Y-94700000D03*
X53500000Y-89700000D03*
%TD*%
D16*
%TO.C,R1*%
X80000000Y-95000000D03*
D17*
X80000000Y-79760000D03*
%TD*%
D12*
%TO.C,R15*%
X38080000Y-68800000D03*
D13*
X45700000Y-68800000D03*
%TD*%
D20*
%TO.C,J3*%
X87040000Y-71000000D03*
D15*
X81960000Y-71000000D03*
%TD*%
D21*
%TO.C,U1*%
X41790000Y-84590000D03*
D22*
X41790000Y-87130000D03*
X41790000Y-89670000D03*
X41790000Y-92210000D03*
X49410000Y-92210000D03*
X49410000Y-89670000D03*
X49410000Y-87130000D03*
X49410000Y-84590000D03*
%TD*%
D20*
%TO.C,J15*%
X55000000Y-100000000D03*
D15*
X55000000Y-105080000D03*
%TD*%
D12*
%TO.C,R14*%
X45700000Y-72300000D03*
D13*
X38080000Y-72300000D03*
%TD*%
D14*
%TO.C,C7*%
X44700000Y-79155113D03*
D12*
X44700000Y-77155113D03*
%TD*%
%TO.C,C3*%
X59800000Y-84100000D03*
X59800000Y-79100000D03*
%TD*%
D20*
%TO.C,J10*%
X59280000Y-70900000D03*
D15*
X54200000Y-70900000D03*
%TD*%
M02*
