M48
; DRILL file {KiCad 9.0.0+dfsg-1} date 2025-03-17T16:09:14+0100
; FORMAT={-:-/ absolute / metric / decimal}
; #@! TF.CreationDate,2025-03-17T16:09:14+01:00
; #@! TF.GenerationSoftware,Kicad,Pcbnew,9.0.0+dfsg-1
; #@! TF.FileFunction,Plated,1,2,PTH
FMAT,2
METRIC
; #@! TA.AperFunction,Plated,PTH,ComponentDrill
T1C0.800
; #@! TA.AperFunction,Plated,PTH,ComponentDrill
T2C1.100
; #@! TA.AperFunction,Plated,PTH,ComponentDrill
T3C1.200
; #@! TA.AperFunction,Plated,PTH,ComponentDrill
T4C1.300
; #@! TA.AperFunction,Plated,PTH,ComponentDrill
T5C1.400
; #@! TA.AperFunction,Plated,PTH,ComponentDrill
T6C1.520
%
G90
G05
T1
X38.08Y-68.8
X38.08Y-72.3
X38.1Y-77.2
X38.1Y-82.08
X38.1Y-89.7
X38.1Y-98.2
X40.1Y-77.2
X41.79Y-84.59
X41.79Y-87.13
X41.79Y-89.67
X41.79Y-92.21
X43.1Y-98.2
X44.7Y-77.155
X44.7Y-79.155
X45.7Y-68.8
X45.7Y-72.3
X49.41Y-84.59
X49.41Y-87.13
X49.41Y-89.67
X49.41Y-92.21
X53.5Y-89.7
X53.5Y-94.7
X55.1Y-76.48
X55.1Y-84.1
X58.8Y-89.7
X58.8Y-91.7
X59.3Y-99.98
X59.3Y-107.6
X59.8Y-79.1
X59.8Y-84.1
T2
X49.2Y-68.79
X49.2Y-76.41
X64.94Y-70.25
X72.56Y-70.25
X95.94Y-70.25
X103.56Y-70.25
X115.21Y-70.25
X122.83Y-70.25
X145.94Y-70.25
X153.56Y-70.25
X164.94Y-70.25
X172.56Y-70.25
X195.94Y-70.25
X203.56Y-70.25
T3
X80.0Y-79.76
X80.0Y-95.0
X88.75Y-79.76
X88.75Y-95.0
X130.27Y-79.76
X130.27Y-95.0
X138.75Y-79.76
X138.75Y-95.0
X180.0Y-79.76
X180.0Y-95.0
X188.75Y-79.76
X188.75Y-95.0
T4
X65.0Y-75.0
X65.0Y-90.0
X65.0Y-95.0
X65.0Y-100.0
X72.5Y-75.0
X72.5Y-90.0
X72.5Y-95.0
X72.5Y-100.0
X96.0Y-75.0
X96.0Y-90.0
X96.0Y-95.0
X96.0Y-100.0
X103.5Y-75.0
X103.5Y-90.0
X103.5Y-95.0
X103.5Y-100.0
X115.27Y-75.0
X115.27Y-90.0
X115.27Y-95.0
X115.27Y-100.0
X122.77Y-75.0
X122.77Y-90.0
X122.77Y-95.0
X122.77Y-100.0
X146.0Y-75.0
X146.0Y-90.0
X146.0Y-95.0
X146.0Y-100.0
X153.5Y-75.0
X153.5Y-90.0
X153.5Y-95.0
X153.5Y-100.0
X165.0Y-75.0
X165.0Y-90.0
X165.0Y-95.0
X165.0Y-100.0
X172.5Y-75.0
X172.5Y-90.0
X172.5Y-95.0
X172.5Y-100.0
X196.0Y-75.0
X196.0Y-90.0
X196.0Y-95.0
X196.0Y-100.0
X203.5Y-75.0
X203.5Y-90.0
X203.5Y-95.0
X203.5Y-100.0
T5
X38.77Y-110.0
X38.77Y-116.35
X38.77Y-122.7
X55.0Y-110.0
X55.0Y-116.35
X55.0Y-122.7
X63.77Y-110.0
X63.77Y-116.35
X63.77Y-122.7
X80.0Y-110.0
X80.0Y-116.35
X80.0Y-122.7
X88.77Y-110.0
X88.77Y-116.35
X88.77Y-122.7
X105.0Y-110.0
X105.0Y-116.35
X105.0Y-122.7
X113.77Y-110.0
X113.77Y-116.35
X113.77Y-122.7
X130.0Y-110.0
X130.0Y-116.35
X130.0Y-122.7
X138.77Y-110.0
X138.77Y-116.35
X138.77Y-122.7
X155.0Y-110.0
X155.0Y-116.35
X155.0Y-122.7
X163.77Y-110.0
X163.77Y-116.35
X163.77Y-122.7
X180.0Y-110.0
X180.0Y-116.35
X180.0Y-122.7
X188.77Y-110.0
X188.77Y-116.35
X188.77Y-122.7
X205.0Y-110.0
X205.0Y-116.35
X205.0Y-122.7
T6
X45.1Y-114.5
X50.18Y-114.5
X54.2Y-70.9
X55.0Y-100.0
X55.0Y-105.08
X59.28Y-70.9
X81.96Y-71.0
X87.04Y-71.0
X132.25Y-71.0
X137.33Y-71.0
X182.21Y-71.0
X187.29Y-71.0
M30
