%TF.GenerationSoftware,KiCad,Pcbnew,9.0.0+dfsg-1*%
%TF.CreationDate,2025-03-12T17:53:44+01:00*%
%TF.ProjectId,relays-array-6,72656c61-7973-42d6-9172-7261792d362e,1.0*%
%TF.SameCoordinates,Original*%
%TF.FileFunction,Copper,L2,Bot*%
%TF.FilePolarity,Positive*%
%FSLAX46Y46*%
G04 Gerber Fmt 4.6, Leading zero omitted, Abs format (unit mm)*
G04 Created by KiCad (PCBNEW 9.0.0+dfsg-1) date 2025-03-12 17:53:44*
%MOMM*%
%LPD*%
G01*
G04 APERTURE LIST*
G04 Aperture macros list*
%AMRoundRect*
0 Rectangle with rounded corners*
0 $1 Rounding radius*
0 $2 $3 $4 $5 $6 $7 $8 $9 X,Y pos of 4 corners*
0 Add a 4 corners polygon primitive as box body*
4,1,4,$2,$3,$4,$5,$6,$7,$8,$9,$2,$3,0*
0 Add four circle primitives for the rounded corners*
1,1,$1+$1,$2,$3*
1,1,$1+$1,$4,$5*
1,1,$1+$1,$6,$7*
1,1,$1+$1,$8,$9*
0 Add four rect primitives between the rounded corners*
20,1,$1+$1,$2,$3,$4,$5,0*
20,1,$1+$1,$4,$5,$6,$7,0*
20,1,$1+$1,$6,$7,$8,$9,0*
20,1,$1+$1,$8,$9,$2,$3,0*%
G04 Aperture macros list end*
%TA.AperFunction,ComponentPad*%
%ADD10C,2.000000*%
%TD*%
%TA.AperFunction,ComponentPad*%
%ADD11R,2.000000X2.000000*%
%TD*%
%TA.AperFunction,ComponentPad*%
%ADD12C,2.400000*%
%TD*%
%TA.AperFunction,ComponentPad*%
%ADD13O,2.400000X2.400000*%
%TD*%
%TA.AperFunction,ComponentPad*%
%ADD14R,3.000000X3.000000*%
%TD*%
%TA.AperFunction,ComponentPad*%
%ADD15C,3.000000*%
%TD*%
%TA.AperFunction,ComponentPad*%
%ADD16R,2.200000X2.200000*%
%TD*%
%TA.AperFunction,ComponentPad*%
%ADD17O,2.200000X2.200000*%
%TD*%
%TA.AperFunction,ComponentPad*%
%ADD18C,1.600000*%
%TD*%
%TA.AperFunction,ComponentPad*%
%ADD19O,1.600000X1.600000*%
%TD*%
%TA.AperFunction,ComponentPad*%
%ADD20R,1.600000X1.600000*%
%TD*%
%TA.AperFunction,ComponentPad*%
%ADD21RoundRect,0.250000X-0.950000X-0.550000X0.950000X-0.550000X0.950000X0.550000X-0.950000X0.550000X0*%
%TD*%
%TA.AperFunction,ComponentPad*%
%ADD22O,2.400000X1.600000*%
%TD*%
%TA.AperFunction,Conductor*%
%ADD23C,0.500000*%
%TD*%
%TA.AperFunction,Conductor*%
%ADD24C,2.000000*%
%TD*%
G04 APERTURE END LIST*
D10*
%TO.P,K6,11*%
%TO.N,Net-(J8-PadS)*%
X196000000Y-95000000D03*
%TO.P,K6,12*%
%TO.N,Net-(JP6-A)*%
X196000000Y-90000000D03*
%TO.P,K6,14*%
%TO.N,/SIGNAL*%
X196000000Y-100000000D03*
%TO.P,K6,21*%
%TO.N,Net-(J8-PadT)*%
X203500000Y-95000000D03*
%TO.P,K6,22*%
%TO.N,Net-(JP6-B)*%
X203500000Y-90000000D03*
%TO.P,K6,24*%
%TO.N,GND*%
X203500000Y-100000000D03*
D11*
%TO.P,K6,A1*%
%TO.N,Net-(D6-A)*%
X196000000Y-75000000D03*
D10*
%TO.P,K6,A2*%
%TO.N,+12V*%
X203500000Y-75000000D03*
%TD*%
%TO.P,K3,11*%
%TO.N,Net-(J4-PadS)*%
X115270000Y-95000000D03*
%TO.P,K3,12*%
%TO.N,Net-(JP4-A)*%
X115270000Y-90000000D03*
%TO.P,K3,14*%
%TO.N,/SIGNAL*%
X115270000Y-100000000D03*
%TO.P,K3,21*%
%TO.N,Net-(J4-PadT)*%
X122770000Y-95000000D03*
%TO.P,K3,22*%
%TO.N,Net-(JP4-B)*%
X122770000Y-90000000D03*
%TO.P,K3,24*%
%TO.N,GND*%
X122770000Y-100000000D03*
D11*
%TO.P,K3,A1*%
%TO.N,Net-(D3-A)*%
X115270000Y-75000000D03*
D10*
%TO.P,K3,A2*%
%TO.N,+12V*%
X122770000Y-75000000D03*
%TD*%
D12*
%TO.P,R3,1*%
%TO.N,Net-(JP4-B)*%
X130270000Y-95000000D03*
D13*
%TO.P,R3,2*%
%TO.N,Net-(JP4-A)*%
X130270000Y-79760000D03*
%TD*%
D14*
%TO.P,J16,1,Pin_1*%
%TO.N,GND*%
X50180000Y-114500000D03*
D15*
%TO.P,J16,2,Pin_2*%
%TO.N,Net-(J16-Pin_2)*%
X45100000Y-114500000D03*
%TD*%
D12*
%TO.P,R4,1*%
%TO.N,Net-(JP5-B)*%
X138750000Y-95000000D03*
D13*
%TO.P,R4,2*%
%TO.N,Net-(JP5-A)*%
X138750000Y-79760000D03*
%TD*%
D16*
%TO.P,D2,1,K*%
%TO.N,+12V*%
X103560000Y-70250000D03*
D17*
%TO.P,D2,2,A*%
%TO.N,Net-(D2-A)*%
X95940000Y-70250000D03*
%TD*%
D18*
%TO.P,C2,1*%
%TO.N,Net-(U1-+)*%
X38100000Y-98200000D03*
%TO.P,C2,2*%
%TO.N,Net-(J16-Pin_2)*%
X43100000Y-98200000D03*
%TD*%
%TO.P,R13,1*%
%TO.N,VCC*%
X55100000Y-84100000D03*
D19*
%TO.P,R13,2*%
%TO.N,+12V*%
X55100000Y-76480000D03*
%TD*%
D16*
%TO.P,D6,1,K*%
%TO.N,+12V*%
X203560000Y-70250000D03*
D17*
%TO.P,D6,2,A*%
%TO.N,Net-(D6-A)*%
X195940000Y-70250000D03*
%TD*%
D14*
%TO.P,J9,1,Pin_1*%
%TO.N,Net-(D6-A)*%
X187290000Y-71000000D03*
D15*
%TO.P,J9,2,Pin_2*%
%TO.N,Net-(D5-A)*%
X182210000Y-71000000D03*
%TD*%
D20*
%TO.P,C8,1*%
%TO.N,Net-(U1--)*%
X58800000Y-89700000D03*
D18*
%TO.P,C8,2*%
%TO.N,/SIGNAL*%
X58800000Y-91700000D03*
%TD*%
D16*
%TO.P,D3,1,K*%
%TO.N,+12V*%
X122830000Y-70250000D03*
D17*
%TO.P,D3,2,A*%
%TO.N,Net-(D3-A)*%
X115210000Y-70250000D03*
%TD*%
D10*
%TO.P,K4,11*%
%TO.N,Net-(J5-PadS)*%
X146000000Y-95000000D03*
%TO.P,K4,12*%
%TO.N,Net-(JP5-A)*%
X146000000Y-90000000D03*
%TO.P,K4,14*%
%TO.N,/SIGNAL*%
X146000000Y-100000000D03*
%TO.P,K4,21*%
%TO.N,Net-(J5-PadT)*%
X153500000Y-95000000D03*
%TO.P,K4,22*%
%TO.N,Net-(JP5-B)*%
X153500000Y-90000000D03*
%TO.P,K4,24*%
%TO.N,GND*%
X153500000Y-100000000D03*
D11*
%TO.P,K4,A1*%
%TO.N,Net-(D4-A)*%
X146000000Y-75000000D03*
D10*
%TO.P,K4,A2*%
%TO.N,+12V*%
X153500000Y-75000000D03*
%TD*%
D15*
%TO.P,J4,R*%
%TO.N,unconnected-(J4-PadR)*%
X130000000Y-116350000D03*
%TO.P,J4,RN*%
%TO.N,unconnected-(J4-PadRN)*%
X113770000Y-116350000D03*
%TO.P,J4,S*%
%TO.N,Net-(J4-PadS)*%
X130000000Y-122700000D03*
%TO.P,J4,SN*%
%TO.N,unconnected-(J4-PadSN)*%
X113770000Y-122700000D03*
%TO.P,J4,T*%
%TO.N,Net-(J4-PadT)*%
X130000000Y-110000000D03*
%TO.P,J4,TN*%
%TO.N,unconnected-(J4-PadTN)*%
X113770000Y-110000000D03*
%TD*%
D12*
%TO.P,R5,1*%
%TO.N,Net-(JP7-B)*%
X180000000Y-95000000D03*
D13*
%TO.P,R5,2*%
%TO.N,Net-(JP7-A)*%
X180000000Y-79760000D03*
%TD*%
D15*
%TO.P,J2,R*%
%TO.N,unconnected-(J2-PadR)*%
X105000000Y-116350000D03*
%TO.P,J2,RN*%
%TO.N,unconnected-(J2-PadRN)*%
X88770000Y-116350000D03*
%TO.P,J2,S*%
%TO.N,Net-(J2-PadS)*%
X105000000Y-122700000D03*
%TO.P,J2,SN*%
%TO.N,unconnected-(J2-PadSN)*%
X88770000Y-122700000D03*
%TO.P,J2,T*%
%TO.N,Net-(J2-PadT)*%
X105000000Y-110000000D03*
%TO.P,J2,TN*%
%TO.N,unconnected-(J2-PadTN)*%
X88770000Y-110000000D03*
%TD*%
D20*
%TO.P,C10,1*%
%TO.N,GNDS*%
X38100000Y-77200000D03*
D18*
%TO.P,C10,2*%
%TO.N,GND*%
X40100000Y-77200000D03*
%TD*%
D16*
%TO.P,D9,1,K*%
%TO.N,+12V*%
X49200000Y-76410000D03*
D17*
%TO.P,D9,2,A*%
%TO.N,GND*%
X49200000Y-68790000D03*
%TD*%
D16*
%TO.P,D4,1,K*%
%TO.N,+12V*%
X153560000Y-70250000D03*
D17*
%TO.P,D4,2,A*%
%TO.N,Net-(D4-A)*%
X145940000Y-70250000D03*
%TD*%
D15*
%TO.P,J14,R*%
%TO.N,unconnected-(J14-PadR)*%
X55000000Y-116350000D03*
%TO.P,J14,RN*%
%TO.N,unconnected-(J14-PadRN)*%
X38770000Y-116350000D03*
%TO.P,J14,S*%
%TO.N,GND*%
X55000000Y-122700000D03*
%TO.P,J14,SN*%
%TO.N,unconnected-(J14-PadSN)*%
X38770000Y-122700000D03*
%TO.P,J14,T*%
%TO.N,Net-(J16-Pin_2)*%
X55000000Y-110000000D03*
%TO.P,J14,TN*%
%TO.N,unconnected-(J14-PadTN)*%
X38770000Y-110000000D03*
%TD*%
D12*
%TO.P,R2,1*%
%TO.N,Net-(JP2-B)*%
X88750000Y-95000000D03*
D13*
%TO.P,R2,2*%
%TO.N,Net-(JP2-A)*%
X88750000Y-79760000D03*
%TD*%
D15*
%TO.P,J8,R*%
%TO.N,unconnected-(J8-PadR)*%
X205000000Y-116350000D03*
%TO.P,J8,RN*%
%TO.N,unconnected-(J8-PadRN)*%
X188770000Y-116350000D03*
%TO.P,J8,S*%
%TO.N,Net-(J8-PadS)*%
X205000000Y-122700000D03*
%TO.P,J8,SN*%
%TO.N,unconnected-(J8-PadSN)*%
X188770000Y-122700000D03*
%TO.P,J8,T*%
%TO.N,Net-(J8-PadT)*%
X205000000Y-110000000D03*
%TO.P,J8,TN*%
%TO.N,unconnected-(J8-PadTN)*%
X188770000Y-110000000D03*
%TD*%
D10*
%TO.P,K1,11*%
%TO.N,Net-(J1-PadS)*%
X65000000Y-95000000D03*
%TO.P,K1,12*%
%TO.N,Net-(JP3-A)*%
X65000000Y-90000000D03*
%TO.P,K1,14*%
%TO.N,/SIGNAL*%
X65000000Y-100000000D03*
%TO.P,K1,21*%
%TO.N,Net-(J1-PadT)*%
X72500000Y-95000000D03*
%TO.P,K1,22*%
%TO.N,Net-(JP3-B)*%
X72500000Y-90000000D03*
%TO.P,K1,24*%
%TO.N,GND*%
X72500000Y-100000000D03*
D11*
%TO.P,K1,A1*%
%TO.N,Net-(D1-A)*%
X65000000Y-75000000D03*
D10*
%TO.P,K1,A2*%
%TO.N,+12V*%
X72500000Y-75000000D03*
%TD*%
D16*
%TO.P,D1,1,K*%
%TO.N,+12V*%
X72560000Y-70250000D03*
D17*
%TO.P,D1,2,A*%
%TO.N,Net-(D1-A)*%
X64940000Y-70250000D03*
%TD*%
D18*
%TO.P,R16,1*%
%TO.N,GNDS*%
X38100000Y-82080000D03*
D19*
%TO.P,R16,2*%
%TO.N,Net-(U1-+)*%
X38100000Y-89700000D03*
%TD*%
D15*
%TO.P,J1,R*%
%TO.N,unconnected-(J1-PadR)*%
X80000000Y-116350000D03*
%TO.P,J1,RN*%
%TO.N,unconnected-(J1-PadRN)*%
X63770000Y-116350000D03*
%TO.P,J1,S*%
%TO.N,Net-(J1-PadS)*%
X80000000Y-122700000D03*
%TO.P,J1,SN*%
%TO.N,unconnected-(J1-PadSN)*%
X63770000Y-122700000D03*
%TO.P,J1,T*%
%TO.N,Net-(J1-PadT)*%
X80000000Y-110000000D03*
%TO.P,J1,TN*%
%TO.N,unconnected-(J1-PadTN)*%
X63770000Y-110000000D03*
%TD*%
D16*
%TO.P,D5,1,K*%
%TO.N,+12V*%
X172560000Y-70250000D03*
D17*
%TO.P,D5,2,A*%
%TO.N,Net-(D5-A)*%
X164940000Y-70250000D03*
%TD*%
D10*
%TO.P,K2,11*%
%TO.N,Net-(J2-PadS)*%
X96000000Y-95000000D03*
%TO.P,K2,12*%
%TO.N,Net-(JP2-A)*%
X96000000Y-90000000D03*
%TO.P,K2,14*%
%TO.N,/SIGNAL*%
X96000000Y-100000000D03*
%TO.P,K2,21*%
%TO.N,Net-(J2-PadT)*%
X103500000Y-95000000D03*
%TO.P,K2,22*%
%TO.N,Net-(JP2-B)*%
X103500000Y-90000000D03*
%TO.P,K2,24*%
%TO.N,GND*%
X103500000Y-100000000D03*
D11*
%TO.P,K2,A1*%
%TO.N,Net-(D2-A)*%
X96000000Y-75000000D03*
D10*
%TO.P,K2,A2*%
%TO.N,+12V*%
X103500000Y-75000000D03*
%TD*%
D18*
%TO.P,R9,1*%
%TO.N,GND*%
X59300000Y-107600000D03*
D19*
%TO.P,R9,2*%
%TO.N,/SIGNAL*%
X59300000Y-99980000D03*
%TD*%
D18*
%TO.P,C1,1*%
%TO.N,/SIGNAL*%
X53500000Y-94700000D03*
%TO.P,C1,2*%
%TO.N,Net-(U1--)*%
X53500000Y-89700000D03*
%TD*%
D12*
%TO.P,R1,1*%
%TO.N,Net-(JP3-B)*%
X80000000Y-95000000D03*
D13*
%TO.P,R1,2*%
%TO.N,Net-(JP3-A)*%
X80000000Y-79760000D03*
%TD*%
D14*
%TO.P,J6,1,Pin_1*%
%TO.N,Net-(D4-A)*%
X137330000Y-71000000D03*
D15*
%TO.P,J6,2,Pin_2*%
%TO.N,Net-(D3-A)*%
X132250000Y-71000000D03*
%TD*%
D18*
%TO.P,R15,1*%
%TO.N,GNDS*%
X38080000Y-68800000D03*
D19*
%TO.P,R15,2*%
%TO.N,GND*%
X45700000Y-68800000D03*
%TD*%
D14*
%TO.P,J3,1,Pin_1*%
%TO.N,Net-(D2-A)*%
X87040000Y-71000000D03*
D15*
%TO.P,J3,2,Pin_2*%
%TO.N,Net-(D1-A)*%
X81960000Y-71000000D03*
%TD*%
D12*
%TO.P,R6,1*%
%TO.N,Net-(JP6-B)*%
X188750000Y-95000000D03*
D13*
%TO.P,R6,2*%
%TO.N,Net-(JP6-A)*%
X188750000Y-79760000D03*
%TD*%
D21*
%TO.P,U1,1,VOS*%
%TO.N,unconnected-(U1-VOS-Pad1)*%
X41790000Y-84590000D03*
D22*
%TO.P,U1,2,-*%
%TO.N,Net-(U1--)*%
X41790000Y-87130000D03*
%TO.P,U1,3,+*%
%TO.N,Net-(U1-+)*%
X41790000Y-89670000D03*
%TO.P,U1,4,V-*%
%TO.N,GND*%
X41790000Y-92210000D03*
%TO.P,U1,5,NC*%
%TO.N,unconnected-(U1-NC-Pad5)*%
X49410000Y-92210000D03*
%TO.P,U1,6*%
%TO.N,Net-(U1--)*%
X49410000Y-89670000D03*
%TO.P,U1,7,V+*%
%TO.N,VCC*%
X49410000Y-87130000D03*
%TO.P,U1,8,VOS*%
%TO.N,unconnected-(U1-VOS-Pad8)*%
X49410000Y-84590000D03*
%TD*%
D15*
%TO.P,J7,R*%
%TO.N,unconnected-(J7-PadR)*%
X180000000Y-116350000D03*
%TO.P,J7,RN*%
%TO.N,unconnected-(J7-PadRN)*%
X163770000Y-116350000D03*
%TO.P,J7,S*%
%TO.N,Net-(J7-PadS)*%
X180000000Y-122700000D03*
%TO.P,J7,SN*%
%TO.N,unconnected-(J7-PadSN)*%
X163770000Y-122700000D03*
%TO.P,J7,T*%
%TO.N,Net-(J7-PadT)*%
X180000000Y-110000000D03*
%TO.P,J7,TN*%
%TO.N,unconnected-(J7-PadTN)*%
X163770000Y-110000000D03*
%TD*%
%TO.P,J5,R*%
%TO.N,unconnected-(J5-PadR)*%
X155000000Y-116350000D03*
%TO.P,J5,RN*%
%TO.N,unconnected-(J5-PadRN)*%
X138770000Y-116350000D03*
%TO.P,J5,S*%
%TO.N,Net-(J5-PadS)*%
X155000000Y-122700000D03*
%TO.P,J5,SN*%
%TO.N,unconnected-(J5-PadSN)*%
X138770000Y-122700000D03*
%TO.P,J5,T*%
%TO.N,Net-(J5-PadT)*%
X155000000Y-110000000D03*
%TO.P,J5,TN*%
%TO.N,unconnected-(J5-PadTN)*%
X138770000Y-110000000D03*
%TD*%
D14*
%TO.P,J15,1,Pin_1*%
%TO.N,/SIGNAL*%
X55000000Y-100000000D03*
D15*
%TO.P,J15,2,Pin_2*%
%TO.N,GND*%
X55000000Y-105080000D03*
%TD*%
D18*
%TO.P,R14,1*%
%TO.N,+12V*%
X45700000Y-72300000D03*
D19*
%TO.P,R14,2*%
%TO.N,GNDS*%
X38080000Y-72300000D03*
%TD*%
D10*
%TO.P,K5,11*%
%TO.N,Net-(J7-PadS)*%
X165000000Y-95000000D03*
%TO.P,K5,12*%
%TO.N,Net-(JP7-A)*%
X165000000Y-90000000D03*
%TO.P,K5,14*%
%TO.N,/SIGNAL*%
X165000000Y-100000000D03*
%TO.P,K5,21*%
%TO.N,Net-(J7-PadT)*%
X172500000Y-95000000D03*
%TO.P,K5,22*%
%TO.N,Net-(JP7-B)*%
X172500000Y-90000000D03*
%TO.P,K5,24*%
%TO.N,GND*%
X172500000Y-100000000D03*
D11*
%TO.P,K5,A1*%
%TO.N,Net-(D5-A)*%
X165000000Y-75000000D03*
D10*
%TO.P,K5,A2*%
%TO.N,+12V*%
X172500000Y-75000000D03*
%TD*%
D20*
%TO.P,C7,1*%
%TO.N,VCC*%
X44700000Y-79155113D03*
D18*
%TO.P,C7,2*%
%TO.N,GND*%
X44700000Y-77155113D03*
%TD*%
%TO.P,C3,1*%
%TO.N,VCC*%
X59800000Y-84100000D03*
%TO.P,C3,2*%
%TO.N,GND*%
X59800000Y-79100000D03*
%TD*%
D14*
%TO.P,J10,1,Pin_1*%
%TO.N,+12V*%
X59280000Y-70900000D03*
D15*
%TO.P,J10,2,Pin_2*%
%TO.N,GND*%
X54200000Y-70900000D03*
%TD*%
D23*
%TO.N,+12V*%
X172560000Y-69560000D02*
X172560000Y-70250000D01*
X203560000Y-70250000D02*
X203560000Y-70190000D01*
X175000000Y-67750000D02*
X201060000Y-67750000D01*
X172560000Y-70250000D02*
X172560000Y-70190000D01*
X60350000Y-67800000D02*
X70110000Y-67800000D01*
X59280000Y-70900000D02*
X59280000Y-68870000D01*
X70110000Y-67800000D02*
X72560000Y-70250000D01*
X72560000Y-70250000D02*
X75060000Y-67750000D01*
X75060000Y-67750000D02*
X101060000Y-67750000D01*
X151060000Y-67750000D02*
X125330000Y-67750000D01*
X59280000Y-68870000D02*
X60350000Y-67800000D01*
X151060000Y-67750000D02*
X153560000Y-70250000D01*
X153560000Y-70190000D02*
X156000000Y-67750000D01*
X101060000Y-67750000D02*
X103560000Y-70250000D01*
X106060000Y-67750000D02*
X120330000Y-67750000D01*
X172560000Y-70190000D02*
X175000000Y-67750000D01*
X153560000Y-70250000D02*
X153560000Y-70190000D01*
X103560000Y-70250000D02*
X106060000Y-67750000D01*
X156000000Y-67750000D02*
X170750000Y-67750000D01*
X120330000Y-67750000D02*
X122830000Y-70250000D01*
X170750000Y-67750000D02*
X172560000Y-69560000D01*
X122830000Y-70250000D02*
X125330000Y-67750000D01*
X201060000Y-67750000D02*
X203560000Y-70250000D01*
D24*
%TO.N,Net-(J1-PadS)*%
X80000000Y-122700000D02*
X68600000Y-111300000D01*
X68600000Y-98600000D02*
X65000000Y-95000000D01*
X68600000Y-111300000D02*
X68600000Y-98600000D01*
%TO.N,Net-(J1-PadT)*%
X72500000Y-95000000D02*
X80000000Y-102500000D01*
X80000000Y-102500000D02*
X80000000Y-110000000D01*
%TO.N,Net-(J2-PadS)*%
X99800000Y-117400000D02*
X99800000Y-98700000D01*
X99800000Y-98700000D02*
X96000000Y-94900000D01*
X105000000Y-122600000D02*
X99800000Y-117400000D01*
%TO.N,Net-(J2-PadT)*%
X105000000Y-110000000D02*
X105000000Y-103900000D01*
X107000000Y-101900000D02*
X107000000Y-98500000D01*
X107000000Y-98500000D02*
X103500000Y-95000000D01*
X105000000Y-103900000D02*
X107000000Y-101900000D01*
%TO.N,Net-(J4-PadS)*%
X130270000Y-122700000D02*
X118870000Y-111300000D01*
X118870000Y-111300000D02*
X118870000Y-98600000D01*
X118870000Y-98600000D02*
X115270000Y-95000000D01*
%TO.N,Net-(J4-PadT)*%
X130270000Y-102500000D02*
X122770000Y-95000000D01*
X130270000Y-110000000D02*
X130270000Y-102500000D01*
%TO.N,Net-(J5-PadS)*%
X149800000Y-98800000D02*
X146000000Y-95000000D01*
X155000000Y-122700000D02*
X149800000Y-117500000D01*
X149800000Y-117500000D02*
X149800000Y-98800000D01*
%TO.N,Net-(J5-PadT)*%
X157000000Y-98500000D02*
X153500000Y-95000000D01*
X157000000Y-101900000D02*
X157000000Y-98500000D01*
X155000000Y-103900000D02*
X157000000Y-101900000D01*
X155000000Y-110000000D02*
X155000000Y-103900000D01*
%TO.N,Net-(J7-PadS)*%
X180000000Y-122700000D02*
X168600000Y-111300000D01*
X168600000Y-98600000D02*
X165000000Y-95000000D01*
X168600000Y-111300000D02*
X168600000Y-98600000D01*
%TO.N,Net-(J7-PadT)*%
X180000000Y-102500000D02*
X172500000Y-95000000D01*
X180000000Y-110000000D02*
X180000000Y-102500000D01*
%TO.N,Net-(J8-PadT)*%
X207000000Y-98500000D02*
X203500000Y-95000000D01*
X207000000Y-101900000D02*
X207000000Y-98500000D01*
X205000000Y-103900000D02*
X207000000Y-101900000D01*
X205000000Y-110000000D02*
X205000000Y-103900000D01*
%TO.N,Net-(J8-PadS)*%
X199900000Y-117500000D02*
X199900000Y-98800000D01*
X199900000Y-98800000D02*
X196100000Y-95000000D01*
X205100000Y-122700000D02*
X199900000Y-117500000D01*
D23*
%TO.N,GND*%
X50180000Y-120480000D02*
X50180000Y-114500000D01*
X43490000Y-92210000D02*
X44300000Y-91400000D01*
X50180000Y-114500000D02*
X50180000Y-96280000D01*
X55000000Y-122700000D02*
X52400000Y-122700000D01*
X43344887Y-77155113D02*
X44700000Y-77155113D01*
X52400000Y-122700000D02*
X50180000Y-120480000D01*
X42600000Y-77900000D02*
X43344887Y-77155113D01*
X44300000Y-91400000D02*
X44300000Y-83000000D01*
X44300000Y-83000000D02*
X42600000Y-81300000D01*
X42800000Y-94800000D02*
X41790000Y-93790000D01*
X50180000Y-96280000D02*
X48700000Y-94800000D01*
X48700000Y-94800000D02*
X42800000Y-94800000D01*
X41790000Y-92210000D02*
X43490000Y-92210000D01*
X42600000Y-81300000D02*
X42600000Y-77900000D01*
X41790000Y-93790000D02*
X41790000Y-92210000D01*
D24*
%TO.N,Net-(JP2-B)*%
X93000000Y-86250000D02*
X99750000Y-86250000D01*
X88750000Y-95000000D02*
X88750000Y-90500000D01*
X88750000Y-90500000D02*
X93000000Y-86250000D01*
X99750000Y-86250000D02*
X103500000Y-90000000D01*
%TO.N,Net-(JP3-B)*%
X72500000Y-90000000D02*
X75000000Y-90000000D01*
X75000000Y-90000000D02*
X80000000Y-95000000D01*
%TO.N,Net-(JP4-B)*%
X122747500Y-89990000D02*
X125247500Y-89990000D01*
X125247500Y-89990000D02*
X130247500Y-94990000D01*
%TO.N,Net-(JP5-B)*%
X143000000Y-86250000D02*
X149750000Y-86250000D01*
X138750000Y-95000000D02*
X138750000Y-90500000D01*
X149750000Y-86250000D02*
X153500000Y-90000000D01*
X138750000Y-90500000D02*
X143000000Y-86250000D01*
%TO.N,Net-(JP6-B)*%
X199750000Y-86250000D02*
X203500000Y-90000000D01*
X193000000Y-86250000D02*
X199750000Y-86250000D01*
X188750000Y-95000000D02*
X188750000Y-90500000D01*
X188750000Y-90500000D02*
X193000000Y-86250000D01*
%TO.N,Net-(JP7-B)*%
X175000000Y-90000000D02*
X180000000Y-95000000D01*
X172500000Y-90000000D02*
X175000000Y-90000000D01*
%TD*%
M02*
