%TF.GenerationSoftware,KiCad,Pcbnew,9.0.0+dfsg-1*%
%TF.CreationDate,2025-03-12T14:18:27+01:00*%
%TF.ProjectId,relays-array-6,72656c61-7973-42d6-9172-7261792d362e,1.0*%
%TF.SameCoordinates,Original*%
%TF.FileFunction,Copper,L1,Top*%
%TF.FilePolarity,Positive*%
%FSLAX46Y46*%
G04 Gerber Fmt 4.6, Leading zero omitted, Abs format (unit mm)*
G04 Created by KiCad (PCBNEW 9.0.0+dfsg-1) date 2025-03-12 14:18:27*
%MOMM*%
%LPD*%
G01*
G04 APERTURE LIST*
G04 Aperture macros list*
%AMRoundRect*
0 Rectangle with rounded corners*
0 $1 Rounding radius*
0 $2 $3 $4 $5 $6 $7 $8 $9 X,Y pos of 4 corners*
0 Add a 4 corners polygon primitive as box body*
4,1,4,$2,$3,$4,$5,$6,$7,$8,$9,$2,$3,0*
0 Add four circle primitives for the rounded corners*
1,1,$1+$1,$2,$3*
1,1,$1+$1,$4,$5*
1,1,$1+$1,$6,$7*
1,1,$1+$1,$8,$9*
0 Add four rect primitives between the rounded corners*
20,1,$1+$1,$2,$3,$4,$5,0*
20,1,$1+$1,$4,$5,$6,$7,0*
20,1,$1+$1,$6,$7,$8,$9,0*
20,1,$1+$1,$8,$9,$2,$3,0*%
%AMFreePoly0*
4,1,23,0.500000,-0.750000,0.000000,-0.750000,0.000000,-0.745722,-0.065263,-0.745722,-0.191342,-0.711940,-0.304381,-0.646677,-0.396677,-0.554381,-0.461940,-0.441342,-0.495722,-0.315263,-0.495722,-0.250000,-0.500000,-0.250000,-0.500000,0.250000,-0.495722,0.250000,-0.495722,0.315263,-0.461940,0.441342,-0.396677,0.554381,-0.304381,0.646677,-0.191342,0.711940,-0.065263,0.745722,0.000000,0.745722,
0.000000,0.750000,0.500000,0.750000,0.500000,-0.750000,0.500000,-0.750000,$1*%
%AMFreePoly1*
4,1,23,0.000000,0.745722,0.065263,0.745722,0.191342,0.711940,0.304381,0.646677,0.396677,0.554381,0.461940,0.441342,0.495722,0.315263,0.495722,0.250000,0.500000,0.250000,0.500000,-0.250000,0.495722,-0.250000,0.495722,-0.315263,0.461940,-0.441342,0.396677,-0.554381,0.304381,-0.646677,0.191342,-0.711940,0.065263,-0.745722,0.000000,-0.745722,0.000000,-0.750000,-0.500000,-0.750000,
-0.500000,0.750000,0.000000,0.750000,0.000000,0.745722,0.000000,0.745722,$1*%
G04 Aperture macros list end*
%TA.AperFunction,ComponentPad*%
%ADD10C,2.000000*%
%TD*%
%TA.AperFunction,ComponentPad*%
%ADD11R,2.000000X2.000000*%
%TD*%
%TA.AperFunction,ComponentPad*%
%ADD12C,2.400000*%
%TD*%
%TA.AperFunction,ComponentPad*%
%ADD13O,2.400000X2.400000*%
%TD*%
%TA.AperFunction,ComponentPad*%
%ADD14R,2.200000X2.200000*%
%TD*%
%TA.AperFunction,ComponentPad*%
%ADD15O,2.200000X2.200000*%
%TD*%
%TA.AperFunction,ComponentPad*%
%ADD16C,1.600000*%
%TD*%
%TA.AperFunction,ComponentPad*%
%ADD17O,1.600000X1.600000*%
%TD*%
%TA.AperFunction,ComponentPad*%
%ADD18R,3.000000X3.000000*%
%TD*%
%TA.AperFunction,ComponentPad*%
%ADD19C,3.000000*%
%TD*%
%TA.AperFunction,ComponentPad*%
%ADD20R,1.600000X1.600000*%
%TD*%
%TA.AperFunction,SMDPad,CuDef*%
%ADD21FreePoly0,270.000000*%
%TD*%
%TA.AperFunction,SMDPad,CuDef*%
%ADD22FreePoly1,270.000000*%
%TD*%
%TA.AperFunction,ComponentPad*%
%ADD23RoundRect,0.250000X-0.950000X-0.550000X0.950000X-0.550000X0.950000X0.550000X-0.950000X0.550000X0*%
%TD*%
%TA.AperFunction,ComponentPad*%
%ADD24O,2.400000X1.600000*%
%TD*%
%TA.AperFunction,SMDPad,CuDef*%
%ADD25R,1.000000X1.500000*%
%TD*%
%TA.AperFunction,Conductor*%
%ADD26C,0.500000*%
%TD*%
%TA.AperFunction,Conductor*%
%ADD27C,2.000000*%
%TD*%
G04 APERTURE END LIST*
D10*
%TO.P,K6,11*%
%TO.N,Net-(J8-PadS)*%
X196000000Y-95000000D03*
%TO.P,K6,12*%
%TO.N,Net-(JP6-A)*%
X196000000Y-90000000D03*
%TO.P,K6,14*%
%TO.N,/SIGNAL*%
X196000000Y-100000000D03*
%TO.P,K6,21*%
%TO.N,Net-(J8-PadT)*%
X203500000Y-95000000D03*
%TO.P,K6,22*%
%TO.N,Net-(JP6-B)*%
X203500000Y-90000000D03*
%TO.P,K6,24*%
%TO.N,GND*%
X203500000Y-100000000D03*
D11*
%TO.P,K6,A1*%
%TO.N,Net-(D6-A)*%
X196000000Y-75000000D03*
D10*
%TO.P,K6,A2*%
%TO.N,+12V*%
X203500000Y-75000000D03*
%TD*%
%TO.P,K3,11*%
%TO.N,Net-(J4-PadS)*%
X115270000Y-95000000D03*
%TO.P,K3,12*%
%TO.N,Net-(JP4-A)*%
X115270000Y-90000000D03*
%TO.P,K3,14*%
%TO.N,/SIGNAL*%
X115270000Y-100000000D03*
%TO.P,K3,21*%
%TO.N,Net-(J4-PadT)*%
X122770000Y-95000000D03*
%TO.P,K3,22*%
%TO.N,Net-(JP4-B)*%
X122770000Y-90000000D03*
%TO.P,K3,24*%
%TO.N,GND*%
X122770000Y-100000000D03*
D11*
%TO.P,K3,A1*%
%TO.N,Net-(D3-A)*%
X115270000Y-75000000D03*
D10*
%TO.P,K3,A2*%
%TO.N,+12V*%
X122770000Y-75000000D03*
%TD*%
D12*
%TO.P,R3,1*%
%TO.N,Net-(JP4-B)*%
X130270000Y-95000000D03*
D13*
%TO.P,R3,2*%
%TO.N,Net-(JP4-A)*%
X130270000Y-79760000D03*
%TD*%
D12*
%TO.P,R4,1*%
%TO.N,Net-(JP5-B)*%
X138750000Y-95000000D03*
D13*
%TO.P,R4,2*%
%TO.N,Net-(JP5-A)*%
X138750000Y-79760000D03*
%TD*%
D14*
%TO.P,D2,1,K*%
%TO.N,+12V*%
X103560000Y-70250000D03*
D15*
%TO.P,D2,2,A*%
%TO.N,Net-(D2-A)*%
X95940000Y-70250000D03*
%TD*%
D16*
%TO.P,C2,1*%
%TO.N,Net-(U1-+)*%
X38100000Y-98200000D03*
%TO.P,C2,2*%
%TO.N,Net-(JPX1-B)*%
X43100000Y-98200000D03*
%TD*%
%TO.P,R13,1*%
%TO.N,VCC*%
X55100000Y-84100000D03*
D17*
%TO.P,R13,2*%
%TO.N,+12V*%
X55100000Y-76480000D03*
%TD*%
D14*
%TO.P,D6,1,K*%
%TO.N,+12V*%
X203560000Y-70250000D03*
D15*
%TO.P,D6,2,A*%
%TO.N,Net-(D6-A)*%
X195940000Y-70250000D03*
%TD*%
D18*
%TO.P,J9,1,Pin_1*%
%TO.N,Net-(D6-A)*%
X187290000Y-71000000D03*
D19*
%TO.P,J9,2,Pin_2*%
%TO.N,Net-(D5-A)*%
X182210000Y-71000000D03*
%TD*%
D20*
%TO.P,C8,1*%
%TO.N,Net-(U1--)*%
X58800000Y-89700000D03*
D16*
%TO.P,C8,2*%
%TO.N,/SIGNAL*%
X58800000Y-91700000D03*
%TD*%
D14*
%TO.P,D3,1,K*%
%TO.N,+12V*%
X122830000Y-70250000D03*
D15*
%TO.P,D3,2,A*%
%TO.N,Net-(D3-A)*%
X115210000Y-70250000D03*
%TD*%
D10*
%TO.P,K4,11*%
%TO.N,Net-(J5-PadS)*%
X146000000Y-95000000D03*
%TO.P,K4,12*%
%TO.N,Net-(JP5-A)*%
X146000000Y-90000000D03*
%TO.P,K4,14*%
%TO.N,/SIGNAL*%
X146000000Y-100000000D03*
%TO.P,K4,21*%
%TO.N,Net-(J5-PadT)*%
X153500000Y-95000000D03*
%TO.P,K4,22*%
%TO.N,Net-(JP5-B)*%
X153500000Y-90000000D03*
%TO.P,K4,24*%
%TO.N,GND*%
X153500000Y-100000000D03*
D11*
%TO.P,K4,A1*%
%TO.N,Net-(D4-A)*%
X146000000Y-75000000D03*
D10*
%TO.P,K4,A2*%
%TO.N,+12V*%
X153500000Y-75000000D03*
%TD*%
D19*
%TO.P,J4,R*%
%TO.N,unconnected-(J4-PadR)*%
X130000000Y-116350000D03*
%TO.P,J4,RN*%
%TO.N,unconnected-(J4-PadRN)*%
X113770000Y-116350000D03*
%TO.P,J4,S*%
%TO.N,Net-(J4-PadS)*%
X130000000Y-122700000D03*
%TO.P,J4,SN*%
%TO.N,unconnected-(J4-PadSN)*%
X113770000Y-122700000D03*
%TO.P,J4,T*%
%TO.N,Net-(J4-PadT)*%
X130000000Y-110000000D03*
%TO.P,J4,TN*%
%TO.N,unconnected-(J4-PadTN)*%
X113770000Y-110000000D03*
%TD*%
D12*
%TO.P,R5,1*%
%TO.N,Net-(JP7-B)*%
X180000000Y-95000000D03*
D13*
%TO.P,R5,2*%
%TO.N,Net-(JP7-A)*%
X180000000Y-79760000D03*
%TD*%
D19*
%TO.P,J2,R*%
%TO.N,unconnected-(J2-PadR)*%
X105000000Y-116350000D03*
%TO.P,J2,RN*%
%TO.N,unconnected-(J2-PadRN)*%
X88770000Y-116350000D03*
%TO.P,J2,S*%
%TO.N,Net-(J2-PadS)*%
X105000000Y-122700000D03*
%TO.P,J2,SN*%
%TO.N,unconnected-(J2-PadSN)*%
X88770000Y-122700000D03*
%TO.P,J2,T*%
%TO.N,Net-(J2-PadT)*%
X105000000Y-110000000D03*
%TO.P,J2,TN*%
%TO.N,unconnected-(J2-PadTN)*%
X88770000Y-110000000D03*
%TD*%
D20*
%TO.P,C10,1*%
%TO.N,GNDS*%
X38100000Y-77200000D03*
D16*
%TO.P,C10,2*%
%TO.N,GND*%
X40100000Y-77200000D03*
%TD*%
D14*
%TO.P,D9,1,K*%
%TO.N,+12V*%
X49200000Y-76410000D03*
D15*
%TO.P,D9,2,A*%
%TO.N,GND*%
X49200000Y-68790000D03*
%TD*%
D14*
%TO.P,D4,1,K*%
%TO.N,+12V*%
X153560000Y-70250000D03*
D15*
%TO.P,D4,2,A*%
%TO.N,Net-(D4-A)*%
X145940000Y-70250000D03*
%TD*%
D19*
%TO.P,J14,R*%
%TO.N,unconnected-(J14-PadR)*%
X55000000Y-116350000D03*
%TO.P,J14,RN*%
%TO.N,unconnected-(J14-PadRN)*%
X38770000Y-116350000D03*
%TO.P,J14,S*%
%TO.N,GND*%
X55000000Y-122700000D03*
%TO.P,J14,SN*%
%TO.N,unconnected-(J14-PadSN)*%
X38770000Y-122700000D03*
%TO.P,J14,T*%
%TO.N,Net-(JPX1-B)*%
X55000000Y-110000000D03*
%TO.P,J14,TN*%
%TO.N,unconnected-(J14-PadTN)*%
X38770000Y-110000000D03*
%TD*%
D12*
%TO.P,R2,1*%
%TO.N,Net-(JP2-B)*%
X88750000Y-95000000D03*
D13*
%TO.P,R2,2*%
%TO.N,Net-(JP2-A)*%
X88750000Y-79760000D03*
%TD*%
D19*
%TO.P,J8,R*%
%TO.N,unconnected-(J8-PadR)*%
X205000000Y-116350000D03*
%TO.P,J8,RN*%
%TO.N,unconnected-(J8-PadRN)*%
X188770000Y-116350000D03*
%TO.P,J8,S*%
%TO.N,Net-(J8-PadS)*%
X205000000Y-122700000D03*
%TO.P,J8,SN*%
%TO.N,unconnected-(J8-PadSN)*%
X188770000Y-122700000D03*
%TO.P,J8,T*%
%TO.N,Net-(J8-PadT)*%
X205000000Y-110000000D03*
%TO.P,J8,TN*%
%TO.N,unconnected-(J8-PadTN)*%
X188770000Y-110000000D03*
%TD*%
D10*
%TO.P,K1,11*%
%TO.N,Net-(J1-PadS)*%
X65000000Y-95000000D03*
%TO.P,K1,12*%
%TO.N,Net-(JP3-A)*%
X65000000Y-90000000D03*
%TO.P,K1,14*%
%TO.N,/SIGNAL*%
X65000000Y-100000000D03*
%TO.P,K1,21*%
%TO.N,Net-(J1-PadT)*%
X72500000Y-95000000D03*
%TO.P,K1,22*%
%TO.N,Net-(JP3-B)*%
X72500000Y-90000000D03*
%TO.P,K1,24*%
%TO.N,GND*%
X72500000Y-100000000D03*
D11*
%TO.P,K1,A1*%
%TO.N,Net-(D1-A)*%
X65000000Y-75000000D03*
D10*
%TO.P,K1,A2*%
%TO.N,+12V*%
X72500000Y-75000000D03*
%TD*%
D14*
%TO.P,D1,1,K*%
%TO.N,+12V*%
X72560000Y-70250000D03*
D15*
%TO.P,D1,2,A*%
%TO.N,Net-(D1-A)*%
X64940000Y-70250000D03*
%TD*%
D16*
%TO.P,R16,1*%
%TO.N,GNDS*%
X38100000Y-82080000D03*
D17*
%TO.P,R16,2*%
%TO.N,Net-(U1-+)*%
X38100000Y-89700000D03*
%TD*%
D19*
%TO.P,J1,R*%
%TO.N,unconnected-(J1-PadR)*%
X80000000Y-116350000D03*
%TO.P,J1,RN*%
%TO.N,unconnected-(J1-PadRN)*%
X63770000Y-116350000D03*
%TO.P,J1,S*%
%TO.N,Net-(J1-PadS)*%
X80000000Y-122700000D03*
%TO.P,J1,SN*%
%TO.N,unconnected-(J1-PadSN)*%
X63770000Y-122700000D03*
%TO.P,J1,T*%
%TO.N,Net-(J1-PadT)*%
X80000000Y-110000000D03*
%TO.P,J1,TN*%
%TO.N,unconnected-(J1-PadTN)*%
X63770000Y-110000000D03*
%TD*%
D14*
%TO.P,D5,1,K*%
%TO.N,+12V*%
X172560000Y-70250000D03*
D15*
%TO.P,D5,2,A*%
%TO.N,Net-(D5-A)*%
X164940000Y-70250000D03*
%TD*%
D21*
%TO.P,JP5,1,A*%
%TO.N,Net-(JP5-A)*%
X138750000Y-83350000D03*
D22*
%TO.P,JP5,2,B*%
%TO.N,Net-(JP5-B)*%
X138750000Y-84650000D03*
%TD*%
D10*
%TO.P,K2,11*%
%TO.N,Net-(J2-PadS)*%
X96000000Y-95000000D03*
%TO.P,K2,12*%
%TO.N,Net-(JP2-A)*%
X96000000Y-90000000D03*
%TO.P,K2,14*%
%TO.N,/SIGNAL*%
X96000000Y-100000000D03*
%TO.P,K2,21*%
%TO.N,Net-(J2-PadT)*%
X103500000Y-95000000D03*
%TO.P,K2,22*%
%TO.N,Net-(JP2-B)*%
X103500000Y-90000000D03*
%TO.P,K2,24*%
%TO.N,GND*%
X103500000Y-100000000D03*
D11*
%TO.P,K2,A1*%
%TO.N,Net-(D2-A)*%
X96000000Y-75000000D03*
D10*
%TO.P,K2,A2*%
%TO.N,+12V*%
X103500000Y-75000000D03*
%TD*%
D16*
%TO.P,R9,1*%
%TO.N,GND*%
X59300000Y-107600000D03*
D17*
%TO.P,R9,2*%
%TO.N,/SIGNAL*%
X59300000Y-99980000D03*
%TD*%
D21*
%TO.P,JP7,1,A*%
%TO.N,Net-(JP7-A)*%
X180000000Y-83350000D03*
D22*
%TO.P,JP7,2,B*%
%TO.N,Net-(JP7-B)*%
X180000000Y-84650000D03*
%TD*%
D16*
%TO.P,C1,1*%
%TO.N,/SIGNAL*%
X53500000Y-94700000D03*
%TO.P,C1,2*%
%TO.N,Net-(U1--)*%
X53500000Y-89700000D03*
%TD*%
D12*
%TO.P,R1,1*%
%TO.N,Net-(JP3-B)*%
X80000000Y-95000000D03*
D13*
%TO.P,R1,2*%
%TO.N,Net-(JP3-A)*%
X80000000Y-79760000D03*
%TD*%
D21*
%TO.P,JP6,1,A*%
%TO.N,Net-(JP6-A)*%
X188750000Y-83350000D03*
D22*
%TO.P,JP6,2,B*%
%TO.N,Net-(JP6-B)*%
X188750000Y-84650000D03*
%TD*%
D18*
%TO.P,J6,1,Pin_1*%
%TO.N,Net-(D4-A)*%
X137330000Y-71000000D03*
D19*
%TO.P,J6,2,Pin_2*%
%TO.N,Net-(D3-A)*%
X132250000Y-71000000D03*
%TD*%
D21*
%TO.P,JP3,1,A*%
%TO.N,Net-(JP3-A)*%
X80000000Y-83350000D03*
D22*
%TO.P,JP3,2,B*%
%TO.N,Net-(JP3-B)*%
X80000000Y-84650000D03*
%TD*%
D16*
%TO.P,R15,1*%
%TO.N,GNDS*%
X38080000Y-68800000D03*
D17*
%TO.P,R15,2*%
%TO.N,GND*%
X45700000Y-68800000D03*
%TD*%
D18*
%TO.P,J3,1,Pin_1*%
%TO.N,Net-(D2-A)*%
X87040000Y-71000000D03*
D19*
%TO.P,J3,2,Pin_2*%
%TO.N,Net-(D1-A)*%
X81960000Y-71000000D03*
%TD*%
D12*
%TO.P,R6,1*%
%TO.N,Net-(JP6-B)*%
X188750000Y-95000000D03*
D13*
%TO.P,R6,2*%
%TO.N,Net-(JP6-A)*%
X188750000Y-79760000D03*
%TD*%
D23*
%TO.P,U1,1,VOS*%
%TO.N,unconnected-(U1-VOS-Pad1)*%
X41790000Y-84590000D03*
D24*
%TO.P,U1,2,-*%
%TO.N,Net-(U1--)*%
X41790000Y-87130000D03*
%TO.P,U1,3,+*%
%TO.N,Net-(U1-+)*%
X41790000Y-89670000D03*
%TO.P,U1,4,V-*%
%TO.N,GND*%
X41790000Y-92210000D03*
%TO.P,U1,5,NC*%
%TO.N,unconnected-(U1-NC-Pad5)*%
X49410000Y-92210000D03*
%TO.P,U1,6*%
%TO.N,Net-(U1--)*%
X49410000Y-89670000D03*
%TO.P,U1,7,V+*%
%TO.N,VCC*%
X49410000Y-87130000D03*
%TO.P,U1,8,VOS*%
%TO.N,unconnected-(U1-VOS-Pad8)*%
X49410000Y-84590000D03*
%TD*%
D19*
%TO.P,J7,R*%
%TO.N,unconnected-(J7-PadR)*%
X180000000Y-116350000D03*
%TO.P,J7,RN*%
%TO.N,unconnected-(J7-PadRN)*%
X163770000Y-116350000D03*
%TO.P,J7,S*%
%TO.N,Net-(J7-PadS)*%
X180000000Y-122700000D03*
%TO.P,J7,SN*%
%TO.N,unconnected-(J7-PadSN)*%
X163770000Y-122700000D03*
%TO.P,J7,T*%
%TO.N,Net-(J7-PadT)*%
X180000000Y-110000000D03*
%TO.P,J7,TN*%
%TO.N,unconnected-(J7-PadTN)*%
X163770000Y-110000000D03*
%TD*%
%TO.P,J5,R*%
%TO.N,unconnected-(J5-PadR)*%
X155000000Y-116350000D03*
%TO.P,J5,RN*%
%TO.N,unconnected-(J5-PadRN)*%
X138770000Y-116350000D03*
%TO.P,J5,S*%
%TO.N,Net-(J5-PadS)*%
X155000000Y-122700000D03*
%TO.P,J5,SN*%
%TO.N,unconnected-(J5-PadSN)*%
X138770000Y-122700000D03*
%TO.P,J5,T*%
%TO.N,Net-(J5-PadT)*%
X155000000Y-110000000D03*
%TO.P,J5,TN*%
%TO.N,unconnected-(J5-PadTN)*%
X138770000Y-110000000D03*
%TD*%
D21*
%TO.P,JP4,1,A*%
%TO.N,Net-(JP4-A)*%
X130270000Y-83350000D03*
D22*
%TO.P,JP4,2,B*%
%TO.N,Net-(JP4-B)*%
X130270000Y-84650000D03*
%TD*%
D18*
%TO.P,J15,1,Pin_1*%
%TO.N,/SIGNAL*%
X55000000Y-100000000D03*
D19*
%TO.P,J15,2,Pin_2*%
%TO.N,GND*%
X55000000Y-105080000D03*
%TD*%
D16*
%TO.P,R14,1*%
%TO.N,+12V*%
X45700000Y-72300000D03*
D17*
%TO.P,R14,2*%
%TO.N,GNDS*%
X38080000Y-72300000D03*
%TD*%
D10*
%TO.P,K5,11*%
%TO.N,Net-(J7-PadS)*%
X165000000Y-95000000D03*
%TO.P,K5,12*%
%TO.N,Net-(JP7-A)*%
X165000000Y-90000000D03*
%TO.P,K5,14*%
%TO.N,/SIGNAL*%
X165000000Y-100000000D03*
%TO.P,K5,21*%
%TO.N,Net-(J7-PadT)*%
X172500000Y-95000000D03*
%TO.P,K5,22*%
%TO.N,Net-(JP7-B)*%
X172500000Y-90000000D03*
%TO.P,K5,24*%
%TO.N,GND*%
X172500000Y-100000000D03*
D11*
%TO.P,K5,A1*%
%TO.N,Net-(D5-A)*%
X165000000Y-75000000D03*
D10*
%TO.P,K5,A2*%
%TO.N,+12V*%
X172500000Y-75000000D03*
%TD*%
D20*
%TO.P,C7,1*%
%TO.N,VCC*%
X44700000Y-79155113D03*
D16*
%TO.P,C7,2*%
%TO.N,GND*%
X44700000Y-77155113D03*
%TD*%
%TO.P,C3,1*%
%TO.N,VCC*%
X59800000Y-84100000D03*
%TO.P,C3,2*%
%TO.N,GND*%
X59800000Y-79100000D03*
%TD*%
D25*
%TO.P,JPX1,1,A*%
%TO.N,/SIGNAL*%
X49450000Y-100000000D03*
%TO.P,JPX1,2,B*%
%TO.N,Net-(JPX1-B)*%
X48150000Y-100000000D03*
%TD*%
D18*
%TO.P,J10,1,Pin_1*%
%TO.N,+12V*%
X59280000Y-70900000D03*
D19*
%TO.P,J10,2,Pin_2*%
%TO.N,GND*%
X54200000Y-70900000D03*
%TD*%
D21*
%TO.P,JP2,1,A*%
%TO.N,Net-(JP2-A)*%
X88750000Y-83350000D03*
D22*
%TO.P,JP2,2,B*%
%TO.N,Net-(JP2-B)*%
X88750000Y-84650000D03*
%TD*%
D26*
%TO.N,Net-(D1-A)*%
X64940000Y-70250000D02*
X67440000Y-67750000D01*
X67440000Y-67750000D02*
X78710000Y-67750000D01*
X65000000Y-75000000D02*
X65000000Y-70310000D01*
X65000000Y-70310000D02*
X64940000Y-70250000D01*
X78710000Y-67750000D02*
X81960000Y-71000000D01*
%TO.N,+12V*%
X172500000Y-75000000D02*
X172500000Y-70310000D01*
X122770000Y-70310000D02*
X122830000Y-70250000D01*
X49200000Y-76410000D02*
X49200000Y-73900000D01*
X103500000Y-75000000D02*
X103500000Y-70310000D01*
X49200000Y-73900000D02*
X47600000Y-72300000D01*
X153500000Y-70310000D02*
X153560000Y-70250000D01*
X72500000Y-75000000D02*
X72500000Y-70310000D01*
X49200000Y-76410000D02*
X55030000Y-76410000D01*
X172500000Y-70310000D02*
X172560000Y-70250000D01*
X57120000Y-76480000D02*
X59300000Y-74300000D01*
X55100000Y-76480000D02*
X57120000Y-76480000D01*
X203500000Y-75000000D02*
X203500000Y-70310000D01*
X72500000Y-70310000D02*
X72560000Y-70250000D01*
X59300000Y-74300000D02*
X59280000Y-74280000D01*
X103500000Y-70310000D02*
X103560000Y-70250000D01*
X203500000Y-70310000D02*
X203560000Y-70250000D01*
X122770000Y-75000000D02*
X122770000Y-70310000D01*
X153500000Y-75000000D02*
X153500000Y-70310000D01*
X55030000Y-76410000D02*
X55100000Y-76480000D01*
X59280000Y-74280000D02*
X59280000Y-70900000D01*
X47600000Y-72300000D02*
X45700000Y-72300000D01*
%TO.N,Net-(D2-A)*%
X92000000Y-70250000D02*
X91250000Y-71000000D01*
X91250000Y-71000000D02*
X87040000Y-71000000D01*
X96000000Y-75000000D02*
X96000000Y-70310000D01*
X95940000Y-70250000D02*
X92000000Y-70250000D01*
X96000000Y-70310000D02*
X95940000Y-70250000D01*
%TO.N,Net-(D3-A)*%
X115210000Y-70250000D02*
X117710000Y-67750000D01*
X129000000Y-67750000D02*
X132250000Y-71000000D01*
X115270000Y-70310000D02*
X115210000Y-70250000D01*
X115270000Y-75000000D02*
X115270000Y-70310000D01*
X117710000Y-67750000D02*
X129000000Y-67750000D01*
%TO.N,Net-(D4-A)*%
X145940000Y-70250000D02*
X142500000Y-70250000D01*
X142500000Y-70250000D02*
X141750000Y-71000000D01*
X146000000Y-70310000D02*
X145940000Y-70250000D01*
X141750000Y-71000000D02*
X137330000Y-71000000D01*
X146000000Y-75000000D02*
X146000000Y-70310000D01*
%TO.N,Net-(D5-A)*%
X165000000Y-75000000D02*
X165000000Y-70310000D01*
X165000000Y-70310000D02*
X164940000Y-70250000D01*
X164940000Y-70250000D02*
X167440000Y-67750000D01*
X178960000Y-67750000D02*
X182210000Y-71000000D01*
X167440000Y-67750000D02*
X178960000Y-67750000D01*
%TO.N,Net-(D6-A)*%
X196000000Y-70310000D02*
X195940000Y-70250000D01*
X196000000Y-75000000D02*
X196000000Y-70310000D01*
X195940000Y-70250000D02*
X192250000Y-70250000D01*
X192250000Y-70250000D02*
X191500000Y-71000000D01*
X191500000Y-71000000D02*
X187290000Y-71000000D01*
D27*
%TO.N,/SIGNAL*%
X155000000Y-92451000D02*
X157000000Y-94451000D01*
X107000000Y-94451000D02*
X107000000Y-98500000D01*
X165045000Y-100025000D02*
X168795000Y-96275000D01*
X74000000Y-92451000D02*
X76000000Y-94451000D01*
X176045000Y-94476000D02*
X176045000Y-98525000D01*
X119065000Y-96275000D02*
X119065000Y-94525000D01*
X170844000Y-92476000D02*
X174045000Y-92476000D01*
X149750000Y-94500000D02*
X151799000Y-92451000D01*
X157000000Y-94451000D02*
X157000000Y-98500000D01*
X55000000Y-100000000D02*
X50200000Y-100000000D01*
X165020000Y-100000000D02*
X165045000Y-100025000D01*
X77500000Y-100000000D02*
X96000000Y-100000000D01*
X68750000Y-94500000D02*
X70799000Y-92451000D01*
X157000000Y-98500000D02*
X158500000Y-100000000D01*
X176045000Y-98525000D02*
X177545000Y-100025000D01*
X126315000Y-98525000D02*
X127815000Y-100025000D01*
X107000000Y-98500000D02*
X108500000Y-100000000D01*
X115315000Y-100025000D02*
X119065000Y-96275000D01*
X101799000Y-92451000D02*
X105000000Y-92451000D01*
X174045000Y-92476000D02*
X176045000Y-94476000D01*
X99750000Y-94500000D02*
X101799000Y-92451000D01*
X108500000Y-100000000D02*
X115270000Y-100000000D01*
X127840000Y-100000000D02*
X146000000Y-100000000D01*
X65000000Y-100000000D02*
X68750000Y-96250000D01*
X76000000Y-94451000D02*
X76000000Y-98500000D01*
D26*
X58800000Y-91700000D02*
X54400000Y-91700000D01*
D27*
X151799000Y-92451000D02*
X155000000Y-92451000D01*
X99750000Y-96250000D02*
X99750000Y-94500000D01*
X70799000Y-92451000D02*
X74000000Y-92451000D01*
D26*
X53500000Y-94700000D02*
X55000000Y-96200000D01*
D27*
X96000000Y-100000000D02*
X99750000Y-96250000D01*
X68750000Y-96250000D02*
X68750000Y-94500000D01*
X59300000Y-99980000D02*
X55020000Y-99980000D01*
X59320000Y-100000000D02*
X59300000Y-99980000D01*
X65000000Y-100000000D02*
X59320000Y-100000000D01*
X146000000Y-100000000D02*
X149750000Y-96250000D01*
D26*
X54400000Y-91700000D02*
X53500000Y-92600000D01*
D27*
X105000000Y-92451000D02*
X107000000Y-94451000D01*
X168795000Y-96275000D02*
X168795000Y-94525000D01*
X149750000Y-96250000D02*
X149750000Y-94500000D01*
X158500000Y-100000000D02*
X165020000Y-100000000D01*
X127815000Y-100025000D02*
X127840000Y-100000000D01*
D26*
X55000000Y-96200000D02*
X55000000Y-100000000D01*
D27*
X177545000Y-100025000D02*
X177570000Y-100000000D01*
D26*
X53500000Y-92600000D02*
X53500000Y-94700000D01*
D27*
X55020000Y-99980000D02*
X55000000Y-100000000D01*
X168795000Y-94525000D02*
X170844000Y-92476000D01*
X119065000Y-94525000D02*
X121114000Y-92476000D01*
X76000000Y-98500000D02*
X77500000Y-100000000D01*
X124315000Y-92476000D02*
X126315000Y-94476000D01*
X177570000Y-100000000D02*
X196000000Y-100000000D01*
X121114000Y-92476000D02*
X124315000Y-92476000D01*
X126315000Y-94476000D02*
X126315000Y-98525000D01*
%TO.N,GND*%
X119520000Y-103250000D02*
X122770000Y-100000000D01*
X103500000Y-100000000D02*
X106750000Y-103250000D01*
X150250000Y-103250000D02*
X153500000Y-100000000D01*
X59300000Y-107600000D02*
X59300000Y-105000000D01*
X59220000Y-105080000D02*
X55000000Y-105080000D01*
D26*
X49190000Y-68800000D02*
X49200000Y-68790000D01*
D27*
X59300000Y-105000000D02*
X59220000Y-105080000D01*
X200250000Y-103250000D02*
X203500000Y-100000000D01*
X59300000Y-105000000D02*
X61050000Y-103250000D01*
X156750000Y-103250000D02*
X169250000Y-103250000D01*
X72500000Y-100000000D02*
X75750000Y-103250000D01*
X126020000Y-103250000D02*
X150250000Y-103250000D01*
D26*
X45700000Y-68800000D02*
X49190000Y-68800000D01*
D27*
X59300000Y-118400000D02*
X59300000Y-107600000D01*
X61050000Y-103250000D02*
X69250000Y-103250000D01*
X75750000Y-103250000D02*
X100250000Y-103250000D01*
X169250000Y-103250000D02*
X172500000Y-100000000D01*
D26*
X43100000Y-73200000D02*
X43100000Y-69900000D01*
X49200000Y-68790000D02*
X52090000Y-68790000D01*
D27*
X55000000Y-122700000D02*
X59300000Y-118400000D01*
D26*
X44200000Y-68800000D02*
X45700000Y-68800000D01*
D27*
X100250000Y-103250000D02*
X103500000Y-100000000D01*
X122770000Y-100000000D02*
X126020000Y-103250000D01*
D26*
X48000000Y-79100000D02*
X59800000Y-79100000D01*
X40144887Y-77155113D02*
X40100000Y-77200000D01*
X44700000Y-77155113D02*
X46055113Y-77155113D01*
D27*
X172500000Y-100000000D02*
X175750000Y-103250000D01*
X153500000Y-100000000D02*
X156750000Y-103250000D01*
D26*
X46055113Y-77155113D02*
X48000000Y-79100000D01*
X52090000Y-68790000D02*
X54200000Y-70900000D01*
X44700000Y-74800000D02*
X43100000Y-73200000D01*
D27*
X175750000Y-103250000D02*
X200250000Y-103250000D01*
X69250000Y-103250000D02*
X72500000Y-100000000D01*
X106750000Y-103250000D02*
X119520000Y-103250000D01*
D26*
X44700000Y-77155113D02*
X40144887Y-77155113D01*
X43100000Y-69900000D02*
X44200000Y-68800000D01*
X44700000Y-77155113D02*
X44700000Y-74800000D01*
D27*
%TO.N,Net-(JP2-A)*%
X92510000Y-79760000D02*
X88750000Y-79760000D01*
D26*
X88750000Y-83350000D02*
X88750000Y-79760000D01*
D27*
X96000000Y-83250000D02*
X92510000Y-79760000D01*
X96000000Y-90000000D02*
X96000000Y-83250000D01*
D26*
%TO.N,Net-(JP2-B)*%
X88750000Y-84650000D02*
X88750000Y-95000000D01*
%TO.N,Net-(JP3-B)*%
X80000000Y-84650000D02*
X80000000Y-95000000D01*
D27*
%TO.N,Net-(JP3-A)*%
X65005000Y-85240000D02*
X70495000Y-79750000D01*
D26*
X80000000Y-83350000D02*
X80000000Y-79760000D01*
D27*
X65005000Y-89990000D02*
X65005000Y-85240000D01*
X70505000Y-79760000D02*
X80000000Y-79760000D01*
X70495000Y-79750000D02*
X70505000Y-79760000D01*
%TO.N,Net-(JP4-A)*%
X115252500Y-89980000D02*
X115252500Y-85230000D01*
X120752500Y-79750000D02*
X130247500Y-79750000D01*
X115252500Y-85230000D02*
X120742500Y-79740000D01*
D26*
X130270000Y-83350000D02*
X130270000Y-79760000D01*
%TO.N,Net-(JP4-B)*%
X130270000Y-84650000D02*
X130270000Y-95000000D01*
%TO.N,Net-(JP5-B)*%
X138750000Y-84650000D02*
X138750000Y-95000000D01*
%TO.N,Net-(JP5-A)*%
X138750000Y-83350000D02*
X138750000Y-79760000D01*
D27*
X142510000Y-79760000D02*
X138750000Y-79760000D01*
X146000000Y-90000000D02*
X146000000Y-83250000D01*
X146000000Y-83250000D02*
X142510000Y-79760000D01*
%TO.N,Net-(JP6-A)*%
X196000000Y-83250000D02*
X192510000Y-79760000D01*
X192510000Y-79760000D02*
X188750000Y-79760000D01*
X196000000Y-90000000D02*
X196000000Y-83250000D01*
D26*
X188750000Y-83350000D02*
X188750000Y-79760000D01*
%TO.N,Net-(JP6-B)*%
X188750000Y-84650000D02*
X188750000Y-95000000D01*
D27*
%TO.N,Net-(JP7-A)*%
X170505000Y-79760000D02*
X180000000Y-79760000D01*
D26*
X180000000Y-83350000D02*
X180000000Y-79760000D01*
D27*
X165005000Y-89990000D02*
X165005000Y-85240000D01*
X165005000Y-85240000D02*
X170495000Y-79750000D01*
D26*
%TO.N,Net-(JP7-B)*%
X180000000Y-84650000D02*
X180000000Y-95000000D01*
%TO.N,Net-(U1--)*%
X47470000Y-89670000D02*
X49410000Y-89670000D01*
X53500000Y-89700000D02*
X58800000Y-89700000D01*
X44930000Y-87130000D02*
X47470000Y-89670000D01*
X49410000Y-89670000D02*
X53470000Y-89670000D01*
X53470000Y-89670000D02*
X53500000Y-89700000D01*
X41790000Y-87130000D02*
X44930000Y-87130000D01*
%TO.N,Net-(U1-+)*%
X41760000Y-89700000D02*
X41790000Y-89670000D01*
X38100000Y-89700000D02*
X41760000Y-89700000D01*
X38100000Y-98200000D02*
X38100000Y-89700000D01*
D27*
%TO.N,Net-(JPX1-B)*%
X45550000Y-98200000D02*
X47350000Y-100000000D01*
X49900000Y-110000000D02*
X55000000Y-110000000D01*
X43100000Y-98200000D02*
X45550000Y-98200000D01*
X47350000Y-100000000D02*
X47350000Y-107450000D01*
X47350000Y-107450000D02*
X49900000Y-110000000D01*
D26*
%TO.N,VCC*%
X49410000Y-87130000D02*
X47630000Y-87130000D01*
X46900000Y-80100000D02*
X45955113Y-79155113D01*
X46900000Y-86400000D02*
X46900000Y-80100000D01*
X55100000Y-84100000D02*
X59800000Y-84100000D01*
X45955113Y-79155113D02*
X44700000Y-79155113D01*
X47630000Y-87130000D02*
X46900000Y-86400000D01*
X50770000Y-87130000D02*
X53800000Y-84100000D01*
X53800000Y-84100000D02*
X55100000Y-84100000D01*
X49410000Y-87130000D02*
X50770000Y-87130000D01*
%TO.N,GNDS*%
X38080000Y-68800000D02*
X38080000Y-72300000D01*
X38080000Y-72300000D02*
X38080000Y-77180000D01*
X38100000Y-77200000D02*
X38100000Y-82080000D01*
X38080000Y-77180000D02*
X38100000Y-77200000D01*
%TD*%
M02*
