M48
; DRILL file {KiCad 9.0.0+dfsg-1} date 2025-03-17T11:27:49+0100
; FORMAT={-:-/ absolute / metric / decimal}
; #@! TF.CreationDate,2025-03-17T11:27:49+01:00
; #@! TF.GenerationSoftware,Kicad,Pcbnew,9.0.0+dfsg-1
; #@! TF.FileFunction,Plated,1,2,PTH
FMAT,2
METRIC
; #@! TA.AperFunction,Plated,PTH,ComponentDrill
T1C0.800
; #@! TA.AperFunction,Plated,PTH,ComponentDrill
T2C0.900
; #@! TA.AperFunction,Plated,PTH,ComponentDrill
T3C1.500
; #@! TA.AperFunction,Plated,PTH,ComponentDrill
T4C1.520
%
G90
G05
T1
X65.4Y-99.55
X65.4Y-107.17
X80.4Y-99.55
X80.4Y-107.17
X95.4Y-99.55
X95.4Y-107.17
X110.4Y-99.55
X110.4Y-107.17
X125.4Y-99.55
X125.4Y-107.17
X140.4Y-99.55
X140.4Y-107.17
X155.4Y-99.55
X155.4Y-107.17
X170.4Y-99.55
X170.4Y-107.17
T2
X65.4Y-93.73
X65.4Y-96.27
X80.4Y-93.73
X80.4Y-96.27
X95.4Y-93.73
X95.4Y-96.27
X110.4Y-93.73
X110.4Y-96.27
X125.4Y-93.73
X125.4Y-96.27
X140.4Y-93.73
X140.4Y-96.27
X155.4Y-93.73
X155.4Y-96.27
X170.4Y-93.73
X170.4Y-96.27
T3
X176.905Y-92.005
X176.905Y-97.751
X179.778Y-87.029
X179.778Y-102.727
X184.754Y-84.156
X184.754Y-105.6
X184.905Y-97.601
X190.5Y-84.156
X190.5Y-105.6
X195.476Y-87.029
X195.476Y-102.727
X198.349Y-92.005
X198.349Y-97.751
T4
X62.9Y-84.17
X67.98Y-84.17
X77.9Y-84.17
X82.98Y-84.17
X92.9Y-84.17
X97.98Y-84.17
X107.9Y-84.17
X112.98Y-84.17
X122.9Y-84.17
X127.98Y-84.17
X137.9Y-84.17
X142.98Y-84.17
X152.9Y-84.17
X157.98Y-84.17
X167.9Y-84.17
X172.98Y-84.17
X202.06Y-84.1
X207.14Y-84.1
M30
