%TF.GenerationSoftware,KiCad,Pcbnew,9.0.0+dfsg-1*%
%TF.CreationDate,2025-03-19T00:42:50+01:00*%
%TF.ProjectId,control-matrix-8,636f6e74-726f-46c2-9d6d-61747269782d,1.0*%
%TF.SameCoordinates,Original*%
%TF.FileFunction,Copper,L1,Top*%
%TF.FilePolarity,Positive*%
%FSLAX46Y46*%
G04 Gerber Fmt 4.6, Leading zero omitted, Abs format (unit mm)*
G04 Created by KiCad (PCBNEW 9.0.0+dfsg-1) date 2025-03-19 00:42:50*
%MOMM*%
%LPD*%
G01*
G04 APERTURE LIST*
%TA.AperFunction,ComponentPad*%
%ADD10R,1.800000X1.800000*%
%TD*%
%TA.AperFunction,ComponentPad*%
%ADD11C,1.800000*%
%TD*%
%TA.AperFunction,ComponentPad*%
%ADD12C,2.250000*%
%TD*%
%TA.AperFunction,ComponentPad*%
%ADD13C,1.600000*%
%TD*%
%TA.AperFunction,ComponentPad*%
%ADD14O,1.600000X1.600000*%
%TD*%
%TA.AperFunction,ComponentPad*%
%ADD15R,3.000000X3.000000*%
%TD*%
%TA.AperFunction,ComponentPad*%
%ADD16C,3.000000*%
%TD*%
%TA.AperFunction,ViaPad*%
%ADD17C,0.600000*%
%TD*%
%TA.AperFunction,Conductor*%
%ADD18C,0.400000*%
%TD*%
G04 APERTURE END LIST*
D10*
%TO.P,D3,1,K*%
%TO.N,Net-(D3-K)*%
X95400000Y-93730000D03*
D11*
%TO.P,D3,2,A*%
%TO.N,Net-(D3-A)*%
X95400000Y-96270000D03*
%TD*%
D12*
%TO.P,SW1,1,1*%
%TO.N,unconnected-(SW1-Pad1)*%
X184754220Y-105600000D03*
%TO.P,SW1,2,2*%
%TO.N,Net-(D1-K)*%
X179778230Y-102727110D03*
%TO.P,SW1,3,3*%
%TO.N,Net-(D2-K)*%
X176905330Y-97751110D03*
%TO.P,SW1,4,4*%
%TO.N,Net-(D3-K)*%
X176905330Y-92005330D03*
%TO.P,SW1,5,5*%
%TO.N,Net-(D4-K)*%
X179778230Y-87029340D03*
%TO.P,SW1,6,6*%
%TO.N,Net-(D5-K)*%
X184754220Y-84156450D03*
%TO.P,SW1,7,7*%
%TO.N,Net-(D6-K)*%
X190500000Y-84156450D03*
%TO.P,SW1,8,8*%
%TO.N,Net-(D7-K)*%
X195476000Y-87029340D03*
%TO.P,SW1,9,9*%
%TO.N,Net-(D8-K)*%
X198348890Y-92005329D03*
%TO.P,SW1,10,10*%
%TO.N,unconnected-(SW1-Pad10)*%
X198348890Y-97751110D03*
%TO.P,SW1,11,11*%
%TO.N,unconnected-(SW1-Pad11)*%
X195476000Y-102727110D03*
%TO.P,SW1,12,12*%
%TO.N,unconnected-(SW1-Pad12)*%
X190500000Y-105600000D03*
%TO.P,SW1,13,13*%
%TO.N,GND*%
X184904750Y-97600580D03*
%TD*%
D13*
%TO.P,R8,1*%
%TO.N,+12V*%
X170400000Y-107170000D03*
D14*
%TO.P,R8,2*%
%TO.N,Net-(D8-A)*%
X170400000Y-99550000D03*
%TD*%
D13*
%TO.P,R7,1*%
%TO.N,+12V*%
X155400000Y-107170000D03*
D14*
%TO.P,R7,2*%
%TO.N,Net-(D7-A)*%
X155400000Y-99550000D03*
%TD*%
D13*
%TO.P,R2,1*%
%TO.N,+12V*%
X80400000Y-107170000D03*
D14*
%TO.P,R2,2*%
%TO.N,Net-(D2-A)*%
X80400000Y-99550000D03*
%TD*%
D10*
%TO.P,D2,1,K*%
%TO.N,Net-(D2-K)*%
X80400000Y-93730000D03*
D11*
%TO.P,D2,2,A*%
%TO.N,Net-(D2-A)*%
X80400000Y-96270000D03*
%TD*%
D10*
%TO.P,D6,1,K*%
%TO.N,Net-(D6-K)*%
X140400000Y-93730000D03*
D11*
%TO.P,D6,2,A*%
%TO.N,Net-(D6-A)*%
X140400000Y-96270000D03*
%TD*%
D13*
%TO.P,R6,1*%
%TO.N,+12V*%
X140400000Y-107170000D03*
D14*
%TO.P,R6,2*%
%TO.N,Net-(D6-A)*%
X140400000Y-99550000D03*
%TD*%
D10*
%TO.P,D5,1,K*%
%TO.N,Net-(D5-K)*%
X125400000Y-93730000D03*
D11*
%TO.P,D5,2,A*%
%TO.N,Net-(D5-A)*%
X125400000Y-96270000D03*
%TD*%
D10*
%TO.P,D7,1,K*%
%TO.N,Net-(D7-K)*%
X155400000Y-93730000D03*
D11*
%TO.P,D7,2,A*%
%TO.N,Net-(D7-A)*%
X155400000Y-96270000D03*
%TD*%
D10*
%TO.P,D4,1,K*%
%TO.N,Net-(D4-K)*%
X110400000Y-93730000D03*
D11*
%TO.P,D4,2,A*%
%TO.N,Net-(D4-A)*%
X110400000Y-96270000D03*
%TD*%
D13*
%TO.P,R5,1*%
%TO.N,+12V*%
X125400000Y-107170000D03*
D14*
%TO.P,R5,2*%
%TO.N,Net-(D5-A)*%
X125400000Y-99550000D03*
%TD*%
D13*
%TO.P,R4,1*%
%TO.N,+12V*%
X110400000Y-107170000D03*
D14*
%TO.P,R4,2*%
%TO.N,Net-(D4-A)*%
X110400000Y-99550000D03*
%TD*%
D10*
%TO.P,D8,1,K*%
%TO.N,Net-(D8-K)*%
X170400000Y-93730000D03*
D11*
%TO.P,D8,2,A*%
%TO.N,Net-(D8-A)*%
X170400000Y-96270000D03*
%TD*%
D13*
%TO.P,R1,1*%
%TO.N,+12V*%
X65400000Y-107170000D03*
D14*
%TO.P,R1,2*%
%TO.N,Net-(D1-A)*%
X65400000Y-99550000D03*
%TD*%
D10*
%TO.P,D1,1,K*%
%TO.N,Net-(D1-K)*%
X65400000Y-93730000D03*
D11*
%TO.P,D1,2,A*%
%TO.N,Net-(D1-A)*%
X65400000Y-96270000D03*
%TD*%
D13*
%TO.P,R3,1*%
%TO.N,+12V*%
X95400000Y-107170000D03*
D14*
%TO.P,R3,2*%
%TO.N,Net-(D3-A)*%
X95400000Y-99550000D03*
%TD*%
D15*
%TO.P,J1,1,Pin_1*%
%TO.N,Net-(D1-K)*%
X62900000Y-84170000D03*
D16*
%TO.P,J1,2,Pin_2*%
X67980000Y-84170000D03*
%TD*%
D15*
%TO.P,J7,1,Pin_1*%
%TO.N,Net-(D7-K)*%
X152900000Y-84170000D03*
D16*
%TO.P,J7,2,Pin_2*%
X157980000Y-84170000D03*
%TD*%
D15*
%TO.P,J2,1,Pin_1*%
%TO.N,Net-(D2-K)*%
X77900000Y-84170000D03*
D16*
%TO.P,J2,2,Pin_2*%
X82980000Y-84170000D03*
%TD*%
D15*
%TO.P,J6,1,Pin_1*%
%TO.N,Net-(D6-K)*%
X137900000Y-84170000D03*
D16*
%TO.P,J6,2,Pin_2*%
X142980000Y-84170000D03*
%TD*%
D15*
%TO.P,J8,1,Pin_1*%
%TO.N,Net-(D8-K)*%
X167900000Y-84170000D03*
D16*
%TO.P,J8,2,Pin_2*%
X172980000Y-84170000D03*
%TD*%
D15*
%TO.P,J3,1,Pin_1*%
%TO.N,Net-(D3-K)*%
X92900000Y-84170000D03*
D16*
%TO.P,J3,2,Pin_2*%
X97980000Y-84170000D03*
%TD*%
D15*
%TO.P,J4,1,Pin_1*%
%TO.N,Net-(D4-K)*%
X107900000Y-84170000D03*
D16*
%TO.P,J4,2,Pin_2*%
X112980000Y-84170000D03*
%TD*%
D15*
%TO.P,J9,1,Pin_1*%
%TO.N,GND*%
X202060000Y-84100000D03*
D16*
%TO.P,J9,2,Pin_2*%
%TO.N,+12V*%
X207140000Y-84100000D03*
%TD*%
D15*
%TO.P,J5,1,Pin_1*%
%TO.N,Net-(D5-K)*%
X122900000Y-84170000D03*
D16*
%TO.P,J5,2,Pin_2*%
X127980000Y-84170000D03*
%TD*%
D17*
%TO.N,GND*%
X163200000Y-88500000D03*
X133300000Y-89500000D03*
%TD*%
D18*
%TO.N,Net-(D1-K)*%
X67980000Y-84170000D02*
X65400000Y-86750000D01*
X62900000Y-84170000D02*
X67980000Y-84170000D01*
X65400000Y-86750000D02*
X65400000Y-93730000D01*
%TO.N,Net-(D1-A)*%
X65400000Y-96270000D02*
X65400000Y-99550000D01*
%TO.N,Net-(D2-A)*%
X80400000Y-96270000D02*
X80400000Y-99550000D01*
%TO.N,Net-(D2-K)*%
X80400000Y-86750000D02*
X80400000Y-93730000D01*
X82980000Y-84170000D02*
X80400000Y-86750000D01*
X77900000Y-84170000D02*
X82980000Y-84170000D01*
%TO.N,Net-(D3-K)*%
X98500000Y-95100000D02*
X98500000Y-103900000D01*
X100450000Y-105850000D02*
X114250000Y-105850000D01*
X95400000Y-91170000D02*
X95400000Y-86750000D01*
X154800000Y-105800000D02*
X172300000Y-105800000D01*
X92900000Y-84170000D02*
X97980000Y-84170000D01*
X95400000Y-91170000D02*
X95400000Y-93730000D01*
X95400000Y-93730000D02*
X97130000Y-93730000D01*
X116200000Y-107800000D02*
X122900000Y-107800000D01*
X97130000Y-93730000D02*
X98500000Y-95100000D01*
X152800000Y-107800000D02*
X154800000Y-105800000D01*
X172300000Y-105800000D02*
X174700000Y-103400000D01*
X98500000Y-103900000D02*
X100450000Y-105850000D01*
X174700000Y-94210660D02*
X176905330Y-92005330D01*
X122900000Y-107800000D02*
X124900000Y-105800000D01*
X124900000Y-105800000D02*
X142500000Y-105800000D01*
X142500000Y-105800000D02*
X144500000Y-107800000D01*
X174700000Y-103400000D02*
X174700000Y-94210660D01*
X114250000Y-105850000D02*
X116200000Y-107800000D01*
X95400000Y-86750000D02*
X97980000Y-84170000D01*
X144500000Y-107800000D02*
X152800000Y-107800000D01*
%TO.N,Net-(D3-A)*%
X95400000Y-96270000D02*
X95400000Y-99550000D01*
%TO.N,Net-(D4-A)*%
X110400000Y-96270000D02*
X110400000Y-99550000D01*
%TO.N,Net-(D4-K)*%
X107900000Y-84170000D02*
X112980000Y-84170000D01*
X112980000Y-84170000D02*
X110400000Y-86750000D01*
X110400000Y-86750000D02*
X110400000Y-93730000D01*
%TO.N,Net-(D5-K)*%
X125400000Y-91170000D02*
X125400000Y-86750000D01*
X127019516Y-93730000D02*
X128400000Y-95110484D01*
X169301000Y-105099000D02*
X172900000Y-101500000D01*
X128400000Y-103200000D02*
X130299000Y-105099000D01*
X125400000Y-93730000D02*
X127019516Y-93730000D01*
X154509636Y-105099000D02*
X169301000Y-105099000D01*
X130299000Y-105099000D02*
X142790364Y-105099000D01*
X144790364Y-107099000D02*
X152509636Y-107099000D01*
X142790364Y-105099000D02*
X144790364Y-107099000D01*
X172900000Y-101500000D02*
X172900000Y-88500000D01*
X125400000Y-86750000D02*
X127980000Y-84170000D01*
X128400000Y-95110484D02*
X128400000Y-103200000D01*
X122900000Y-84170000D02*
X127980000Y-84170000D01*
X125400000Y-91170000D02*
X125400000Y-93730000D01*
X152509636Y-107099000D02*
X154509636Y-105099000D01*
%TO.N,Net-(D5-A)*%
X125400000Y-96270000D02*
X125400000Y-99550000D01*
%TO.N,Net-(D6-A)*%
X140400000Y-96270000D02*
X140400000Y-99550000D01*
%TO.N,Net-(D6-K)*%
X142980000Y-84170000D02*
X146450000Y-80700000D01*
X140400000Y-86750000D02*
X140400000Y-93730000D01*
X142980000Y-84170000D02*
X140400000Y-86750000D01*
X137900000Y-84170000D02*
X142980000Y-84170000D01*
X146450000Y-80700000D02*
X187043550Y-80700000D01*
X187043550Y-80700000D02*
X190500000Y-84156450D01*
%TO.N,Net-(D7-K)*%
X186370660Y-81600000D02*
X188300000Y-83529340D01*
X155400000Y-93730000D02*
X155400000Y-86750000D01*
X189700000Y-87029340D02*
X195476000Y-87029340D01*
X155400000Y-86750000D02*
X157980000Y-84170000D01*
X188300000Y-83529340D02*
X188300000Y-85629340D01*
X188300000Y-85629340D02*
X189700000Y-87029340D01*
X160550000Y-81600000D02*
X186370660Y-81600000D01*
X157980000Y-84170000D02*
X160550000Y-81600000D01*
X152900000Y-84170000D02*
X157980000Y-84170000D01*
%TO.N,Net-(D7-A)*%
X155400000Y-99550000D02*
X155400000Y-96270000D01*
%TO.N,+12V*%
X207140000Y-84100000D02*
X207140000Y-102660000D01*
X140400000Y-107170000D02*
X142479000Y-109249000D01*
X127479000Y-109249000D02*
X138321000Y-109249000D01*
X172479000Y-109249000D02*
X200551000Y-109249000D01*
X93321000Y-109249000D02*
X95400000Y-107170000D01*
X138321000Y-109249000D02*
X140400000Y-107170000D01*
X67479000Y-109249000D02*
X77750000Y-109249000D01*
X142479000Y-109249000D02*
X153321000Y-109249000D01*
X153321000Y-109249000D02*
X155400000Y-107170000D01*
X170400000Y-107170000D02*
X172479000Y-109249000D01*
X95400000Y-107170000D02*
X97479000Y-109249000D01*
X108321000Y-109249000D02*
X110400000Y-107170000D01*
X168271000Y-109299000D02*
X170400000Y-107170000D01*
X112479000Y-109249000D02*
X123321000Y-109249000D01*
X78301000Y-109249000D02*
X80380000Y-107170000D01*
X155400000Y-107170000D02*
X155470000Y-107170000D01*
X157599000Y-109299000D02*
X168271000Y-109299000D01*
X155470000Y-107170000D02*
X157599000Y-109299000D01*
X80400000Y-107170000D02*
X82479000Y-109249000D01*
X110400000Y-107170000D02*
X112479000Y-109249000D01*
X97479000Y-109249000D02*
X108321000Y-109249000D01*
X123321000Y-109249000D02*
X125400000Y-107170000D01*
X80380000Y-107170000D02*
X80400000Y-107170000D01*
X77750000Y-109249000D02*
X78301000Y-109249000D01*
X82479000Y-109249000D02*
X93321000Y-109249000D01*
X65400000Y-107170000D02*
X67479000Y-109249000D01*
X125400000Y-107170000D02*
X127479000Y-109249000D01*
X207140000Y-102660000D02*
X200551000Y-109249000D01*
%TO.N,Net-(D8-K)*%
X172980000Y-84170000D02*
X174650000Y-82500000D01*
X187000000Y-90000000D02*
X189005329Y-92005329D01*
X170400000Y-86750000D02*
X172980000Y-84170000D01*
X189005329Y-92005329D02*
X198348890Y-92005329D01*
X172980000Y-84170000D02*
X167900000Y-84170000D01*
X185600000Y-82500000D02*
X187000000Y-83900000D01*
X187000000Y-83900000D02*
X187000000Y-90000000D01*
X170400000Y-93730000D02*
X170400000Y-86750000D01*
X174650000Y-82500000D02*
X185600000Y-82500000D01*
%TO.N,Net-(D8-A)*%
X170400000Y-96270000D02*
X170400000Y-99550000D01*
%TO.N,Net-(D5-K)*%
X177243550Y-84156450D02*
X184754220Y-84156450D01*
X172900000Y-88500000D02*
X177243550Y-84156450D01*
%TD*%
%TA.AperFunction,Conductor*%
%TO.N,GND*%
G36*
X145426520Y-80520185D02*
G01*
X145472275Y-80572989D01*
X145482219Y-80642147D01*
X145453194Y-80705703D01*
X145447162Y-80712181D01*
X143869201Y-82290140D01*
X143807878Y-82323625D01*
X143738186Y-82318641D01*
X143734079Y-82317024D01*
X143697705Y-82301958D01*
X143624428Y-82271605D01*
X143624421Y-82271603D01*
X143624419Y-82271602D01*
X143371116Y-82203730D01*
X143313339Y-82196123D01*
X143111127Y-82169500D01*
X143111120Y-82169500D01*
X142848880Y-82169500D01*
X142848872Y-82169500D01*
X142617772Y-82199926D01*
X142588884Y-82203730D01*
X142421307Y-82248632D01*
X142335581Y-82271602D01*
X142335571Y-82271605D01*
X142093309Y-82371953D01*
X142093299Y-82371958D01*
X141866196Y-82503075D01*
X141658148Y-82662718D01*
X141472718Y-82848148D01*
X141313075Y-83056196D01*
X141181958Y-83283299D01*
X141181951Y-83283314D01*
X141136539Y-83392952D01*
X141092699Y-83447356D01*
X141026405Y-83469421D01*
X141021978Y-83469500D01*
X140024499Y-83469500D01*
X139957460Y-83449815D01*
X139911705Y-83397011D01*
X139900499Y-83345500D01*
X139900499Y-82622129D01*
X139900498Y-82622123D01*
X139900497Y-82622116D01*
X139894091Y-82562517D01*
X139894090Y-82562515D01*
X139843797Y-82427671D01*
X139843793Y-82427664D01*
X139757547Y-82312455D01*
X139757544Y-82312452D01*
X139642335Y-82226206D01*
X139642328Y-82226202D01*
X139507482Y-82175908D01*
X139507483Y-82175908D01*
X139447883Y-82169501D01*
X139447881Y-82169500D01*
X139447873Y-82169500D01*
X139447864Y-82169500D01*
X136352129Y-82169500D01*
X136352123Y-82169501D01*
X136292516Y-82175908D01*
X136157671Y-82226202D01*
X136157664Y-82226206D01*
X136042455Y-82312452D01*
X136042452Y-82312455D01*
X135956206Y-82427664D01*
X135956202Y-82427671D01*
X135905908Y-82562517D01*
X135899501Y-82622116D01*
X135899501Y-82622123D01*
X135899500Y-82622135D01*
X135899500Y-85717870D01*
X135899501Y-85717876D01*
X135905908Y-85777483D01*
X135956202Y-85912328D01*
X135956206Y-85912335D01*
X136042452Y-86027544D01*
X136042455Y-86027547D01*
X136157664Y-86113793D01*
X136157671Y-86113797D01*
X136292517Y-86164091D01*
X136292516Y-86164091D01*
X136299444Y-86164835D01*
X136352127Y-86170500D01*
X139447872Y-86170499D01*
X139507483Y-86164091D01*
X139642331Y-86113796D01*
X139757546Y-86027546D01*
X139843796Y-85912331D01*
X139894091Y-85777483D01*
X139900500Y-85717873D01*
X139900500Y-84994500D01*
X139920185Y-84927461D01*
X139972989Y-84881706D01*
X140024500Y-84870500D01*
X140989480Y-84870500D01*
X141056519Y-84890185D01*
X141102274Y-84942989D01*
X141112218Y-85012147D01*
X141083193Y-85075703D01*
X141077161Y-85082181D01*
X139855890Y-86303451D01*
X139855887Y-86303454D01*
X139787793Y-86405366D01*
X139787792Y-86405367D01*
X139779227Y-86418184D01*
X139779222Y-86418193D01*
X139726421Y-86545667D01*
X139726418Y-86545677D01*
X139699500Y-86681004D01*
X139699500Y-92205500D01*
X139679815Y-92272539D01*
X139627011Y-92318294D01*
X139575501Y-92329500D01*
X139452130Y-92329500D01*
X139452123Y-92329501D01*
X139392516Y-92335908D01*
X139257671Y-92386202D01*
X139257664Y-92386206D01*
X139142455Y-92472452D01*
X139142452Y-92472455D01*
X139056206Y-92587664D01*
X139056202Y-92587671D01*
X139005908Y-92722517D01*
X139000424Y-92773534D01*
X138999501Y-92782123D01*
X138999500Y-92782135D01*
X138999501Y-94677869D01*
X139005908Y-94737483D01*
X139056202Y-94872328D01*
X139056206Y-94872335D01*
X139142452Y-94987544D01*
X139142455Y-94987547D01*
X139257664Y-95073793D01*
X139257671Y-95073797D01*
X139337580Y-95103601D01*
X139393514Y-95145472D01*
X139417931Y-95210936D01*
X139403080Y-95279209D01*
X139381929Y-95307463D01*
X139331756Y-95357636D01*
X139331752Y-95357641D01*
X139202187Y-95535974D01*
X139102104Y-95732393D01*
X139102103Y-95732396D01*
X139033985Y-95942047D01*
X139033985Y-95942049D01*
X138999500Y-96159778D01*
X138999500Y-96380222D01*
X139001724Y-96394265D01*
X139033985Y-96597952D01*
X139102103Y-96807603D01*
X139102104Y-96807606D01*
X139202187Y-97004025D01*
X139331752Y-97182358D01*
X139331756Y-97182363D01*
X139331758Y-97182365D01*
X139487635Y-97338242D01*
X139648386Y-97455034D01*
X139691051Y-97510362D01*
X139699500Y-97555351D01*
X139699500Y-98388255D01*
X139679815Y-98455294D01*
X139648385Y-98488573D01*
X139552787Y-98558028D01*
X139552782Y-98558032D01*
X139408028Y-98702786D01*
X139287715Y-98868386D01*
X139194781Y-99050776D01*
X139131522Y-99245465D01*
X139099500Y-99447648D01*
X139099500Y-99652351D01*
X139131522Y-99854534D01*
X139194781Y-100049223D01*
X139287715Y-100231613D01*
X139408028Y-100397213D01*
X139552786Y-100541971D01*
X139707749Y-100654556D01*
X139718390Y-100662287D01*
X139834607Y-100721503D01*
X139900776Y-100755218D01*
X139900778Y-100755218D01*
X139900781Y-100755220D01*
X140005137Y-100789127D01*
X140095465Y-100818477D01*
X140196557Y-100834488D01*
X140297648Y-100850500D01*
X140297649Y-100850500D01*
X140502351Y-100850500D01*
X140502352Y-100850500D01*
X140704534Y-100818477D01*
X140899219Y-100755220D01*
X141081610Y-100662287D01*
X141174590Y-100594732D01*
X141247213Y-100541971D01*
X141247215Y-100541968D01*
X141247219Y-100541966D01*
X141391966Y-100397219D01*
X141391968Y-100397215D01*
X141391971Y-100397213D01*
X141444732Y-100324590D01*
X141512287Y-100231610D01*
X141605220Y-100049219D01*
X141668477Y-99854534D01*
X141700500Y-99652352D01*
X141700500Y-99447648D01*
X141682909Y-99336583D01*
X141668477Y-99245465D01*
X141605218Y-99050776D01*
X141534878Y-98912728D01*
X141512287Y-98868390D01*
X141482207Y-98826988D01*
X141391971Y-98702786D01*
X141247217Y-98558032D01*
X141247212Y-98558028D01*
X141151615Y-98488573D01*
X141108949Y-98433243D01*
X141100500Y-98388255D01*
X141100500Y-97555351D01*
X141120185Y-97488312D01*
X141151611Y-97455035D01*
X141312365Y-97338242D01*
X141468242Y-97182365D01*
X141597815Y-97004022D01*
X141697895Y-96807606D01*
X141766015Y-96597951D01*
X141800500Y-96380222D01*
X141800500Y-96159778D01*
X141766015Y-95942049D01*
X141697895Y-95732394D01*
X141697895Y-95732393D01*
X141628451Y-95596104D01*
X141597815Y-95535978D01*
X141499488Y-95400641D01*
X141468247Y-95357641D01*
X141468243Y-95357636D01*
X141418071Y-95307464D01*
X141384586Y-95246141D01*
X141389570Y-95176449D01*
X141431442Y-95120516D01*
X141462420Y-95103601D01*
X141542326Y-95073798D01*
X141542326Y-95073797D01*
X141542331Y-95073796D01*
X141657546Y-94987546D01*
X141743796Y-94872331D01*
X141794091Y-94737483D01*
X141800500Y-94677873D01*
X141800499Y-92782128D01*
X141794091Y-92722517D01*
X141779823Y-92684263D01*
X141743797Y-92587671D01*
X141743793Y-92587664D01*
X141657547Y-92472455D01*
X141657544Y-92472452D01*
X141542335Y-92386206D01*
X141542328Y-92386202D01*
X141407482Y-92335908D01*
X141407483Y-92335908D01*
X141347883Y-92329501D01*
X141347881Y-92329500D01*
X141347873Y-92329500D01*
X141347865Y-92329500D01*
X141224500Y-92329500D01*
X141157461Y-92309815D01*
X141111706Y-92257011D01*
X141100500Y-92205500D01*
X141100500Y-87091518D01*
X141120185Y-87024479D01*
X141136814Y-87003841D01*
X142090799Y-86049856D01*
X142152120Y-86016373D01*
X142221811Y-86021357D01*
X142225860Y-86022949D01*
X142335581Y-86068398D01*
X142588884Y-86136270D01*
X142837188Y-86168960D01*
X142848864Y-86170498D01*
X142848880Y-86170500D01*
X142848887Y-86170500D01*
X143111113Y-86170500D01*
X143111120Y-86170500D01*
X143371116Y-86136270D01*
X143624419Y-86068398D01*
X143866697Y-85968043D01*
X144093803Y-85836924D01*
X144301851Y-85677282D01*
X144301855Y-85677277D01*
X144301860Y-85677274D01*
X144487274Y-85491860D01*
X144487277Y-85491855D01*
X144487282Y-85491851D01*
X144646924Y-85283803D01*
X144778043Y-85056697D01*
X144878398Y-84814419D01*
X144946270Y-84561116D01*
X144980500Y-84301120D01*
X144980500Y-84038880D01*
X144946270Y-83778884D01*
X144878398Y-83525581D01*
X144832977Y-83415927D01*
X144825509Y-83346462D01*
X144856783Y-83283983D01*
X144859829Y-83280826D01*
X146363875Y-81776781D01*
X146425197Y-81743297D01*
X146494889Y-81748281D01*
X146550822Y-81790153D01*
X146575239Y-81855617D01*
X146562040Y-81920758D01*
X146509434Y-82024003D01*
X146436446Y-82248631D01*
X146399500Y-82481902D01*
X146399500Y-104918097D01*
X146436446Y-105151368D01*
X146509433Y-105375996D01*
X146558386Y-105472070D01*
X146616657Y-105586433D01*
X146755483Y-105777510D01*
X146922490Y-105944517D01*
X147113567Y-106083343D01*
X147271895Y-106164015D01*
X147322691Y-106211990D01*
X147339486Y-106279811D01*
X147316949Y-106345945D01*
X147262234Y-106389397D01*
X147215600Y-106398500D01*
X145131883Y-106398500D01*
X145064844Y-106378815D01*
X145044202Y-106362181D01*
X143236910Y-104554888D01*
X143236909Y-104554887D01*
X143122171Y-104478222D01*
X142994696Y-104425421D01*
X142994686Y-104425418D01*
X142859360Y-104398500D01*
X142859358Y-104398500D01*
X142859357Y-104398500D01*
X130640519Y-104398500D01*
X130573480Y-104378815D01*
X130552838Y-104362181D01*
X129136819Y-102946162D01*
X129103334Y-102884839D01*
X129100500Y-102858481D01*
X129100500Y-95041488D01*
X129079028Y-94933546D01*
X129079012Y-94933469D01*
X129078934Y-94933075D01*
X129073580Y-94906155D01*
X129062212Y-94878711D01*
X131149500Y-94878711D01*
X131149500Y-95121288D01*
X131180615Y-95357641D01*
X131181162Y-95361789D01*
X131195463Y-95415161D01*
X131243947Y-95596104D01*
X131336773Y-95820205D01*
X131336776Y-95820212D01*
X131458064Y-96030289D01*
X131458066Y-96030292D01*
X131458067Y-96030293D01*
X131605733Y-96222736D01*
X131605739Y-96222743D01*
X131777256Y-96394260D01*
X131777263Y-96394266D01*
X131890321Y-96481018D01*
X131969711Y-96541936D01*
X132179788Y-96663224D01*
X132249668Y-96692169D01*
X132386604Y-96748890D01*
X132403900Y-96756054D01*
X132638211Y-96818838D01*
X132818586Y-96842584D01*
X132878711Y-96850500D01*
X132878712Y-96850500D01*
X133121289Y-96850500D01*
X133169388Y-96844167D01*
X133361789Y-96818838D01*
X133596100Y-96756054D01*
X133820212Y-96663224D01*
X134030289Y-96541936D01*
X134222738Y-96394265D01*
X134394265Y-96222738D01*
X134541936Y-96030289D01*
X134663224Y-95820212D01*
X134756054Y-95596100D01*
X134818838Y-95361789D01*
X134850500Y-95121288D01*
X134850500Y-94878712D01*
X134849660Y-94872335D01*
X134832479Y-94741824D01*
X134818838Y-94638211D01*
X134756054Y-94403900D01*
X134663224Y-94179788D01*
X134541936Y-93969711D01*
X134394265Y-93777262D01*
X134394260Y-93777256D01*
X134222743Y-93605739D01*
X134222736Y-93605733D01*
X134030293Y-93458067D01*
X134030292Y-93458066D01*
X134030289Y-93458064D01*
X133820212Y-93336776D01*
X133820205Y-93336773D01*
X133596104Y-93243947D01*
X133478944Y-93212554D01*
X133361789Y-93181162D01*
X133361788Y-93181161D01*
X133361785Y-93181161D01*
X133121289Y-93149500D01*
X133121288Y-93149500D01*
X132878712Y-93149500D01*
X132878711Y-93149500D01*
X132638214Y-93181161D01*
X132403895Y-93243947D01*
X132179794Y-93336773D01*
X132179785Y-93336777D01*
X131969706Y-93458067D01*
X131777263Y-93605733D01*
X131777256Y-93605739D01*
X131605739Y-93777256D01*
X131605733Y-93777263D01*
X131458067Y-93969706D01*
X131336777Y-94179785D01*
X131336773Y-94179794D01*
X131243947Y-94403895D01*
X131181161Y-94638214D01*
X131149500Y-94878711D01*
X129062212Y-94878711D01*
X129042582Y-94831320D01*
X129020776Y-94778674D01*
X128944112Y-94663938D01*
X127466061Y-93185887D01*
X127351323Y-93109222D01*
X127223848Y-93056421D01*
X127223838Y-93056418D01*
X127088512Y-93029500D01*
X127088510Y-93029500D01*
X127088509Y-93029500D01*
X126924499Y-93029500D01*
X126857460Y-93009815D01*
X126811705Y-92957011D01*
X126800499Y-92905500D01*
X126800499Y-92782129D01*
X126800498Y-92782123D01*
X126800497Y-92782116D01*
X126794091Y-92722517D01*
X126779823Y-92684263D01*
X126743797Y-92587671D01*
X126743793Y-92587664D01*
X126657547Y-92472455D01*
X126657544Y-92472452D01*
X126542335Y-92386206D01*
X126542328Y-92386202D01*
X126407482Y-92335908D01*
X126407483Y-92335908D01*
X126347883Y-92329501D01*
X126347881Y-92329500D01*
X126347873Y-92329500D01*
X126347865Y-92329500D01*
X126224500Y-92329500D01*
X126157461Y-92309815D01*
X126111706Y-92257011D01*
X126100500Y-92205500D01*
X126100500Y-87091518D01*
X126120185Y-87024479D01*
X126136814Y-87003841D01*
X127090799Y-86049856D01*
X127152120Y-86016373D01*
X127221811Y-86021357D01*
X127225860Y-86022949D01*
X127335581Y-86068398D01*
X127588884Y-86136270D01*
X127837188Y-86168960D01*
X127848864Y-86170498D01*
X127848880Y-86170500D01*
X127848887Y-86170500D01*
X128111113Y-86170500D01*
X128111120Y-86170500D01*
X128371116Y-86136270D01*
X128624419Y-86068398D01*
X128866697Y-85968043D01*
X129093803Y-85836924D01*
X129301851Y-85677282D01*
X129301855Y-85677277D01*
X129301860Y-85677274D01*
X129487274Y-85491860D01*
X129487277Y-85491855D01*
X129487282Y-85491851D01*
X129646924Y-85283803D01*
X129778043Y-85056697D01*
X129878398Y-84814419D01*
X129946270Y-84561116D01*
X129980500Y-84301120D01*
X129980500Y-84038880D01*
X129946270Y-83778884D01*
X129878398Y-83525581D01*
X129878394Y-83525571D01*
X129778046Y-83283309D01*
X129778041Y-83283299D01*
X129646924Y-83056196D01*
X129487281Y-82848148D01*
X129487274Y-82848140D01*
X129301860Y-82662726D01*
X129301851Y-82662718D01*
X129093803Y-82503075D01*
X128866700Y-82371958D01*
X128866690Y-82371953D01*
X128624428Y-82271605D01*
X128624421Y-82271603D01*
X128624419Y-82271602D01*
X128371116Y-82203730D01*
X128313339Y-82196123D01*
X128111127Y-82169500D01*
X128111120Y-82169500D01*
X127848880Y-82169500D01*
X127848872Y-82169500D01*
X127617772Y-82199926D01*
X127588884Y-82203730D01*
X127421307Y-82248632D01*
X127335581Y-82271602D01*
X127335571Y-82271605D01*
X127093309Y-82371953D01*
X127093299Y-82371958D01*
X126866196Y-82503075D01*
X126658148Y-82662718D01*
X126472718Y-82848148D01*
X126313075Y-83056196D01*
X126181958Y-83283299D01*
X126181951Y-83283314D01*
X126136539Y-83392952D01*
X126092699Y-83447356D01*
X126026405Y-83469421D01*
X126021978Y-83469500D01*
X125024499Y-83469500D01*
X124957460Y-83449815D01*
X124911705Y-83397011D01*
X124900499Y-83345500D01*
X124900499Y-82622129D01*
X124900498Y-82622123D01*
X124900497Y-82622116D01*
X124894091Y-82562517D01*
X124894090Y-82562515D01*
X124843797Y-82427671D01*
X124843793Y-82427664D01*
X124757547Y-82312455D01*
X124757544Y-82312452D01*
X124642335Y-82226206D01*
X124642328Y-82226202D01*
X124507482Y-82175908D01*
X124507483Y-82175908D01*
X124447883Y-82169501D01*
X124447881Y-82169500D01*
X124447873Y-82169500D01*
X124447864Y-82169500D01*
X121352129Y-82169500D01*
X121352123Y-82169501D01*
X121292516Y-82175908D01*
X121157671Y-82226202D01*
X121157664Y-82226206D01*
X121042455Y-82312452D01*
X121042452Y-82312455D01*
X120956206Y-82427664D01*
X120956202Y-82427671D01*
X120905908Y-82562517D01*
X120899501Y-82622116D01*
X120899501Y-82622123D01*
X120899500Y-82622135D01*
X120899500Y-85717870D01*
X120899501Y-85717876D01*
X120905908Y-85777483D01*
X120956202Y-85912328D01*
X120956206Y-85912335D01*
X121042452Y-86027544D01*
X121042455Y-86027547D01*
X121157664Y-86113793D01*
X121157671Y-86113797D01*
X121292517Y-86164091D01*
X121292516Y-86164091D01*
X121299444Y-86164835D01*
X121352127Y-86170500D01*
X124447872Y-86170499D01*
X124507483Y-86164091D01*
X124642331Y-86113796D01*
X124757546Y-86027546D01*
X124843796Y-85912331D01*
X124894091Y-85777483D01*
X124900500Y-85717873D01*
X124900500Y-84994500D01*
X124920185Y-84927461D01*
X124972989Y-84881706D01*
X125024500Y-84870500D01*
X125989480Y-84870500D01*
X126056519Y-84890185D01*
X126102274Y-84942989D01*
X126112218Y-85012147D01*
X126083193Y-85075703D01*
X126077161Y-85082181D01*
X124855890Y-86303451D01*
X124855887Y-86303454D01*
X124787793Y-86405366D01*
X124787792Y-86405367D01*
X124779227Y-86418184D01*
X124779222Y-86418193D01*
X124726421Y-86545667D01*
X124726418Y-86545677D01*
X124699500Y-86681004D01*
X124699500Y-92205500D01*
X124679815Y-92272539D01*
X124627011Y-92318294D01*
X124575501Y-92329500D01*
X124452130Y-92329500D01*
X124452123Y-92329501D01*
X124392516Y-92335908D01*
X124257671Y-92386202D01*
X124257664Y-92386206D01*
X124142455Y-92472452D01*
X124142452Y-92472455D01*
X124056206Y-92587664D01*
X124056202Y-92587671D01*
X124005908Y-92722517D01*
X124000424Y-92773534D01*
X123999501Y-92782123D01*
X123999500Y-92782135D01*
X123999501Y-94677869D01*
X124005908Y-94737483D01*
X124056202Y-94872328D01*
X124056206Y-94872335D01*
X124142452Y-94987544D01*
X124142455Y-94987547D01*
X124257664Y-95073793D01*
X124257671Y-95073797D01*
X124337580Y-95103601D01*
X124393514Y-95145472D01*
X124417931Y-95210936D01*
X124403080Y-95279209D01*
X124381929Y-95307463D01*
X124331756Y-95357636D01*
X124331752Y-95357641D01*
X124202187Y-95535974D01*
X124102104Y-95732393D01*
X124102103Y-95732396D01*
X124033985Y-95942047D01*
X124033985Y-95942049D01*
X123999500Y-96159778D01*
X123999500Y-96380222D01*
X124001724Y-96394265D01*
X124033985Y-96597952D01*
X124102103Y-96807603D01*
X124102104Y-96807606D01*
X124202187Y-97004025D01*
X124331752Y-97182358D01*
X124331756Y-97182363D01*
X124331758Y-97182365D01*
X124487635Y-97338242D01*
X124648386Y-97455034D01*
X124691051Y-97510362D01*
X124699500Y-97555351D01*
X124699500Y-98388255D01*
X124679815Y-98455294D01*
X124648385Y-98488573D01*
X124552787Y-98558028D01*
X124552782Y-98558032D01*
X124408028Y-98702786D01*
X124287715Y-98868386D01*
X124194781Y-99050776D01*
X124131522Y-99245465D01*
X124099500Y-99447648D01*
X124099500Y-99652351D01*
X124131522Y-99854534D01*
X124194781Y-100049223D01*
X124287715Y-100231613D01*
X124408028Y-100397213D01*
X124552786Y-100541971D01*
X124707749Y-100654556D01*
X124718390Y-100662287D01*
X124834607Y-100721503D01*
X124900776Y-100755218D01*
X124900778Y-100755218D01*
X124900781Y-100755220D01*
X125005137Y-100789127D01*
X125095465Y-100818477D01*
X125196557Y-100834488D01*
X125297648Y-100850500D01*
X125297649Y-100850500D01*
X125502351Y-100850500D01*
X125502352Y-100850500D01*
X125704534Y-100818477D01*
X125899219Y-100755220D01*
X126081610Y-100662287D01*
X126174590Y-100594732D01*
X126247213Y-100541971D01*
X126247215Y-100541968D01*
X126247219Y-100541966D01*
X126391966Y-100397219D01*
X126391968Y-100397215D01*
X126391971Y-100397213D01*
X126444732Y-100324590D01*
X126512287Y-100231610D01*
X126605220Y-100049219D01*
X126668477Y-99854534D01*
X126700500Y-99652352D01*
X126700500Y-99447648D01*
X126682909Y-99336583D01*
X126668477Y-99245465D01*
X126605218Y-99050776D01*
X126534878Y-98912728D01*
X126512287Y-98868390D01*
X126482207Y-98826988D01*
X126391971Y-98702786D01*
X126247217Y-98558032D01*
X126247212Y-98558028D01*
X126151615Y-98488573D01*
X126108949Y-98433243D01*
X126100500Y-98388255D01*
X126100500Y-97555351D01*
X126120185Y-97488312D01*
X126151611Y-97455035D01*
X126312365Y-97338242D01*
X126468242Y-97182365D01*
X126597815Y-97004022D01*
X126697895Y-96807606D01*
X126766015Y-96597951D01*
X126800500Y-96380222D01*
X126800500Y-96159778D01*
X126766015Y-95942049D01*
X126697895Y-95732394D01*
X126697895Y-95732393D01*
X126628451Y-95596104D01*
X126597815Y-95535978D01*
X126499488Y-95400641D01*
X126468247Y-95357641D01*
X126468243Y-95357636D01*
X126418071Y-95307464D01*
X126384586Y-95246141D01*
X126389570Y-95176449D01*
X126431442Y-95120516D01*
X126462420Y-95103601D01*
X126542326Y-95073798D01*
X126542326Y-95073797D01*
X126542331Y-95073796D01*
X126657546Y-94987546D01*
X126743796Y-94872331D01*
X126792472Y-94741824D01*
X126834343Y-94685890D01*
X126899807Y-94661473D01*
X126968080Y-94676324D01*
X126996335Y-94697476D01*
X127663181Y-95364322D01*
X127696666Y-95425645D01*
X127699500Y-95452003D01*
X127699500Y-103131006D01*
X127699500Y-103268994D01*
X127699500Y-103268996D01*
X127699499Y-103268996D01*
X127726418Y-103404322D01*
X127726421Y-103404332D01*
X127779222Y-103531807D01*
X127855887Y-103646545D01*
X127855888Y-103646546D01*
X129097162Y-104887819D01*
X129130647Y-104949142D01*
X129125663Y-105018834D01*
X129083791Y-105074767D01*
X129018327Y-105099184D01*
X129009481Y-105099500D01*
X124831005Y-105099500D01*
X124695677Y-105126418D01*
X124695667Y-105126421D01*
X124568192Y-105179222D01*
X124453454Y-105255887D01*
X124453453Y-105255888D01*
X122646162Y-107063181D01*
X122584839Y-107096666D01*
X122558481Y-107099500D01*
X116541518Y-107099500D01*
X116474479Y-107079815D01*
X116453837Y-107063181D01*
X114696546Y-105305888D01*
X114696545Y-105305887D01*
X114581807Y-105229222D01*
X114454332Y-105176421D01*
X114454322Y-105176418D01*
X114318996Y-105149500D01*
X114318994Y-105149500D01*
X114318993Y-105149500D01*
X100791518Y-105149500D01*
X100724479Y-105129815D01*
X100703837Y-105113181D01*
X99236819Y-103646162D01*
X99203334Y-103584839D01*
X99200500Y-103558481D01*
X99200500Y-95031004D01*
X99174211Y-94898845D01*
X99174211Y-94898844D01*
X99174210Y-94898843D01*
X99173580Y-94895672D01*
X99166555Y-94878711D01*
X101149500Y-94878711D01*
X101149500Y-95121288D01*
X101180615Y-95357641D01*
X101181162Y-95361789D01*
X101195463Y-95415161D01*
X101243947Y-95596104D01*
X101336773Y-95820205D01*
X101336776Y-95820212D01*
X101458064Y-96030289D01*
X101458066Y-96030292D01*
X101458067Y-96030293D01*
X101605733Y-96222736D01*
X101605739Y-96222743D01*
X101777256Y-96394260D01*
X101777263Y-96394266D01*
X101890321Y-96481018D01*
X101969711Y-96541936D01*
X102179788Y-96663224D01*
X102249668Y-96692169D01*
X102386604Y-96748890D01*
X102403900Y-96756054D01*
X102638211Y-96818838D01*
X102818586Y-96842584D01*
X102878711Y-96850500D01*
X102878712Y-96850500D01*
X103121289Y-96850500D01*
X103169388Y-96844167D01*
X103361789Y-96818838D01*
X103596100Y-96756054D01*
X103820212Y-96663224D01*
X104030289Y-96541936D01*
X104222738Y-96394265D01*
X104394265Y-96222738D01*
X104541936Y-96030289D01*
X104663224Y-95820212D01*
X104756054Y-95596100D01*
X104818838Y-95361789D01*
X104850500Y-95121288D01*
X104850500Y-94878712D01*
X104849660Y-94872335D01*
X104832479Y-94741824D01*
X104818838Y-94638211D01*
X104756054Y-94403900D01*
X104663224Y-94179788D01*
X104541936Y-93969711D01*
X104394265Y-93777262D01*
X104394260Y-93777256D01*
X104222743Y-93605739D01*
X104222736Y-93605733D01*
X104030293Y-93458067D01*
X104030292Y-93458066D01*
X104030289Y-93458064D01*
X103820212Y-93336776D01*
X103820205Y-93336773D01*
X103596104Y-93243947D01*
X103478944Y-93212554D01*
X103361789Y-93181162D01*
X103361788Y-93181161D01*
X103361785Y-93181161D01*
X103121289Y-93149500D01*
X103121288Y-93149500D01*
X102878712Y-93149500D01*
X102878711Y-93149500D01*
X102638214Y-93181161D01*
X102403895Y-93243947D01*
X102179794Y-93336773D01*
X102179785Y-93336777D01*
X101969706Y-93458067D01*
X101777263Y-93605733D01*
X101777256Y-93605739D01*
X101605739Y-93777256D01*
X101605733Y-93777263D01*
X101458067Y-93969706D01*
X101336777Y-94179785D01*
X101336773Y-94179794D01*
X101243947Y-94403895D01*
X101181161Y-94638214D01*
X101149500Y-94878711D01*
X99166555Y-94878711D01*
X99125118Y-94778673D01*
X99120778Y-94768195D01*
X99120776Y-94768191D01*
X99120775Y-94768189D01*
X99060427Y-94677872D01*
X99049470Y-94661473D01*
X99044116Y-94653459D01*
X99044114Y-94653457D01*
X97576546Y-93185888D01*
X97576545Y-93185887D01*
X97461807Y-93109222D01*
X97334332Y-93056421D01*
X97334322Y-93056418D01*
X97198996Y-93029500D01*
X97198994Y-93029500D01*
X97198993Y-93029500D01*
X96924499Y-93029500D01*
X96857460Y-93009815D01*
X96811705Y-92957011D01*
X96800499Y-92905500D01*
X96800499Y-92782129D01*
X96800498Y-92782123D01*
X96800497Y-92782116D01*
X96794091Y-92722517D01*
X96779823Y-92684263D01*
X96743797Y-92587671D01*
X96743793Y-92587664D01*
X96657547Y-92472455D01*
X96657544Y-92472452D01*
X96542335Y-92386206D01*
X96542328Y-92386202D01*
X96407482Y-92335908D01*
X96407483Y-92335908D01*
X96347883Y-92329501D01*
X96347881Y-92329500D01*
X96347873Y-92329500D01*
X96347865Y-92329500D01*
X96224500Y-92329500D01*
X96157461Y-92309815D01*
X96111706Y-92257011D01*
X96100500Y-92205500D01*
X96100500Y-87091518D01*
X96120185Y-87024479D01*
X96136814Y-87003841D01*
X97090799Y-86049856D01*
X97152120Y-86016373D01*
X97221811Y-86021357D01*
X97225860Y-86022949D01*
X97335581Y-86068398D01*
X97588884Y-86136270D01*
X97837188Y-86168960D01*
X97848864Y-86170498D01*
X97848880Y-86170500D01*
X97848887Y-86170500D01*
X98111113Y-86170500D01*
X98111120Y-86170500D01*
X98371116Y-86136270D01*
X98624419Y-86068398D01*
X98866697Y-85968043D01*
X99093803Y-85836924D01*
X99301851Y-85677282D01*
X99301855Y-85677277D01*
X99301860Y-85677274D01*
X99487274Y-85491860D01*
X99487277Y-85491855D01*
X99487282Y-85491851D01*
X99646924Y-85283803D01*
X99778043Y-85056697D01*
X99878398Y-84814419D01*
X99946270Y-84561116D01*
X99980500Y-84301120D01*
X99980500Y-84038880D01*
X99946270Y-83778884D01*
X99878398Y-83525581D01*
X99878394Y-83525571D01*
X99778046Y-83283309D01*
X99778041Y-83283299D01*
X99646924Y-83056196D01*
X99487281Y-82848148D01*
X99487274Y-82848140D01*
X99301860Y-82662726D01*
X99301851Y-82662718D01*
X99248963Y-82622135D01*
X105899500Y-82622135D01*
X105899500Y-85717870D01*
X105899501Y-85717876D01*
X105905908Y-85777483D01*
X105956202Y-85912328D01*
X105956206Y-85912335D01*
X106042452Y-86027544D01*
X106042455Y-86027547D01*
X106157664Y-86113793D01*
X106157671Y-86113797D01*
X106292517Y-86164091D01*
X106292516Y-86164091D01*
X106299444Y-86164835D01*
X106352127Y-86170500D01*
X109447872Y-86170499D01*
X109507483Y-86164091D01*
X109642331Y-86113796D01*
X109757546Y-86027546D01*
X109843796Y-85912331D01*
X109894091Y-85777483D01*
X109900500Y-85717873D01*
X109900500Y-84994500D01*
X109920185Y-84927461D01*
X109972989Y-84881706D01*
X110024500Y-84870500D01*
X110989480Y-84870500D01*
X111056519Y-84890185D01*
X111102274Y-84942989D01*
X111112218Y-85012147D01*
X111083193Y-85075703D01*
X111077161Y-85082181D01*
X109855890Y-86303451D01*
X109855887Y-86303454D01*
X109787793Y-86405366D01*
X109787792Y-86405367D01*
X109779227Y-86418184D01*
X109779222Y-86418193D01*
X109726421Y-86545667D01*
X109726418Y-86545677D01*
X109699500Y-86681004D01*
X109699500Y-92205500D01*
X109679815Y-92272539D01*
X109627011Y-92318294D01*
X109575501Y-92329500D01*
X109452130Y-92329500D01*
X109452123Y-92329501D01*
X109392516Y-92335908D01*
X109257671Y-92386202D01*
X109257664Y-92386206D01*
X109142455Y-92472452D01*
X109142452Y-92472455D01*
X109056206Y-92587664D01*
X109056202Y-92587671D01*
X109005908Y-92722517D01*
X109000424Y-92773534D01*
X108999501Y-92782123D01*
X108999500Y-92782135D01*
X108999501Y-94677869D01*
X109005908Y-94737483D01*
X109056202Y-94872328D01*
X109056206Y-94872335D01*
X109142452Y-94987544D01*
X109142455Y-94987547D01*
X109257664Y-95073793D01*
X109257671Y-95073797D01*
X109337580Y-95103601D01*
X109393514Y-95145472D01*
X109417931Y-95210936D01*
X109403080Y-95279209D01*
X109381929Y-95307463D01*
X109331756Y-95357636D01*
X109331752Y-95357641D01*
X109202187Y-95535974D01*
X109102104Y-95732393D01*
X109102103Y-95732396D01*
X109033985Y-95942047D01*
X109033985Y-95942049D01*
X108999500Y-96159778D01*
X108999500Y-96380222D01*
X109001724Y-96394265D01*
X109033985Y-96597952D01*
X109102103Y-96807603D01*
X109102104Y-96807606D01*
X109202187Y-97004025D01*
X109331752Y-97182358D01*
X109331756Y-97182363D01*
X109331758Y-97182365D01*
X109487635Y-97338242D01*
X109648386Y-97455034D01*
X109691051Y-97510362D01*
X109699500Y-97555351D01*
X109699500Y-98388255D01*
X109679815Y-98455294D01*
X109648385Y-98488573D01*
X109552787Y-98558028D01*
X109552782Y-98558032D01*
X109408028Y-98702786D01*
X109287715Y-98868386D01*
X109194781Y-99050776D01*
X109131522Y-99245465D01*
X109099500Y-99447648D01*
X109099500Y-99652351D01*
X109131522Y-99854534D01*
X109194781Y-100049223D01*
X109287715Y-100231613D01*
X109408028Y-100397213D01*
X109552786Y-100541971D01*
X109707749Y-100654556D01*
X109718390Y-100662287D01*
X109834607Y-100721503D01*
X109900776Y-100755218D01*
X109900778Y-100755218D01*
X109900781Y-100755220D01*
X110005137Y-100789127D01*
X110095465Y-100818477D01*
X110196557Y-100834488D01*
X110297648Y-100850500D01*
X110297649Y-100850500D01*
X110502351Y-100850500D01*
X110502352Y-100850500D01*
X110704534Y-100818477D01*
X110899219Y-100755220D01*
X111081610Y-100662287D01*
X111174590Y-100594732D01*
X111247213Y-100541971D01*
X111247215Y-100541968D01*
X111247219Y-100541966D01*
X111391966Y-100397219D01*
X111391968Y-100397215D01*
X111391971Y-100397213D01*
X111444732Y-100324590D01*
X111512287Y-100231610D01*
X111605220Y-100049219D01*
X111668477Y-99854534D01*
X111700500Y-99652352D01*
X111700500Y-99447648D01*
X111682909Y-99336583D01*
X111668477Y-99245465D01*
X111605218Y-99050776D01*
X111534878Y-98912728D01*
X111512287Y-98868390D01*
X111482207Y-98826988D01*
X111391971Y-98702786D01*
X111247217Y-98558032D01*
X111247212Y-98558028D01*
X111151615Y-98488573D01*
X111108949Y-98433243D01*
X111100500Y-98388255D01*
X111100500Y-97555351D01*
X111120185Y-97488312D01*
X111151611Y-97455035D01*
X111312365Y-97338242D01*
X111468242Y-97182365D01*
X111597815Y-97004022D01*
X111697895Y-96807606D01*
X111766015Y-96597951D01*
X111800500Y-96380222D01*
X111800500Y-96159778D01*
X111766015Y-95942049D01*
X111697895Y-95732394D01*
X111697895Y-95732393D01*
X111628451Y-95596104D01*
X111597815Y-95535978D01*
X111499488Y-95400641D01*
X111468247Y-95357641D01*
X111468243Y-95357636D01*
X111418071Y-95307464D01*
X111384586Y-95246141D01*
X111389570Y-95176449D01*
X111431442Y-95120516D01*
X111462420Y-95103601D01*
X111542326Y-95073798D01*
X111542326Y-95073797D01*
X111542331Y-95073796D01*
X111657546Y-94987546D01*
X111743796Y-94872331D01*
X111794091Y-94737483D01*
X111800500Y-94677873D01*
X111800499Y-92782128D01*
X111794091Y-92722517D01*
X111779823Y-92684263D01*
X111743797Y-92587671D01*
X111743793Y-92587664D01*
X111657547Y-92472455D01*
X111657544Y-92472452D01*
X111542335Y-92386206D01*
X111542328Y-92386202D01*
X111407482Y-92335908D01*
X111407483Y-92335908D01*
X111347883Y-92329501D01*
X111347881Y-92329500D01*
X111347873Y-92329500D01*
X111347865Y-92329500D01*
X111224500Y-92329500D01*
X111157461Y-92309815D01*
X111111706Y-92257011D01*
X111100500Y-92205500D01*
X111100500Y-87091518D01*
X111120185Y-87024479D01*
X111136814Y-87003841D01*
X112090799Y-86049856D01*
X112152120Y-86016373D01*
X112221811Y-86021357D01*
X112225860Y-86022949D01*
X112335581Y-86068398D01*
X112588884Y-86136270D01*
X112837188Y-86168960D01*
X112848864Y-86170498D01*
X112848880Y-86170500D01*
X112848887Y-86170500D01*
X113111113Y-86170500D01*
X113111120Y-86170500D01*
X113371116Y-86136270D01*
X113624419Y-86068398D01*
X113866697Y-85968043D01*
X114093803Y-85836924D01*
X114301851Y-85677282D01*
X114301855Y-85677277D01*
X114301860Y-85677274D01*
X114487274Y-85491860D01*
X114487277Y-85491855D01*
X114487282Y-85491851D01*
X114646924Y-85283803D01*
X114778043Y-85056697D01*
X114878398Y-84814419D01*
X114946270Y-84561116D01*
X114980500Y-84301120D01*
X114980500Y-84038880D01*
X114946270Y-83778884D01*
X114878398Y-83525581D01*
X114878394Y-83525571D01*
X114778046Y-83283309D01*
X114778041Y-83283299D01*
X114646924Y-83056196D01*
X114487281Y-82848148D01*
X114487274Y-82848140D01*
X114301860Y-82662726D01*
X114301855Y-82662722D01*
X114301851Y-82662718D01*
X114188069Y-82575409D01*
X114093803Y-82503075D01*
X114057130Y-82481902D01*
X116399500Y-82481902D01*
X116399500Y-104918097D01*
X116436446Y-105151368D01*
X116509433Y-105375996D01*
X116558386Y-105472070D01*
X116616657Y-105586433D01*
X116755483Y-105777510D01*
X116922490Y-105944517D01*
X117113567Y-106083343D01*
X117210200Y-106132580D01*
X117324003Y-106190566D01*
X117324005Y-106190566D01*
X117324008Y-106190568D01*
X117389938Y-106211990D01*
X117548631Y-106263553D01*
X117781903Y-106300500D01*
X117781908Y-106300500D01*
X118018097Y-106300500D01*
X118251368Y-106263553D01*
X118271988Y-106256853D01*
X118475992Y-106190568D01*
X118686433Y-106083343D01*
X118877510Y-105944517D01*
X119044517Y-105777510D01*
X119183343Y-105586433D01*
X119290568Y-105375992D01*
X119363553Y-105151368D01*
X119374886Y-105079815D01*
X119400500Y-104918097D01*
X119400500Y-82481902D01*
X119363553Y-82248631D01*
X119290566Y-82024003D01*
X119234002Y-81912991D01*
X119183343Y-81813567D01*
X119044517Y-81622490D01*
X118877510Y-81455483D01*
X118686433Y-81316657D01*
X118475996Y-81209433D01*
X118251368Y-81136446D01*
X118018097Y-81099500D01*
X118018092Y-81099500D01*
X117781908Y-81099500D01*
X117781903Y-81099500D01*
X117548631Y-81136446D01*
X117324003Y-81209433D01*
X117113566Y-81316657D01*
X117004550Y-81395862D01*
X116922490Y-81455483D01*
X116922488Y-81455485D01*
X116922487Y-81455485D01*
X116755485Y-81622487D01*
X116755485Y-81622488D01*
X116755483Y-81622490D01*
X116695862Y-81704550D01*
X116616657Y-81813566D01*
X116509433Y-82024003D01*
X116436446Y-82248631D01*
X116399500Y-82481902D01*
X114057130Y-82481902D01*
X113866700Y-82371958D01*
X113866690Y-82371953D01*
X113624428Y-82271605D01*
X113624421Y-82271603D01*
X113624419Y-82271602D01*
X113371116Y-82203730D01*
X113313339Y-82196123D01*
X113111127Y-82169500D01*
X113111120Y-82169500D01*
X112848880Y-82169500D01*
X112848872Y-82169500D01*
X112617772Y-82199926D01*
X112588884Y-82203730D01*
X112421307Y-82248632D01*
X112335581Y-82271602D01*
X112335571Y-82271605D01*
X112093309Y-82371953D01*
X112093299Y-82371958D01*
X111866196Y-82503075D01*
X111658148Y-82662718D01*
X111472718Y-82848148D01*
X111313075Y-83056196D01*
X111181958Y-83283299D01*
X111181951Y-83283314D01*
X111136539Y-83392952D01*
X111092699Y-83447356D01*
X111026405Y-83469421D01*
X111021978Y-83469500D01*
X110024499Y-83469500D01*
X109957460Y-83449815D01*
X109911705Y-83397011D01*
X109900499Y-83345500D01*
X109900499Y-82622129D01*
X109900498Y-82622123D01*
X109900497Y-82622116D01*
X109894091Y-82562517D01*
X109894090Y-82562515D01*
X109843797Y-82427671D01*
X109843793Y-82427664D01*
X109757547Y-82312455D01*
X109757544Y-82312452D01*
X109642335Y-82226206D01*
X109642328Y-82226202D01*
X109507482Y-82175908D01*
X109507483Y-82175908D01*
X109447883Y-82169501D01*
X109447881Y-82169500D01*
X109447873Y-82169500D01*
X109447864Y-82169500D01*
X106352129Y-82169500D01*
X106352123Y-82169501D01*
X106292516Y-82175908D01*
X106157671Y-82226202D01*
X106157664Y-82226206D01*
X106042455Y-82312452D01*
X106042452Y-82312455D01*
X105956206Y-82427664D01*
X105956202Y-82427671D01*
X105905908Y-82562517D01*
X105899501Y-82622116D01*
X105899501Y-82622123D01*
X105899500Y-82622135D01*
X99248963Y-82622135D01*
X99093803Y-82503075D01*
X98866700Y-82371958D01*
X98866690Y-82371953D01*
X98624428Y-82271605D01*
X98624421Y-82271603D01*
X98624419Y-82271602D01*
X98371116Y-82203730D01*
X98313339Y-82196123D01*
X98111127Y-82169500D01*
X98111120Y-82169500D01*
X97848880Y-82169500D01*
X97848872Y-82169500D01*
X97617772Y-82199926D01*
X97588884Y-82203730D01*
X97421307Y-82248632D01*
X97335581Y-82271602D01*
X97335571Y-82271605D01*
X97093309Y-82371953D01*
X97093299Y-82371958D01*
X96866196Y-82503075D01*
X96658148Y-82662718D01*
X96472718Y-82848148D01*
X96313075Y-83056196D01*
X96181958Y-83283299D01*
X96181951Y-83283314D01*
X96136539Y-83392952D01*
X96092699Y-83447356D01*
X96026405Y-83469421D01*
X96021978Y-83469500D01*
X95024499Y-83469500D01*
X94957460Y-83449815D01*
X94911705Y-83397011D01*
X94900499Y-83345500D01*
X94900499Y-82622129D01*
X94900498Y-82622123D01*
X94900497Y-82622116D01*
X94894091Y-82562517D01*
X94894090Y-82562515D01*
X94843797Y-82427671D01*
X94843793Y-82427664D01*
X94757547Y-82312455D01*
X94757544Y-82312452D01*
X94642335Y-82226206D01*
X94642328Y-82226202D01*
X94507482Y-82175908D01*
X94507483Y-82175908D01*
X94447883Y-82169501D01*
X94447881Y-82169500D01*
X94447873Y-82169500D01*
X94447864Y-82169500D01*
X91352129Y-82169500D01*
X91352123Y-82169501D01*
X91292516Y-82175908D01*
X91157671Y-82226202D01*
X91157664Y-82226206D01*
X91042455Y-82312452D01*
X91042452Y-82312455D01*
X90956206Y-82427664D01*
X90956202Y-82427671D01*
X90905908Y-82562517D01*
X90899501Y-82622116D01*
X90899501Y-82622123D01*
X90899500Y-82622135D01*
X90899500Y-85717870D01*
X90899501Y-85717876D01*
X90905908Y-85777483D01*
X90956202Y-85912328D01*
X90956206Y-85912335D01*
X91042452Y-86027544D01*
X91042455Y-86027547D01*
X91157664Y-86113793D01*
X91157671Y-86113797D01*
X91292517Y-86164091D01*
X91292516Y-86164091D01*
X91299444Y-86164835D01*
X91352127Y-86170500D01*
X94447872Y-86170499D01*
X94507483Y-86164091D01*
X94642331Y-86113796D01*
X94757546Y-86027546D01*
X94843796Y-85912331D01*
X94894091Y-85777483D01*
X94900500Y-85717873D01*
X94900500Y-84994500D01*
X94920185Y-84927461D01*
X94972989Y-84881706D01*
X95024500Y-84870500D01*
X95989480Y-84870500D01*
X96056519Y-84890185D01*
X96102274Y-84942989D01*
X96112218Y-85012147D01*
X96083193Y-85075703D01*
X96077161Y-85082181D01*
X94855890Y-86303451D01*
X94855887Y-86303454D01*
X94787793Y-86405366D01*
X94787792Y-86405367D01*
X94779227Y-86418184D01*
X94779222Y-86418193D01*
X94726421Y-86545667D01*
X94726418Y-86545677D01*
X94699500Y-86681004D01*
X94699500Y-92205500D01*
X94679815Y-92272539D01*
X94627011Y-92318294D01*
X94575501Y-92329500D01*
X94452130Y-92329500D01*
X94452123Y-92329501D01*
X94392516Y-92335908D01*
X94257671Y-92386202D01*
X94257664Y-92386206D01*
X94142455Y-92472452D01*
X94142452Y-92472455D01*
X94056206Y-92587664D01*
X94056202Y-92587671D01*
X94005908Y-92722517D01*
X94000424Y-92773534D01*
X93999501Y-92782123D01*
X93999500Y-92782135D01*
X93999501Y-94677869D01*
X94005908Y-94737483D01*
X94056202Y-94872328D01*
X94056206Y-94872335D01*
X94142452Y-94987544D01*
X94142455Y-94987547D01*
X94257664Y-95073793D01*
X94257671Y-95073797D01*
X94337580Y-95103601D01*
X94393514Y-95145472D01*
X94417931Y-95210936D01*
X94403080Y-95279209D01*
X94381929Y-95307463D01*
X94331756Y-95357636D01*
X94331752Y-95357641D01*
X94202187Y-95535974D01*
X94102104Y-95732393D01*
X94102103Y-95732396D01*
X94033985Y-95942047D01*
X94033985Y-95942049D01*
X93999500Y-96159778D01*
X93999500Y-96380222D01*
X94001724Y-96394265D01*
X94033985Y-96597952D01*
X94102103Y-96807603D01*
X94102104Y-96807606D01*
X94202187Y-97004025D01*
X94331752Y-97182358D01*
X94331756Y-97182363D01*
X94331758Y-97182365D01*
X94487635Y-97338242D01*
X94648386Y-97455034D01*
X94691051Y-97510362D01*
X94699500Y-97555351D01*
X94699500Y-98388255D01*
X94679815Y-98455294D01*
X94648385Y-98488573D01*
X94552787Y-98558028D01*
X94552782Y-98558032D01*
X94408028Y-98702786D01*
X94287715Y-98868386D01*
X94194781Y-99050776D01*
X94131522Y-99245465D01*
X94099500Y-99447648D01*
X94099500Y-99652351D01*
X94131522Y-99854534D01*
X94194781Y-100049223D01*
X94287715Y-100231613D01*
X94408028Y-100397213D01*
X94552786Y-100541971D01*
X94707749Y-100654556D01*
X94718390Y-100662287D01*
X94834607Y-100721503D01*
X94900776Y-100755218D01*
X94900778Y-100755218D01*
X94900781Y-100755220D01*
X95005137Y-100789127D01*
X95095465Y-100818477D01*
X95196557Y-100834488D01*
X95297648Y-100850500D01*
X95297649Y-100850500D01*
X95502351Y-100850500D01*
X95502352Y-100850500D01*
X95704534Y-100818477D01*
X95899219Y-100755220D01*
X96081610Y-100662287D01*
X96174590Y-100594732D01*
X96247213Y-100541971D01*
X96247215Y-100541968D01*
X96247219Y-100541966D01*
X96391966Y-100397219D01*
X96391968Y-100397215D01*
X96391971Y-100397213D01*
X96444732Y-100324590D01*
X96512287Y-100231610D01*
X96605220Y-100049219D01*
X96668477Y-99854534D01*
X96700500Y-99652352D01*
X96700500Y-99447648D01*
X96682909Y-99336583D01*
X96668477Y-99245465D01*
X96605218Y-99050776D01*
X96534878Y-98912728D01*
X96512287Y-98868390D01*
X96482207Y-98826988D01*
X96391971Y-98702786D01*
X96247217Y-98558032D01*
X96247212Y-98558028D01*
X96151615Y-98488573D01*
X96108949Y-98433243D01*
X96100500Y-98388255D01*
X96100500Y-97555351D01*
X96120185Y-97488312D01*
X96151611Y-97455035D01*
X96312365Y-97338242D01*
X96468242Y-97182365D01*
X96597815Y-97004022D01*
X96697895Y-96807606D01*
X96766015Y-96597951D01*
X96800500Y-96380222D01*
X96800500Y-96159778D01*
X96766015Y-95942049D01*
X96697895Y-95732394D01*
X96697895Y-95732393D01*
X96628451Y-95596104D01*
X96597815Y-95535978D01*
X96499488Y-95400641D01*
X96468247Y-95357641D01*
X96468243Y-95357636D01*
X96418071Y-95307464D01*
X96384586Y-95246141D01*
X96389570Y-95176449D01*
X96431442Y-95120516D01*
X96462420Y-95103601D01*
X96542326Y-95073798D01*
X96542326Y-95073797D01*
X96542331Y-95073796D01*
X96657546Y-94987546D01*
X96743796Y-94872331D01*
X96794091Y-94737483D01*
X96800500Y-94677873D01*
X96800500Y-94677862D01*
X96800627Y-94676681D01*
X96827365Y-94612130D01*
X96884758Y-94572282D01*
X96954583Y-94569788D01*
X97011598Y-94602255D01*
X97763181Y-95353838D01*
X97796666Y-95415161D01*
X97799500Y-95441519D01*
X97799500Y-103831006D01*
X97799500Y-103968994D01*
X97799500Y-103968996D01*
X97799499Y-103968996D01*
X97826418Y-104104322D01*
X97826421Y-104104332D01*
X97879222Y-104231807D01*
X97955887Y-104346545D01*
X97955888Y-104346546D01*
X99905886Y-106296542D01*
X99955289Y-106345945D01*
X100003459Y-106394115D01*
X100118184Y-106470772D01*
X100118185Y-106470772D01*
X100118189Y-106470775D01*
X100160716Y-106488390D01*
X100245671Y-106523580D01*
X100272591Y-106528934D01*
X100368775Y-106548066D01*
X100381006Y-106550500D01*
X100381007Y-106550500D01*
X109063190Y-106550500D01*
X109130229Y-106570185D01*
X109175984Y-106622989D01*
X109185928Y-106692147D01*
X109181121Y-106712818D01*
X109131523Y-106865461D01*
X109131523Y-106865464D01*
X109099500Y-107067648D01*
X109099500Y-107272351D01*
X109117986Y-107389068D01*
X109109031Y-107458362D01*
X109083194Y-107496147D01*
X108067162Y-108512181D01*
X108005839Y-108545666D01*
X107979481Y-108548500D01*
X97820519Y-108548500D01*
X97753480Y-108528815D01*
X97732838Y-108512181D01*
X96716805Y-107496148D01*
X96683320Y-107434825D01*
X96682013Y-107389068D01*
X96684748Y-107371803D01*
X96700500Y-107272352D01*
X96700500Y-107067648D01*
X96699792Y-107063181D01*
X96668477Y-106865465D01*
X96639127Y-106775137D01*
X96605220Y-106670781D01*
X96605218Y-106670778D01*
X96605218Y-106670776D01*
X96562439Y-106586819D01*
X96512287Y-106488390D01*
X96463164Y-106420777D01*
X96391971Y-106322786D01*
X96247213Y-106178028D01*
X96081613Y-106057715D01*
X96081612Y-106057714D01*
X96081610Y-106057713D01*
X96024653Y-106028691D01*
X95899223Y-105964781D01*
X95704534Y-105901522D01*
X95529995Y-105873878D01*
X95502352Y-105869500D01*
X95297648Y-105869500D01*
X95273329Y-105873351D01*
X95095465Y-105901522D01*
X94900776Y-105964781D01*
X94718386Y-106057715D01*
X94552786Y-106178028D01*
X94408028Y-106322786D01*
X94287715Y-106488386D01*
X94194781Y-106670776D01*
X94131522Y-106865465D01*
X94099500Y-107067648D01*
X94099500Y-107272351D01*
X94117986Y-107389068D01*
X94109031Y-107458362D01*
X94083194Y-107496147D01*
X93067162Y-108512181D01*
X93005839Y-108545666D01*
X92979481Y-108548500D01*
X82820519Y-108548500D01*
X82753480Y-108528815D01*
X82732838Y-108512181D01*
X81716805Y-107496148D01*
X81683320Y-107434825D01*
X81682013Y-107389068D01*
X81684748Y-107371803D01*
X81700500Y-107272352D01*
X81700500Y-107067648D01*
X81699792Y-107063181D01*
X81668477Y-106865465D01*
X81639127Y-106775137D01*
X81605220Y-106670781D01*
X81605218Y-106670778D01*
X81605218Y-106670776D01*
X81562439Y-106586819D01*
X81512287Y-106488390D01*
X81463164Y-106420777D01*
X81391971Y-106322786D01*
X81247213Y-106178028D01*
X81081613Y-106057715D01*
X81081612Y-106057714D01*
X81081610Y-106057713D01*
X81024653Y-106028691D01*
X80899223Y-105964781D01*
X80704534Y-105901522D01*
X80529995Y-105873878D01*
X80502352Y-105869500D01*
X80297648Y-105869500D01*
X80273329Y-105873351D01*
X80095465Y-105901522D01*
X79900776Y-105964781D01*
X79718386Y-106057715D01*
X79552786Y-106178028D01*
X79408028Y-106322786D01*
X79287715Y-106488386D01*
X79194781Y-106670776D01*
X79131522Y-106865465D01*
X79099500Y-107067648D01*
X79099500Y-107272357D01*
X79115251Y-107371803D01*
X79106297Y-107441096D01*
X79080459Y-107478882D01*
X78047162Y-108512181D01*
X77985839Y-108545666D01*
X77959481Y-108548500D01*
X67820519Y-108548500D01*
X67753480Y-108528815D01*
X67732838Y-108512181D01*
X66716805Y-107496148D01*
X66683320Y-107434825D01*
X66682013Y-107389068D01*
X66684748Y-107371803D01*
X66700500Y-107272352D01*
X66700500Y-107067648D01*
X66699792Y-107063181D01*
X66668477Y-106865465D01*
X66639127Y-106775137D01*
X66605220Y-106670781D01*
X66605218Y-106670778D01*
X66605218Y-106670776D01*
X66562439Y-106586819D01*
X66512287Y-106488390D01*
X66463164Y-106420777D01*
X66391971Y-106322786D01*
X66247213Y-106178028D01*
X66081613Y-106057715D01*
X66081612Y-106057714D01*
X66081610Y-106057713D01*
X66024653Y-106028691D01*
X65899223Y-105964781D01*
X65704534Y-105901522D01*
X65529995Y-105873878D01*
X65502352Y-105869500D01*
X65297648Y-105869500D01*
X65273329Y-105873351D01*
X65095465Y-105901522D01*
X64900776Y-105964781D01*
X64718386Y-106057715D01*
X64552786Y-106178028D01*
X64408028Y-106322786D01*
X64287715Y-106488386D01*
X64194781Y-106670776D01*
X64131522Y-106865465D01*
X64099500Y-107067648D01*
X64099500Y-107272351D01*
X64131522Y-107474534D01*
X64194781Y-107669223D01*
X64287715Y-107851613D01*
X64408028Y-108017213D01*
X64552786Y-108161971D01*
X64707749Y-108274556D01*
X64718390Y-108282287D01*
X64825415Y-108336819D01*
X64900776Y-108375218D01*
X64900778Y-108375218D01*
X64900781Y-108375220D01*
X64971328Y-108398142D01*
X65095465Y-108438477D01*
X65196557Y-108454488D01*
X65297648Y-108470500D01*
X65297649Y-108470500D01*
X65502350Y-108470500D01*
X65502352Y-108470500D01*
X65619068Y-108452013D01*
X65688362Y-108460967D01*
X65726148Y-108486805D01*
X66527162Y-109287819D01*
X66560647Y-109349142D01*
X66555663Y-109418834D01*
X66513791Y-109474767D01*
X66448327Y-109499184D01*
X66439481Y-109499500D01*
X60624500Y-109499500D01*
X60557461Y-109479815D01*
X60511706Y-109427011D01*
X60500500Y-109375500D01*
X60500500Y-82622135D01*
X60899500Y-82622135D01*
X60899500Y-85717870D01*
X60899501Y-85717876D01*
X60905908Y-85777483D01*
X60956202Y-85912328D01*
X60956206Y-85912335D01*
X61042452Y-86027544D01*
X61042455Y-86027547D01*
X61157664Y-86113793D01*
X61157671Y-86113797D01*
X61292517Y-86164091D01*
X61292516Y-86164091D01*
X61299444Y-86164835D01*
X61352127Y-86170500D01*
X64447872Y-86170499D01*
X64507483Y-86164091D01*
X64642331Y-86113796D01*
X64757546Y-86027546D01*
X64843796Y-85912331D01*
X64894091Y-85777483D01*
X64900500Y-85717873D01*
X64900500Y-84994500D01*
X64920185Y-84927461D01*
X64972989Y-84881706D01*
X65024500Y-84870500D01*
X65989480Y-84870500D01*
X66056519Y-84890185D01*
X66102274Y-84942989D01*
X66112218Y-85012147D01*
X66083193Y-85075703D01*
X66077161Y-85082181D01*
X64855890Y-86303451D01*
X64855887Y-86303454D01*
X64787793Y-86405366D01*
X64787792Y-86405367D01*
X64779227Y-86418184D01*
X64779222Y-86418193D01*
X64726421Y-86545667D01*
X64726418Y-86545677D01*
X64699500Y-86681004D01*
X64699500Y-92205500D01*
X64679815Y-92272539D01*
X64627011Y-92318294D01*
X64575501Y-92329500D01*
X64452130Y-92329500D01*
X64452123Y-92329501D01*
X64392516Y-92335908D01*
X64257671Y-92386202D01*
X64257664Y-92386206D01*
X64142455Y-92472452D01*
X64142452Y-92472455D01*
X64056206Y-92587664D01*
X64056202Y-92587671D01*
X64005908Y-92722517D01*
X64000424Y-92773534D01*
X63999501Y-92782123D01*
X63999500Y-92782135D01*
X63999501Y-94677869D01*
X64005908Y-94737483D01*
X64056202Y-94872328D01*
X64056206Y-94872335D01*
X64142452Y-94987544D01*
X64142455Y-94987547D01*
X64257664Y-95073793D01*
X64257671Y-95073797D01*
X64337580Y-95103601D01*
X64393514Y-95145472D01*
X64417931Y-95210936D01*
X64403080Y-95279209D01*
X64381929Y-95307463D01*
X64331756Y-95357636D01*
X64331752Y-95357641D01*
X64202187Y-95535974D01*
X64102104Y-95732393D01*
X64102103Y-95732396D01*
X64033985Y-95942047D01*
X64033985Y-95942049D01*
X63999500Y-96159778D01*
X63999500Y-96380222D01*
X64001724Y-96394265D01*
X64033985Y-96597952D01*
X64102103Y-96807603D01*
X64102104Y-96807606D01*
X64202187Y-97004025D01*
X64331752Y-97182358D01*
X64331756Y-97182363D01*
X64331758Y-97182365D01*
X64487635Y-97338242D01*
X64648386Y-97455034D01*
X64691051Y-97510362D01*
X64699500Y-97555351D01*
X64699500Y-98388255D01*
X64679815Y-98455294D01*
X64648385Y-98488573D01*
X64552787Y-98558028D01*
X64552782Y-98558032D01*
X64408028Y-98702786D01*
X64287715Y-98868386D01*
X64194781Y-99050776D01*
X64131522Y-99245465D01*
X64099500Y-99447648D01*
X64099500Y-99652351D01*
X64131522Y-99854534D01*
X64194781Y-100049223D01*
X64287715Y-100231613D01*
X64408028Y-100397213D01*
X64552786Y-100541971D01*
X64707749Y-100654556D01*
X64718390Y-100662287D01*
X64834607Y-100721503D01*
X64900776Y-100755218D01*
X64900778Y-100755218D01*
X64900781Y-100755220D01*
X65005137Y-100789127D01*
X65095465Y-100818477D01*
X65196557Y-100834488D01*
X65297648Y-100850500D01*
X65297649Y-100850500D01*
X65502351Y-100850500D01*
X65502352Y-100850500D01*
X65704534Y-100818477D01*
X65899219Y-100755220D01*
X66081610Y-100662287D01*
X66174590Y-100594732D01*
X66247213Y-100541971D01*
X66247215Y-100541968D01*
X66247219Y-100541966D01*
X66391966Y-100397219D01*
X66391968Y-100397215D01*
X66391971Y-100397213D01*
X66444732Y-100324590D01*
X66512287Y-100231610D01*
X66605220Y-100049219D01*
X66668477Y-99854534D01*
X66700500Y-99652352D01*
X66700500Y-99447648D01*
X66682909Y-99336583D01*
X66668477Y-99245465D01*
X66605218Y-99050776D01*
X66534878Y-98912728D01*
X66512287Y-98868390D01*
X66482207Y-98826988D01*
X66391971Y-98702786D01*
X66247217Y-98558032D01*
X66247212Y-98558028D01*
X66151615Y-98488573D01*
X66108949Y-98433243D01*
X66100500Y-98388255D01*
X66100500Y-97555351D01*
X66120185Y-97488312D01*
X66151611Y-97455035D01*
X66312365Y-97338242D01*
X66468242Y-97182365D01*
X66597815Y-97004022D01*
X66697895Y-96807606D01*
X66766015Y-96597951D01*
X66800500Y-96380222D01*
X66800500Y-96159778D01*
X66766015Y-95942049D01*
X66697895Y-95732394D01*
X66697895Y-95732393D01*
X66628451Y-95596104D01*
X66597815Y-95535978D01*
X66499488Y-95400641D01*
X66468247Y-95357641D01*
X66468243Y-95357636D01*
X66418071Y-95307464D01*
X66384586Y-95246141D01*
X66389570Y-95176449D01*
X66431442Y-95120516D01*
X66462420Y-95103601D01*
X66542326Y-95073798D01*
X66542326Y-95073797D01*
X66542331Y-95073796D01*
X66657546Y-94987546D01*
X66739020Y-94878711D01*
X71149500Y-94878711D01*
X71149500Y-95121288D01*
X71180615Y-95357641D01*
X71181162Y-95361789D01*
X71195463Y-95415161D01*
X71243947Y-95596104D01*
X71336773Y-95820205D01*
X71336776Y-95820212D01*
X71458064Y-96030289D01*
X71458066Y-96030292D01*
X71458067Y-96030293D01*
X71605733Y-96222736D01*
X71605739Y-96222743D01*
X71777256Y-96394260D01*
X71777263Y-96394266D01*
X71890321Y-96481018D01*
X71969711Y-96541936D01*
X72179788Y-96663224D01*
X72249668Y-96692169D01*
X72386604Y-96748890D01*
X72403900Y-96756054D01*
X72638211Y-96818838D01*
X72818586Y-96842584D01*
X72878711Y-96850500D01*
X72878712Y-96850500D01*
X73121289Y-96850500D01*
X73169388Y-96844167D01*
X73361789Y-96818838D01*
X73596100Y-96756054D01*
X73820212Y-96663224D01*
X74030289Y-96541936D01*
X74222738Y-96394265D01*
X74394265Y-96222738D01*
X74541936Y-96030289D01*
X74663224Y-95820212D01*
X74756054Y-95596100D01*
X74818838Y-95361789D01*
X74850500Y-95121288D01*
X74850500Y-94878712D01*
X74849660Y-94872335D01*
X74832479Y-94741824D01*
X74818838Y-94638211D01*
X74756054Y-94403900D01*
X74663224Y-94179788D01*
X74541936Y-93969711D01*
X74394265Y-93777262D01*
X74394260Y-93777256D01*
X74222743Y-93605739D01*
X74222736Y-93605733D01*
X74030293Y-93458067D01*
X74030292Y-93458066D01*
X74030289Y-93458064D01*
X73820212Y-93336776D01*
X73820205Y-93336773D01*
X73596104Y-93243947D01*
X73478944Y-93212554D01*
X73361789Y-93181162D01*
X73361788Y-93181161D01*
X73361785Y-93181161D01*
X73121289Y-93149500D01*
X73121288Y-93149500D01*
X72878712Y-93149500D01*
X72878711Y-93149500D01*
X72638214Y-93181161D01*
X72403895Y-93243947D01*
X72179794Y-93336773D01*
X72179785Y-93336777D01*
X71969706Y-93458067D01*
X71777263Y-93605733D01*
X71777256Y-93605739D01*
X71605739Y-93777256D01*
X71605733Y-93777263D01*
X71458067Y-93969706D01*
X71336777Y-94179785D01*
X71336773Y-94179794D01*
X71243947Y-94403895D01*
X71181161Y-94638214D01*
X71149500Y-94878711D01*
X66739020Y-94878711D01*
X66743796Y-94872331D01*
X66794091Y-94737483D01*
X66800500Y-94677873D01*
X66800499Y-92782128D01*
X66794091Y-92722517D01*
X66779823Y-92684263D01*
X66743797Y-92587671D01*
X66743793Y-92587664D01*
X66657547Y-92472455D01*
X66657544Y-92472452D01*
X66542335Y-92386206D01*
X66542328Y-92386202D01*
X66407482Y-92335908D01*
X66407483Y-92335908D01*
X66347883Y-92329501D01*
X66347881Y-92329500D01*
X66347873Y-92329500D01*
X66347865Y-92329500D01*
X66224500Y-92329500D01*
X66157461Y-92309815D01*
X66111706Y-92257011D01*
X66100500Y-92205500D01*
X66100500Y-87091518D01*
X66120185Y-87024479D01*
X66136814Y-87003841D01*
X67090799Y-86049856D01*
X67152120Y-86016373D01*
X67221811Y-86021357D01*
X67225860Y-86022949D01*
X67335581Y-86068398D01*
X67588884Y-86136270D01*
X67837188Y-86168960D01*
X67848864Y-86170498D01*
X67848880Y-86170500D01*
X67848887Y-86170500D01*
X68111113Y-86170500D01*
X68111120Y-86170500D01*
X68371116Y-86136270D01*
X68624419Y-86068398D01*
X68866697Y-85968043D01*
X69093803Y-85836924D01*
X69301851Y-85677282D01*
X69301855Y-85677277D01*
X69301860Y-85677274D01*
X69487274Y-85491860D01*
X69487277Y-85491855D01*
X69487282Y-85491851D01*
X69646924Y-85283803D01*
X69778043Y-85056697D01*
X69878398Y-84814419D01*
X69946270Y-84561116D01*
X69980500Y-84301120D01*
X69980500Y-84038880D01*
X69946270Y-83778884D01*
X69878398Y-83525581D01*
X69878394Y-83525571D01*
X69778046Y-83283309D01*
X69778041Y-83283299D01*
X69646924Y-83056196D01*
X69487281Y-82848148D01*
X69487274Y-82848140D01*
X69301860Y-82662726D01*
X69301851Y-82662718D01*
X69248963Y-82622135D01*
X75899500Y-82622135D01*
X75899500Y-85717870D01*
X75899501Y-85717876D01*
X75905908Y-85777483D01*
X75956202Y-85912328D01*
X75956206Y-85912335D01*
X76042452Y-86027544D01*
X76042455Y-86027547D01*
X76157664Y-86113793D01*
X76157671Y-86113797D01*
X76292517Y-86164091D01*
X76292516Y-86164091D01*
X76299444Y-86164835D01*
X76352127Y-86170500D01*
X79447872Y-86170499D01*
X79507483Y-86164091D01*
X79642331Y-86113796D01*
X79757546Y-86027546D01*
X79843796Y-85912331D01*
X79894091Y-85777483D01*
X79900500Y-85717873D01*
X79900500Y-84994500D01*
X79920185Y-84927461D01*
X79972989Y-84881706D01*
X80024500Y-84870500D01*
X80989480Y-84870500D01*
X81056519Y-84890185D01*
X81102274Y-84942989D01*
X81112218Y-85012147D01*
X81083193Y-85075703D01*
X81077161Y-85082181D01*
X79855890Y-86303451D01*
X79855887Y-86303454D01*
X79787793Y-86405366D01*
X79787792Y-86405367D01*
X79779227Y-86418184D01*
X79779222Y-86418193D01*
X79726421Y-86545667D01*
X79726418Y-86545677D01*
X79699500Y-86681004D01*
X79699500Y-92205500D01*
X79679815Y-92272539D01*
X79627011Y-92318294D01*
X79575501Y-92329500D01*
X79452130Y-92329500D01*
X79452123Y-92329501D01*
X79392516Y-92335908D01*
X79257671Y-92386202D01*
X79257664Y-92386206D01*
X79142455Y-92472452D01*
X79142452Y-92472455D01*
X79056206Y-92587664D01*
X79056202Y-92587671D01*
X79005908Y-92722517D01*
X79000424Y-92773534D01*
X78999501Y-92782123D01*
X78999500Y-92782135D01*
X78999501Y-94677869D01*
X79005908Y-94737483D01*
X79056202Y-94872328D01*
X79056206Y-94872335D01*
X79142452Y-94987544D01*
X79142455Y-94987547D01*
X79257664Y-95073793D01*
X79257671Y-95073797D01*
X79337580Y-95103601D01*
X79393514Y-95145472D01*
X79417931Y-95210936D01*
X79403080Y-95279209D01*
X79381929Y-95307463D01*
X79331756Y-95357636D01*
X79331752Y-95357641D01*
X79202187Y-95535974D01*
X79102104Y-95732393D01*
X79102103Y-95732396D01*
X79033985Y-95942047D01*
X79033985Y-95942049D01*
X78999500Y-96159778D01*
X78999500Y-96380222D01*
X79001724Y-96394265D01*
X79033985Y-96597952D01*
X79102103Y-96807603D01*
X79102104Y-96807606D01*
X79202187Y-97004025D01*
X79331752Y-97182358D01*
X79331756Y-97182363D01*
X79331758Y-97182365D01*
X79487635Y-97338242D01*
X79648386Y-97455034D01*
X79691051Y-97510362D01*
X79699500Y-97555351D01*
X79699500Y-98388255D01*
X79679815Y-98455294D01*
X79648385Y-98488573D01*
X79552787Y-98558028D01*
X79552782Y-98558032D01*
X79408028Y-98702786D01*
X79287715Y-98868386D01*
X79194781Y-99050776D01*
X79131522Y-99245465D01*
X79099500Y-99447648D01*
X79099500Y-99652351D01*
X79131522Y-99854534D01*
X79194781Y-100049223D01*
X79287715Y-100231613D01*
X79408028Y-100397213D01*
X79552786Y-100541971D01*
X79707749Y-100654556D01*
X79718390Y-100662287D01*
X79834607Y-100721503D01*
X79900776Y-100755218D01*
X79900778Y-100755218D01*
X79900781Y-100755220D01*
X80005137Y-100789127D01*
X80095465Y-100818477D01*
X80196557Y-100834488D01*
X80297648Y-100850500D01*
X80297649Y-100850500D01*
X80502351Y-100850500D01*
X80502352Y-100850500D01*
X80704534Y-100818477D01*
X80899219Y-100755220D01*
X81081610Y-100662287D01*
X81174590Y-100594732D01*
X81247213Y-100541971D01*
X81247215Y-100541968D01*
X81247219Y-100541966D01*
X81391966Y-100397219D01*
X81391968Y-100397215D01*
X81391971Y-100397213D01*
X81444732Y-100324590D01*
X81512287Y-100231610D01*
X81605220Y-100049219D01*
X81668477Y-99854534D01*
X81700500Y-99652352D01*
X81700500Y-99447648D01*
X81682909Y-99336583D01*
X81668477Y-99245465D01*
X81605218Y-99050776D01*
X81534878Y-98912728D01*
X81512287Y-98868390D01*
X81482207Y-98826988D01*
X81391971Y-98702786D01*
X81247217Y-98558032D01*
X81247212Y-98558028D01*
X81151615Y-98488573D01*
X81108949Y-98433243D01*
X81100500Y-98388255D01*
X81100500Y-97555351D01*
X81120185Y-97488312D01*
X81151611Y-97455035D01*
X81312365Y-97338242D01*
X81468242Y-97182365D01*
X81597815Y-97004022D01*
X81697895Y-96807606D01*
X81766015Y-96597951D01*
X81800500Y-96380222D01*
X81800500Y-96159778D01*
X81766015Y-95942049D01*
X81697895Y-95732394D01*
X81697895Y-95732393D01*
X81628451Y-95596104D01*
X81597815Y-95535978D01*
X81499488Y-95400641D01*
X81468247Y-95357641D01*
X81468243Y-95357636D01*
X81418071Y-95307464D01*
X81384586Y-95246141D01*
X81389570Y-95176449D01*
X81431442Y-95120516D01*
X81462420Y-95103601D01*
X81542326Y-95073798D01*
X81542326Y-95073797D01*
X81542331Y-95073796D01*
X81657546Y-94987546D01*
X81743796Y-94872331D01*
X81794091Y-94737483D01*
X81800500Y-94677873D01*
X81800499Y-92782128D01*
X81794091Y-92722517D01*
X81779823Y-92684263D01*
X81743797Y-92587671D01*
X81743793Y-92587664D01*
X81657547Y-92472455D01*
X81657544Y-92472452D01*
X81542335Y-92386206D01*
X81542328Y-92386202D01*
X81407482Y-92335908D01*
X81407483Y-92335908D01*
X81347883Y-92329501D01*
X81347881Y-92329500D01*
X81347873Y-92329500D01*
X81347865Y-92329500D01*
X81224500Y-92329500D01*
X81157461Y-92309815D01*
X81111706Y-92257011D01*
X81100500Y-92205500D01*
X81100500Y-87091518D01*
X81120185Y-87024479D01*
X81136814Y-87003841D01*
X82090799Y-86049856D01*
X82152120Y-86016373D01*
X82221811Y-86021357D01*
X82225860Y-86022949D01*
X82335581Y-86068398D01*
X82588884Y-86136270D01*
X82837188Y-86168960D01*
X82848864Y-86170498D01*
X82848880Y-86170500D01*
X82848887Y-86170500D01*
X83111113Y-86170500D01*
X83111120Y-86170500D01*
X83371116Y-86136270D01*
X83624419Y-86068398D01*
X83866697Y-85968043D01*
X84093803Y-85836924D01*
X84301851Y-85677282D01*
X84301855Y-85677277D01*
X84301860Y-85677274D01*
X84487274Y-85491860D01*
X84487277Y-85491855D01*
X84487282Y-85491851D01*
X84646924Y-85283803D01*
X84778043Y-85056697D01*
X84878398Y-84814419D01*
X84946270Y-84561116D01*
X84980500Y-84301120D01*
X84980500Y-84038880D01*
X84946270Y-83778884D01*
X84878398Y-83525581D01*
X84878394Y-83525571D01*
X84778046Y-83283309D01*
X84778041Y-83283299D01*
X84646924Y-83056196D01*
X84487281Y-82848148D01*
X84487274Y-82848140D01*
X84301860Y-82662726D01*
X84301855Y-82662722D01*
X84301851Y-82662718D01*
X84188069Y-82575409D01*
X84093803Y-82503075D01*
X84057130Y-82481902D01*
X86449500Y-82481902D01*
X86449500Y-105818097D01*
X86486446Y-106051368D01*
X86559433Y-106275996D01*
X86649087Y-106451950D01*
X86666657Y-106486433D01*
X86805483Y-106677510D01*
X86972490Y-106844517D01*
X87163567Y-106983343D01*
X87262991Y-107034002D01*
X87374003Y-107090566D01*
X87374005Y-107090566D01*
X87374008Y-107090568D01*
X87422765Y-107106410D01*
X87598631Y-107163553D01*
X87831903Y-107200500D01*
X87831908Y-107200500D01*
X88068097Y-107200500D01*
X88301368Y-107163553D01*
X88525992Y-107090568D01*
X88736433Y-106983343D01*
X88927510Y-106844517D01*
X89094517Y-106677510D01*
X89233343Y-106486433D01*
X89340568Y-106275992D01*
X89413553Y-106051368D01*
X89424755Y-105980640D01*
X89450500Y-105818097D01*
X89450500Y-82481902D01*
X89413553Y-82248631D01*
X89340566Y-82024003D01*
X89284002Y-81912991D01*
X89233343Y-81813567D01*
X89094517Y-81622490D01*
X88927510Y-81455483D01*
X88736433Y-81316657D01*
X88525996Y-81209433D01*
X88301368Y-81136446D01*
X88068097Y-81099500D01*
X88068092Y-81099500D01*
X87831908Y-81099500D01*
X87831903Y-81099500D01*
X87598631Y-81136446D01*
X87374003Y-81209433D01*
X87163566Y-81316657D01*
X87054550Y-81395862D01*
X86972490Y-81455483D01*
X86972488Y-81455485D01*
X86972487Y-81455485D01*
X86805485Y-81622487D01*
X86805485Y-81622488D01*
X86805483Y-81622490D01*
X86745862Y-81704550D01*
X86666657Y-81813566D01*
X86559433Y-82024003D01*
X86486446Y-82248631D01*
X86449500Y-82481902D01*
X84057130Y-82481902D01*
X83866700Y-82371958D01*
X83866690Y-82371953D01*
X83624428Y-82271605D01*
X83624421Y-82271603D01*
X83624419Y-82271602D01*
X83371116Y-82203730D01*
X83313339Y-82196123D01*
X83111127Y-82169500D01*
X83111120Y-82169500D01*
X82848880Y-82169500D01*
X82848872Y-82169500D01*
X82617772Y-82199926D01*
X82588884Y-82203730D01*
X82421307Y-82248632D01*
X82335581Y-82271602D01*
X82335571Y-82271605D01*
X82093309Y-82371953D01*
X82093299Y-82371958D01*
X81866196Y-82503075D01*
X81658148Y-82662718D01*
X81472718Y-82848148D01*
X81313075Y-83056196D01*
X81181958Y-83283299D01*
X81181951Y-83283314D01*
X81136539Y-83392952D01*
X81092699Y-83447356D01*
X81026405Y-83469421D01*
X81021978Y-83469500D01*
X80024499Y-83469500D01*
X79957460Y-83449815D01*
X79911705Y-83397011D01*
X79900499Y-83345500D01*
X79900499Y-82622129D01*
X79900498Y-82622123D01*
X79900497Y-82622116D01*
X79894091Y-82562517D01*
X79894090Y-82562515D01*
X79843797Y-82427671D01*
X79843793Y-82427664D01*
X79757547Y-82312455D01*
X79757544Y-82312452D01*
X79642335Y-82226206D01*
X79642328Y-82226202D01*
X79507482Y-82175908D01*
X79507483Y-82175908D01*
X79447883Y-82169501D01*
X79447881Y-82169500D01*
X79447873Y-82169500D01*
X79447864Y-82169500D01*
X76352129Y-82169500D01*
X76352123Y-82169501D01*
X76292516Y-82175908D01*
X76157671Y-82226202D01*
X76157664Y-82226206D01*
X76042455Y-82312452D01*
X76042452Y-82312455D01*
X75956206Y-82427664D01*
X75956202Y-82427671D01*
X75905908Y-82562517D01*
X75899501Y-82622116D01*
X75899501Y-82622123D01*
X75899500Y-82622135D01*
X69248963Y-82622135D01*
X69093803Y-82503075D01*
X68866700Y-82371958D01*
X68866690Y-82371953D01*
X68624428Y-82271605D01*
X68624421Y-82271603D01*
X68624419Y-82271602D01*
X68371116Y-82203730D01*
X68313339Y-82196123D01*
X68111127Y-82169500D01*
X68111120Y-82169500D01*
X67848880Y-82169500D01*
X67848872Y-82169500D01*
X67617772Y-82199926D01*
X67588884Y-82203730D01*
X67421307Y-82248632D01*
X67335581Y-82271602D01*
X67335571Y-82271605D01*
X67093309Y-82371953D01*
X67093299Y-82371958D01*
X66866196Y-82503075D01*
X66658148Y-82662718D01*
X66472718Y-82848148D01*
X66313075Y-83056196D01*
X66181958Y-83283299D01*
X66181951Y-83283314D01*
X66136539Y-83392952D01*
X66092699Y-83447356D01*
X66026405Y-83469421D01*
X66021978Y-83469500D01*
X65024499Y-83469500D01*
X64957460Y-83449815D01*
X64911705Y-83397011D01*
X64900499Y-83345500D01*
X64900499Y-82622129D01*
X64900498Y-82622123D01*
X64900497Y-82622116D01*
X64894091Y-82562517D01*
X64894090Y-82562515D01*
X64843797Y-82427671D01*
X64843793Y-82427664D01*
X64757547Y-82312455D01*
X64757544Y-82312452D01*
X64642335Y-82226206D01*
X64642328Y-82226202D01*
X64507482Y-82175908D01*
X64507483Y-82175908D01*
X64447883Y-82169501D01*
X64447881Y-82169500D01*
X64447873Y-82169500D01*
X64447864Y-82169500D01*
X61352129Y-82169500D01*
X61352123Y-82169501D01*
X61292516Y-82175908D01*
X61157671Y-82226202D01*
X61157664Y-82226206D01*
X61042455Y-82312452D01*
X61042452Y-82312455D01*
X60956206Y-82427664D01*
X60956202Y-82427671D01*
X60905908Y-82562517D01*
X60899501Y-82622116D01*
X60899501Y-82622123D01*
X60899500Y-82622135D01*
X60500500Y-82622135D01*
X60500500Y-80624500D01*
X60520185Y-80557461D01*
X60572989Y-80511706D01*
X60624500Y-80500500D01*
X145359481Y-80500500D01*
X145426520Y-80520185D01*
G37*
%TD.AperFunction*%
%TA.AperFunction,Conductor*%
G36*
X209442539Y-80520185D02*
G01*
X209488294Y-80572989D01*
X209499500Y-80624500D01*
X209499500Y-109375500D01*
X209479815Y-109442539D01*
X209427011Y-109488294D01*
X209375500Y-109499500D01*
X201590519Y-109499500D01*
X201523480Y-109479815D01*
X201477725Y-109427011D01*
X201467781Y-109357853D01*
X201496806Y-109294297D01*
X201502838Y-109287819D01*
X207684112Y-103106545D01*
X207684114Y-103106543D01*
X207760775Y-102991811D01*
X207813580Y-102864329D01*
X207830508Y-102779225D01*
X207840500Y-102728993D01*
X207840500Y-86058022D01*
X207860185Y-85990983D01*
X207912989Y-85945228D01*
X207917048Y-85943461D01*
X208026685Y-85898048D01*
X208026685Y-85898047D01*
X208026697Y-85898043D01*
X208253803Y-85766924D01*
X208461851Y-85607282D01*
X208461855Y-85607277D01*
X208461860Y-85607274D01*
X208647274Y-85421860D01*
X208647277Y-85421855D01*
X208647282Y-85421851D01*
X208806924Y-85213803D01*
X208938043Y-84986697D01*
X208956148Y-84942989D01*
X209009403Y-84814418D01*
X209038398Y-84744419D01*
X209106270Y-84491116D01*
X209140500Y-84231120D01*
X209140500Y-83968880D01*
X209106270Y-83708884D01*
X209038398Y-83455581D01*
X209021975Y-83415932D01*
X208938046Y-83213309D01*
X208938041Y-83213299D01*
X208806924Y-82986196D01*
X208647281Y-82778148D01*
X208647274Y-82778140D01*
X208461860Y-82592726D01*
X208461851Y-82592718D01*
X208253803Y-82433075D01*
X208026700Y-82301958D01*
X208026690Y-82301953D01*
X207784428Y-82201605D01*
X207784421Y-82201603D01*
X207784419Y-82201602D01*
X207531116Y-82133730D01*
X207473339Y-82126123D01*
X207271127Y-82099500D01*
X207271120Y-82099500D01*
X207008880Y-82099500D01*
X207008872Y-82099500D01*
X206777772Y-82129926D01*
X206748884Y-82133730D01*
X206591473Y-82175908D01*
X206495581Y-82201602D01*
X206495571Y-82201605D01*
X206253309Y-82301953D01*
X206253299Y-82301958D01*
X206026196Y-82433075D01*
X205818148Y-82592718D01*
X205632718Y-82778148D01*
X205473075Y-82986196D01*
X205341958Y-83213299D01*
X205341953Y-83213309D01*
X205241605Y-83455571D01*
X205241602Y-83455581D01*
X205199601Y-83612334D01*
X205173730Y-83708885D01*
X205139500Y-83968872D01*
X205139500Y-84231127D01*
X205151423Y-84321684D01*
X205173730Y-84491116D01*
X205198745Y-84584472D01*
X205241602Y-84744418D01*
X205241605Y-84744428D01*
X205341953Y-84986690D01*
X205341958Y-84986700D01*
X205473075Y-85213803D01*
X205632718Y-85421851D01*
X205632726Y-85421860D01*
X205818140Y-85607274D01*
X205818148Y-85607281D01*
X206026196Y-85766924D01*
X206253299Y-85898041D01*
X206253314Y-85898048D01*
X206362952Y-85943461D01*
X206417356Y-85987301D01*
X206439421Y-86053595D01*
X206439500Y-86058022D01*
X206439500Y-102318481D01*
X206419815Y-102385520D01*
X206403181Y-102406162D01*
X200297162Y-108512181D01*
X200235839Y-108545666D01*
X200209481Y-108548500D01*
X172820519Y-108548500D01*
X172753480Y-108528815D01*
X172732838Y-108512181D01*
X171716805Y-107496148D01*
X171683320Y-107434825D01*
X171682013Y-107389068D01*
X171684748Y-107371803D01*
X171700500Y-107272352D01*
X171700500Y-107067648D01*
X171699792Y-107063181D01*
X171668477Y-106865465D01*
X171646822Y-106798820D01*
X171605220Y-106670781D01*
X171605218Y-106670777D01*
X171603714Y-106666148D01*
X171605035Y-106665718D01*
X171598236Y-106602486D01*
X171629509Y-106540006D01*
X171689597Y-106504352D01*
X171720266Y-106500500D01*
X172368996Y-106500500D01*
X172460040Y-106482389D01*
X172504328Y-106473580D01*
X172568069Y-106447177D01*
X172631807Y-106420777D01*
X172631808Y-106420776D01*
X172631811Y-106420775D01*
X172746543Y-106344114D01*
X173221157Y-105869500D01*
X173618588Y-105472070D01*
X183128720Y-105472070D01*
X183128720Y-105727929D01*
X183168746Y-105980640D01*
X183247808Y-106223972D01*
X183247809Y-106223975D01*
X183309023Y-106344112D01*
X183334500Y-106394114D01*
X183363970Y-106451950D01*
X183514352Y-106658935D01*
X183514356Y-106658940D01*
X183695279Y-106839863D01*
X183695284Y-106839867D01*
X183875827Y-106971038D01*
X183902273Y-106990252D01*
X184045404Y-107063181D01*
X184130244Y-107106410D01*
X184130247Y-107106411D01*
X184251913Y-107145942D01*
X184373581Y-107185474D01*
X184626290Y-107225500D01*
X184626291Y-107225500D01*
X184882149Y-107225500D01*
X184882150Y-107225500D01*
X185134859Y-107185474D01*
X185378195Y-107106410D01*
X185606167Y-106990252D01*
X185813162Y-106839862D01*
X185994082Y-106658942D01*
X186144472Y-106451947D01*
X186260630Y-106223975D01*
X186339694Y-105980639D01*
X186379720Y-105727930D01*
X186379720Y-105472070D01*
X188874500Y-105472070D01*
X188874500Y-105727929D01*
X188914526Y-105980640D01*
X188993588Y-106223972D01*
X188993589Y-106223975D01*
X189054803Y-106344112D01*
X189080280Y-106394114D01*
X189109750Y-106451950D01*
X189260132Y-106658935D01*
X189260136Y-106658940D01*
X189441059Y-106839863D01*
X189441064Y-106839867D01*
X189621607Y-106971038D01*
X189648053Y-106990252D01*
X189791184Y-107063181D01*
X189876024Y-107106410D01*
X189876027Y-107106411D01*
X189997693Y-107145942D01*
X190119361Y-107185474D01*
X190372070Y-107225500D01*
X190372071Y-107225500D01*
X190627929Y-107225500D01*
X190627930Y-107225500D01*
X190880639Y-107185474D01*
X191123975Y-107106410D01*
X191351947Y-106990252D01*
X191558942Y-106839862D01*
X191739862Y-106658942D01*
X191890252Y-106451947D01*
X192006410Y-106223975D01*
X192085474Y-105980639D01*
X192125500Y-105727930D01*
X192125500Y-105472070D01*
X192085474Y-105219361D01*
X192038493Y-105074767D01*
X192006411Y-104976027D01*
X192006410Y-104976024D01*
X191916720Y-104800000D01*
X191890252Y-104748053D01*
X191871038Y-104721607D01*
X191739867Y-104541064D01*
X191739863Y-104541059D01*
X191558940Y-104360136D01*
X191558935Y-104360132D01*
X191351950Y-104209750D01*
X191351949Y-104209749D01*
X191351947Y-104209748D01*
X191278910Y-104172533D01*
X191123975Y-104093589D01*
X191123972Y-104093588D01*
X190880640Y-104014526D01*
X190754284Y-103994513D01*
X190627930Y-103974500D01*
X190372070Y-103974500D01*
X190287833Y-103987842D01*
X190119359Y-104014526D01*
X189876027Y-104093588D01*
X189876024Y-104093589D01*
X189648049Y-104209750D01*
X189441064Y-104360132D01*
X189441059Y-104360136D01*
X189260136Y-104541059D01*
X189260132Y-104541064D01*
X189109750Y-104748049D01*
X188993589Y-104976024D01*
X188993588Y-104976027D01*
X188914526Y-105219359D01*
X188874500Y-105472070D01*
X186379720Y-105472070D01*
X186339694Y-105219361D01*
X186292713Y-105074767D01*
X186260631Y-104976027D01*
X186260630Y-104976024D01*
X186170940Y-104800000D01*
X186144472Y-104748053D01*
X186125258Y-104721607D01*
X185994087Y-104541064D01*
X185994083Y-104541059D01*
X185813160Y-104360136D01*
X185813155Y-104360132D01*
X185606170Y-104209750D01*
X185606169Y-104209749D01*
X185606167Y-104209748D01*
X185533130Y-104172533D01*
X185378195Y-104093589D01*
X185378192Y-104093588D01*
X185134860Y-104014526D01*
X185008504Y-103994513D01*
X184882150Y-103974500D01*
X184626290Y-103974500D01*
X184542053Y-103987842D01*
X184373579Y-104014526D01*
X184130247Y-104093588D01*
X184130244Y-104093589D01*
X183902269Y-104209750D01*
X183695284Y-104360132D01*
X183695279Y-104360136D01*
X183514356Y-104541059D01*
X183514352Y-104541064D01*
X183363970Y-104748049D01*
X183247809Y-104976024D01*
X183247808Y-104976027D01*
X183168746Y-105219359D01*
X183128720Y-105472070D01*
X173618588Y-105472070D01*
X173711141Y-105379517D01*
X175244111Y-103846546D01*
X175244112Y-103846545D01*
X175244114Y-103846543D01*
X175320775Y-103731811D01*
X175373580Y-103604328D01*
X175400500Y-103468994D01*
X175400500Y-103331006D01*
X175400500Y-102599180D01*
X178152730Y-102599180D01*
X178152730Y-102855040D01*
X178157450Y-102884839D01*
X178192756Y-103107750D01*
X178271818Y-103351082D01*
X178271819Y-103351085D01*
X178387980Y-103579060D01*
X178538362Y-103786045D01*
X178538366Y-103786050D01*
X178719289Y-103966973D01*
X178719294Y-103966977D01*
X178899837Y-104098148D01*
X178926283Y-104117362D01*
X179075310Y-104193295D01*
X179154254Y-104233520D01*
X179154257Y-104233521D01*
X179275923Y-104273052D01*
X179397591Y-104312584D01*
X179650300Y-104352610D01*
X179650301Y-104352610D01*
X179906159Y-104352610D01*
X179906160Y-104352610D01*
X180158869Y-104312584D01*
X180402205Y-104233520D01*
X180630177Y-104117362D01*
X180837172Y-103966972D01*
X181018092Y-103786052D01*
X181168482Y-103579057D01*
X181284640Y-103351085D01*
X181363704Y-103107749D01*
X181403730Y-102855040D01*
X181403730Y-102599180D01*
X193850500Y-102599180D01*
X193850500Y-102855040D01*
X193855220Y-102884839D01*
X193890526Y-103107750D01*
X193969588Y-103351082D01*
X193969589Y-103351085D01*
X194085750Y-103579060D01*
X194236132Y-103786045D01*
X194236136Y-103786050D01*
X194417059Y-103966973D01*
X194417064Y-103966977D01*
X194597607Y-104098148D01*
X194624053Y-104117362D01*
X194773080Y-104193295D01*
X194852024Y-104233520D01*
X194852027Y-104233521D01*
X194973693Y-104273052D01*
X195095361Y-104312584D01*
X195348070Y-104352610D01*
X195348071Y-104352610D01*
X195603929Y-104352610D01*
X195603930Y-104352610D01*
X195856639Y-104312584D01*
X196099975Y-104233520D01*
X196327947Y-104117362D01*
X196534942Y-103966972D01*
X196715862Y-103786052D01*
X196866252Y-103579057D01*
X196982410Y-103351085D01*
X197061474Y-103107749D01*
X197101500Y-102855040D01*
X197101500Y-102599180D01*
X197061474Y-102346471D01*
X196982410Y-102103135D01*
X196982410Y-102103134D01*
X196902622Y-101946543D01*
X196866252Y-101875163D01*
X196742134Y-101704328D01*
X196715867Y-101668174D01*
X196715863Y-101668169D01*
X196534940Y-101487246D01*
X196534935Y-101487242D01*
X196327950Y-101336860D01*
X196327949Y-101336859D01*
X196327947Y-101336858D01*
X196254910Y-101299643D01*
X196099975Y-101220699D01*
X196099972Y-101220698D01*
X195856640Y-101141636D01*
X195730284Y-101121623D01*
X195603930Y-101101610D01*
X195348070Y-101101610D01*
X195263833Y-101114952D01*
X195095359Y-101141636D01*
X194852027Y-101220698D01*
X194852024Y-101220699D01*
X194624049Y-101336860D01*
X194417064Y-101487242D01*
X194417059Y-101487246D01*
X194236136Y-101668169D01*
X194236132Y-101668174D01*
X194085750Y-101875159D01*
X193969589Y-102103134D01*
X193969588Y-102103137D01*
X193890526Y-102346469D01*
X193850500Y-102599180D01*
X181403730Y-102599180D01*
X181363704Y-102346471D01*
X181284640Y-102103135D01*
X181284640Y-102103134D01*
X181204852Y-101946543D01*
X181168482Y-101875163D01*
X181044364Y-101704328D01*
X181018097Y-101668174D01*
X181018093Y-101668169D01*
X180837170Y-101487246D01*
X180837165Y-101487242D01*
X180630180Y-101336860D01*
X180630179Y-101336859D01*
X180630177Y-101336858D01*
X180557140Y-101299643D01*
X180402205Y-101220699D01*
X180402202Y-101220698D01*
X180158870Y-101141636D01*
X180032514Y-101121623D01*
X179906160Y-101101610D01*
X179650300Y-101101610D01*
X179566063Y-101114952D01*
X179397589Y-101141636D01*
X179154257Y-101220698D01*
X179154254Y-101220699D01*
X178926279Y-101336860D01*
X178719294Y-101487242D01*
X178719289Y-101487246D01*
X178538366Y-101668169D01*
X178538362Y-101668174D01*
X178387980Y-101875159D01*
X178271819Y-102103134D01*
X178271818Y-102103137D01*
X178192756Y-102346469D01*
X178152730Y-102599180D01*
X175400500Y-102599180D01*
X175400500Y-98826988D01*
X175420185Y-98759949D01*
X175472989Y-98714194D01*
X175542147Y-98704250D01*
X175605703Y-98733275D01*
X175624818Y-98754103D01*
X175665462Y-98810045D01*
X175665466Y-98810050D01*
X175846389Y-98990973D01*
X175846394Y-98990977D01*
X176005438Y-99106528D01*
X176053383Y-99141362D01*
X176202410Y-99217295D01*
X176281354Y-99257520D01*
X176281357Y-99257521D01*
X176403023Y-99297052D01*
X176524691Y-99336584D01*
X176777400Y-99376610D01*
X176777401Y-99376610D01*
X177033259Y-99376610D01*
X177033260Y-99376610D01*
X177285969Y-99336584D01*
X177529305Y-99257520D01*
X177757277Y-99141362D01*
X177964272Y-98990972D01*
X178145192Y-98810052D01*
X178295582Y-98603057D01*
X178411740Y-98375085D01*
X178490804Y-98131749D01*
X178530830Y-97879040D01*
X178530830Y-97623180D01*
X178520087Y-97555351D01*
X178509295Y-97487216D01*
X178506994Y-97472690D01*
X183279750Y-97472690D01*
X183279750Y-97728469D01*
X183319763Y-97981103D01*
X183398801Y-98224361D01*
X183398802Y-98224364D01*
X183514925Y-98452266D01*
X183592600Y-98559175D01*
X183592600Y-98559176D01*
X184227171Y-97924604D01*
X184240109Y-97955838D01*
X184322187Y-98078677D01*
X184426653Y-98183143D01*
X184549492Y-98265221D01*
X184580724Y-98278157D01*
X183946152Y-98912728D01*
X184053063Y-98990404D01*
X184280965Y-99106527D01*
X184280968Y-99106528D01*
X184524226Y-99185566D01*
X184776861Y-99225580D01*
X185032639Y-99225580D01*
X185285273Y-99185566D01*
X185528531Y-99106528D01*
X185528534Y-99106527D01*
X185756435Y-98990405D01*
X185863345Y-98912728D01*
X185863346Y-98912728D01*
X185228775Y-98278158D01*
X185260008Y-98265221D01*
X185382847Y-98183143D01*
X185487313Y-98078677D01*
X185569391Y-97955838D01*
X185582327Y-97924605D01*
X186216898Y-98559176D01*
X186216898Y-98559175D01*
X186294575Y-98452265D01*
X186410697Y-98224364D01*
X186410698Y-98224361D01*
X186489736Y-97981103D01*
X186529750Y-97728469D01*
X186529750Y-97623180D01*
X196723390Y-97623180D01*
X196723390Y-97879039D01*
X196763416Y-98131750D01*
X196842478Y-98375082D01*
X196842479Y-98375085D01*
X196900305Y-98488573D01*
X196936279Y-98559176D01*
X196958640Y-98603060D01*
X197109022Y-98810045D01*
X197109026Y-98810050D01*
X197289949Y-98990973D01*
X197289954Y-98990977D01*
X197448998Y-99106528D01*
X197496943Y-99141362D01*
X197645970Y-99217295D01*
X197724914Y-99257520D01*
X197724917Y-99257521D01*
X197846583Y-99297052D01*
X197968251Y-99336584D01*
X198220960Y-99376610D01*
X198220961Y-99376610D01*
X198476819Y-99376610D01*
X198476820Y-99376610D01*
X198729529Y-99336584D01*
X198972865Y-99257520D01*
X199200837Y-99141362D01*
X199407832Y-98990972D01*
X199588752Y-98810052D01*
X199739142Y-98603057D01*
X199855300Y-98375085D01*
X199934364Y-98131749D01*
X199974390Y-97879040D01*
X199974390Y-97623180D01*
X199934364Y-97370471D01*
X199855300Y-97127135D01*
X199855300Y-97127134D01*
X199792572Y-97004025D01*
X199739142Y-96899163D01*
X199660399Y-96790782D01*
X199588757Y-96692174D01*
X199588753Y-96692169D01*
X199407830Y-96511246D01*
X199407825Y-96511242D01*
X199200840Y-96360860D01*
X199200839Y-96360859D01*
X199200837Y-96360858D01*
X199058690Y-96288430D01*
X198972865Y-96244699D01*
X198972862Y-96244698D01*
X198729530Y-96165636D01*
X198603174Y-96145623D01*
X198476820Y-96125610D01*
X198220960Y-96125610D01*
X198136723Y-96138952D01*
X197968249Y-96165636D01*
X197724917Y-96244698D01*
X197724914Y-96244699D01*
X197496939Y-96360860D01*
X197289954Y-96511242D01*
X197289949Y-96511246D01*
X197109026Y-96692169D01*
X197109022Y-96692174D01*
X196958640Y-96899159D01*
X196842479Y-97127134D01*
X196842478Y-97127137D01*
X196763416Y-97370469D01*
X196723390Y-97623180D01*
X186529750Y-97623180D01*
X186529750Y-97472690D01*
X186489736Y-97220056D01*
X186410698Y-96976798D01*
X186410697Y-96976795D01*
X186294574Y-96748893D01*
X186216898Y-96641983D01*
X186216898Y-96641982D01*
X185582327Y-97276553D01*
X185569391Y-97245322D01*
X185487313Y-97122483D01*
X185382847Y-97018017D01*
X185260008Y-96935939D01*
X185228774Y-96923001D01*
X185863346Y-96288430D01*
X185756436Y-96210755D01*
X185528534Y-96094632D01*
X185528531Y-96094631D01*
X185285273Y-96015593D01*
X185032639Y-95975580D01*
X184776861Y-95975580D01*
X184524226Y-96015593D01*
X184280968Y-96094631D01*
X184280965Y-96094632D01*
X184053060Y-96210757D01*
X183946153Y-96288429D01*
X183946152Y-96288430D01*
X184580724Y-96923001D01*
X184549492Y-96935939D01*
X184426653Y-97018017D01*
X184322187Y-97122483D01*
X184240109Y-97245322D01*
X184227171Y-97276554D01*
X183592600Y-96641982D01*
X183592599Y-96641983D01*
X183514927Y-96748890D01*
X183398802Y-96976795D01*
X183398801Y-96976798D01*
X183319763Y-97220056D01*
X183279750Y-97472690D01*
X178506994Y-97472690D01*
X178492600Y-97381813D01*
X178490804Y-97370471D01*
X178411740Y-97127135D01*
X178411740Y-97127134D01*
X178349012Y-97004025D01*
X178295582Y-96899163D01*
X178216839Y-96790782D01*
X178145197Y-96692174D01*
X178145193Y-96692169D01*
X177964270Y-96511246D01*
X177964265Y-96511242D01*
X177860714Y-96436008D01*
X177757280Y-96360860D01*
X177757279Y-96360859D01*
X177757277Y-96360858D01*
X177615130Y-96288430D01*
X177529305Y-96244699D01*
X177529302Y-96244698D01*
X177285970Y-96165636D01*
X177159614Y-96145623D01*
X177033260Y-96125610D01*
X176777400Y-96125610D01*
X176693163Y-96138952D01*
X176524689Y-96165636D01*
X176281357Y-96244698D01*
X176281354Y-96244699D01*
X176053379Y-96360860D01*
X175846394Y-96511242D01*
X175846389Y-96511246D01*
X175665466Y-96692169D01*
X175624818Y-96748117D01*
X175569488Y-96790782D01*
X175499874Y-96796761D01*
X175438079Y-96764155D01*
X175403722Y-96703316D01*
X175400500Y-96675231D01*
X175400500Y-94552178D01*
X175420185Y-94485139D01*
X175436815Y-94464501D01*
X176309307Y-93592008D01*
X176370628Y-93558525D01*
X176435303Y-93561759D01*
X176524691Y-93590804D01*
X176777400Y-93630830D01*
X176777401Y-93630830D01*
X177033259Y-93630830D01*
X177033260Y-93630830D01*
X177285969Y-93590804D01*
X177529305Y-93511740D01*
X177757277Y-93395582D01*
X177964272Y-93245192D01*
X178145192Y-93064272D01*
X178295582Y-92857277D01*
X178411740Y-92629305D01*
X178490804Y-92385969D01*
X178530830Y-92133260D01*
X178530830Y-91877400D01*
X178490804Y-91624691D01*
X178411740Y-91381356D01*
X178411740Y-91381354D01*
X178338250Y-91237124D01*
X178295582Y-91153383D01*
X178257529Y-91101007D01*
X178145197Y-90946394D01*
X178145193Y-90946389D01*
X177964270Y-90765466D01*
X177964265Y-90765462D01*
X177757280Y-90615080D01*
X177757279Y-90615079D01*
X177757277Y-90615078D01*
X177684240Y-90577863D01*
X177529305Y-90498919D01*
X177529302Y-90498918D01*
X177285970Y-90419856D01*
X177159614Y-90399843D01*
X177033260Y-90379830D01*
X176777400Y-90379830D01*
X176693163Y-90393172D01*
X176524689Y-90419856D01*
X176281357Y-90498918D01*
X176281354Y-90498919D01*
X176053379Y-90615080D01*
X175846394Y-90765462D01*
X175846389Y-90765466D01*
X175665466Y-90946389D01*
X175665462Y-90946394D01*
X175515080Y-91153379D01*
X175398919Y-91381354D01*
X175398918Y-91381357D01*
X175319856Y-91624689D01*
X175279830Y-91877400D01*
X175279830Y-92133259D01*
X175319856Y-92385970D01*
X175319856Y-92385973D01*
X175348898Y-92475354D01*
X175350893Y-92545195D01*
X175318648Y-92601353D01*
X174155887Y-93764114D01*
X174079222Y-93878852D01*
X174026421Y-94006327D01*
X174026418Y-94006337D01*
X173999500Y-94141664D01*
X173999500Y-103058481D01*
X173979815Y-103125520D01*
X173963181Y-103146162D01*
X172046162Y-105063181D01*
X171984839Y-105096666D01*
X171958481Y-105099500D01*
X170590519Y-105099500D01*
X170523480Y-105079815D01*
X170477725Y-105027011D01*
X170467781Y-104957853D01*
X170496806Y-104894297D01*
X170502838Y-104887819D01*
X173444112Y-101946545D01*
X173444114Y-101946543D01*
X173520775Y-101831811D01*
X173573580Y-101704328D01*
X173600500Y-101568994D01*
X173600500Y-101431006D01*
X173600500Y-88841518D01*
X173620185Y-88774479D01*
X173636819Y-88753837D01*
X175489246Y-86901410D01*
X178152730Y-86901410D01*
X178152730Y-87157269D01*
X178192756Y-87409980D01*
X178271818Y-87653312D01*
X178271819Y-87653315D01*
X178387980Y-87881290D01*
X178538362Y-88088275D01*
X178538366Y-88088280D01*
X178719289Y-88269203D01*
X178719294Y-88269207D01*
X178899837Y-88400378D01*
X178926283Y-88419592D01*
X179075310Y-88495525D01*
X179154254Y-88535750D01*
X179154257Y-88535751D01*
X179275923Y-88575282D01*
X179397591Y-88614814D01*
X179650300Y-88654840D01*
X179650301Y-88654840D01*
X179906159Y-88654840D01*
X179906160Y-88654840D01*
X180158869Y-88614814D01*
X180402205Y-88535750D01*
X180630177Y-88419592D01*
X180837172Y-88269202D01*
X181018092Y-88088282D01*
X181168482Y-87881287D01*
X181284640Y-87653315D01*
X181363704Y-87409979D01*
X181403730Y-87157270D01*
X181403730Y-86901410D01*
X181363704Y-86648701D01*
X181330227Y-86545667D01*
X181284641Y-86405366D01*
X181284640Y-86405364D01*
X181232715Y-86303457D01*
X181168482Y-86177393D01*
X181089290Y-86068394D01*
X181018097Y-85970404D01*
X181018093Y-85970399D01*
X180837170Y-85789476D01*
X180837165Y-85789472D01*
X180630180Y-85639090D01*
X180630179Y-85639089D01*
X180630177Y-85639088D01*
X180557140Y-85601873D01*
X180402205Y-85522929D01*
X180402202Y-85522928D01*
X180158870Y-85443866D01*
X180019875Y-85421851D01*
X179906160Y-85403840D01*
X179650300Y-85403840D01*
X179566063Y-85417182D01*
X179397589Y-85443866D01*
X179154257Y-85522928D01*
X179154254Y-85522929D01*
X178926279Y-85639090D01*
X178719294Y-85789472D01*
X178719289Y-85789476D01*
X178538366Y-85970399D01*
X178538362Y-85970404D01*
X178387980Y-86177389D01*
X178271819Y-86405364D01*
X178271819Y-86405366D01*
X178192756Y-86648699D01*
X178152730Y-86901410D01*
X175489246Y-86901410D01*
X177497387Y-84893269D01*
X177558710Y-84859784D01*
X177585068Y-84856950D01*
X183210814Y-84856950D01*
X183277853Y-84876635D01*
X183321299Y-84924655D01*
X183352911Y-84986697D01*
X183363970Y-85008400D01*
X183514352Y-85215385D01*
X183514356Y-85215390D01*
X183695279Y-85396313D01*
X183695284Y-85396317D01*
X183875827Y-85527488D01*
X183902273Y-85546702D01*
X184051300Y-85622635D01*
X184130244Y-85662860D01*
X184130247Y-85662861D01*
X184251913Y-85702392D01*
X184373581Y-85741924D01*
X184626290Y-85781950D01*
X184626291Y-85781950D01*
X184882149Y-85781950D01*
X184882150Y-85781950D01*
X185134859Y-85741924D01*
X185378195Y-85662860D01*
X185606167Y-85546702D01*
X185813162Y-85396312D01*
X185994082Y-85215392D01*
X186002135Y-85204307D01*
X186075182Y-85103768D01*
X186130511Y-85061102D01*
X186200125Y-85055123D01*
X186261920Y-85087728D01*
X186296277Y-85148567D01*
X186299500Y-85176653D01*
X186299500Y-89931006D01*
X186299500Y-90068994D01*
X186299500Y-90068996D01*
X186299499Y-90068996D01*
X186326418Y-90204322D01*
X186326421Y-90204332D01*
X186379222Y-90331807D01*
X186455887Y-90446545D01*
X186455888Y-90446546D01*
X188461215Y-92451871D01*
X188554539Y-92545195D01*
X188558788Y-92549444D01*
X188673511Y-92626100D01*
X188673515Y-92626102D01*
X188673518Y-92626104D01*
X188748195Y-92657036D01*
X188801000Y-92678909D01*
X188827920Y-92684263D01*
X188924959Y-92703566D01*
X188936335Y-92705829D01*
X188936336Y-92705829D01*
X196805484Y-92705829D01*
X196872523Y-92725514D01*
X196915969Y-92773534D01*
X196958640Y-92857279D01*
X197109022Y-93064264D01*
X197109026Y-93064269D01*
X197289949Y-93245192D01*
X197289954Y-93245196D01*
X197416006Y-93336777D01*
X197496943Y-93395581D01*
X197645970Y-93471514D01*
X197724914Y-93511739D01*
X197724917Y-93511740D01*
X197806597Y-93538279D01*
X197968251Y-93590803D01*
X198220960Y-93630829D01*
X198220961Y-93630829D01*
X198476819Y-93630829D01*
X198476820Y-93630829D01*
X198729529Y-93590803D01*
X198972865Y-93511739D01*
X199200837Y-93395581D01*
X199407832Y-93245191D01*
X199588752Y-93064271D01*
X199739142Y-92857276D01*
X199855300Y-92629304D01*
X199934364Y-92385968D01*
X199974390Y-92133259D01*
X199974390Y-91877399D01*
X199934364Y-91624690D01*
X199855300Y-91381355D01*
X199855300Y-91381353D01*
X199797803Y-91268510D01*
X199739142Y-91153382D01*
X199701090Y-91101007D01*
X199588757Y-90946393D01*
X199588753Y-90946388D01*
X199407830Y-90765465D01*
X199407825Y-90765461D01*
X199200840Y-90615079D01*
X199200839Y-90615078D01*
X199200837Y-90615077D01*
X199127800Y-90577862D01*
X198972865Y-90498918D01*
X198972862Y-90498917D01*
X198729530Y-90419855D01*
X198603174Y-90399842D01*
X198476820Y-90379829D01*
X198220960Y-90379829D01*
X198136723Y-90393171D01*
X197968249Y-90419855D01*
X197724917Y-90498917D01*
X197724914Y-90498918D01*
X197496939Y-90615079D01*
X197289954Y-90765461D01*
X197289949Y-90765465D01*
X197109026Y-90946388D01*
X197109022Y-90946393D01*
X196958640Y-91153378D01*
X196915969Y-91237124D01*
X196867994Y-91287920D01*
X196805484Y-91304829D01*
X189346847Y-91304829D01*
X189279808Y-91285144D01*
X189259166Y-91268510D01*
X187736819Y-89746162D01*
X187703334Y-89684839D01*
X187700500Y-89658481D01*
X187700500Y-86319860D01*
X187720185Y-86252821D01*
X187772989Y-86207066D01*
X187842147Y-86197122D01*
X187905703Y-86226147D01*
X187912181Y-86232179D01*
X189253454Y-87573452D01*
X189368192Y-87650117D01*
X189495667Y-87702918D01*
X189495672Y-87702920D01*
X189495676Y-87702920D01*
X189495677Y-87702921D01*
X189631003Y-87729840D01*
X189631006Y-87729840D01*
X189631007Y-87729840D01*
X193932594Y-87729840D01*
X193999633Y-87749525D01*
X194043079Y-87797545D01*
X194085750Y-87881290D01*
X194236132Y-88088275D01*
X194236136Y-88088280D01*
X194417059Y-88269203D01*
X194417064Y-88269207D01*
X194597607Y-88400378D01*
X194624053Y-88419592D01*
X194773080Y-88495525D01*
X194852024Y-88535750D01*
X194852027Y-88535751D01*
X194973693Y-88575282D01*
X195095361Y-88614814D01*
X195348070Y-88654840D01*
X195348071Y-88654840D01*
X195603929Y-88654840D01*
X195603930Y-88654840D01*
X195856639Y-88614814D01*
X196099975Y-88535750D01*
X196327947Y-88419592D01*
X196534942Y-88269202D01*
X196715862Y-88088282D01*
X196866252Y-87881287D01*
X196982410Y-87653315D01*
X197061474Y-87409979D01*
X197101500Y-87157270D01*
X197101500Y-86901410D01*
X197061474Y-86648701D01*
X197027997Y-86545667D01*
X196982411Y-86405366D01*
X196982410Y-86405364D01*
X196930485Y-86303457D01*
X196866252Y-86177393D01*
X196787060Y-86068394D01*
X196715867Y-85970404D01*
X196715863Y-85970399D01*
X196534940Y-85789476D01*
X196534935Y-85789472D01*
X196327950Y-85639090D01*
X196327949Y-85639089D01*
X196327947Y-85639088D01*
X196254910Y-85601873D01*
X196099975Y-85522929D01*
X196099972Y-85522928D01*
X195856640Y-85443866D01*
X195717645Y-85421851D01*
X195603930Y-85403840D01*
X195348070Y-85403840D01*
X195263833Y-85417182D01*
X195095359Y-85443866D01*
X194852027Y-85522928D01*
X194852024Y-85522929D01*
X194624049Y-85639090D01*
X194417064Y-85789472D01*
X194417059Y-85789476D01*
X194236136Y-85970399D01*
X194236132Y-85970404D01*
X194085750Y-86177389D01*
X194043079Y-86261135D01*
X193995104Y-86311931D01*
X193932594Y-86328840D01*
X190041519Y-86328840D01*
X189974480Y-86309155D01*
X189953838Y-86292521D01*
X189036819Y-85375502D01*
X189003334Y-85314179D01*
X189000500Y-85287821D01*
X189000500Y-85239664D01*
X189020185Y-85172625D01*
X189072989Y-85126870D01*
X189142147Y-85116926D01*
X189205703Y-85145951D01*
X189224819Y-85166779D01*
X189260138Y-85215392D01*
X189441059Y-85396313D01*
X189441064Y-85396317D01*
X189621607Y-85527488D01*
X189648053Y-85546702D01*
X189797080Y-85622635D01*
X189876024Y-85662860D01*
X189876027Y-85662861D01*
X189997693Y-85702392D01*
X190119361Y-85741924D01*
X190372070Y-85781950D01*
X190372071Y-85781950D01*
X190627929Y-85781950D01*
X190627930Y-85781950D01*
X190880639Y-85741924D01*
X191123975Y-85662860D01*
X191351947Y-85546702D01*
X191558942Y-85396312D01*
X191739862Y-85215392D01*
X191890252Y-85008397D01*
X192006410Y-84780425D01*
X192085474Y-84537089D01*
X192125500Y-84284380D01*
X192125500Y-84028520D01*
X192085474Y-83775811D01*
X192006410Y-83532475D01*
X192006410Y-83532474D01*
X191964292Y-83449815D01*
X191890252Y-83304503D01*
X191814690Y-83200500D01*
X191739867Y-83097514D01*
X191739863Y-83097509D01*
X191558940Y-82916586D01*
X191558935Y-82916582D01*
X191351950Y-82766200D01*
X191351949Y-82766199D01*
X191351947Y-82766198D01*
X191148857Y-82662718D01*
X191142220Y-82659336D01*
X191142218Y-82659334D01*
X191123980Y-82650042D01*
X191123972Y-82650038D01*
X190880640Y-82570976D01*
X190761811Y-82552155D01*
X200060000Y-82552155D01*
X200060000Y-83850000D01*
X201340936Y-83850000D01*
X201329207Y-83878316D01*
X201300000Y-84025147D01*
X201300000Y-84174853D01*
X201329207Y-84321684D01*
X201340936Y-84350000D01*
X200060000Y-84350000D01*
X200060000Y-85647844D01*
X200066401Y-85707372D01*
X200066403Y-85707379D01*
X200116645Y-85842086D01*
X200116649Y-85842093D01*
X200202809Y-85957187D01*
X200202812Y-85957190D01*
X200317906Y-86043350D01*
X200317913Y-86043354D01*
X200452620Y-86093596D01*
X200452627Y-86093598D01*
X200512155Y-86099999D01*
X200512172Y-86100000D01*
X201810000Y-86100000D01*
X201810000Y-84819064D01*
X201838316Y-84830793D01*
X201985147Y-84860000D01*
X202134853Y-84860000D01*
X202281684Y-84830793D01*
X202310000Y-84819064D01*
X202310000Y-86100000D01*
X203607828Y-86100000D01*
X203607844Y-86099999D01*
X203667372Y-86093598D01*
X203667379Y-86093596D01*
X203802086Y-86043354D01*
X203802093Y-86043350D01*
X203917187Y-85957190D01*
X203917190Y-85957187D01*
X204003350Y-85842093D01*
X204003354Y-85842086D01*
X204053596Y-85707379D01*
X204053598Y-85707372D01*
X204059999Y-85647844D01*
X204060000Y-85647827D01*
X204060000Y-84350000D01*
X202779064Y-84350000D01*
X202790793Y-84321684D01*
X202820000Y-84174853D01*
X202820000Y-84025147D01*
X202790793Y-83878316D01*
X202779064Y-83850000D01*
X204060000Y-83850000D01*
X204060000Y-82552172D01*
X204059999Y-82552155D01*
X204053598Y-82492627D01*
X204053596Y-82492620D01*
X204003354Y-82357913D01*
X204003350Y-82357906D01*
X203917190Y-82242812D01*
X203917187Y-82242809D01*
X203802093Y-82156649D01*
X203802086Y-82156645D01*
X203667379Y-82106403D01*
X203667372Y-82106401D01*
X203607844Y-82100000D01*
X202310000Y-82100000D01*
X202310000Y-83380935D01*
X202281684Y-83369207D01*
X202134853Y-83340000D01*
X201985147Y-83340000D01*
X201838316Y-83369207D01*
X201810000Y-83380935D01*
X201810000Y-82100000D01*
X200512155Y-82100000D01*
X200452627Y-82106401D01*
X200452620Y-82106403D01*
X200317913Y-82156645D01*
X200317906Y-82156649D01*
X200202812Y-82242809D01*
X200202809Y-82242812D01*
X200116649Y-82357906D01*
X200116645Y-82357913D01*
X200066403Y-82492620D01*
X200066401Y-82492627D01*
X200060000Y-82552155D01*
X190761811Y-82552155D01*
X190647868Y-82534108D01*
X190627930Y-82530950D01*
X190372070Y-82530950D01*
X190352132Y-82534108D01*
X190119361Y-82570975D01*
X190029971Y-82600019D01*
X189960130Y-82602013D01*
X189903974Y-82569768D01*
X188046388Y-80712181D01*
X188012903Y-80650858D01*
X188017887Y-80581166D01*
X188059759Y-80525233D01*
X188125223Y-80500816D01*
X188134069Y-80500500D01*
X209375500Y-80500500D01*
X209442539Y-80520185D01*
G37*
%TD.AperFunction*%
%TA.AperFunction,Conductor*%
G36*
X159526520Y-81420185D02*
G01*
X159572275Y-81472989D01*
X159582219Y-81542147D01*
X159553194Y-81605703D01*
X159547165Y-81612177D01*
X159135339Y-82024003D01*
X158869202Y-82290140D01*
X158807879Y-82323625D01*
X158738187Y-82318641D01*
X158734068Y-82317020D01*
X158624428Y-82271605D01*
X158624421Y-82271603D01*
X158624419Y-82271602D01*
X158371116Y-82203730D01*
X158313339Y-82196123D01*
X158111127Y-82169500D01*
X158111120Y-82169500D01*
X157848880Y-82169500D01*
X157848872Y-82169500D01*
X157617772Y-82199926D01*
X157588884Y-82203730D01*
X157421307Y-82248632D01*
X157335581Y-82271602D01*
X157335571Y-82271605D01*
X157093309Y-82371953D01*
X157093299Y-82371958D01*
X156866196Y-82503075D01*
X156658148Y-82662718D01*
X156472718Y-82848148D01*
X156313075Y-83056196D01*
X156181958Y-83283299D01*
X156181951Y-83283314D01*
X156136539Y-83392952D01*
X156092699Y-83447356D01*
X156026405Y-83469421D01*
X156021978Y-83469500D01*
X155024499Y-83469500D01*
X154957460Y-83449815D01*
X154911705Y-83397011D01*
X154900499Y-83345500D01*
X154900499Y-82622129D01*
X154900498Y-82622123D01*
X154900497Y-82622116D01*
X154894091Y-82562517D01*
X154894090Y-82562515D01*
X154843797Y-82427671D01*
X154843793Y-82427664D01*
X154757547Y-82312455D01*
X154757544Y-82312452D01*
X154642335Y-82226206D01*
X154642328Y-82226202D01*
X154507482Y-82175908D01*
X154507483Y-82175908D01*
X154447883Y-82169501D01*
X154447881Y-82169500D01*
X154447873Y-82169500D01*
X154447864Y-82169500D01*
X151352129Y-82169500D01*
X151352123Y-82169501D01*
X151292516Y-82175908D01*
X151157671Y-82226202D01*
X151157664Y-82226206D01*
X151042455Y-82312452D01*
X151042452Y-82312455D01*
X150956206Y-82427664D01*
X150956202Y-82427671D01*
X150905908Y-82562517D01*
X150899501Y-82622116D01*
X150899501Y-82622123D01*
X150899500Y-82622135D01*
X150899500Y-85717870D01*
X150899501Y-85717876D01*
X150905908Y-85777483D01*
X150956202Y-85912328D01*
X150956206Y-85912335D01*
X151042452Y-86027544D01*
X151042455Y-86027547D01*
X151157664Y-86113793D01*
X151157671Y-86113797D01*
X151292517Y-86164091D01*
X151292516Y-86164091D01*
X151299444Y-86164835D01*
X151352127Y-86170500D01*
X154447872Y-86170499D01*
X154507483Y-86164091D01*
X154642331Y-86113796D01*
X154757546Y-86027546D01*
X154843796Y-85912331D01*
X154894091Y-85777483D01*
X154900500Y-85717873D01*
X154900500Y-84994500D01*
X154920185Y-84927461D01*
X154972989Y-84881706D01*
X155024500Y-84870500D01*
X155989480Y-84870500D01*
X156056519Y-84890185D01*
X156102274Y-84942989D01*
X156112218Y-85012147D01*
X156083193Y-85075703D01*
X156077161Y-85082181D01*
X154855890Y-86303451D01*
X154855887Y-86303454D01*
X154787793Y-86405366D01*
X154787792Y-86405367D01*
X154779227Y-86418184D01*
X154779222Y-86418193D01*
X154726421Y-86545667D01*
X154726418Y-86545677D01*
X154699500Y-86681004D01*
X154699500Y-92205500D01*
X154679815Y-92272539D01*
X154627011Y-92318294D01*
X154575501Y-92329500D01*
X154452130Y-92329500D01*
X154452123Y-92329501D01*
X154392516Y-92335908D01*
X154257671Y-92386202D01*
X154257664Y-92386206D01*
X154142455Y-92472452D01*
X154142452Y-92472455D01*
X154056206Y-92587664D01*
X154056202Y-92587671D01*
X154005908Y-92722517D01*
X154000424Y-92773534D01*
X153999501Y-92782123D01*
X153999500Y-92782135D01*
X153999501Y-94677869D01*
X154005908Y-94737483D01*
X154056202Y-94872328D01*
X154056206Y-94872335D01*
X154142452Y-94987544D01*
X154142455Y-94987547D01*
X154257664Y-95073793D01*
X154257671Y-95073797D01*
X154337580Y-95103601D01*
X154393514Y-95145472D01*
X154417931Y-95210936D01*
X154403080Y-95279209D01*
X154381929Y-95307463D01*
X154331756Y-95357636D01*
X154331752Y-95357641D01*
X154202187Y-95535974D01*
X154102104Y-95732393D01*
X154102103Y-95732396D01*
X154033985Y-95942047D01*
X154033985Y-95942049D01*
X153999500Y-96159778D01*
X153999500Y-96380222D01*
X154001724Y-96394265D01*
X154033985Y-96597952D01*
X154102103Y-96807603D01*
X154102104Y-96807606D01*
X154202187Y-97004025D01*
X154331752Y-97182358D01*
X154331756Y-97182363D01*
X154331758Y-97182365D01*
X154487635Y-97338242D01*
X154648386Y-97455034D01*
X154691051Y-97510362D01*
X154699500Y-97555351D01*
X154699500Y-98388255D01*
X154679815Y-98455294D01*
X154648385Y-98488573D01*
X154552787Y-98558028D01*
X154552782Y-98558032D01*
X154408028Y-98702786D01*
X154287715Y-98868386D01*
X154194781Y-99050776D01*
X154131522Y-99245465D01*
X154099500Y-99447648D01*
X154099500Y-99652351D01*
X154131522Y-99854534D01*
X154194781Y-100049223D01*
X154287715Y-100231613D01*
X154408028Y-100397213D01*
X154552786Y-100541971D01*
X154707749Y-100654556D01*
X154718390Y-100662287D01*
X154834607Y-100721503D01*
X154900776Y-100755218D01*
X154900778Y-100755218D01*
X154900781Y-100755220D01*
X155005137Y-100789127D01*
X155095465Y-100818477D01*
X155196557Y-100834488D01*
X155297648Y-100850500D01*
X155297649Y-100850500D01*
X155502351Y-100850500D01*
X155502352Y-100850500D01*
X155704534Y-100818477D01*
X155899219Y-100755220D01*
X156081610Y-100662287D01*
X156174590Y-100594732D01*
X156247213Y-100541971D01*
X156247215Y-100541968D01*
X156247219Y-100541966D01*
X156391966Y-100397219D01*
X156391968Y-100397215D01*
X156391971Y-100397213D01*
X156444732Y-100324590D01*
X156512287Y-100231610D01*
X156605220Y-100049219D01*
X156668477Y-99854534D01*
X156700500Y-99652352D01*
X156700500Y-99447648D01*
X156682909Y-99336583D01*
X156668477Y-99245465D01*
X156605218Y-99050776D01*
X156534878Y-98912728D01*
X156512287Y-98868390D01*
X156482207Y-98826988D01*
X156391971Y-98702786D01*
X156247217Y-98558032D01*
X156247212Y-98558028D01*
X156151615Y-98488573D01*
X156108949Y-98433243D01*
X156100500Y-98388255D01*
X156100500Y-97555351D01*
X156120185Y-97488312D01*
X156151611Y-97455035D01*
X156312365Y-97338242D01*
X156468242Y-97182365D01*
X156597815Y-97004022D01*
X156697895Y-96807606D01*
X156766015Y-96597951D01*
X156800500Y-96380222D01*
X156800500Y-96159778D01*
X156766015Y-95942049D01*
X156697895Y-95732394D01*
X156697895Y-95732393D01*
X156628451Y-95596104D01*
X156597815Y-95535978D01*
X156499488Y-95400641D01*
X156468247Y-95357641D01*
X156468243Y-95357636D01*
X156418071Y-95307464D01*
X156384586Y-95246141D01*
X156389570Y-95176449D01*
X156431442Y-95120516D01*
X156462420Y-95103601D01*
X156542326Y-95073798D01*
X156542326Y-95073797D01*
X156542331Y-95073796D01*
X156657546Y-94987546D01*
X156739020Y-94878711D01*
X161149500Y-94878711D01*
X161149500Y-95121288D01*
X161180615Y-95357641D01*
X161181162Y-95361789D01*
X161195463Y-95415161D01*
X161243947Y-95596104D01*
X161336773Y-95820205D01*
X161336776Y-95820212D01*
X161458064Y-96030289D01*
X161458066Y-96030292D01*
X161458067Y-96030293D01*
X161605733Y-96222736D01*
X161605739Y-96222743D01*
X161777256Y-96394260D01*
X161777263Y-96394266D01*
X161890321Y-96481018D01*
X161969711Y-96541936D01*
X162179788Y-96663224D01*
X162249668Y-96692169D01*
X162386604Y-96748890D01*
X162403900Y-96756054D01*
X162638211Y-96818838D01*
X162818586Y-96842584D01*
X162878711Y-96850500D01*
X162878712Y-96850500D01*
X163121289Y-96850500D01*
X163169388Y-96844167D01*
X163361789Y-96818838D01*
X163596100Y-96756054D01*
X163820212Y-96663224D01*
X164030289Y-96541936D01*
X164222738Y-96394265D01*
X164394265Y-96222738D01*
X164541936Y-96030289D01*
X164663224Y-95820212D01*
X164756054Y-95596100D01*
X164818838Y-95361789D01*
X164850500Y-95121288D01*
X164850500Y-94878712D01*
X164849660Y-94872335D01*
X164832479Y-94741824D01*
X164818838Y-94638211D01*
X164756054Y-94403900D01*
X164663224Y-94179788D01*
X164541936Y-93969711D01*
X164394265Y-93777262D01*
X164394260Y-93777256D01*
X164222743Y-93605739D01*
X164222736Y-93605733D01*
X164030293Y-93458067D01*
X164030292Y-93458066D01*
X164030289Y-93458064D01*
X163820212Y-93336776D01*
X163820205Y-93336773D01*
X163596104Y-93243947D01*
X163478944Y-93212554D01*
X163361789Y-93181162D01*
X163361788Y-93181161D01*
X163361785Y-93181161D01*
X163121289Y-93149500D01*
X163121288Y-93149500D01*
X162878712Y-93149500D01*
X162878711Y-93149500D01*
X162638214Y-93181161D01*
X162403895Y-93243947D01*
X162179794Y-93336773D01*
X162179785Y-93336777D01*
X161969706Y-93458067D01*
X161777263Y-93605733D01*
X161777256Y-93605739D01*
X161605739Y-93777256D01*
X161605733Y-93777263D01*
X161458067Y-93969706D01*
X161336777Y-94179785D01*
X161336773Y-94179794D01*
X161243947Y-94403895D01*
X161181161Y-94638214D01*
X161149500Y-94878711D01*
X156739020Y-94878711D01*
X156743796Y-94872331D01*
X156794091Y-94737483D01*
X156800500Y-94677873D01*
X156800499Y-92782128D01*
X156794091Y-92722517D01*
X156779823Y-92684263D01*
X156743797Y-92587671D01*
X156743793Y-92587664D01*
X156657547Y-92472455D01*
X156657544Y-92472452D01*
X156542335Y-92386206D01*
X156542328Y-92386202D01*
X156407482Y-92335908D01*
X156407483Y-92335908D01*
X156347883Y-92329501D01*
X156347881Y-92329500D01*
X156347873Y-92329500D01*
X156347865Y-92329500D01*
X156224500Y-92329500D01*
X156157461Y-92309815D01*
X156111706Y-92257011D01*
X156100500Y-92205500D01*
X156100500Y-87091518D01*
X156120185Y-87024479D01*
X156136814Y-87003841D01*
X157090799Y-86049856D01*
X157152120Y-86016373D01*
X157221811Y-86021357D01*
X157225860Y-86022949D01*
X157335581Y-86068398D01*
X157588884Y-86136270D01*
X157837188Y-86168960D01*
X157848864Y-86170498D01*
X157848880Y-86170500D01*
X157848887Y-86170500D01*
X158111113Y-86170500D01*
X158111120Y-86170500D01*
X158371116Y-86136270D01*
X158624419Y-86068398D01*
X158866697Y-85968043D01*
X159093803Y-85836924D01*
X159301851Y-85677282D01*
X159301855Y-85677277D01*
X159301860Y-85677274D01*
X159487274Y-85491860D01*
X159487277Y-85491855D01*
X159487282Y-85491851D01*
X159646924Y-85283803D01*
X159778043Y-85056697D01*
X159878398Y-84814419D01*
X159946270Y-84561116D01*
X159980500Y-84301120D01*
X159980500Y-84038880D01*
X159946270Y-83778884D01*
X159878398Y-83525581D01*
X159832977Y-83415927D01*
X159825509Y-83346462D01*
X159856783Y-83283983D01*
X159859828Y-83280827D01*
X160803838Y-82336819D01*
X160865161Y-82303334D01*
X160891519Y-82300500D01*
X165825041Y-82300500D01*
X165892080Y-82320185D01*
X165937835Y-82372989D01*
X165947779Y-82442147D01*
X165941223Y-82467832D01*
X165905909Y-82562514D01*
X165905908Y-82562516D01*
X165899501Y-82622116D01*
X165899501Y-82622123D01*
X165899500Y-82622135D01*
X165899500Y-85717870D01*
X165899501Y-85717876D01*
X165905908Y-85777483D01*
X165956202Y-85912328D01*
X165956206Y-85912335D01*
X166042452Y-86027544D01*
X166042455Y-86027547D01*
X166157664Y-86113793D01*
X166157671Y-86113797D01*
X166292517Y-86164091D01*
X166292516Y-86164091D01*
X166299444Y-86164835D01*
X166352127Y-86170500D01*
X169447872Y-86170499D01*
X169507483Y-86164091D01*
X169642331Y-86113796D01*
X169757546Y-86027546D01*
X169843796Y-85912331D01*
X169894091Y-85777483D01*
X169900500Y-85717873D01*
X169900500Y-84994500D01*
X169920185Y-84927461D01*
X169972989Y-84881706D01*
X170024500Y-84870500D01*
X170989480Y-84870500D01*
X171056519Y-84890185D01*
X171102274Y-84942989D01*
X171112218Y-85012147D01*
X171083193Y-85075703D01*
X171077161Y-85082181D01*
X169855890Y-86303451D01*
X169855887Y-86303454D01*
X169787793Y-86405366D01*
X169787792Y-86405367D01*
X169779227Y-86418184D01*
X169779222Y-86418193D01*
X169726421Y-86545667D01*
X169726418Y-86545677D01*
X169699500Y-86681004D01*
X169699500Y-92205500D01*
X169679815Y-92272539D01*
X169627011Y-92318294D01*
X169575501Y-92329500D01*
X169452130Y-92329500D01*
X169452123Y-92329501D01*
X169392516Y-92335908D01*
X169257671Y-92386202D01*
X169257664Y-92386206D01*
X169142455Y-92472452D01*
X169142452Y-92472455D01*
X169056206Y-92587664D01*
X169056202Y-92587671D01*
X169005908Y-92722517D01*
X169000424Y-92773534D01*
X168999501Y-92782123D01*
X168999500Y-92782135D01*
X168999501Y-94677869D01*
X169005908Y-94737483D01*
X169056202Y-94872328D01*
X169056206Y-94872335D01*
X169142452Y-94987544D01*
X169142455Y-94987547D01*
X169257664Y-95073793D01*
X169257671Y-95073797D01*
X169337580Y-95103601D01*
X169393514Y-95145472D01*
X169417931Y-95210936D01*
X169403080Y-95279209D01*
X169381929Y-95307463D01*
X169331756Y-95357636D01*
X169331752Y-95357641D01*
X169202187Y-95535974D01*
X169102104Y-95732393D01*
X169102103Y-95732396D01*
X169033985Y-95942047D01*
X169033985Y-95942049D01*
X168999500Y-96159778D01*
X168999500Y-96380222D01*
X169001724Y-96394265D01*
X169033985Y-96597952D01*
X169102103Y-96807603D01*
X169102104Y-96807606D01*
X169202187Y-97004025D01*
X169331752Y-97182358D01*
X169331756Y-97182363D01*
X169331758Y-97182365D01*
X169487635Y-97338242D01*
X169648386Y-97455034D01*
X169691051Y-97510362D01*
X169699500Y-97555351D01*
X169699500Y-98388255D01*
X169679815Y-98455294D01*
X169648385Y-98488573D01*
X169552787Y-98558028D01*
X169552782Y-98558032D01*
X169408028Y-98702786D01*
X169287715Y-98868386D01*
X169194781Y-99050776D01*
X169131522Y-99245465D01*
X169099500Y-99447648D01*
X169099500Y-99652351D01*
X169131522Y-99854534D01*
X169194781Y-100049223D01*
X169287715Y-100231613D01*
X169408028Y-100397213D01*
X169552786Y-100541971D01*
X169707749Y-100654556D01*
X169718390Y-100662287D01*
X169834607Y-100721503D01*
X169900776Y-100755218D01*
X169900778Y-100755218D01*
X169900781Y-100755220D01*
X170005137Y-100789127D01*
X170095465Y-100818477D01*
X170196557Y-100834488D01*
X170297648Y-100850500D01*
X170297649Y-100850500D01*
X170502351Y-100850500D01*
X170502352Y-100850500D01*
X170704534Y-100818477D01*
X170899219Y-100755220D01*
X171081610Y-100662287D01*
X171174590Y-100594732D01*
X171247213Y-100541971D01*
X171247215Y-100541968D01*
X171247219Y-100541966D01*
X171391966Y-100397219D01*
X171391968Y-100397215D01*
X171391971Y-100397213D01*
X171444732Y-100324590D01*
X171512287Y-100231610D01*
X171605220Y-100049219D01*
X171668477Y-99854534D01*
X171700500Y-99652352D01*
X171700500Y-99447648D01*
X171682909Y-99336583D01*
X171668477Y-99245465D01*
X171605218Y-99050776D01*
X171534878Y-98912728D01*
X171512287Y-98868390D01*
X171482207Y-98826988D01*
X171391971Y-98702786D01*
X171247217Y-98558032D01*
X171247212Y-98558028D01*
X171151615Y-98488573D01*
X171108949Y-98433243D01*
X171100500Y-98388255D01*
X171100500Y-97555351D01*
X171120185Y-97488312D01*
X171151611Y-97455035D01*
X171312365Y-97338242D01*
X171468242Y-97182365D01*
X171597815Y-97004022D01*
X171697895Y-96807606D01*
X171766015Y-96597951D01*
X171800500Y-96380222D01*
X171800500Y-96159778D01*
X171766015Y-95942049D01*
X171697895Y-95732394D01*
X171697895Y-95732393D01*
X171628451Y-95596104D01*
X171597815Y-95535978D01*
X171499488Y-95400641D01*
X171468247Y-95357641D01*
X171468243Y-95357636D01*
X171418071Y-95307464D01*
X171384586Y-95246141D01*
X171389570Y-95176449D01*
X171431442Y-95120516D01*
X171462420Y-95103601D01*
X171542326Y-95073798D01*
X171542326Y-95073797D01*
X171542331Y-95073796D01*
X171657546Y-94987546D01*
X171743796Y-94872331D01*
X171794091Y-94737483D01*
X171800500Y-94677873D01*
X171800499Y-92782128D01*
X171794091Y-92722517D01*
X171779823Y-92684263D01*
X171743797Y-92587671D01*
X171743793Y-92587664D01*
X171657547Y-92472455D01*
X171657544Y-92472452D01*
X171542335Y-92386206D01*
X171542328Y-92386202D01*
X171407482Y-92335908D01*
X171407483Y-92335908D01*
X171347883Y-92329501D01*
X171347881Y-92329500D01*
X171347873Y-92329500D01*
X171347865Y-92329500D01*
X171224500Y-92329500D01*
X171157461Y-92309815D01*
X171111706Y-92257011D01*
X171100500Y-92205500D01*
X171100500Y-87091518D01*
X171120185Y-87024479D01*
X171136814Y-87003841D01*
X172090799Y-86049856D01*
X172152120Y-86016373D01*
X172221811Y-86021357D01*
X172225860Y-86022949D01*
X172335581Y-86068398D01*
X172588884Y-86136270D01*
X172837188Y-86168960D01*
X172848864Y-86170498D01*
X172848880Y-86170500D01*
X172848887Y-86170500D01*
X173111113Y-86170500D01*
X173111120Y-86170500D01*
X173371116Y-86136270D01*
X173624419Y-86068398D01*
X173866697Y-85968043D01*
X174093803Y-85836924D01*
X174301851Y-85677282D01*
X174301855Y-85677277D01*
X174301860Y-85677274D01*
X174487274Y-85491860D01*
X174487277Y-85491855D01*
X174487282Y-85491851D01*
X174646924Y-85283803D01*
X174778043Y-85056697D01*
X174878398Y-84814419D01*
X174946270Y-84561116D01*
X174980500Y-84301120D01*
X174980500Y-84038880D01*
X174946270Y-83778884D01*
X174878398Y-83525581D01*
X174832978Y-83415930D01*
X174825510Y-83346463D01*
X174856785Y-83283984D01*
X174859860Y-83280797D01*
X174903840Y-83236818D01*
X174965163Y-83203333D01*
X174991520Y-83200500D01*
X183214610Y-83200500D01*
X183217250Y-83201275D01*
X183219921Y-83200614D01*
X183250576Y-83211061D01*
X183281649Y-83220185D01*
X183283450Y-83222264D01*
X183286056Y-83223152D01*
X183306202Y-83248521D01*
X183327404Y-83272989D01*
X183327795Y-83275711D01*
X183329507Y-83277867D01*
X183332738Y-83310087D01*
X183337348Y-83342147D01*
X183336288Y-83345488D01*
X183336479Y-83347388D01*
X183325095Y-83380795D01*
X183321299Y-83388245D01*
X183273324Y-83439041D01*
X183210814Y-83455950D01*
X177174553Y-83455950D01*
X177072662Y-83476217D01*
X177072654Y-83476219D01*
X177066141Y-83477515D01*
X177039221Y-83482870D01*
X177006509Y-83496420D01*
X177001412Y-83498531D01*
X177001400Y-83498535D01*
X176911741Y-83535673D01*
X176911732Y-83535678D01*
X176797009Y-83612334D01*
X176797007Y-83612337D01*
X172355888Y-88053453D01*
X172355887Y-88053454D01*
X172279222Y-88168192D01*
X172226421Y-88295667D01*
X172226418Y-88295679D01*
X172201771Y-88419588D01*
X172199500Y-88431005D01*
X172199500Y-101158481D01*
X172179815Y-101225520D01*
X172163181Y-101246162D01*
X169047162Y-104362181D01*
X168985839Y-104395666D01*
X168959481Y-104398500D01*
X154440641Y-104398500D01*
X154305313Y-104425418D01*
X154305303Y-104425421D01*
X154177828Y-104478222D01*
X154063090Y-104554887D01*
X154063089Y-104554888D01*
X152255798Y-106362181D01*
X152194475Y-106395666D01*
X152168117Y-106398500D01*
X148584400Y-106398500D01*
X148517361Y-106378815D01*
X148471606Y-106326011D01*
X148461662Y-106256853D01*
X148490687Y-106193297D01*
X148528105Y-106164015D01*
X148686433Y-106083343D01*
X148877510Y-105944517D01*
X149044517Y-105777510D01*
X149183343Y-105586433D01*
X149290568Y-105375992D01*
X149363553Y-105151368D01*
X149374886Y-105079815D01*
X149400500Y-104918097D01*
X149400500Y-82481902D01*
X149363553Y-82248631D01*
X149290566Y-82024003D01*
X149234002Y-81912991D01*
X149183343Y-81813567D01*
X149044517Y-81622490D01*
X149034208Y-81612181D01*
X149000723Y-81550858D01*
X149005707Y-81481166D01*
X149047579Y-81425233D01*
X149113043Y-81400816D01*
X149121889Y-81400500D01*
X159459481Y-81400500D01*
X159526520Y-81420185D01*
G37*
%TD.AperFunction*%
%TD*%
M02*
