%TF.GenerationSoftware,KiCad,Pcbnew,9.0.0+dfsg-1*%
%TF.CreationDate,2025-03-17T11:28:04+01:00*%
%TF.ProjectId,control-matrix-8,636f6e74-726f-46c2-9d6d-61747269782d,1.0*%
%TF.SameCoordinates,Original*%
%TF.FileFunction,Legend,Top*%
%TF.FilePolarity,Positive*%
%FSLAX46Y46*%
G04 Gerber Fmt 4.6, Leading zero omitted, Abs format (unit mm)*
G04 Created by KiCad (PCBNEW 9.0.0+dfsg-1) date 2025-03-17 11:28:04*
%MOMM*%
%LPD*%
G01*
G04 APERTURE LIST*
%ADD10C,0.150000*%
%ADD11C,0.254000*%
%ADD12C,0.120000*%
%ADD13C,0.100000*%
G04 APERTURE END LIST*
D10*
X168484819Y-103526666D02*
X168008628Y-103859999D01*
X168484819Y-104098094D02*
X167484819Y-104098094D01*
X167484819Y-104098094D02*
X167484819Y-103717142D01*
X167484819Y-103717142D02*
X167532438Y-103621904D01*
X167532438Y-103621904D02*
X167580057Y-103574285D01*
X167580057Y-103574285D02*
X167675295Y-103526666D01*
X167675295Y-103526666D02*
X167818152Y-103526666D01*
X167818152Y-103526666D02*
X167913390Y-103574285D01*
X167913390Y-103574285D02*
X167961009Y-103621904D01*
X167961009Y-103621904D02*
X168008628Y-103717142D01*
X168008628Y-103717142D02*
X168008628Y-104098094D01*
X167913390Y-102955237D02*
X167865771Y-103050475D01*
X167865771Y-103050475D02*
X167818152Y-103098094D01*
X167818152Y-103098094D02*
X167722914Y-103145713D01*
X167722914Y-103145713D02*
X167675295Y-103145713D01*
X167675295Y-103145713D02*
X167580057Y-103098094D01*
X167580057Y-103098094D02*
X167532438Y-103050475D01*
X167532438Y-103050475D02*
X167484819Y-102955237D01*
X167484819Y-102955237D02*
X167484819Y-102764761D01*
X167484819Y-102764761D02*
X167532438Y-102669523D01*
X167532438Y-102669523D02*
X167580057Y-102621904D01*
X167580057Y-102621904D02*
X167675295Y-102574285D01*
X167675295Y-102574285D02*
X167722914Y-102574285D01*
X167722914Y-102574285D02*
X167818152Y-102621904D01*
X167818152Y-102621904D02*
X167865771Y-102669523D01*
X167865771Y-102669523D02*
X167913390Y-102764761D01*
X167913390Y-102764761D02*
X167913390Y-102955237D01*
X167913390Y-102955237D02*
X167961009Y-103050475D01*
X167961009Y-103050475D02*
X168008628Y-103098094D01*
X168008628Y-103098094D02*
X168103866Y-103145713D01*
X168103866Y-103145713D02*
X168294342Y-103145713D01*
X168294342Y-103145713D02*
X168389580Y-103098094D01*
X168389580Y-103098094D02*
X168437200Y-103050475D01*
X168437200Y-103050475D02*
X168484819Y-102955237D01*
X168484819Y-102955237D02*
X168484819Y-102764761D01*
X168484819Y-102764761D02*
X168437200Y-102669523D01*
X168437200Y-102669523D02*
X168389580Y-102621904D01*
X168389580Y-102621904D02*
X168294342Y-102574285D01*
X168294342Y-102574285D02*
X168103866Y-102574285D01*
X168103866Y-102574285D02*
X168008628Y-102621904D01*
X168008628Y-102621904D02*
X167961009Y-102669523D01*
X167961009Y-102669523D02*
X167913390Y-102764761D01*
X153484819Y-103526666D02*
X153008628Y-103859999D01*
X153484819Y-104098094D02*
X152484819Y-104098094D01*
X152484819Y-104098094D02*
X152484819Y-103717142D01*
X152484819Y-103717142D02*
X152532438Y-103621904D01*
X152532438Y-103621904D02*
X152580057Y-103574285D01*
X152580057Y-103574285D02*
X152675295Y-103526666D01*
X152675295Y-103526666D02*
X152818152Y-103526666D01*
X152818152Y-103526666D02*
X152913390Y-103574285D01*
X152913390Y-103574285D02*
X152961009Y-103621904D01*
X152961009Y-103621904D02*
X153008628Y-103717142D01*
X153008628Y-103717142D02*
X153008628Y-104098094D01*
X152484819Y-103193332D02*
X152484819Y-102526666D01*
X152484819Y-102526666D02*
X153484819Y-102955237D01*
X170106666Y-88704819D02*
X170106666Y-89419104D01*
X170106666Y-89419104D02*
X170059047Y-89561961D01*
X170059047Y-89561961D02*
X169963809Y-89657200D01*
X169963809Y-89657200D02*
X169820952Y-89704819D01*
X169820952Y-89704819D02*
X169725714Y-89704819D01*
X170725714Y-89133390D02*
X170630476Y-89085771D01*
X170630476Y-89085771D02*
X170582857Y-89038152D01*
X170582857Y-89038152D02*
X170535238Y-88942914D01*
X170535238Y-88942914D02*
X170535238Y-88895295D01*
X170535238Y-88895295D02*
X170582857Y-88800057D01*
X170582857Y-88800057D02*
X170630476Y-88752438D01*
X170630476Y-88752438D02*
X170725714Y-88704819D01*
X170725714Y-88704819D02*
X170916190Y-88704819D01*
X170916190Y-88704819D02*
X171011428Y-88752438D01*
X171011428Y-88752438D02*
X171059047Y-88800057D01*
X171059047Y-88800057D02*
X171106666Y-88895295D01*
X171106666Y-88895295D02*
X171106666Y-88942914D01*
X171106666Y-88942914D02*
X171059047Y-89038152D01*
X171059047Y-89038152D02*
X171011428Y-89085771D01*
X171011428Y-89085771D02*
X170916190Y-89133390D01*
X170916190Y-89133390D02*
X170725714Y-89133390D01*
X170725714Y-89133390D02*
X170630476Y-89181009D01*
X170630476Y-89181009D02*
X170582857Y-89228628D01*
X170582857Y-89228628D02*
X170535238Y-89323866D01*
X170535238Y-89323866D02*
X170535238Y-89514342D01*
X170535238Y-89514342D02*
X170582857Y-89609580D01*
X170582857Y-89609580D02*
X170630476Y-89657200D01*
X170630476Y-89657200D02*
X170725714Y-89704819D01*
X170725714Y-89704819D02*
X170916190Y-89704819D01*
X170916190Y-89704819D02*
X171011428Y-89657200D01*
X171011428Y-89657200D02*
X171059047Y-89609580D01*
X171059047Y-89609580D02*
X171106666Y-89514342D01*
X171106666Y-89514342D02*
X171106666Y-89323866D01*
X171106666Y-89323866D02*
X171059047Y-89228628D01*
X171059047Y-89228628D02*
X171011428Y-89181009D01*
X171011428Y-89181009D02*
X170916190Y-89133390D01*
X155106666Y-88704819D02*
X155106666Y-89419104D01*
X155106666Y-89419104D02*
X155059047Y-89561961D01*
X155059047Y-89561961D02*
X154963809Y-89657200D01*
X154963809Y-89657200D02*
X154820952Y-89704819D01*
X154820952Y-89704819D02*
X154725714Y-89704819D01*
X155487619Y-88704819D02*
X156154285Y-88704819D01*
X156154285Y-88704819D02*
X155725714Y-89704819D01*
X162238095Y-91254819D02*
X162238095Y-90254819D01*
X162238095Y-90731009D02*
X162809523Y-90731009D01*
X162809523Y-91254819D02*
X162809523Y-90254819D01*
X163714285Y-90588152D02*
X163714285Y-91254819D01*
X163476190Y-90207200D02*
X163238095Y-90921485D01*
X163238095Y-90921485D02*
X163857142Y-90921485D01*
X173814819Y-95738094D02*
X172814819Y-95738094D01*
X172814819Y-95738094D02*
X172814819Y-95499999D01*
X172814819Y-95499999D02*
X172862438Y-95357142D01*
X172862438Y-95357142D02*
X172957676Y-95261904D01*
X172957676Y-95261904D02*
X173052914Y-95214285D01*
X173052914Y-95214285D02*
X173243390Y-95166666D01*
X173243390Y-95166666D02*
X173386247Y-95166666D01*
X173386247Y-95166666D02*
X173576723Y-95214285D01*
X173576723Y-95214285D02*
X173671961Y-95261904D01*
X173671961Y-95261904D02*
X173767200Y-95357142D01*
X173767200Y-95357142D02*
X173814819Y-95499999D01*
X173814819Y-95499999D02*
X173814819Y-95738094D01*
X173243390Y-94595237D02*
X173195771Y-94690475D01*
X173195771Y-94690475D02*
X173148152Y-94738094D01*
X173148152Y-94738094D02*
X173052914Y-94785713D01*
X173052914Y-94785713D02*
X173005295Y-94785713D01*
X173005295Y-94785713D02*
X172910057Y-94738094D01*
X172910057Y-94738094D02*
X172862438Y-94690475D01*
X172862438Y-94690475D02*
X172814819Y-94595237D01*
X172814819Y-94595237D02*
X172814819Y-94404761D01*
X172814819Y-94404761D02*
X172862438Y-94309523D01*
X172862438Y-94309523D02*
X172910057Y-94261904D01*
X172910057Y-94261904D02*
X173005295Y-94214285D01*
X173005295Y-94214285D02*
X173052914Y-94214285D01*
X173052914Y-94214285D02*
X173148152Y-94261904D01*
X173148152Y-94261904D02*
X173195771Y-94309523D01*
X173195771Y-94309523D02*
X173243390Y-94404761D01*
X173243390Y-94404761D02*
X173243390Y-94595237D01*
X173243390Y-94595237D02*
X173291009Y-94690475D01*
X173291009Y-94690475D02*
X173338628Y-94738094D01*
X173338628Y-94738094D02*
X173433866Y-94785713D01*
X173433866Y-94785713D02*
X173624342Y-94785713D01*
X173624342Y-94785713D02*
X173719580Y-94738094D01*
X173719580Y-94738094D02*
X173767200Y-94690475D01*
X173767200Y-94690475D02*
X173814819Y-94595237D01*
X173814819Y-94595237D02*
X173814819Y-94404761D01*
X173814819Y-94404761D02*
X173767200Y-94309523D01*
X173767200Y-94309523D02*
X173719580Y-94261904D01*
X173719580Y-94261904D02*
X173624342Y-94214285D01*
X173624342Y-94214285D02*
X173433866Y-94214285D01*
X173433866Y-94214285D02*
X173338628Y-94261904D01*
X173338628Y-94261904D02*
X173291009Y-94309523D01*
X173291009Y-94309523D02*
X173243390Y-94404761D01*
X158814819Y-95738094D02*
X157814819Y-95738094D01*
X157814819Y-95738094D02*
X157814819Y-95499999D01*
X157814819Y-95499999D02*
X157862438Y-95357142D01*
X157862438Y-95357142D02*
X157957676Y-95261904D01*
X157957676Y-95261904D02*
X158052914Y-95214285D01*
X158052914Y-95214285D02*
X158243390Y-95166666D01*
X158243390Y-95166666D02*
X158386247Y-95166666D01*
X158386247Y-95166666D02*
X158576723Y-95214285D01*
X158576723Y-95214285D02*
X158671961Y-95261904D01*
X158671961Y-95261904D02*
X158767200Y-95357142D01*
X158767200Y-95357142D02*
X158814819Y-95499999D01*
X158814819Y-95499999D02*
X158814819Y-95738094D01*
X157814819Y-94833332D02*
X157814819Y-94166666D01*
X157814819Y-94166666D02*
X158814819Y-94595237D01*
X98814819Y-95738094D02*
X97814819Y-95738094D01*
X97814819Y-95738094D02*
X97814819Y-95499999D01*
X97814819Y-95499999D02*
X97862438Y-95357142D01*
X97862438Y-95357142D02*
X97957676Y-95261904D01*
X97957676Y-95261904D02*
X98052914Y-95214285D01*
X98052914Y-95214285D02*
X98243390Y-95166666D01*
X98243390Y-95166666D02*
X98386247Y-95166666D01*
X98386247Y-95166666D02*
X98576723Y-95214285D01*
X98576723Y-95214285D02*
X98671961Y-95261904D01*
X98671961Y-95261904D02*
X98767200Y-95357142D01*
X98767200Y-95357142D02*
X98814819Y-95499999D01*
X98814819Y-95499999D02*
X98814819Y-95738094D01*
X97814819Y-94833332D02*
X97814819Y-94214285D01*
X97814819Y-94214285D02*
X98195771Y-94547618D01*
X98195771Y-94547618D02*
X98195771Y-94404761D01*
X98195771Y-94404761D02*
X98243390Y-94309523D01*
X98243390Y-94309523D02*
X98291009Y-94261904D01*
X98291009Y-94261904D02*
X98386247Y-94214285D01*
X98386247Y-94214285D02*
X98624342Y-94214285D01*
X98624342Y-94214285D02*
X98719580Y-94261904D01*
X98719580Y-94261904D02*
X98767200Y-94309523D01*
X98767200Y-94309523D02*
X98814819Y-94404761D01*
X98814819Y-94404761D02*
X98814819Y-94690475D01*
X98814819Y-94690475D02*
X98767200Y-94785713D01*
X98767200Y-94785713D02*
X98719580Y-94833332D01*
X78484819Y-103526666D02*
X78008628Y-103859999D01*
X78484819Y-104098094D02*
X77484819Y-104098094D01*
X77484819Y-104098094D02*
X77484819Y-103717142D01*
X77484819Y-103717142D02*
X77532438Y-103621904D01*
X77532438Y-103621904D02*
X77580057Y-103574285D01*
X77580057Y-103574285D02*
X77675295Y-103526666D01*
X77675295Y-103526666D02*
X77818152Y-103526666D01*
X77818152Y-103526666D02*
X77913390Y-103574285D01*
X77913390Y-103574285D02*
X77961009Y-103621904D01*
X77961009Y-103621904D02*
X78008628Y-103717142D01*
X78008628Y-103717142D02*
X78008628Y-104098094D01*
X77580057Y-103145713D02*
X77532438Y-103098094D01*
X77532438Y-103098094D02*
X77484819Y-103002856D01*
X77484819Y-103002856D02*
X77484819Y-102764761D01*
X77484819Y-102764761D02*
X77532438Y-102669523D01*
X77532438Y-102669523D02*
X77580057Y-102621904D01*
X77580057Y-102621904D02*
X77675295Y-102574285D01*
X77675295Y-102574285D02*
X77770533Y-102574285D01*
X77770533Y-102574285D02*
X77913390Y-102621904D01*
X77913390Y-102621904D02*
X78484819Y-103193332D01*
X78484819Y-103193332D02*
X78484819Y-102574285D01*
X83814819Y-95738094D02*
X82814819Y-95738094D01*
X82814819Y-95738094D02*
X82814819Y-95499999D01*
X82814819Y-95499999D02*
X82862438Y-95357142D01*
X82862438Y-95357142D02*
X82957676Y-95261904D01*
X82957676Y-95261904D02*
X83052914Y-95214285D01*
X83052914Y-95214285D02*
X83243390Y-95166666D01*
X83243390Y-95166666D02*
X83386247Y-95166666D01*
X83386247Y-95166666D02*
X83576723Y-95214285D01*
X83576723Y-95214285D02*
X83671961Y-95261904D01*
X83671961Y-95261904D02*
X83767200Y-95357142D01*
X83767200Y-95357142D02*
X83814819Y-95499999D01*
X83814819Y-95499999D02*
X83814819Y-95738094D01*
X82910057Y-94785713D02*
X82862438Y-94738094D01*
X82862438Y-94738094D02*
X82814819Y-94642856D01*
X82814819Y-94642856D02*
X82814819Y-94404761D01*
X82814819Y-94404761D02*
X82862438Y-94309523D01*
X82862438Y-94309523D02*
X82910057Y-94261904D01*
X82910057Y-94261904D02*
X83005295Y-94214285D01*
X83005295Y-94214285D02*
X83100533Y-94214285D01*
X83100533Y-94214285D02*
X83243390Y-94261904D01*
X83243390Y-94261904D02*
X83814819Y-94833332D01*
X83814819Y-94833332D02*
X83814819Y-94214285D01*
X143814819Y-95738094D02*
X142814819Y-95738094D01*
X142814819Y-95738094D02*
X142814819Y-95499999D01*
X142814819Y-95499999D02*
X142862438Y-95357142D01*
X142862438Y-95357142D02*
X142957676Y-95261904D01*
X142957676Y-95261904D02*
X143052914Y-95214285D01*
X143052914Y-95214285D02*
X143243390Y-95166666D01*
X143243390Y-95166666D02*
X143386247Y-95166666D01*
X143386247Y-95166666D02*
X143576723Y-95214285D01*
X143576723Y-95214285D02*
X143671961Y-95261904D01*
X143671961Y-95261904D02*
X143767200Y-95357142D01*
X143767200Y-95357142D02*
X143814819Y-95499999D01*
X143814819Y-95499999D02*
X143814819Y-95738094D01*
X142814819Y-94309523D02*
X142814819Y-94499999D01*
X142814819Y-94499999D02*
X142862438Y-94595237D01*
X142862438Y-94595237D02*
X142910057Y-94642856D01*
X142910057Y-94642856D02*
X143052914Y-94738094D01*
X143052914Y-94738094D02*
X143243390Y-94785713D01*
X143243390Y-94785713D02*
X143624342Y-94785713D01*
X143624342Y-94785713D02*
X143719580Y-94738094D01*
X143719580Y-94738094D02*
X143767200Y-94690475D01*
X143767200Y-94690475D02*
X143814819Y-94595237D01*
X143814819Y-94595237D02*
X143814819Y-94404761D01*
X143814819Y-94404761D02*
X143767200Y-94309523D01*
X143767200Y-94309523D02*
X143719580Y-94261904D01*
X143719580Y-94261904D02*
X143624342Y-94214285D01*
X143624342Y-94214285D02*
X143386247Y-94214285D01*
X143386247Y-94214285D02*
X143291009Y-94261904D01*
X143291009Y-94261904D02*
X143243390Y-94309523D01*
X143243390Y-94309523D02*
X143195771Y-94404761D01*
X143195771Y-94404761D02*
X143195771Y-94595237D01*
X143195771Y-94595237D02*
X143243390Y-94690475D01*
X143243390Y-94690475D02*
X143291009Y-94738094D01*
X143291009Y-94738094D02*
X143386247Y-94785713D01*
X138484819Y-103526666D02*
X138008628Y-103859999D01*
X138484819Y-104098094D02*
X137484819Y-104098094D01*
X137484819Y-104098094D02*
X137484819Y-103717142D01*
X137484819Y-103717142D02*
X137532438Y-103621904D01*
X137532438Y-103621904D02*
X137580057Y-103574285D01*
X137580057Y-103574285D02*
X137675295Y-103526666D01*
X137675295Y-103526666D02*
X137818152Y-103526666D01*
X137818152Y-103526666D02*
X137913390Y-103574285D01*
X137913390Y-103574285D02*
X137961009Y-103621904D01*
X137961009Y-103621904D02*
X138008628Y-103717142D01*
X138008628Y-103717142D02*
X138008628Y-104098094D01*
X137484819Y-102669523D02*
X137484819Y-102859999D01*
X137484819Y-102859999D02*
X137532438Y-102955237D01*
X137532438Y-102955237D02*
X137580057Y-103002856D01*
X137580057Y-103002856D02*
X137722914Y-103098094D01*
X137722914Y-103098094D02*
X137913390Y-103145713D01*
X137913390Y-103145713D02*
X138294342Y-103145713D01*
X138294342Y-103145713D02*
X138389580Y-103098094D01*
X138389580Y-103098094D02*
X138437200Y-103050475D01*
X138437200Y-103050475D02*
X138484819Y-102955237D01*
X138484819Y-102955237D02*
X138484819Y-102764761D01*
X138484819Y-102764761D02*
X138437200Y-102669523D01*
X138437200Y-102669523D02*
X138389580Y-102621904D01*
X138389580Y-102621904D02*
X138294342Y-102574285D01*
X138294342Y-102574285D02*
X138056247Y-102574285D01*
X138056247Y-102574285D02*
X137961009Y-102621904D01*
X137961009Y-102621904D02*
X137913390Y-102669523D01*
X137913390Y-102669523D02*
X137865771Y-102764761D01*
X137865771Y-102764761D02*
X137865771Y-102955237D01*
X137865771Y-102955237D02*
X137913390Y-103050475D01*
X137913390Y-103050475D02*
X137961009Y-103098094D01*
X137961009Y-103098094D02*
X138056247Y-103145713D01*
X128814819Y-95738094D02*
X127814819Y-95738094D01*
X127814819Y-95738094D02*
X127814819Y-95499999D01*
X127814819Y-95499999D02*
X127862438Y-95357142D01*
X127862438Y-95357142D02*
X127957676Y-95261904D01*
X127957676Y-95261904D02*
X128052914Y-95214285D01*
X128052914Y-95214285D02*
X128243390Y-95166666D01*
X128243390Y-95166666D02*
X128386247Y-95166666D01*
X128386247Y-95166666D02*
X128576723Y-95214285D01*
X128576723Y-95214285D02*
X128671961Y-95261904D01*
X128671961Y-95261904D02*
X128767200Y-95357142D01*
X128767200Y-95357142D02*
X128814819Y-95499999D01*
X128814819Y-95499999D02*
X128814819Y-95738094D01*
X127814819Y-94261904D02*
X127814819Y-94738094D01*
X127814819Y-94738094D02*
X128291009Y-94785713D01*
X128291009Y-94785713D02*
X128243390Y-94738094D01*
X128243390Y-94738094D02*
X128195771Y-94642856D01*
X128195771Y-94642856D02*
X128195771Y-94404761D01*
X128195771Y-94404761D02*
X128243390Y-94309523D01*
X128243390Y-94309523D02*
X128291009Y-94261904D01*
X128291009Y-94261904D02*
X128386247Y-94214285D01*
X128386247Y-94214285D02*
X128624342Y-94214285D01*
X128624342Y-94214285D02*
X128719580Y-94261904D01*
X128719580Y-94261904D02*
X128767200Y-94309523D01*
X128767200Y-94309523D02*
X128814819Y-94404761D01*
X128814819Y-94404761D02*
X128814819Y-94642856D01*
X128814819Y-94642856D02*
X128767200Y-94738094D01*
X128767200Y-94738094D02*
X128719580Y-94785713D01*
X113814819Y-95738094D02*
X112814819Y-95738094D01*
X112814819Y-95738094D02*
X112814819Y-95499999D01*
X112814819Y-95499999D02*
X112862438Y-95357142D01*
X112862438Y-95357142D02*
X112957676Y-95261904D01*
X112957676Y-95261904D02*
X113052914Y-95214285D01*
X113052914Y-95214285D02*
X113243390Y-95166666D01*
X113243390Y-95166666D02*
X113386247Y-95166666D01*
X113386247Y-95166666D02*
X113576723Y-95214285D01*
X113576723Y-95214285D02*
X113671961Y-95261904D01*
X113671961Y-95261904D02*
X113767200Y-95357142D01*
X113767200Y-95357142D02*
X113814819Y-95499999D01*
X113814819Y-95499999D02*
X113814819Y-95738094D01*
X113148152Y-94309523D02*
X113814819Y-94309523D01*
X112767200Y-94547618D02*
X113481485Y-94785713D01*
X113481485Y-94785713D02*
X113481485Y-94166666D01*
X123484819Y-103526666D02*
X123008628Y-103859999D01*
X123484819Y-104098094D02*
X122484819Y-104098094D01*
X122484819Y-104098094D02*
X122484819Y-103717142D01*
X122484819Y-103717142D02*
X122532438Y-103621904D01*
X122532438Y-103621904D02*
X122580057Y-103574285D01*
X122580057Y-103574285D02*
X122675295Y-103526666D01*
X122675295Y-103526666D02*
X122818152Y-103526666D01*
X122818152Y-103526666D02*
X122913390Y-103574285D01*
X122913390Y-103574285D02*
X122961009Y-103621904D01*
X122961009Y-103621904D02*
X123008628Y-103717142D01*
X123008628Y-103717142D02*
X123008628Y-104098094D01*
X122484819Y-102621904D02*
X122484819Y-103098094D01*
X122484819Y-103098094D02*
X122961009Y-103145713D01*
X122961009Y-103145713D02*
X122913390Y-103098094D01*
X122913390Y-103098094D02*
X122865771Y-103002856D01*
X122865771Y-103002856D02*
X122865771Y-102764761D01*
X122865771Y-102764761D02*
X122913390Y-102669523D01*
X122913390Y-102669523D02*
X122961009Y-102621904D01*
X122961009Y-102621904D02*
X123056247Y-102574285D01*
X123056247Y-102574285D02*
X123294342Y-102574285D01*
X123294342Y-102574285D02*
X123389580Y-102621904D01*
X123389580Y-102621904D02*
X123437200Y-102669523D01*
X123437200Y-102669523D02*
X123484819Y-102764761D01*
X123484819Y-102764761D02*
X123484819Y-103002856D01*
X123484819Y-103002856D02*
X123437200Y-103098094D01*
X123437200Y-103098094D02*
X123389580Y-103145713D01*
X108484819Y-103526666D02*
X108008628Y-103859999D01*
X108484819Y-104098094D02*
X107484819Y-104098094D01*
X107484819Y-104098094D02*
X107484819Y-103717142D01*
X107484819Y-103717142D02*
X107532438Y-103621904D01*
X107532438Y-103621904D02*
X107580057Y-103574285D01*
X107580057Y-103574285D02*
X107675295Y-103526666D01*
X107675295Y-103526666D02*
X107818152Y-103526666D01*
X107818152Y-103526666D02*
X107913390Y-103574285D01*
X107913390Y-103574285D02*
X107961009Y-103621904D01*
X107961009Y-103621904D02*
X108008628Y-103717142D01*
X108008628Y-103717142D02*
X108008628Y-104098094D01*
X107818152Y-102669523D02*
X108484819Y-102669523D01*
X107437200Y-102907618D02*
X108151485Y-103145713D01*
X108151485Y-103145713D02*
X108151485Y-102526666D01*
X63484819Y-103526666D02*
X63008628Y-103859999D01*
X63484819Y-104098094D02*
X62484819Y-104098094D01*
X62484819Y-104098094D02*
X62484819Y-103717142D01*
X62484819Y-103717142D02*
X62532438Y-103621904D01*
X62532438Y-103621904D02*
X62580057Y-103574285D01*
X62580057Y-103574285D02*
X62675295Y-103526666D01*
X62675295Y-103526666D02*
X62818152Y-103526666D01*
X62818152Y-103526666D02*
X62913390Y-103574285D01*
X62913390Y-103574285D02*
X62961009Y-103621904D01*
X62961009Y-103621904D02*
X63008628Y-103717142D01*
X63008628Y-103717142D02*
X63008628Y-104098094D01*
X63484819Y-102574285D02*
X63484819Y-103145713D01*
X63484819Y-102859999D02*
X62484819Y-102859999D01*
X62484819Y-102859999D02*
X62627676Y-102955237D01*
X62627676Y-102955237D02*
X62722914Y-103050475D01*
X62722914Y-103050475D02*
X62770533Y-103145713D01*
X68814819Y-95738094D02*
X67814819Y-95738094D01*
X67814819Y-95738094D02*
X67814819Y-95499999D01*
X67814819Y-95499999D02*
X67862438Y-95357142D01*
X67862438Y-95357142D02*
X67957676Y-95261904D01*
X67957676Y-95261904D02*
X68052914Y-95214285D01*
X68052914Y-95214285D02*
X68243390Y-95166666D01*
X68243390Y-95166666D02*
X68386247Y-95166666D01*
X68386247Y-95166666D02*
X68576723Y-95214285D01*
X68576723Y-95214285D02*
X68671961Y-95261904D01*
X68671961Y-95261904D02*
X68767200Y-95357142D01*
X68767200Y-95357142D02*
X68814819Y-95499999D01*
X68814819Y-95499999D02*
X68814819Y-95738094D01*
X68814819Y-94214285D02*
X68814819Y-94785713D01*
X68814819Y-94499999D02*
X67814819Y-94499999D01*
X67814819Y-94499999D02*
X67957676Y-94595237D01*
X67957676Y-94595237D02*
X68052914Y-94690475D01*
X68052914Y-94690475D02*
X68100533Y-94785713D01*
X93484819Y-103526666D02*
X93008628Y-103859999D01*
X93484819Y-104098094D02*
X92484819Y-104098094D01*
X92484819Y-104098094D02*
X92484819Y-103717142D01*
X92484819Y-103717142D02*
X92532438Y-103621904D01*
X92532438Y-103621904D02*
X92580057Y-103574285D01*
X92580057Y-103574285D02*
X92675295Y-103526666D01*
X92675295Y-103526666D02*
X92818152Y-103526666D01*
X92818152Y-103526666D02*
X92913390Y-103574285D01*
X92913390Y-103574285D02*
X92961009Y-103621904D01*
X92961009Y-103621904D02*
X93008628Y-103717142D01*
X93008628Y-103717142D02*
X93008628Y-104098094D01*
X92484819Y-103193332D02*
X92484819Y-102574285D01*
X92484819Y-102574285D02*
X92865771Y-102907618D01*
X92865771Y-102907618D02*
X92865771Y-102764761D01*
X92865771Y-102764761D02*
X92913390Y-102669523D01*
X92913390Y-102669523D02*
X92961009Y-102621904D01*
X92961009Y-102621904D02*
X93056247Y-102574285D01*
X93056247Y-102574285D02*
X93294342Y-102574285D01*
X93294342Y-102574285D02*
X93389580Y-102621904D01*
X93389580Y-102621904D02*
X93437200Y-102669523D01*
X93437200Y-102669523D02*
X93484819Y-102764761D01*
X93484819Y-102764761D02*
X93484819Y-103050475D01*
X93484819Y-103050475D02*
X93437200Y-103145713D01*
X93437200Y-103145713D02*
X93389580Y-103193332D01*
X65106666Y-88704819D02*
X65106666Y-89419104D01*
X65106666Y-89419104D02*
X65059047Y-89561961D01*
X65059047Y-89561961D02*
X64963809Y-89657200D01*
X64963809Y-89657200D02*
X64820952Y-89704819D01*
X64820952Y-89704819D02*
X64725714Y-89704819D01*
X66106666Y-89704819D02*
X65535238Y-89704819D01*
X65820952Y-89704819D02*
X65820952Y-88704819D01*
X65820952Y-88704819D02*
X65725714Y-88847676D01*
X65725714Y-88847676D02*
X65630476Y-88942914D01*
X65630476Y-88942914D02*
X65535238Y-88990533D01*
X80106666Y-88704819D02*
X80106666Y-89419104D01*
X80106666Y-89419104D02*
X80059047Y-89561961D01*
X80059047Y-89561961D02*
X79963809Y-89657200D01*
X79963809Y-89657200D02*
X79820952Y-89704819D01*
X79820952Y-89704819D02*
X79725714Y-89704819D01*
X80535238Y-88800057D02*
X80582857Y-88752438D01*
X80582857Y-88752438D02*
X80678095Y-88704819D01*
X80678095Y-88704819D02*
X80916190Y-88704819D01*
X80916190Y-88704819D02*
X81011428Y-88752438D01*
X81011428Y-88752438D02*
X81059047Y-88800057D01*
X81059047Y-88800057D02*
X81106666Y-88895295D01*
X81106666Y-88895295D02*
X81106666Y-88990533D01*
X81106666Y-88990533D02*
X81059047Y-89133390D01*
X81059047Y-89133390D02*
X80487619Y-89704819D01*
X80487619Y-89704819D02*
X81106666Y-89704819D01*
X140106666Y-88704819D02*
X140106666Y-89419104D01*
X140106666Y-89419104D02*
X140059047Y-89561961D01*
X140059047Y-89561961D02*
X139963809Y-89657200D01*
X139963809Y-89657200D02*
X139820952Y-89704819D01*
X139820952Y-89704819D02*
X139725714Y-89704819D01*
X141011428Y-88704819D02*
X140820952Y-88704819D01*
X140820952Y-88704819D02*
X140725714Y-88752438D01*
X140725714Y-88752438D02*
X140678095Y-88800057D01*
X140678095Y-88800057D02*
X140582857Y-88942914D01*
X140582857Y-88942914D02*
X140535238Y-89133390D01*
X140535238Y-89133390D02*
X140535238Y-89514342D01*
X140535238Y-89514342D02*
X140582857Y-89609580D01*
X140582857Y-89609580D02*
X140630476Y-89657200D01*
X140630476Y-89657200D02*
X140725714Y-89704819D01*
X140725714Y-89704819D02*
X140916190Y-89704819D01*
X140916190Y-89704819D02*
X141011428Y-89657200D01*
X141011428Y-89657200D02*
X141059047Y-89609580D01*
X141059047Y-89609580D02*
X141106666Y-89514342D01*
X141106666Y-89514342D02*
X141106666Y-89276247D01*
X141106666Y-89276247D02*
X141059047Y-89181009D01*
X141059047Y-89181009D02*
X141011428Y-89133390D01*
X141011428Y-89133390D02*
X140916190Y-89085771D01*
X140916190Y-89085771D02*
X140725714Y-89085771D01*
X140725714Y-89085771D02*
X140630476Y-89133390D01*
X140630476Y-89133390D02*
X140582857Y-89181009D01*
X140582857Y-89181009D02*
X140535238Y-89276247D01*
X95106666Y-88704819D02*
X95106666Y-89419104D01*
X95106666Y-89419104D02*
X95059047Y-89561961D01*
X95059047Y-89561961D02*
X94963809Y-89657200D01*
X94963809Y-89657200D02*
X94820952Y-89704819D01*
X94820952Y-89704819D02*
X94725714Y-89704819D01*
X95487619Y-88704819D02*
X96106666Y-88704819D01*
X96106666Y-88704819D02*
X95773333Y-89085771D01*
X95773333Y-89085771D02*
X95916190Y-89085771D01*
X95916190Y-89085771D02*
X96011428Y-89133390D01*
X96011428Y-89133390D02*
X96059047Y-89181009D01*
X96059047Y-89181009D02*
X96106666Y-89276247D01*
X96106666Y-89276247D02*
X96106666Y-89514342D01*
X96106666Y-89514342D02*
X96059047Y-89609580D01*
X96059047Y-89609580D02*
X96011428Y-89657200D01*
X96011428Y-89657200D02*
X95916190Y-89704819D01*
X95916190Y-89704819D02*
X95630476Y-89704819D01*
X95630476Y-89704819D02*
X95535238Y-89657200D01*
X95535238Y-89657200D02*
X95487619Y-89609580D01*
X110106666Y-88704819D02*
X110106666Y-89419104D01*
X110106666Y-89419104D02*
X110059047Y-89561961D01*
X110059047Y-89561961D02*
X109963809Y-89657200D01*
X109963809Y-89657200D02*
X109820952Y-89704819D01*
X109820952Y-89704819D02*
X109725714Y-89704819D01*
X111011428Y-89038152D02*
X111011428Y-89704819D01*
X110773333Y-88657200D02*
X110535238Y-89371485D01*
X110535238Y-89371485D02*
X111154285Y-89371485D01*
X204266666Y-88634819D02*
X204266666Y-89349104D01*
X204266666Y-89349104D02*
X204219047Y-89491961D01*
X204219047Y-89491961D02*
X204123809Y-89587200D01*
X204123809Y-89587200D02*
X203980952Y-89634819D01*
X203980952Y-89634819D02*
X203885714Y-89634819D01*
X204790476Y-89634819D02*
X204980952Y-89634819D01*
X204980952Y-89634819D02*
X205076190Y-89587200D01*
X205076190Y-89587200D02*
X205123809Y-89539580D01*
X205123809Y-89539580D02*
X205219047Y-89396723D01*
X205219047Y-89396723D02*
X205266666Y-89206247D01*
X205266666Y-89206247D02*
X205266666Y-88825295D01*
X205266666Y-88825295D02*
X205219047Y-88730057D01*
X205219047Y-88730057D02*
X205171428Y-88682438D01*
X205171428Y-88682438D02*
X205076190Y-88634819D01*
X205076190Y-88634819D02*
X204885714Y-88634819D01*
X204885714Y-88634819D02*
X204790476Y-88682438D01*
X204790476Y-88682438D02*
X204742857Y-88730057D01*
X204742857Y-88730057D02*
X204695238Y-88825295D01*
X204695238Y-88825295D02*
X204695238Y-89063390D01*
X204695238Y-89063390D02*
X204742857Y-89158628D01*
X204742857Y-89158628D02*
X204790476Y-89206247D01*
X204790476Y-89206247D02*
X204885714Y-89253866D01*
X204885714Y-89253866D02*
X205076190Y-89253866D01*
X205076190Y-89253866D02*
X205171428Y-89206247D01*
X205171428Y-89206247D02*
X205219047Y-89158628D01*
X205219047Y-89158628D02*
X205266666Y-89063390D01*
X125106666Y-88704819D02*
X125106666Y-89419104D01*
X125106666Y-89419104D02*
X125059047Y-89561961D01*
X125059047Y-89561961D02*
X124963809Y-89657200D01*
X124963809Y-89657200D02*
X124820952Y-89704819D01*
X124820952Y-89704819D02*
X124725714Y-89704819D01*
X126059047Y-88704819D02*
X125582857Y-88704819D01*
X125582857Y-88704819D02*
X125535238Y-89181009D01*
X125535238Y-89181009D02*
X125582857Y-89133390D01*
X125582857Y-89133390D02*
X125678095Y-89085771D01*
X125678095Y-89085771D02*
X125916190Y-89085771D01*
X125916190Y-89085771D02*
X126011428Y-89133390D01*
X126011428Y-89133390D02*
X126059047Y-89181009D01*
X126059047Y-89181009D02*
X126106666Y-89276247D01*
X126106666Y-89276247D02*
X126106666Y-89514342D01*
X126106666Y-89514342D02*
X126059047Y-89609580D01*
X126059047Y-89609580D02*
X126011428Y-89657200D01*
X126011428Y-89657200D02*
X125916190Y-89704819D01*
X125916190Y-89704819D02*
X125678095Y-89704819D01*
X125678095Y-89704819D02*
X125582857Y-89657200D01*
X125582857Y-89657200D02*
X125535238Y-89609580D01*
D11*
X185589776Y-95545062D02*
X185771205Y-95605538D01*
X185771205Y-95605538D02*
X186073586Y-95605538D01*
X186073586Y-95605538D02*
X186194538Y-95545062D01*
X186194538Y-95545062D02*
X186255014Y-95484585D01*
X186255014Y-95484585D02*
X186315491Y-95363633D01*
X186315491Y-95363633D02*
X186315491Y-95242681D01*
X186315491Y-95242681D02*
X186255014Y-95121728D01*
X186255014Y-95121728D02*
X186194538Y-95061252D01*
X186194538Y-95061252D02*
X186073586Y-95000776D01*
X186073586Y-95000776D02*
X185831681Y-94940300D01*
X185831681Y-94940300D02*
X185710729Y-94879823D01*
X185710729Y-94879823D02*
X185650252Y-94819347D01*
X185650252Y-94819347D02*
X185589776Y-94698395D01*
X185589776Y-94698395D02*
X185589776Y-94577442D01*
X185589776Y-94577442D02*
X185650252Y-94456490D01*
X185650252Y-94456490D02*
X185710729Y-94396014D01*
X185710729Y-94396014D02*
X185831681Y-94335538D01*
X185831681Y-94335538D02*
X186134062Y-94335538D01*
X186134062Y-94335538D02*
X186315491Y-94396014D01*
X186738824Y-94335538D02*
X187041205Y-95605538D01*
X187041205Y-95605538D02*
X187283110Y-94698395D01*
X187283110Y-94698395D02*
X187525015Y-95605538D01*
X187525015Y-95605538D02*
X187827396Y-94335538D01*
X188976444Y-95605538D02*
X188250729Y-95605538D01*
X188613586Y-95605538D02*
X188613586Y-94335538D01*
X188613586Y-94335538D02*
X188492634Y-94516966D01*
X188492634Y-94516966D02*
X188371682Y-94637919D01*
X188371682Y-94637919D02*
X188250729Y-94698395D01*
D12*
%TO.C,R8*%
X171770000Y-100090000D02*
X171440000Y-100090000D01*
X169030000Y-100090000D02*
X169360000Y-100090000D01*
X171770000Y-106630000D02*
X171770000Y-100090000D01*
X171440000Y-106630000D02*
X171770000Y-106630000D01*
X169360000Y-106630000D02*
X169030000Y-106630000D01*
X169030000Y-106630000D02*
X169030000Y-100090000D01*
%TO.C,R7*%
X154030000Y-106630000D02*
X154030000Y-100090000D01*
X154360000Y-106630000D02*
X154030000Y-106630000D01*
X156440000Y-106630000D02*
X156770000Y-106630000D01*
X156770000Y-106630000D02*
X156770000Y-100090000D01*
X154030000Y-100090000D02*
X154360000Y-100090000D01*
X156770000Y-100090000D02*
X156440000Y-100090000D01*
%TO.C,D8*%
X171636000Y-93440000D02*
X171480000Y-93440000D01*
X169320000Y-93440000D02*
X169164000Y-93440000D01*
X171635516Y-93440000D02*
G75*
G02*
X171480061Y-96671397I-1235516J-1560000D01*
G01*
X171480000Y-93959039D02*
G75*
G02*
X171480049Y-96040910I-1080000J-1040961D01*
G01*
X169319951Y-96040910D02*
G75*
G02*
X169320000Y-93959039I1080049J1040910D01*
G01*
X169319939Y-96671397D02*
G75*
G02*
X169164484Y-93440000I1080061J1671397D01*
G01*
%TO.C,D7*%
X156636000Y-93440000D02*
X156480000Y-93440000D01*
X154320000Y-93440000D02*
X154164000Y-93440000D01*
X156635516Y-93440000D02*
G75*
G02*
X156480061Y-96671397I-1235516J-1560000D01*
G01*
X156480000Y-93959039D02*
G75*
G02*
X156480049Y-96040910I-1080000J-1040961D01*
G01*
X154319951Y-96040910D02*
G75*
G02*
X154320000Y-93959039I1080049J1040910D01*
G01*
X154319939Y-96671397D02*
G75*
G02*
X154164484Y-93440000I1080061J1671397D01*
G01*
%TO.C,D3*%
X94320000Y-93440000D02*
X94164000Y-93440000D01*
X96636000Y-93440000D02*
X96480000Y-93440000D01*
X94319939Y-96671397D02*
G75*
G02*
X94164484Y-93440000I1080061J1671397D01*
G01*
X94319951Y-96040910D02*
G75*
G02*
X94320000Y-93959039I1080049J1040910D01*
G01*
X96480000Y-93959039D02*
G75*
G02*
X96480049Y-96040910I-1080000J-1040961D01*
G01*
X96635516Y-93440000D02*
G75*
G02*
X96480061Y-96671397I-1235516J-1560000D01*
G01*
%TO.C,R2*%
X79030000Y-100090000D02*
X79360000Y-100090000D01*
X79030000Y-106630000D02*
X79030000Y-100090000D01*
X79360000Y-106630000D02*
X79030000Y-106630000D01*
X81440000Y-106630000D02*
X81770000Y-106630000D01*
X81770000Y-100090000D02*
X81440000Y-100090000D01*
X81770000Y-106630000D02*
X81770000Y-100090000D01*
%TO.C,D2*%
X79320000Y-93440000D02*
X79164000Y-93440000D01*
X81636000Y-93440000D02*
X81480000Y-93440000D01*
X79319939Y-96671397D02*
G75*
G02*
X79164484Y-93440000I1080061J1671397D01*
G01*
X79319951Y-96040910D02*
G75*
G02*
X79320000Y-93959039I1080049J1040910D01*
G01*
X81480000Y-93959039D02*
G75*
G02*
X81480049Y-96040910I-1080000J-1040961D01*
G01*
X81635516Y-93440000D02*
G75*
G02*
X81480061Y-96671397I-1235516J-1560000D01*
G01*
%TO.C,D6*%
X139320000Y-93440000D02*
X139164000Y-93440000D01*
X141636000Y-93440000D02*
X141480000Y-93440000D01*
X139319939Y-96671397D02*
G75*
G02*
X139164484Y-93440000I1080061J1671397D01*
G01*
X139319951Y-96040910D02*
G75*
G02*
X139320000Y-93959039I1080049J1040910D01*
G01*
X141480000Y-93959039D02*
G75*
G02*
X141480049Y-96040910I-1080000J-1040961D01*
G01*
X141635516Y-93440000D02*
G75*
G02*
X141480061Y-96671397I-1235516J-1560000D01*
G01*
%TO.C,R6*%
X139030000Y-100090000D02*
X139360000Y-100090000D01*
X139030000Y-106630000D02*
X139030000Y-100090000D01*
X139360000Y-106630000D02*
X139030000Y-106630000D01*
X141440000Y-106630000D02*
X141770000Y-106630000D01*
X141770000Y-100090000D02*
X141440000Y-100090000D01*
X141770000Y-106630000D02*
X141770000Y-100090000D01*
%TO.C,D5*%
X124320000Y-93440000D02*
X124164000Y-93440000D01*
X126636000Y-93440000D02*
X126480000Y-93440000D01*
X124319939Y-96671397D02*
G75*
G02*
X124164484Y-93440000I1080061J1671397D01*
G01*
X124319951Y-96040910D02*
G75*
G02*
X124320000Y-93959039I1080049J1040910D01*
G01*
X126480000Y-93959039D02*
G75*
G02*
X126480049Y-96040910I-1080000J-1040961D01*
G01*
X126635516Y-93440000D02*
G75*
G02*
X126480061Y-96671397I-1235516J-1560000D01*
G01*
%TO.C,D4*%
X109320000Y-93440000D02*
X109164000Y-93440000D01*
X111636000Y-93440000D02*
X111480000Y-93440000D01*
X109319939Y-96671397D02*
G75*
G02*
X109164484Y-93440000I1080061J1671397D01*
G01*
X109319951Y-96040910D02*
G75*
G02*
X109320000Y-93959039I1080049J1040910D01*
G01*
X111480000Y-93959039D02*
G75*
G02*
X111480049Y-96040910I-1080000J-1040961D01*
G01*
X111635516Y-93440000D02*
G75*
G02*
X111480061Y-96671397I-1235516J-1560000D01*
G01*
%TO.C,R5*%
X124030000Y-100090000D02*
X124360000Y-100090000D01*
X124030000Y-106630000D02*
X124030000Y-100090000D01*
X124360000Y-106630000D02*
X124030000Y-106630000D01*
X126440000Y-106630000D02*
X126770000Y-106630000D01*
X126770000Y-100090000D02*
X126440000Y-100090000D01*
X126770000Y-106630000D02*
X126770000Y-100090000D01*
%TO.C,R4*%
X109030000Y-100090000D02*
X109360000Y-100090000D01*
X109030000Y-106630000D02*
X109030000Y-100090000D01*
X109360000Y-106630000D02*
X109030000Y-106630000D01*
X111440000Y-106630000D02*
X111770000Y-106630000D01*
X111770000Y-100090000D02*
X111440000Y-100090000D01*
X111770000Y-106630000D02*
X111770000Y-100090000D01*
%TO.C,R1*%
X64030000Y-100090000D02*
X64360000Y-100090000D01*
X64030000Y-106630000D02*
X64030000Y-100090000D01*
X64360000Y-106630000D02*
X64030000Y-106630000D01*
X66440000Y-106630000D02*
X66770000Y-106630000D01*
X66770000Y-100090000D02*
X66440000Y-100090000D01*
X66770000Y-106630000D02*
X66770000Y-100090000D01*
%TO.C,D1*%
X64320000Y-93440000D02*
X64164000Y-93440000D01*
X66636000Y-93440000D02*
X66480000Y-93440000D01*
X64319939Y-96671397D02*
G75*
G02*
X64164484Y-93440000I1080061J1671397D01*
G01*
X64319951Y-96040910D02*
G75*
G02*
X64320000Y-93959039I1080049J1040910D01*
G01*
X66480000Y-93959039D02*
G75*
G02*
X66480049Y-96040910I-1080000J-1040961D01*
G01*
X66635516Y-93440000D02*
G75*
G02*
X66480061Y-96671397I-1235516J-1560000D01*
G01*
%TO.C,R3*%
X94030000Y-100090000D02*
X94360000Y-100090000D01*
X94030000Y-106630000D02*
X94030000Y-100090000D01*
X94360000Y-106630000D02*
X94030000Y-106630000D01*
X96440000Y-106630000D02*
X96770000Y-106630000D01*
X96770000Y-100090000D02*
X96440000Y-100090000D01*
X96770000Y-106630000D02*
X96770000Y-100090000D01*
D10*
%TO.C,SW1*%
X184791220Y-108475000D02*
G75*
G02*
X184653220Y-108475000I-69000J0D01*
G01*
X184653220Y-108475000D02*
G75*
G02*
X184791220Y-108475000I69000J0D01*
G01*
D13*
X200727110Y-94878220D02*
G75*
G02*
X174527110Y-94878220I-13100000J0D01*
G01*
X174527110Y-94878220D02*
G75*
G02*
X200727110Y-94878220I13100000J0D01*
G01*
%TD*%
M02*
