%TF.GenerationSoftware,KiCad,Pcbnew,9.0.0+dfsg-1*%
%TF.CreationDate,2025-03-19T00:39:58+01:00*%
%TF.ProjectId,control-matrix-4,636f6e74-726f-46c2-9d6d-61747269782d,1.0*%
%TF.SameCoordinates,Original*%
%TF.FileFunction,Copper,L1,Top*%
%TF.FilePolarity,Positive*%
%FSLAX46Y46*%
G04 Gerber Fmt 4.6, Leading zero omitted, Abs format (unit mm)*
G04 Created by KiCad (PCBNEW 9.0.0+dfsg-1) date 2025-03-19 00:39:58*
%MOMM*%
%LPD*%
G01*
G04 APERTURE LIST*
%TA.AperFunction,ComponentPad*%
%ADD10R,1.800000X1.800000*%
%TD*%
%TA.AperFunction,ComponentPad*%
%ADD11C,1.800000*%
%TD*%
%TA.AperFunction,ComponentPad*%
%ADD12C,2.250000*%
%TD*%
%TA.AperFunction,ComponentPad*%
%ADD13C,1.600000*%
%TD*%
%TA.AperFunction,ComponentPad*%
%ADD14O,1.600000X1.600000*%
%TD*%
%TA.AperFunction,ComponentPad*%
%ADD15R,3.000000X3.000000*%
%TD*%
%TA.AperFunction,ComponentPad*%
%ADD16C,3.000000*%
%TD*%
%TA.AperFunction,Conductor*%
%ADD17C,0.400000*%
%TD*%
G04 APERTURE END LIST*
D10*
%TO.P,D3,1,K*%
%TO.N,Net-(D3-K)*%
X95400000Y-93730000D03*
D11*
%TO.P,D3,2,A*%
%TO.N,Net-(D3-A)*%
X95400000Y-96270000D03*
%TD*%
D12*
%TO.P,SW1,1,1*%
%TO.N,unconnected-(SW1-Pad1)*%
X124754220Y-105600000D03*
%TO.P,SW1,2,2*%
%TO.N,Net-(D1-K)*%
X119778230Y-102727110D03*
%TO.P,SW1,3,3*%
%TO.N,Net-(D2-K)*%
X116905330Y-97751110D03*
%TO.P,SW1,4,4*%
%TO.N,Net-(D3-K)*%
X116905330Y-92005330D03*
%TO.P,SW1,5,5*%
%TO.N,Net-(D4-K)*%
X119778230Y-87029340D03*
%TO.P,SW1,6,6*%
%TO.N,unconnected-(SW1-Pad6)*%
X124754220Y-84156450D03*
%TO.P,SW1,7,7*%
%TO.N,unconnected-(SW1-Pad7)*%
X130500000Y-84156450D03*
%TO.P,SW1,8,8*%
%TO.N,unconnected-(SW1-Pad8)*%
X135476000Y-87029340D03*
%TO.P,SW1,9,9*%
%TO.N,unconnected-(SW1-Pad9)*%
X138348890Y-92005329D03*
%TO.P,SW1,10,10*%
%TO.N,unconnected-(SW1-Pad10)*%
X138348890Y-97751110D03*
%TO.P,SW1,11,11*%
%TO.N,unconnected-(SW1-Pad11)*%
X135476000Y-102727110D03*
%TO.P,SW1,12,12*%
%TO.N,unconnected-(SW1-Pad12)*%
X130500000Y-105600000D03*
%TO.P,SW1,13,13*%
%TO.N,GND*%
X124904750Y-97600580D03*
%TD*%
D13*
%TO.P,R2,1*%
%TO.N,+12V*%
X80400000Y-107170000D03*
D14*
%TO.P,R2,2*%
%TO.N,Net-(D2-A)*%
X80400000Y-99550000D03*
%TD*%
D10*
%TO.P,D2,1,K*%
%TO.N,Net-(D2-K)*%
X80400000Y-93730000D03*
D11*
%TO.P,D2,2,A*%
%TO.N,Net-(D2-A)*%
X80400000Y-96270000D03*
%TD*%
D10*
%TO.P,D4,1,K*%
%TO.N,Net-(D4-K)*%
X110400000Y-93730000D03*
D11*
%TO.P,D4,2,A*%
%TO.N,Net-(D4-A)*%
X110400000Y-96270000D03*
%TD*%
D13*
%TO.P,R4,1*%
%TO.N,+12V*%
X110400000Y-107170000D03*
D14*
%TO.P,R4,2*%
%TO.N,Net-(D4-A)*%
X110400000Y-99550000D03*
%TD*%
D13*
%TO.P,R1,1*%
%TO.N,+12V*%
X65400000Y-107170000D03*
D14*
%TO.P,R1,2*%
%TO.N,Net-(D1-A)*%
X65400000Y-99550000D03*
%TD*%
D10*
%TO.P,D1,1,K*%
%TO.N,Net-(D1-K)*%
X65400000Y-93730000D03*
D11*
%TO.P,D1,2,A*%
%TO.N,Net-(D1-A)*%
X65400000Y-96270000D03*
%TD*%
D13*
%TO.P,R3,1*%
%TO.N,+12V*%
X95400000Y-107170000D03*
D14*
%TO.P,R3,2*%
%TO.N,Net-(D3-A)*%
X95400000Y-99550000D03*
%TD*%
D15*
%TO.P,J1,1,Pin_1*%
%TO.N,Net-(D1-K)*%
X62900000Y-84170000D03*
D16*
%TO.P,J1,2,Pin_2*%
X67980000Y-84170000D03*
%TD*%
D15*
%TO.P,J2,1,Pin_1*%
%TO.N,Net-(D2-K)*%
X77900000Y-84170000D03*
D16*
%TO.P,J2,2,Pin_2*%
X82980000Y-84170000D03*
%TD*%
D15*
%TO.P,J3,1,Pin_1*%
%TO.N,Net-(D3-K)*%
X92900000Y-84170000D03*
D16*
%TO.P,J3,2,Pin_2*%
X97980000Y-84170000D03*
%TD*%
D15*
%TO.P,J4,1,Pin_1*%
%TO.N,Net-(D4-K)*%
X107900000Y-84170000D03*
D16*
%TO.P,J4,2,Pin_2*%
X112980000Y-84170000D03*
%TD*%
D15*
%TO.P,J9,1,Pin_1*%
%TO.N,GND*%
X142060000Y-84100000D03*
D16*
%TO.P,J9,2,Pin_2*%
%TO.N,+12V*%
X147140000Y-84100000D03*
%TD*%
D17*
%TO.N,Net-(D1-K)*%
X67980000Y-84170000D02*
X65400000Y-86750000D01*
X62900000Y-84170000D02*
X67980000Y-84170000D01*
X65400000Y-86750000D02*
X65400000Y-93730000D01*
%TO.N,Net-(D1-A)*%
X65400000Y-96270000D02*
X65400000Y-99550000D01*
%TO.N,Net-(D2-A)*%
X80400000Y-96270000D02*
X80400000Y-99550000D01*
%TO.N,Net-(D2-K)*%
X82980000Y-84170000D02*
X85200000Y-86390000D01*
X113000000Y-105500000D02*
X114300000Y-104200000D01*
X85200000Y-86390000D02*
X85200000Y-106800000D01*
X90300000Y-108000000D02*
X92800000Y-105500000D01*
X114300000Y-104200000D02*
X114300000Y-100356440D01*
X85200000Y-106800000D02*
X86400000Y-108000000D01*
X80400000Y-86750000D02*
X80400000Y-93730000D01*
X114300000Y-100356440D02*
X116905330Y-97751110D01*
X82980000Y-84170000D02*
X80400000Y-86750000D01*
X92800000Y-105500000D02*
X113000000Y-105500000D01*
X77900000Y-84170000D02*
X82980000Y-84170000D01*
X86400000Y-108000000D02*
X90300000Y-108000000D01*
%TO.N,Net-(D3-K)*%
X95400000Y-91170000D02*
X95400000Y-86750000D01*
X92900000Y-84170000D02*
X97980000Y-84170000D01*
X95400000Y-91170000D02*
X95400000Y-93730000D01*
X120405330Y-92005330D02*
X116905330Y-92005330D01*
X120500000Y-92100000D02*
X120405330Y-92005330D01*
X118200000Y-80900000D02*
X122900000Y-85600000D01*
X97980000Y-84170000D02*
X101250000Y-80900000D01*
X122900000Y-89700000D02*
X120500000Y-92100000D01*
X122900000Y-85600000D02*
X122900000Y-89700000D01*
X101250000Y-80900000D02*
X118200000Y-80900000D01*
X95400000Y-86750000D02*
X97980000Y-84170000D01*
%TO.N,Net-(D3-A)*%
X95400000Y-96270000D02*
X95400000Y-99550000D01*
%TO.N,Net-(D4-A)*%
X110400000Y-96270000D02*
X110400000Y-99550000D01*
%TO.N,Net-(D4-K)*%
X112980000Y-84170000D02*
X116918890Y-84170000D01*
X107900000Y-84170000D02*
X112980000Y-84170000D01*
X112980000Y-84170000D02*
X110400000Y-86750000D01*
X116918890Y-84170000D02*
X119778230Y-87029340D01*
X110400000Y-86750000D02*
X110400000Y-93730000D01*
%TO.N,+12V*%
X147140000Y-84100000D02*
X147140000Y-102660000D01*
X112479000Y-109249000D02*
X140551000Y-109249000D01*
X93321000Y-109249000D02*
X95400000Y-107170000D01*
X67479000Y-109249000D02*
X77750000Y-109249000D01*
X95400000Y-107170000D02*
X97479000Y-109249000D01*
X108321000Y-109249000D02*
X110400000Y-107170000D01*
X78301000Y-109249000D02*
X80380000Y-107170000D01*
X80400000Y-107170000D02*
X82479000Y-109249000D01*
X110400000Y-107170000D02*
X112479000Y-109249000D01*
X97479000Y-109249000D02*
X108321000Y-109249000D01*
X80380000Y-107170000D02*
X80400000Y-107170000D01*
X77750000Y-109249000D02*
X78301000Y-109249000D01*
X82479000Y-109249000D02*
X93321000Y-109249000D01*
X65400000Y-107170000D02*
X67479000Y-109249000D01*
X147140000Y-102660000D02*
X140551000Y-109249000D01*
%TD*%
%TA.AperFunction,Conductor*%
%TO.N,GND*%
G36*
X100426521Y-80520185D02*
G01*
X100472276Y-80572989D01*
X100482220Y-80642147D01*
X100453195Y-80705703D01*
X100447166Y-80712177D01*
X100022897Y-81136446D01*
X98869202Y-82290140D01*
X98807879Y-82323625D01*
X98738187Y-82318641D01*
X98734068Y-82317020D01*
X98624428Y-82271605D01*
X98624421Y-82271603D01*
X98624419Y-82271602D01*
X98371116Y-82203730D01*
X98313339Y-82196123D01*
X98111127Y-82169500D01*
X98111120Y-82169500D01*
X97848880Y-82169500D01*
X97848872Y-82169500D01*
X97617772Y-82199926D01*
X97588884Y-82203730D01*
X97421307Y-82248632D01*
X97335581Y-82271602D01*
X97335571Y-82271605D01*
X97093309Y-82371953D01*
X97093299Y-82371958D01*
X96866196Y-82503075D01*
X96658148Y-82662718D01*
X96472718Y-82848148D01*
X96313075Y-83056196D01*
X96181958Y-83283299D01*
X96181951Y-83283314D01*
X96136539Y-83392952D01*
X96092699Y-83447356D01*
X96026405Y-83469421D01*
X96021978Y-83469500D01*
X95024499Y-83469500D01*
X94957460Y-83449815D01*
X94911705Y-83397011D01*
X94900499Y-83345500D01*
X94900499Y-82622129D01*
X94900498Y-82622123D01*
X94900497Y-82622116D01*
X94894091Y-82562517D01*
X94890226Y-82552155D01*
X94843797Y-82427671D01*
X94843793Y-82427664D01*
X94757547Y-82312455D01*
X94757544Y-82312452D01*
X94642335Y-82226206D01*
X94642328Y-82226202D01*
X94507482Y-82175908D01*
X94507483Y-82175908D01*
X94447883Y-82169501D01*
X94447881Y-82169500D01*
X94447873Y-82169500D01*
X94447864Y-82169500D01*
X91352129Y-82169500D01*
X91352123Y-82169501D01*
X91292516Y-82175908D01*
X91157671Y-82226202D01*
X91157664Y-82226206D01*
X91042455Y-82312452D01*
X91042452Y-82312455D01*
X90956206Y-82427664D01*
X90956202Y-82427671D01*
X90905908Y-82562517D01*
X90901879Y-82600000D01*
X90899501Y-82622123D01*
X90899500Y-82622135D01*
X90899500Y-85717870D01*
X90899501Y-85717876D01*
X90905908Y-85777483D01*
X90956202Y-85912328D01*
X90956206Y-85912335D01*
X91042452Y-86027544D01*
X91042455Y-86027547D01*
X91157664Y-86113793D01*
X91157671Y-86113797D01*
X91292517Y-86164091D01*
X91292516Y-86164091D01*
X91299444Y-86164835D01*
X91352127Y-86170500D01*
X94447872Y-86170499D01*
X94507483Y-86164091D01*
X94642331Y-86113796D01*
X94757546Y-86027546D01*
X94843796Y-85912331D01*
X94894091Y-85777483D01*
X94900500Y-85717873D01*
X94900500Y-84994500D01*
X94920185Y-84927461D01*
X94972989Y-84881706D01*
X95024500Y-84870500D01*
X95989480Y-84870500D01*
X96056519Y-84890185D01*
X96102274Y-84942989D01*
X96112218Y-85012147D01*
X96083193Y-85075703D01*
X96077161Y-85082181D01*
X94855890Y-86303451D01*
X94855887Y-86303454D01*
X94787793Y-86405366D01*
X94787792Y-86405367D01*
X94779227Y-86418184D01*
X94779222Y-86418193D01*
X94726421Y-86545667D01*
X94726418Y-86545677D01*
X94699500Y-86681004D01*
X94699500Y-92205500D01*
X94679815Y-92272539D01*
X94627011Y-92318294D01*
X94575501Y-92329500D01*
X94452130Y-92329500D01*
X94452123Y-92329501D01*
X94392516Y-92335908D01*
X94257671Y-92386202D01*
X94257664Y-92386206D01*
X94142455Y-92472452D01*
X94142452Y-92472455D01*
X94056206Y-92587664D01*
X94056202Y-92587671D01*
X94005908Y-92722517D01*
X94000419Y-92773578D01*
X93999501Y-92782123D01*
X93999500Y-92782135D01*
X93999500Y-94677870D01*
X93999501Y-94677876D01*
X94005908Y-94737483D01*
X94056202Y-94872328D01*
X94056206Y-94872335D01*
X94142452Y-94987544D01*
X94142455Y-94987547D01*
X94257664Y-95073793D01*
X94257671Y-95073797D01*
X94337580Y-95103601D01*
X94393514Y-95145472D01*
X94417931Y-95210936D01*
X94403080Y-95279209D01*
X94381929Y-95307463D01*
X94331756Y-95357636D01*
X94331752Y-95357641D01*
X94202187Y-95535974D01*
X94102104Y-95732393D01*
X94102103Y-95732396D01*
X94033985Y-95942047D01*
X94033985Y-95942049D01*
X93999500Y-96159778D01*
X93999500Y-96380222D01*
X94001724Y-96394265D01*
X94033985Y-96597952D01*
X94102103Y-96807603D01*
X94102104Y-96807606D01*
X94202187Y-97004025D01*
X94331752Y-97182358D01*
X94331756Y-97182363D01*
X94331758Y-97182365D01*
X94487635Y-97338242D01*
X94648386Y-97455034D01*
X94691051Y-97510362D01*
X94699500Y-97555351D01*
X94699500Y-98388255D01*
X94679815Y-98455294D01*
X94648385Y-98488573D01*
X94552787Y-98558028D01*
X94552782Y-98558032D01*
X94408028Y-98702786D01*
X94287715Y-98868386D01*
X94194781Y-99050776D01*
X94131522Y-99245465D01*
X94099500Y-99447648D01*
X94099500Y-99652351D01*
X94131522Y-99854534D01*
X94194781Y-100049223D01*
X94287715Y-100231613D01*
X94408028Y-100397213D01*
X94552786Y-100541971D01*
X94675215Y-100630919D01*
X94718390Y-100662287D01*
X94834607Y-100721503D01*
X94900776Y-100755218D01*
X94900778Y-100755218D01*
X94900781Y-100755220D01*
X95005137Y-100789127D01*
X95095465Y-100818477D01*
X95196557Y-100834488D01*
X95297648Y-100850500D01*
X95297649Y-100850500D01*
X95502351Y-100850500D01*
X95502352Y-100850500D01*
X95704534Y-100818477D01*
X95899219Y-100755220D01*
X96081610Y-100662287D01*
X96174590Y-100594732D01*
X96247213Y-100541971D01*
X96247215Y-100541968D01*
X96247219Y-100541966D01*
X96391966Y-100397219D01*
X96391968Y-100397215D01*
X96391971Y-100397213D01*
X96471719Y-100287447D01*
X96512287Y-100231610D01*
X96605220Y-100049219D01*
X96668477Y-99854534D01*
X96700500Y-99652352D01*
X96700500Y-99447648D01*
X96674590Y-99284059D01*
X96668477Y-99245465D01*
X96605218Y-99050776D01*
X96534878Y-98912728D01*
X96512287Y-98868390D01*
X96504556Y-98857749D01*
X96391971Y-98702786D01*
X96247217Y-98558032D01*
X96247212Y-98558028D01*
X96151615Y-98488573D01*
X96108949Y-98433243D01*
X96100500Y-98388255D01*
X96100500Y-97555351D01*
X96120185Y-97488312D01*
X96151611Y-97455035D01*
X96312365Y-97338242D01*
X96468242Y-97182365D01*
X96597815Y-97004022D01*
X96697895Y-96807606D01*
X96766015Y-96597951D01*
X96800500Y-96380222D01*
X96800500Y-96159778D01*
X96766015Y-95942049D01*
X96697895Y-95732394D01*
X96697895Y-95732393D01*
X96628451Y-95596104D01*
X96597815Y-95535978D01*
X96581260Y-95513192D01*
X96468247Y-95357641D01*
X96468243Y-95357636D01*
X96418071Y-95307464D01*
X96384586Y-95246141D01*
X96389570Y-95176449D01*
X96431442Y-95120516D01*
X96462420Y-95103601D01*
X96542326Y-95073798D01*
X96542326Y-95073797D01*
X96542331Y-95073796D01*
X96657546Y-94987546D01*
X96739020Y-94878711D01*
X101149500Y-94878711D01*
X101149500Y-95121288D01*
X101181161Y-95361785D01*
X101243947Y-95596104D01*
X101336773Y-95820205D01*
X101336776Y-95820212D01*
X101458064Y-96030289D01*
X101458066Y-96030292D01*
X101458067Y-96030293D01*
X101605733Y-96222736D01*
X101605739Y-96222743D01*
X101777256Y-96394260D01*
X101777263Y-96394266D01*
X101890321Y-96481018D01*
X101969711Y-96541936D01*
X102179788Y-96663224D01*
X102249668Y-96692169D01*
X102386604Y-96748890D01*
X102403900Y-96756054D01*
X102638211Y-96818838D01*
X102818586Y-96842584D01*
X102878711Y-96850500D01*
X102878712Y-96850500D01*
X103121289Y-96850500D01*
X103169388Y-96844167D01*
X103361789Y-96818838D01*
X103596100Y-96756054D01*
X103820212Y-96663224D01*
X104030289Y-96541936D01*
X104222738Y-96394265D01*
X104394265Y-96222738D01*
X104541936Y-96030289D01*
X104663224Y-95820212D01*
X104756054Y-95596100D01*
X104818838Y-95361789D01*
X104850500Y-95121288D01*
X104850500Y-94878712D01*
X104849660Y-94872335D01*
X104824060Y-94677876D01*
X104818838Y-94638211D01*
X104756054Y-94403900D01*
X104663224Y-94179788D01*
X104541936Y-93969711D01*
X104394265Y-93777262D01*
X104394260Y-93777256D01*
X104222743Y-93605739D01*
X104222736Y-93605733D01*
X104030293Y-93458067D01*
X104030292Y-93458066D01*
X104030289Y-93458064D01*
X103820212Y-93336776D01*
X103820205Y-93336773D01*
X103596104Y-93243947D01*
X103361785Y-93181161D01*
X103121289Y-93149500D01*
X103121288Y-93149500D01*
X102878712Y-93149500D01*
X102878711Y-93149500D01*
X102638214Y-93181161D01*
X102403895Y-93243947D01*
X102179794Y-93336773D01*
X102179785Y-93336777D01*
X101969706Y-93458067D01*
X101777263Y-93605733D01*
X101777256Y-93605739D01*
X101605739Y-93777256D01*
X101605733Y-93777263D01*
X101458067Y-93969706D01*
X101336777Y-94179785D01*
X101336773Y-94179794D01*
X101243947Y-94403895D01*
X101181161Y-94638214D01*
X101149500Y-94878711D01*
X96739020Y-94878711D01*
X96743796Y-94872331D01*
X96794091Y-94737483D01*
X96800500Y-94677873D01*
X96800499Y-92782128D01*
X96794091Y-92722517D01*
X96793442Y-92720778D01*
X96743797Y-92587671D01*
X96743793Y-92587664D01*
X96657547Y-92472455D01*
X96657544Y-92472452D01*
X96542335Y-92386206D01*
X96542328Y-92386202D01*
X96407482Y-92335908D01*
X96407483Y-92335908D01*
X96347883Y-92329501D01*
X96347881Y-92329500D01*
X96347873Y-92329500D01*
X96347865Y-92329500D01*
X96224500Y-92329500D01*
X96157461Y-92309815D01*
X96111706Y-92257011D01*
X96100500Y-92205500D01*
X96100500Y-87091518D01*
X96120185Y-87024479D01*
X96136814Y-87003841D01*
X97090799Y-86049856D01*
X97152120Y-86016373D01*
X97221811Y-86021357D01*
X97225860Y-86022949D01*
X97335581Y-86068398D01*
X97588884Y-86136270D01*
X97837188Y-86168960D01*
X97848864Y-86170498D01*
X97848880Y-86170500D01*
X97848887Y-86170500D01*
X98111113Y-86170500D01*
X98111120Y-86170500D01*
X98371116Y-86136270D01*
X98624419Y-86068398D01*
X98866697Y-85968043D01*
X99093803Y-85836924D01*
X99301851Y-85677282D01*
X99301855Y-85677277D01*
X99301860Y-85677274D01*
X99487274Y-85491860D01*
X99487277Y-85491855D01*
X99487282Y-85491851D01*
X99646924Y-85283803D01*
X99778043Y-85056697D01*
X99878398Y-84814419D01*
X99946270Y-84561116D01*
X99980500Y-84301120D01*
X99980500Y-84038880D01*
X99946270Y-83778884D01*
X99878398Y-83525581D01*
X99832977Y-83415927D01*
X99825509Y-83346462D01*
X99856783Y-83283983D01*
X99859830Y-83280825D01*
X100518520Y-82622135D01*
X105899500Y-82622135D01*
X105899500Y-85717870D01*
X105899501Y-85717876D01*
X105905908Y-85777483D01*
X105956202Y-85912328D01*
X105956206Y-85912335D01*
X106042452Y-86027544D01*
X106042455Y-86027547D01*
X106157664Y-86113793D01*
X106157671Y-86113797D01*
X106292517Y-86164091D01*
X106292516Y-86164091D01*
X106299444Y-86164835D01*
X106352127Y-86170500D01*
X109447872Y-86170499D01*
X109507483Y-86164091D01*
X109642331Y-86113796D01*
X109757546Y-86027546D01*
X109843796Y-85912331D01*
X109894091Y-85777483D01*
X109900500Y-85717873D01*
X109900500Y-84994500D01*
X109920185Y-84927461D01*
X109972989Y-84881706D01*
X110024500Y-84870500D01*
X110989480Y-84870500D01*
X111056519Y-84890185D01*
X111102274Y-84942989D01*
X111112218Y-85012147D01*
X111083193Y-85075703D01*
X111077161Y-85082181D01*
X109855890Y-86303451D01*
X109855887Y-86303454D01*
X109787793Y-86405366D01*
X109787792Y-86405367D01*
X109779227Y-86418184D01*
X109779222Y-86418193D01*
X109726421Y-86545667D01*
X109726418Y-86545677D01*
X109699500Y-86681004D01*
X109699500Y-92205500D01*
X109679815Y-92272539D01*
X109627011Y-92318294D01*
X109575501Y-92329500D01*
X109452130Y-92329500D01*
X109452123Y-92329501D01*
X109392516Y-92335908D01*
X109257671Y-92386202D01*
X109257664Y-92386206D01*
X109142455Y-92472452D01*
X109142452Y-92472455D01*
X109056206Y-92587664D01*
X109056202Y-92587671D01*
X109005908Y-92722517D01*
X109000419Y-92773578D01*
X108999501Y-92782123D01*
X108999500Y-92782135D01*
X108999500Y-94677870D01*
X108999501Y-94677876D01*
X109005908Y-94737483D01*
X109056202Y-94872328D01*
X109056206Y-94872335D01*
X109142452Y-94987544D01*
X109142455Y-94987547D01*
X109257664Y-95073793D01*
X109257671Y-95073797D01*
X109337580Y-95103601D01*
X109393514Y-95145472D01*
X109417931Y-95210936D01*
X109403080Y-95279209D01*
X109381929Y-95307463D01*
X109331756Y-95357636D01*
X109331752Y-95357641D01*
X109202187Y-95535974D01*
X109102104Y-95732393D01*
X109102103Y-95732396D01*
X109033985Y-95942047D01*
X109033985Y-95942049D01*
X108999500Y-96159778D01*
X108999500Y-96380222D01*
X109001724Y-96394265D01*
X109033985Y-96597952D01*
X109102103Y-96807603D01*
X109102104Y-96807606D01*
X109202187Y-97004025D01*
X109331752Y-97182358D01*
X109331756Y-97182363D01*
X109331758Y-97182365D01*
X109487635Y-97338242D01*
X109648386Y-97455034D01*
X109691051Y-97510362D01*
X109699500Y-97555351D01*
X109699500Y-98388255D01*
X109679815Y-98455294D01*
X109648385Y-98488573D01*
X109552787Y-98558028D01*
X109552782Y-98558032D01*
X109408028Y-98702786D01*
X109287715Y-98868386D01*
X109194781Y-99050776D01*
X109131522Y-99245465D01*
X109099500Y-99447648D01*
X109099500Y-99652351D01*
X109131522Y-99854534D01*
X109194781Y-100049223D01*
X109287715Y-100231613D01*
X109408028Y-100397213D01*
X109552786Y-100541971D01*
X109675215Y-100630919D01*
X109718390Y-100662287D01*
X109834607Y-100721503D01*
X109900776Y-100755218D01*
X109900778Y-100755218D01*
X109900781Y-100755220D01*
X110005137Y-100789127D01*
X110095465Y-100818477D01*
X110196557Y-100834488D01*
X110297648Y-100850500D01*
X110297649Y-100850500D01*
X110502351Y-100850500D01*
X110502352Y-100850500D01*
X110704534Y-100818477D01*
X110899219Y-100755220D01*
X111081610Y-100662287D01*
X111174590Y-100594732D01*
X111247213Y-100541971D01*
X111247215Y-100541968D01*
X111247219Y-100541966D01*
X111391966Y-100397219D01*
X111391968Y-100397215D01*
X111391971Y-100397213D01*
X111471719Y-100287447D01*
X111512287Y-100231610D01*
X111605220Y-100049219D01*
X111668477Y-99854534D01*
X111700500Y-99652352D01*
X111700500Y-99447648D01*
X111674590Y-99284059D01*
X111668477Y-99245465D01*
X111605218Y-99050776D01*
X111534878Y-98912728D01*
X111512287Y-98868390D01*
X111504556Y-98857749D01*
X111391971Y-98702786D01*
X111247217Y-98558032D01*
X111247212Y-98558028D01*
X111151615Y-98488573D01*
X111108949Y-98433243D01*
X111100500Y-98388255D01*
X111100500Y-97555351D01*
X111120185Y-97488312D01*
X111151611Y-97455035D01*
X111312365Y-97338242D01*
X111468242Y-97182365D01*
X111597815Y-97004022D01*
X111697895Y-96807606D01*
X111766015Y-96597951D01*
X111800500Y-96380222D01*
X111800500Y-96159778D01*
X111766015Y-95942049D01*
X111697895Y-95732394D01*
X111697895Y-95732393D01*
X111628451Y-95596104D01*
X111597815Y-95535978D01*
X111581260Y-95513192D01*
X111468247Y-95357641D01*
X111468243Y-95357636D01*
X111418071Y-95307464D01*
X111384586Y-95246141D01*
X111389570Y-95176449D01*
X111431442Y-95120516D01*
X111462420Y-95103601D01*
X111542326Y-95073798D01*
X111542326Y-95073797D01*
X111542331Y-95073796D01*
X111657546Y-94987546D01*
X111743796Y-94872331D01*
X111794091Y-94737483D01*
X111800500Y-94677873D01*
X111800499Y-92782128D01*
X111794091Y-92722517D01*
X111793442Y-92720778D01*
X111743797Y-92587671D01*
X111743793Y-92587664D01*
X111657547Y-92472455D01*
X111657544Y-92472452D01*
X111542335Y-92386206D01*
X111542328Y-92386202D01*
X111407482Y-92335908D01*
X111407483Y-92335908D01*
X111347883Y-92329501D01*
X111347881Y-92329500D01*
X111347873Y-92329500D01*
X111347865Y-92329500D01*
X111224500Y-92329500D01*
X111157461Y-92309815D01*
X111111706Y-92257011D01*
X111100500Y-92205500D01*
X111100500Y-87091518D01*
X111120185Y-87024479D01*
X111136814Y-87003841D01*
X112090799Y-86049856D01*
X112152120Y-86016373D01*
X112221811Y-86021357D01*
X112225860Y-86022949D01*
X112335581Y-86068398D01*
X112588884Y-86136270D01*
X112837188Y-86168960D01*
X112848864Y-86170498D01*
X112848880Y-86170500D01*
X112848887Y-86170500D01*
X113111113Y-86170500D01*
X113111120Y-86170500D01*
X113371116Y-86136270D01*
X113624419Y-86068398D01*
X113866697Y-85968043D01*
X114093803Y-85836924D01*
X114301851Y-85677282D01*
X114301855Y-85677277D01*
X114301860Y-85677274D01*
X114487274Y-85491860D01*
X114487277Y-85491855D01*
X114487282Y-85491851D01*
X114646924Y-85283803D01*
X114778043Y-85056697D01*
X114823461Y-84947048D01*
X114867301Y-84892644D01*
X114933595Y-84870579D01*
X114938022Y-84870500D01*
X116577371Y-84870500D01*
X116644410Y-84890185D01*
X116665052Y-84906819D01*
X117435515Y-85677282D01*
X118191548Y-86433314D01*
X118225033Y-86494637D01*
X118221799Y-86559311D01*
X118192755Y-86648701D01*
X118152730Y-86901410D01*
X118152730Y-87157269D01*
X118192756Y-87409980D01*
X118271818Y-87653312D01*
X118271819Y-87653315D01*
X118387980Y-87881290D01*
X118538362Y-88088275D01*
X118538366Y-88088280D01*
X118719289Y-88269203D01*
X118719294Y-88269207D01*
X118899837Y-88400378D01*
X118926283Y-88419592D01*
X119075310Y-88495525D01*
X119154254Y-88535750D01*
X119154257Y-88535751D01*
X119275923Y-88575282D01*
X119397591Y-88614814D01*
X119650300Y-88654840D01*
X119650301Y-88654840D01*
X119906159Y-88654840D01*
X119906160Y-88654840D01*
X120158869Y-88614814D01*
X120402205Y-88535750D01*
X120630177Y-88419592D01*
X120837172Y-88269202D01*
X121018092Y-88088282D01*
X121168482Y-87881287D01*
X121284640Y-87653315D01*
X121363704Y-87409979D01*
X121403730Y-87157270D01*
X121403730Y-86901410D01*
X121363704Y-86648701D01*
X121311180Y-86487046D01*
X121284641Y-86405366D01*
X121284640Y-86405364D01*
X121232715Y-86303457D01*
X121168482Y-86177393D01*
X121081871Y-86058182D01*
X121018097Y-85970404D01*
X121018092Y-85970398D01*
X120837170Y-85789476D01*
X120837165Y-85789472D01*
X120630180Y-85639090D01*
X120630179Y-85639089D01*
X120630177Y-85639088D01*
X120557140Y-85601873D01*
X120402205Y-85522929D01*
X120402202Y-85522928D01*
X120158870Y-85443866D01*
X120019875Y-85421851D01*
X119906160Y-85403840D01*
X119650300Y-85403840D01*
X119599758Y-85411845D01*
X119397587Y-85443866D01*
X119308203Y-85472908D01*
X119238361Y-85474903D01*
X119182205Y-85442658D01*
X117365436Y-83625888D01*
X117365435Y-83625887D01*
X117250697Y-83549222D01*
X117123222Y-83496421D01*
X117123212Y-83496418D01*
X116987886Y-83469500D01*
X116987884Y-83469500D01*
X116987883Y-83469500D01*
X114938022Y-83469500D01*
X114870983Y-83449815D01*
X114825228Y-83397011D01*
X114823461Y-83392952D01*
X114778048Y-83283314D01*
X114778041Y-83283299D01*
X114646924Y-83056196D01*
X114487281Y-82848148D01*
X114487274Y-82848140D01*
X114301860Y-82662726D01*
X114301851Y-82662718D01*
X114093803Y-82503075D01*
X113866700Y-82371958D01*
X113866690Y-82371953D01*
X113624428Y-82271605D01*
X113624421Y-82271603D01*
X113624419Y-82271602D01*
X113371116Y-82203730D01*
X113313339Y-82196123D01*
X113111127Y-82169500D01*
X113111120Y-82169500D01*
X112848880Y-82169500D01*
X112848872Y-82169500D01*
X112617772Y-82199926D01*
X112588884Y-82203730D01*
X112421307Y-82248632D01*
X112335581Y-82271602D01*
X112335571Y-82271605D01*
X112093309Y-82371953D01*
X112093299Y-82371958D01*
X111866196Y-82503075D01*
X111658148Y-82662718D01*
X111472718Y-82848148D01*
X111313075Y-83056196D01*
X111181958Y-83283299D01*
X111181951Y-83283314D01*
X111136539Y-83392952D01*
X111092699Y-83447356D01*
X111026405Y-83469421D01*
X111021978Y-83469500D01*
X110024499Y-83469500D01*
X109957460Y-83449815D01*
X109911705Y-83397011D01*
X109900499Y-83345500D01*
X109900499Y-82622129D01*
X109900498Y-82622123D01*
X109900497Y-82622116D01*
X109894091Y-82562517D01*
X109890226Y-82552155D01*
X109843797Y-82427671D01*
X109843793Y-82427664D01*
X109757547Y-82312455D01*
X109757544Y-82312452D01*
X109642335Y-82226206D01*
X109642328Y-82226202D01*
X109507482Y-82175908D01*
X109507483Y-82175908D01*
X109447883Y-82169501D01*
X109447881Y-82169500D01*
X109447873Y-82169500D01*
X109447864Y-82169500D01*
X106352129Y-82169500D01*
X106352123Y-82169501D01*
X106292516Y-82175908D01*
X106157671Y-82226202D01*
X106157664Y-82226206D01*
X106042455Y-82312452D01*
X106042452Y-82312455D01*
X105956206Y-82427664D01*
X105956202Y-82427671D01*
X105905908Y-82562517D01*
X105901879Y-82600000D01*
X105899501Y-82622123D01*
X105899500Y-82622135D01*
X100518520Y-82622135D01*
X101503837Y-81636819D01*
X101565160Y-81603334D01*
X101591518Y-81600500D01*
X117858481Y-81600500D01*
X117925520Y-81620185D01*
X117946162Y-81636819D01*
X122163181Y-85853838D01*
X122196666Y-85915161D01*
X122199500Y-85941519D01*
X122199500Y-89358481D01*
X122179815Y-89425520D01*
X122163181Y-89446162D01*
X120340832Y-91268511D01*
X120279509Y-91301996D01*
X120253151Y-91304830D01*
X118448736Y-91304830D01*
X118381697Y-91285145D01*
X118338251Y-91237125D01*
X118326269Y-91213610D01*
X118295582Y-91153383D01*
X118257529Y-91101007D01*
X118145197Y-90946394D01*
X118145193Y-90946389D01*
X117964270Y-90765466D01*
X117964265Y-90765462D01*
X117757280Y-90615080D01*
X117757279Y-90615079D01*
X117757277Y-90615078D01*
X117684240Y-90577863D01*
X117529305Y-90498919D01*
X117529302Y-90498918D01*
X117285970Y-90419856D01*
X117159614Y-90399843D01*
X117033260Y-90379830D01*
X116777400Y-90379830D01*
X116693163Y-90393172D01*
X116524689Y-90419856D01*
X116281357Y-90498918D01*
X116281354Y-90498919D01*
X116053379Y-90615080D01*
X115846394Y-90765462D01*
X115846389Y-90765466D01*
X115665466Y-90946389D01*
X115665462Y-90946394D01*
X115515080Y-91153379D01*
X115398919Y-91381354D01*
X115398918Y-91381357D01*
X115319856Y-91624689D01*
X115279830Y-91877400D01*
X115279830Y-92133259D01*
X115319856Y-92385970D01*
X115398918Y-92629302D01*
X115398919Y-92629305D01*
X115446414Y-92722517D01*
X115515077Y-92857276D01*
X115515080Y-92857280D01*
X115665462Y-93064265D01*
X115665466Y-93064270D01*
X115846389Y-93245193D01*
X115846394Y-93245197D01*
X116026937Y-93376368D01*
X116053383Y-93395582D01*
X116202410Y-93471515D01*
X116281354Y-93511740D01*
X116281357Y-93511741D01*
X116403023Y-93551272D01*
X116524691Y-93590804D01*
X116777400Y-93630830D01*
X116777401Y-93630830D01*
X117033259Y-93630830D01*
X117033260Y-93630830D01*
X117285969Y-93590804D01*
X117529305Y-93511740D01*
X117757277Y-93395582D01*
X117964272Y-93245192D01*
X118145192Y-93064272D01*
X118295582Y-92857277D01*
X118333875Y-92782123D01*
X118338251Y-92773535D01*
X118386226Y-92722739D01*
X118448736Y-92705830D01*
X120109168Y-92705830D01*
X120162274Y-92719132D01*
X120162560Y-92718444D01*
X120167203Y-92720367D01*
X120167621Y-92720472D01*
X120168188Y-92720775D01*
X120295563Y-92773535D01*
X120295672Y-92773580D01*
X120295676Y-92773580D01*
X120295677Y-92773581D01*
X120431003Y-92800500D01*
X120431006Y-92800500D01*
X120568996Y-92800500D01*
X120661416Y-92782116D01*
X120704329Y-92773580D01*
X120802925Y-92732740D01*
X120831805Y-92720778D01*
X120831805Y-92720777D01*
X120831812Y-92720775D01*
X120946543Y-92644114D01*
X121044114Y-92546543D01*
X121713258Y-91877399D01*
X136723390Y-91877399D01*
X136723390Y-92133258D01*
X136763416Y-92385969D01*
X136842478Y-92629301D01*
X136842479Y-92629304D01*
X136958640Y-92857279D01*
X137109022Y-93064264D01*
X137109026Y-93064269D01*
X137289949Y-93245192D01*
X137289954Y-93245196D01*
X137416006Y-93336777D01*
X137496943Y-93395581D01*
X137645970Y-93471514D01*
X137724914Y-93511739D01*
X137724917Y-93511740D01*
X137846583Y-93551271D01*
X137968251Y-93590803D01*
X138220960Y-93630829D01*
X138220961Y-93630829D01*
X138476819Y-93630829D01*
X138476820Y-93630829D01*
X138729529Y-93590803D01*
X138972865Y-93511739D01*
X139200837Y-93395581D01*
X139407832Y-93245191D01*
X139588752Y-93064271D01*
X139739142Y-92857276D01*
X139855300Y-92629304D01*
X139934364Y-92385968D01*
X139974390Y-92133259D01*
X139974390Y-91877399D01*
X139934364Y-91624690D01*
X139855300Y-91381355D01*
X139855300Y-91381353D01*
X139781811Y-91237125D01*
X139739142Y-91153382D01*
X139701090Y-91101007D01*
X139588757Y-90946393D01*
X139588753Y-90946388D01*
X139407830Y-90765465D01*
X139407825Y-90765461D01*
X139200840Y-90615079D01*
X139200839Y-90615078D01*
X139200837Y-90615077D01*
X139127800Y-90577862D01*
X138972865Y-90498918D01*
X138972862Y-90498917D01*
X138729530Y-90419855D01*
X138603174Y-90399842D01*
X138476820Y-90379829D01*
X138220960Y-90379829D01*
X138136723Y-90393171D01*
X137968249Y-90419855D01*
X137724917Y-90498917D01*
X137724914Y-90498918D01*
X137496939Y-90615079D01*
X137289954Y-90765461D01*
X137289949Y-90765465D01*
X137109026Y-90946388D01*
X137109022Y-90946393D01*
X136958640Y-91153378D01*
X136842479Y-91381353D01*
X136842478Y-91381356D01*
X136763416Y-91624688D01*
X136723390Y-91877399D01*
X121713258Y-91877399D01*
X123444114Y-90146543D01*
X123520775Y-90031811D01*
X123573580Y-89904328D01*
X123600500Y-89768994D01*
X123600500Y-89631006D01*
X123600500Y-86901410D01*
X133850500Y-86901410D01*
X133850500Y-87157269D01*
X133890526Y-87409980D01*
X133969588Y-87653312D01*
X133969589Y-87653315D01*
X134085750Y-87881290D01*
X134236132Y-88088275D01*
X134236136Y-88088280D01*
X134417059Y-88269203D01*
X134417064Y-88269207D01*
X134597607Y-88400378D01*
X134624053Y-88419592D01*
X134773080Y-88495525D01*
X134852024Y-88535750D01*
X134852027Y-88535751D01*
X134973693Y-88575282D01*
X135095361Y-88614814D01*
X135348070Y-88654840D01*
X135348071Y-88654840D01*
X135603929Y-88654840D01*
X135603930Y-88654840D01*
X135856639Y-88614814D01*
X136099975Y-88535750D01*
X136327947Y-88419592D01*
X136534942Y-88269202D01*
X136715862Y-88088282D01*
X136866252Y-87881287D01*
X136982410Y-87653315D01*
X137061474Y-87409979D01*
X137101500Y-87157270D01*
X137101500Y-86901410D01*
X137061474Y-86648701D01*
X137008950Y-86487046D01*
X136982411Y-86405366D01*
X136982410Y-86405364D01*
X136930485Y-86303457D01*
X136866252Y-86177393D01*
X136779641Y-86058182D01*
X136715867Y-85970404D01*
X136715862Y-85970398D01*
X136534940Y-85789476D01*
X136534935Y-85789472D01*
X136327950Y-85639090D01*
X136327949Y-85639089D01*
X136327947Y-85639088D01*
X136254910Y-85601873D01*
X136099975Y-85522929D01*
X136099972Y-85522928D01*
X135856640Y-85443866D01*
X135717645Y-85421851D01*
X135603930Y-85403840D01*
X135348070Y-85403840D01*
X135263833Y-85417182D01*
X135095359Y-85443866D01*
X134852027Y-85522928D01*
X134852024Y-85522929D01*
X134624049Y-85639090D01*
X134417064Y-85789472D01*
X134417059Y-85789476D01*
X134236138Y-85970398D01*
X134236132Y-85970404D01*
X134085750Y-86177389D01*
X133969589Y-86405364D01*
X133969589Y-86405366D01*
X133890526Y-86648699D01*
X133850500Y-86901410D01*
X123600500Y-86901410D01*
X123600500Y-85570815D01*
X123620185Y-85503776D01*
X123672989Y-85458021D01*
X123742147Y-85448077D01*
X123797385Y-85470497D01*
X123873881Y-85526074D01*
X123902273Y-85546702D01*
X124051300Y-85622635D01*
X124130244Y-85662860D01*
X124130247Y-85662861D01*
X124251913Y-85702392D01*
X124373581Y-85741924D01*
X124626290Y-85781950D01*
X124626291Y-85781950D01*
X124882149Y-85781950D01*
X124882150Y-85781950D01*
X125134859Y-85741924D01*
X125378195Y-85662860D01*
X125606167Y-85546702D01*
X125813162Y-85396312D01*
X125994082Y-85215392D01*
X126144472Y-85008397D01*
X126260630Y-84780425D01*
X126339694Y-84537089D01*
X126379720Y-84284380D01*
X126379720Y-84028520D01*
X128874500Y-84028520D01*
X128874500Y-84284380D01*
X128884893Y-84350000D01*
X128914526Y-84537090D01*
X128993588Y-84780422D01*
X128993589Y-84780425D01*
X129057991Y-84906819D01*
X129098691Y-84986697D01*
X129109750Y-85008400D01*
X129260132Y-85215385D01*
X129260136Y-85215390D01*
X129441059Y-85396313D01*
X129441064Y-85396317D01*
X129621607Y-85527488D01*
X129648053Y-85546702D01*
X129797080Y-85622635D01*
X129876024Y-85662860D01*
X129876027Y-85662861D01*
X129997693Y-85702392D01*
X130119361Y-85741924D01*
X130372070Y-85781950D01*
X130372071Y-85781950D01*
X130627929Y-85781950D01*
X130627930Y-85781950D01*
X130880639Y-85741924D01*
X131123975Y-85662860D01*
X131351947Y-85546702D01*
X131558942Y-85396312D01*
X131739862Y-85215392D01*
X131890252Y-85008397D01*
X132006410Y-84780425D01*
X132085474Y-84537089D01*
X132125500Y-84284380D01*
X132125500Y-84028520D01*
X132085474Y-83775811D01*
X132045942Y-83654143D01*
X132006411Y-83532477D01*
X132006410Y-83532474D01*
X131964292Y-83449815D01*
X131890252Y-83304503D01*
X131823989Y-83213299D01*
X131739867Y-83097514D01*
X131739863Y-83097509D01*
X131558940Y-82916586D01*
X131558935Y-82916582D01*
X131351950Y-82766200D01*
X131351949Y-82766199D01*
X131351947Y-82766198D01*
X131148857Y-82662718D01*
X131142220Y-82659336D01*
X131142218Y-82659334D01*
X131123980Y-82650042D01*
X131123972Y-82650038D01*
X130880640Y-82570976D01*
X130761811Y-82552155D01*
X140060000Y-82552155D01*
X140060000Y-83850000D01*
X141340936Y-83850000D01*
X141329207Y-83878316D01*
X141300000Y-84025147D01*
X141300000Y-84174853D01*
X141329207Y-84321684D01*
X141340936Y-84350000D01*
X140060000Y-84350000D01*
X140060000Y-85647844D01*
X140066401Y-85707372D01*
X140066403Y-85707379D01*
X140116645Y-85842086D01*
X140116649Y-85842093D01*
X140202809Y-85957187D01*
X140202812Y-85957190D01*
X140317906Y-86043350D01*
X140317913Y-86043354D01*
X140452620Y-86093596D01*
X140452627Y-86093598D01*
X140512155Y-86099999D01*
X140512172Y-86100000D01*
X141810000Y-86100000D01*
X141810000Y-84819064D01*
X141838316Y-84830793D01*
X141985147Y-84860000D01*
X142134853Y-84860000D01*
X142281684Y-84830793D01*
X142310000Y-84819064D01*
X142310000Y-86100000D01*
X143607828Y-86100000D01*
X143607844Y-86099999D01*
X143667372Y-86093598D01*
X143667379Y-86093596D01*
X143802086Y-86043354D01*
X143802093Y-86043350D01*
X143917187Y-85957190D01*
X143917190Y-85957187D01*
X144003350Y-85842093D01*
X144003354Y-85842086D01*
X144053596Y-85707379D01*
X144053598Y-85707372D01*
X144059999Y-85647844D01*
X144060000Y-85647827D01*
X144060000Y-84350000D01*
X142779064Y-84350000D01*
X142790793Y-84321684D01*
X142820000Y-84174853D01*
X142820000Y-84025147D01*
X142790793Y-83878316D01*
X142779064Y-83850000D01*
X144060000Y-83850000D01*
X144060000Y-82552172D01*
X144059999Y-82552155D01*
X144053598Y-82492627D01*
X144053596Y-82492620D01*
X144003354Y-82357913D01*
X144003350Y-82357906D01*
X143917190Y-82242812D01*
X143917187Y-82242809D01*
X143802093Y-82156649D01*
X143802086Y-82156645D01*
X143667379Y-82106403D01*
X143667372Y-82106401D01*
X143607844Y-82100000D01*
X142310000Y-82100000D01*
X142310000Y-83380935D01*
X142281684Y-83369207D01*
X142134853Y-83340000D01*
X141985147Y-83340000D01*
X141838316Y-83369207D01*
X141810000Y-83380935D01*
X141810000Y-82100000D01*
X140512155Y-82100000D01*
X140452627Y-82106401D01*
X140452620Y-82106403D01*
X140317913Y-82156645D01*
X140317906Y-82156649D01*
X140202812Y-82242809D01*
X140202809Y-82242812D01*
X140116649Y-82357906D01*
X140116645Y-82357913D01*
X140066403Y-82492620D01*
X140066401Y-82492627D01*
X140060000Y-82552155D01*
X130761811Y-82552155D01*
X130647868Y-82534108D01*
X130627930Y-82530950D01*
X130372070Y-82530950D01*
X130352132Y-82534108D01*
X130119359Y-82570976D01*
X129876027Y-82650038D01*
X129876024Y-82650039D01*
X129648049Y-82766200D01*
X129441064Y-82916582D01*
X129441059Y-82916586D01*
X129260136Y-83097509D01*
X129260132Y-83097514D01*
X129109750Y-83304499D01*
X128993589Y-83532474D01*
X128993588Y-83532477D01*
X128914526Y-83775809D01*
X128883946Y-83968880D01*
X128874500Y-84028520D01*
X126379720Y-84028520D01*
X126339694Y-83775811D01*
X126300162Y-83654143D01*
X126260631Y-83532477D01*
X126260630Y-83532474D01*
X126218512Y-83449815D01*
X126144472Y-83304503D01*
X126078209Y-83213299D01*
X125994087Y-83097514D01*
X125994083Y-83097509D01*
X125813160Y-82916586D01*
X125813155Y-82916582D01*
X125606170Y-82766200D01*
X125606169Y-82766199D01*
X125606167Y-82766198D01*
X125533130Y-82728983D01*
X125378195Y-82650039D01*
X125378192Y-82650038D01*
X125134860Y-82570976D01*
X124902088Y-82534108D01*
X124882150Y-82530950D01*
X124626290Y-82530950D01*
X124606352Y-82534108D01*
X124373579Y-82570976D01*
X124130247Y-82650038D01*
X124130244Y-82650039D01*
X123902269Y-82766200D01*
X123695284Y-82916582D01*
X123695279Y-82916586D01*
X123514356Y-83097509D01*
X123514352Y-83097514D01*
X123363970Y-83304499D01*
X123247809Y-83532474D01*
X123247808Y-83532477D01*
X123168746Y-83775809D01*
X123138166Y-83968880D01*
X123128720Y-84028520D01*
X123128720Y-84284380D01*
X123139113Y-84350000D01*
X123168746Y-84537091D01*
X123173265Y-84551001D01*
X123175257Y-84620842D01*
X123139173Y-84680673D01*
X123076471Y-84711498D01*
X123007057Y-84703530D01*
X122967651Y-84676994D01*
X119002838Y-80712181D01*
X118969353Y-80650858D01*
X118974337Y-80581166D01*
X119016209Y-80525233D01*
X119081673Y-80500816D01*
X119090519Y-80500500D01*
X149375500Y-80500500D01*
X149442539Y-80520185D01*
X149488294Y-80572989D01*
X149499500Y-80624500D01*
X149499500Y-109375500D01*
X149479815Y-109442539D01*
X149427011Y-109488294D01*
X149375500Y-109499500D01*
X141590519Y-109499500D01*
X141523480Y-109479815D01*
X141477725Y-109427011D01*
X141467781Y-109357853D01*
X141496806Y-109294297D01*
X141502838Y-109287819D01*
X147684112Y-103106545D01*
X147684114Y-103106543D01*
X147760775Y-102991811D01*
X147813580Y-102864329D01*
X147821298Y-102825527D01*
X147840500Y-102728993D01*
X147840500Y-86058022D01*
X147860185Y-85990983D01*
X147912989Y-85945228D01*
X147917048Y-85943461D01*
X148026685Y-85898048D01*
X148026685Y-85898047D01*
X148026697Y-85898043D01*
X148253803Y-85766924D01*
X148461851Y-85607282D01*
X148461855Y-85607277D01*
X148461860Y-85607274D01*
X148647274Y-85421860D01*
X148647277Y-85421855D01*
X148647282Y-85421851D01*
X148806924Y-85213803D01*
X148938043Y-84986697D01*
X148956148Y-84942989D01*
X149038394Y-84744428D01*
X149038398Y-84744419D01*
X149106270Y-84491116D01*
X149140500Y-84231120D01*
X149140500Y-83968880D01*
X149106270Y-83708884D01*
X149038398Y-83455581D01*
X149021975Y-83415932D01*
X148938046Y-83213309D01*
X148938041Y-83213299D01*
X148806924Y-82986196D01*
X148647281Y-82778148D01*
X148647274Y-82778140D01*
X148461860Y-82592726D01*
X148461851Y-82592718D01*
X148253803Y-82433075D01*
X148026700Y-82301958D01*
X148026690Y-82301953D01*
X147784428Y-82201605D01*
X147784421Y-82201603D01*
X147784419Y-82201602D01*
X147531116Y-82133730D01*
X147473339Y-82126123D01*
X147271127Y-82099500D01*
X147271120Y-82099500D01*
X147008880Y-82099500D01*
X147008872Y-82099500D01*
X146777772Y-82129926D01*
X146748884Y-82133730D01*
X146591473Y-82175908D01*
X146495581Y-82201602D01*
X146495571Y-82201605D01*
X146253309Y-82301953D01*
X146253299Y-82301958D01*
X146026196Y-82433075D01*
X145818148Y-82592718D01*
X145632718Y-82778148D01*
X145473075Y-82986196D01*
X145341958Y-83213299D01*
X145341953Y-83213309D01*
X145241605Y-83455571D01*
X145241602Y-83455581D01*
X145173730Y-83708885D01*
X145139500Y-83968872D01*
X145139500Y-84231127D01*
X145151423Y-84321684D01*
X145173730Y-84491116D01*
X145227109Y-84690330D01*
X145241602Y-84744418D01*
X145241605Y-84744428D01*
X145341953Y-84986690D01*
X145341958Y-84986700D01*
X145473075Y-85213803D01*
X145632718Y-85421851D01*
X145632726Y-85421860D01*
X145818140Y-85607274D01*
X145818148Y-85607281D01*
X146026196Y-85766924D01*
X146253299Y-85898041D01*
X146253314Y-85898048D01*
X146362952Y-85943461D01*
X146417356Y-85987301D01*
X146439421Y-86053595D01*
X146439500Y-86058022D01*
X146439500Y-102318481D01*
X146419815Y-102385520D01*
X146403181Y-102406162D01*
X140297162Y-108512181D01*
X140235839Y-108545666D01*
X140209481Y-108548500D01*
X112820519Y-108548500D01*
X112753480Y-108528815D01*
X112732838Y-108512181D01*
X111716805Y-107496148D01*
X111683320Y-107434825D01*
X111682013Y-107389068D01*
X111696200Y-107299500D01*
X111700500Y-107272352D01*
X111700500Y-107067648D01*
X111690470Y-107004322D01*
X111668477Y-106865465D01*
X111607407Y-106677512D01*
X111605220Y-106670781D01*
X111605218Y-106670778D01*
X111605218Y-106670776D01*
X111541723Y-106546162D01*
X111512287Y-106488390D01*
X111446169Y-106397385D01*
X111422689Y-106331579D01*
X111438515Y-106263525D01*
X111488620Y-106214830D01*
X111546487Y-106200500D01*
X113068996Y-106200500D01*
X113160040Y-106182389D01*
X113204328Y-106173580D01*
X113268069Y-106147177D01*
X113331807Y-106120777D01*
X113331808Y-106120776D01*
X113331811Y-106120775D01*
X113446543Y-106044114D01*
X113762728Y-105727929D01*
X114018588Y-105472070D01*
X123128720Y-105472070D01*
X123128720Y-105727929D01*
X123168746Y-105980640D01*
X123247808Y-106223972D01*
X123247809Y-106223975D01*
X123363970Y-106451950D01*
X123514352Y-106658935D01*
X123514356Y-106658940D01*
X123695279Y-106839863D01*
X123695284Y-106839867D01*
X123875827Y-106971038D01*
X123902273Y-106990252D01*
X124049003Y-107065015D01*
X124130244Y-107106410D01*
X124130247Y-107106411D01*
X124208422Y-107131811D01*
X124373581Y-107185474D01*
X124626290Y-107225500D01*
X124626291Y-107225500D01*
X124882149Y-107225500D01*
X124882150Y-107225500D01*
X125134859Y-107185474D01*
X125378195Y-107106410D01*
X125606167Y-106990252D01*
X125813162Y-106839862D01*
X125994082Y-106658942D01*
X126144472Y-106451947D01*
X126260630Y-106223975D01*
X126339694Y-105980639D01*
X126379720Y-105727930D01*
X126379720Y-105472070D01*
X128874500Y-105472070D01*
X128874500Y-105727929D01*
X128914526Y-105980640D01*
X128993588Y-106223972D01*
X128993589Y-106223975D01*
X129109750Y-106451950D01*
X129260132Y-106658935D01*
X129260136Y-106658940D01*
X129441059Y-106839863D01*
X129441064Y-106839867D01*
X129621607Y-106971038D01*
X129648053Y-106990252D01*
X129794783Y-107065015D01*
X129876024Y-107106410D01*
X129876027Y-107106411D01*
X129954202Y-107131811D01*
X130119361Y-107185474D01*
X130372070Y-107225500D01*
X130372071Y-107225500D01*
X130627929Y-107225500D01*
X130627930Y-107225500D01*
X130880639Y-107185474D01*
X131123975Y-107106410D01*
X131351947Y-106990252D01*
X131558942Y-106839862D01*
X131739862Y-106658942D01*
X131890252Y-106451947D01*
X132006410Y-106223975D01*
X132085474Y-105980639D01*
X132125500Y-105727930D01*
X132125500Y-105472070D01*
X132085474Y-105219361D01*
X132006410Y-104976025D01*
X132006410Y-104976024D01*
X131957086Y-104879222D01*
X131890252Y-104748053D01*
X131816503Y-104646546D01*
X131739867Y-104541064D01*
X131739863Y-104541059D01*
X131558940Y-104360136D01*
X131558935Y-104360132D01*
X131351950Y-104209750D01*
X131351949Y-104209749D01*
X131351947Y-104209748D01*
X131278910Y-104172533D01*
X131123975Y-104093589D01*
X131123972Y-104093588D01*
X130880640Y-104014526D01*
X130754284Y-103994513D01*
X130627930Y-103974500D01*
X130372070Y-103974500D01*
X130287833Y-103987842D01*
X130119359Y-104014526D01*
X129876027Y-104093588D01*
X129876024Y-104093589D01*
X129648049Y-104209750D01*
X129441064Y-104360132D01*
X129441059Y-104360136D01*
X129260136Y-104541059D01*
X129260132Y-104541064D01*
X129109750Y-104748049D01*
X128993589Y-104976024D01*
X128993588Y-104976027D01*
X128914526Y-105219359D01*
X128874500Y-105472070D01*
X126379720Y-105472070D01*
X126339694Y-105219361D01*
X126260630Y-104976025D01*
X126260630Y-104976024D01*
X126211306Y-104879222D01*
X126144472Y-104748053D01*
X126070723Y-104646546D01*
X125994087Y-104541064D01*
X125994083Y-104541059D01*
X125813160Y-104360136D01*
X125813155Y-104360132D01*
X125606170Y-104209750D01*
X125606169Y-104209749D01*
X125606167Y-104209748D01*
X125533130Y-104172533D01*
X125378195Y-104093589D01*
X125378192Y-104093588D01*
X125134860Y-104014526D01*
X125008504Y-103994513D01*
X124882150Y-103974500D01*
X124626290Y-103974500D01*
X124542053Y-103987842D01*
X124373579Y-104014526D01*
X124130247Y-104093588D01*
X124130244Y-104093589D01*
X123902269Y-104209750D01*
X123695284Y-104360132D01*
X123695279Y-104360136D01*
X123514356Y-104541059D01*
X123514352Y-104541064D01*
X123363970Y-104748049D01*
X123247809Y-104976024D01*
X123247808Y-104976027D01*
X123168746Y-105219359D01*
X123128720Y-105472070D01*
X114018588Y-105472070D01*
X114111141Y-105379517D01*
X114844111Y-104646546D01*
X114844112Y-104646545D01*
X114844114Y-104646543D01*
X114920775Y-104531811D01*
X114973580Y-104404328D01*
X114991829Y-104312584D01*
X115000500Y-104268996D01*
X115000500Y-102599180D01*
X118152730Y-102599180D01*
X118152730Y-102855039D01*
X118192756Y-103107750D01*
X118271818Y-103351082D01*
X118271819Y-103351085D01*
X118387980Y-103579060D01*
X118538362Y-103786045D01*
X118538366Y-103786050D01*
X118719289Y-103966973D01*
X118719294Y-103966977D01*
X118899837Y-104098148D01*
X118926283Y-104117362D01*
X119075310Y-104193295D01*
X119154254Y-104233520D01*
X119154257Y-104233521D01*
X119263434Y-104268994D01*
X119397591Y-104312584D01*
X119650300Y-104352610D01*
X119650301Y-104352610D01*
X119906159Y-104352610D01*
X119906160Y-104352610D01*
X120158869Y-104312584D01*
X120402205Y-104233520D01*
X120630177Y-104117362D01*
X120837172Y-103966972D01*
X121018092Y-103786052D01*
X121168482Y-103579057D01*
X121284640Y-103351085D01*
X121363704Y-103107749D01*
X121403730Y-102855040D01*
X121403730Y-102599180D01*
X133850500Y-102599180D01*
X133850500Y-102855039D01*
X133890526Y-103107750D01*
X133969588Y-103351082D01*
X133969589Y-103351085D01*
X134085750Y-103579060D01*
X134236132Y-103786045D01*
X134236136Y-103786050D01*
X134417059Y-103966973D01*
X134417064Y-103966977D01*
X134597607Y-104098148D01*
X134624053Y-104117362D01*
X134773080Y-104193295D01*
X134852024Y-104233520D01*
X134852027Y-104233521D01*
X134961204Y-104268994D01*
X135095361Y-104312584D01*
X135348070Y-104352610D01*
X135348071Y-104352610D01*
X135603929Y-104352610D01*
X135603930Y-104352610D01*
X135856639Y-104312584D01*
X136099975Y-104233520D01*
X136327947Y-104117362D01*
X136534942Y-103966972D01*
X136715862Y-103786052D01*
X136866252Y-103579057D01*
X136982410Y-103351085D01*
X137061474Y-103107749D01*
X137101500Y-102855040D01*
X137101500Y-102599180D01*
X137061474Y-102346471D01*
X136982410Y-102103135D01*
X136982410Y-102103134D01*
X136942185Y-102024190D01*
X136866252Y-101875163D01*
X136847038Y-101848717D01*
X136715867Y-101668174D01*
X136715863Y-101668169D01*
X136534940Y-101487246D01*
X136534935Y-101487242D01*
X136327950Y-101336860D01*
X136327949Y-101336859D01*
X136327947Y-101336858D01*
X136254910Y-101299643D01*
X136099975Y-101220699D01*
X136099972Y-101220698D01*
X135856640Y-101141636D01*
X135730284Y-101121623D01*
X135603930Y-101101610D01*
X135348070Y-101101610D01*
X135263833Y-101114952D01*
X135095359Y-101141636D01*
X134852027Y-101220698D01*
X134852024Y-101220699D01*
X134624049Y-101336860D01*
X134417064Y-101487242D01*
X134417059Y-101487246D01*
X134236136Y-101668169D01*
X134236132Y-101668174D01*
X134085750Y-101875159D01*
X133969589Y-102103134D01*
X133969588Y-102103137D01*
X133890526Y-102346469D01*
X133850500Y-102599180D01*
X121403730Y-102599180D01*
X121363704Y-102346471D01*
X121284640Y-102103135D01*
X121284640Y-102103134D01*
X121244415Y-102024190D01*
X121168482Y-101875163D01*
X121149268Y-101848717D01*
X121018097Y-101668174D01*
X121018093Y-101668169D01*
X120837170Y-101487246D01*
X120837165Y-101487242D01*
X120630180Y-101336860D01*
X120630179Y-101336859D01*
X120630177Y-101336858D01*
X120557140Y-101299643D01*
X120402205Y-101220699D01*
X120402202Y-101220698D01*
X120158870Y-101141636D01*
X120032514Y-101121623D01*
X119906160Y-101101610D01*
X119650300Y-101101610D01*
X119566063Y-101114952D01*
X119397589Y-101141636D01*
X119154257Y-101220698D01*
X119154254Y-101220699D01*
X118926279Y-101336860D01*
X118719294Y-101487242D01*
X118719289Y-101487246D01*
X118538366Y-101668169D01*
X118538362Y-101668174D01*
X118387980Y-101875159D01*
X118271819Y-102103134D01*
X118271818Y-102103137D01*
X118192756Y-102346469D01*
X118152730Y-102599180D01*
X115000500Y-102599180D01*
X115000500Y-100697958D01*
X115020185Y-100630919D01*
X115036814Y-100610282D01*
X116309307Y-99337788D01*
X116370628Y-99304305D01*
X116435303Y-99307539D01*
X116524691Y-99336584D01*
X116777400Y-99376610D01*
X116777401Y-99376610D01*
X117033259Y-99376610D01*
X117033260Y-99376610D01*
X117285969Y-99336584D01*
X117529305Y-99257520D01*
X117757277Y-99141362D01*
X117964272Y-98990972D01*
X118145192Y-98810052D01*
X118295582Y-98603057D01*
X118411740Y-98375085D01*
X118490804Y-98131749D01*
X118530830Y-97879040D01*
X118530830Y-97623180D01*
X118520087Y-97555351D01*
X118509295Y-97487216D01*
X118506994Y-97472690D01*
X123279750Y-97472690D01*
X123279750Y-97728469D01*
X123319763Y-97981103D01*
X123398801Y-98224361D01*
X123398802Y-98224364D01*
X123514925Y-98452266D01*
X123592600Y-98559175D01*
X123592600Y-98559176D01*
X124227171Y-97924604D01*
X124240109Y-97955838D01*
X124322187Y-98078677D01*
X124426653Y-98183143D01*
X124549492Y-98265221D01*
X124580724Y-98278157D01*
X123946152Y-98912728D01*
X124053063Y-98990404D01*
X124280965Y-99106527D01*
X124280968Y-99106528D01*
X124524226Y-99185566D01*
X124776861Y-99225580D01*
X125032639Y-99225580D01*
X125285273Y-99185566D01*
X125528531Y-99106528D01*
X125528534Y-99106527D01*
X125756435Y-98990405D01*
X125863345Y-98912728D01*
X125863346Y-98912728D01*
X125228775Y-98278158D01*
X125260008Y-98265221D01*
X125382847Y-98183143D01*
X125487313Y-98078677D01*
X125569391Y-97955838D01*
X125582328Y-97924605D01*
X126216898Y-98559176D01*
X126216898Y-98559175D01*
X126294575Y-98452265D01*
X126410697Y-98224364D01*
X126410698Y-98224361D01*
X126489736Y-97981103D01*
X126529750Y-97728469D01*
X126529750Y-97623180D01*
X136723390Y-97623180D01*
X136723390Y-97879039D01*
X136763416Y-98131750D01*
X136842478Y-98375082D01*
X136842479Y-98375085D01*
X136900305Y-98488573D01*
X136936279Y-98559176D01*
X136958640Y-98603060D01*
X137109022Y-98810045D01*
X137109026Y-98810050D01*
X137289949Y-98990973D01*
X137289954Y-98990977D01*
X137448998Y-99106528D01*
X137496943Y-99141362D01*
X137645970Y-99217295D01*
X137724914Y-99257520D01*
X137724917Y-99257521D01*
X137806594Y-99284059D01*
X137968251Y-99336584D01*
X138220960Y-99376610D01*
X138220961Y-99376610D01*
X138476819Y-99376610D01*
X138476820Y-99376610D01*
X138729529Y-99336584D01*
X138972865Y-99257520D01*
X139200837Y-99141362D01*
X139407832Y-98990972D01*
X139588752Y-98810052D01*
X139739142Y-98603057D01*
X139855300Y-98375085D01*
X139934364Y-98131749D01*
X139974390Y-97879040D01*
X139974390Y-97623180D01*
X139934364Y-97370471D01*
X139855300Y-97127135D01*
X139855300Y-97127134D01*
X139792572Y-97004025D01*
X139739142Y-96899163D01*
X139635168Y-96756054D01*
X139588757Y-96692174D01*
X139588753Y-96692169D01*
X139407830Y-96511246D01*
X139407825Y-96511242D01*
X139200840Y-96360860D01*
X139200839Y-96360859D01*
X139200837Y-96360858D01*
X139058690Y-96288430D01*
X138972865Y-96244699D01*
X138972862Y-96244698D01*
X138729530Y-96165636D01*
X138603174Y-96145623D01*
X138476820Y-96125610D01*
X138220960Y-96125610D01*
X138136723Y-96138952D01*
X137968249Y-96165636D01*
X137724917Y-96244698D01*
X137724914Y-96244699D01*
X137496939Y-96360860D01*
X137289954Y-96511242D01*
X137289949Y-96511246D01*
X137109026Y-96692169D01*
X137109022Y-96692174D01*
X136958640Y-96899159D01*
X136842479Y-97127134D01*
X136842478Y-97127137D01*
X136763416Y-97370469D01*
X136723390Y-97623180D01*
X126529750Y-97623180D01*
X126529750Y-97472690D01*
X126489736Y-97220056D01*
X126410698Y-96976798D01*
X126410697Y-96976795D01*
X126294574Y-96748893D01*
X126216898Y-96641983D01*
X126216898Y-96641982D01*
X125582327Y-97276553D01*
X125569391Y-97245322D01*
X125487313Y-97122483D01*
X125382847Y-97018017D01*
X125260008Y-96935939D01*
X125228774Y-96923001D01*
X125863346Y-96288430D01*
X125756436Y-96210755D01*
X125528534Y-96094632D01*
X125528531Y-96094631D01*
X125285273Y-96015593D01*
X125032639Y-95975580D01*
X124776861Y-95975580D01*
X124524226Y-96015593D01*
X124280968Y-96094631D01*
X124280965Y-96094632D01*
X124053060Y-96210757D01*
X123946153Y-96288429D01*
X123946152Y-96288430D01*
X124580724Y-96923001D01*
X124549492Y-96935939D01*
X124426653Y-97018017D01*
X124322187Y-97122483D01*
X124240109Y-97245322D01*
X124227171Y-97276554D01*
X123592600Y-96641982D01*
X123592599Y-96641983D01*
X123514927Y-96748890D01*
X123398802Y-96976795D01*
X123398801Y-96976798D01*
X123319763Y-97220056D01*
X123279750Y-97472690D01*
X118506994Y-97472690D01*
X118492600Y-97381813D01*
X118490804Y-97370471D01*
X118411740Y-97127135D01*
X118411740Y-97127134D01*
X118349012Y-97004025D01*
X118295582Y-96899163D01*
X118191608Y-96756054D01*
X118145197Y-96692174D01*
X118145193Y-96692169D01*
X117964270Y-96511246D01*
X117964265Y-96511242D01*
X117860714Y-96436008D01*
X117757280Y-96360860D01*
X117757279Y-96360859D01*
X117757277Y-96360858D01*
X117615130Y-96288430D01*
X117529305Y-96244699D01*
X117529302Y-96244698D01*
X117285970Y-96165636D01*
X117159614Y-96145623D01*
X117033260Y-96125610D01*
X116777400Y-96125610D01*
X116693163Y-96138952D01*
X116524689Y-96165636D01*
X116281357Y-96244698D01*
X116281354Y-96244699D01*
X116053379Y-96360860D01*
X115846394Y-96511242D01*
X115846389Y-96511246D01*
X115665466Y-96692169D01*
X115665462Y-96692174D01*
X115515080Y-96899159D01*
X115398919Y-97127134D01*
X115398918Y-97127137D01*
X115319856Y-97370469D01*
X115279830Y-97623180D01*
X115279830Y-97879039D01*
X115319856Y-98131750D01*
X115319856Y-98131753D01*
X115348898Y-98221134D01*
X115350893Y-98290975D01*
X115318648Y-98347133D01*
X113755887Y-99909894D01*
X113733569Y-99943295D01*
X113711352Y-99976547D01*
X113695233Y-100000670D01*
X113679223Y-100024631D01*
X113626421Y-100152107D01*
X113626418Y-100152117D01*
X113599500Y-100287444D01*
X113599500Y-103858481D01*
X113579815Y-103925520D01*
X113563181Y-103946162D01*
X112746162Y-104763181D01*
X112684839Y-104796666D01*
X112658481Y-104799500D01*
X92731004Y-104799500D01*
X92595677Y-104826418D01*
X92595667Y-104826421D01*
X92468192Y-104879222D01*
X92353454Y-104955887D01*
X92353453Y-104955888D01*
X90046162Y-107263181D01*
X89984839Y-107296666D01*
X89958481Y-107299500D01*
X88632438Y-107299500D01*
X88565399Y-107279815D01*
X88519644Y-107227011D01*
X88509700Y-107157853D01*
X88538725Y-107094297D01*
X88576143Y-107065015D01*
X88602865Y-107051399D01*
X88736433Y-106983343D01*
X88927510Y-106844517D01*
X89094517Y-106677510D01*
X89233343Y-106486433D01*
X89340568Y-106275992D01*
X89413553Y-106051368D01*
X89424755Y-105980640D01*
X89450500Y-105818097D01*
X89450500Y-82481902D01*
X89413553Y-82248631D01*
X89340566Y-82024003D01*
X89233342Y-81813566D01*
X89094517Y-81622490D01*
X88927510Y-81455483D01*
X88736433Y-81316657D01*
X88525996Y-81209433D01*
X88301368Y-81136446D01*
X88068097Y-81099500D01*
X88068092Y-81099500D01*
X87831908Y-81099500D01*
X87831903Y-81099500D01*
X87598631Y-81136446D01*
X87374003Y-81209433D01*
X87163566Y-81316657D01*
X87054550Y-81395862D01*
X86972490Y-81455483D01*
X86972488Y-81455485D01*
X86972487Y-81455485D01*
X86805485Y-81622487D01*
X86805485Y-81622488D01*
X86805483Y-81622490D01*
X86745862Y-81704550D01*
X86666657Y-81813566D01*
X86559433Y-82024003D01*
X86486446Y-82248631D01*
X86449500Y-82481902D01*
X86449500Y-105818097D01*
X86486446Y-106051368D01*
X86559433Y-106275996D01*
X86649087Y-106451950D01*
X86666657Y-106486433D01*
X86805483Y-106677510D01*
X86972490Y-106844517D01*
X87163567Y-106983343D01*
X87277416Y-107041352D01*
X87323857Y-107065015D01*
X87374653Y-107112990D01*
X87391448Y-107180811D01*
X87368911Y-107246946D01*
X87314195Y-107290397D01*
X87267562Y-107299500D01*
X86741519Y-107299500D01*
X86674480Y-107279815D01*
X86653838Y-107263181D01*
X85936819Y-106546162D01*
X85903334Y-106484839D01*
X85900500Y-106458481D01*
X85900500Y-86321004D01*
X85873581Y-86185677D01*
X85873580Y-86185676D01*
X85873580Y-86185672D01*
X85838094Y-86100000D01*
X85820778Y-86058195D01*
X85820771Y-86058182D01*
X85762115Y-85970398D01*
X85744112Y-85943454D01*
X85744109Y-85943451D01*
X84859859Y-85059202D01*
X84826374Y-84997879D01*
X84831358Y-84928188D01*
X84832979Y-84924068D01*
X84840124Y-84906819D01*
X84878398Y-84814419D01*
X84946270Y-84561116D01*
X84980500Y-84301120D01*
X84980500Y-84038880D01*
X84946270Y-83778884D01*
X84878398Y-83525581D01*
X84878394Y-83525571D01*
X84778046Y-83283309D01*
X84778041Y-83283299D01*
X84646924Y-83056196D01*
X84487281Y-82848148D01*
X84487274Y-82848140D01*
X84301860Y-82662726D01*
X84301851Y-82662718D01*
X84093803Y-82503075D01*
X83866700Y-82371958D01*
X83866690Y-82371953D01*
X83624428Y-82271605D01*
X83624421Y-82271603D01*
X83624419Y-82271602D01*
X83371116Y-82203730D01*
X83313339Y-82196123D01*
X83111127Y-82169500D01*
X83111120Y-82169500D01*
X82848880Y-82169500D01*
X82848872Y-82169500D01*
X82617772Y-82199926D01*
X82588884Y-82203730D01*
X82421307Y-82248632D01*
X82335581Y-82271602D01*
X82335571Y-82271605D01*
X82093309Y-82371953D01*
X82093299Y-82371958D01*
X81866196Y-82503075D01*
X81658148Y-82662718D01*
X81472718Y-82848148D01*
X81313075Y-83056196D01*
X81181958Y-83283299D01*
X81181951Y-83283314D01*
X81136539Y-83392952D01*
X81092699Y-83447356D01*
X81026405Y-83469421D01*
X81021978Y-83469500D01*
X80024499Y-83469500D01*
X79957460Y-83449815D01*
X79911705Y-83397011D01*
X79900499Y-83345500D01*
X79900499Y-82622129D01*
X79900498Y-82622123D01*
X79900497Y-82622116D01*
X79894091Y-82562517D01*
X79890226Y-82552155D01*
X79843797Y-82427671D01*
X79843793Y-82427664D01*
X79757547Y-82312455D01*
X79757544Y-82312452D01*
X79642335Y-82226206D01*
X79642328Y-82226202D01*
X79507482Y-82175908D01*
X79507483Y-82175908D01*
X79447883Y-82169501D01*
X79447881Y-82169500D01*
X79447873Y-82169500D01*
X79447864Y-82169500D01*
X76352129Y-82169500D01*
X76352123Y-82169501D01*
X76292516Y-82175908D01*
X76157671Y-82226202D01*
X76157664Y-82226206D01*
X76042455Y-82312452D01*
X76042452Y-82312455D01*
X75956206Y-82427664D01*
X75956202Y-82427671D01*
X75905908Y-82562517D01*
X75901879Y-82600000D01*
X75899501Y-82622123D01*
X75899500Y-82622135D01*
X75899500Y-85717870D01*
X75899501Y-85717876D01*
X75905908Y-85777483D01*
X75956202Y-85912328D01*
X75956206Y-85912335D01*
X76042452Y-86027544D01*
X76042455Y-86027547D01*
X76157664Y-86113793D01*
X76157671Y-86113797D01*
X76292517Y-86164091D01*
X76292516Y-86164091D01*
X76299444Y-86164835D01*
X76352127Y-86170500D01*
X79447872Y-86170499D01*
X79507483Y-86164091D01*
X79642331Y-86113796D01*
X79757546Y-86027546D01*
X79843796Y-85912331D01*
X79894091Y-85777483D01*
X79900500Y-85717873D01*
X79900500Y-84994500D01*
X79920185Y-84927461D01*
X79972989Y-84881706D01*
X80024500Y-84870500D01*
X80989480Y-84870500D01*
X81056519Y-84890185D01*
X81102274Y-84942989D01*
X81112218Y-85012147D01*
X81083193Y-85075703D01*
X81077161Y-85082181D01*
X79855890Y-86303451D01*
X79855887Y-86303454D01*
X79787793Y-86405366D01*
X79787792Y-86405367D01*
X79779227Y-86418184D01*
X79779222Y-86418193D01*
X79726421Y-86545667D01*
X79726418Y-86545677D01*
X79699500Y-86681004D01*
X79699500Y-92205500D01*
X79679815Y-92272539D01*
X79627011Y-92318294D01*
X79575501Y-92329500D01*
X79452130Y-92329500D01*
X79452123Y-92329501D01*
X79392516Y-92335908D01*
X79257671Y-92386202D01*
X79257664Y-92386206D01*
X79142455Y-92472452D01*
X79142452Y-92472455D01*
X79056206Y-92587664D01*
X79056202Y-92587671D01*
X79005908Y-92722517D01*
X79000419Y-92773578D01*
X78999501Y-92782123D01*
X78999500Y-92782135D01*
X78999500Y-94677870D01*
X78999501Y-94677876D01*
X79005908Y-94737483D01*
X79056202Y-94872328D01*
X79056206Y-94872335D01*
X79142452Y-94987544D01*
X79142455Y-94987547D01*
X79257664Y-95073793D01*
X79257671Y-95073797D01*
X79337580Y-95103601D01*
X79393514Y-95145472D01*
X79417931Y-95210936D01*
X79403080Y-95279209D01*
X79381929Y-95307463D01*
X79331756Y-95357636D01*
X79331752Y-95357641D01*
X79202187Y-95535974D01*
X79102104Y-95732393D01*
X79102103Y-95732396D01*
X79033985Y-95942047D01*
X79033985Y-95942049D01*
X78999500Y-96159778D01*
X78999500Y-96380222D01*
X79001724Y-96394265D01*
X79033985Y-96597952D01*
X79102103Y-96807603D01*
X79102104Y-96807606D01*
X79202187Y-97004025D01*
X79331752Y-97182358D01*
X79331756Y-97182363D01*
X79331758Y-97182365D01*
X79487635Y-97338242D01*
X79648386Y-97455034D01*
X79691051Y-97510362D01*
X79699500Y-97555351D01*
X79699500Y-98388255D01*
X79679815Y-98455294D01*
X79648385Y-98488573D01*
X79552787Y-98558028D01*
X79552782Y-98558032D01*
X79408028Y-98702786D01*
X79287715Y-98868386D01*
X79194781Y-99050776D01*
X79131522Y-99245465D01*
X79099500Y-99447648D01*
X79099500Y-99652351D01*
X79131522Y-99854534D01*
X79194781Y-100049223D01*
X79287715Y-100231613D01*
X79408028Y-100397213D01*
X79552786Y-100541971D01*
X79675215Y-100630919D01*
X79718390Y-100662287D01*
X79834607Y-100721503D01*
X79900776Y-100755218D01*
X79900778Y-100755218D01*
X79900781Y-100755220D01*
X80005137Y-100789127D01*
X80095465Y-100818477D01*
X80196557Y-100834488D01*
X80297648Y-100850500D01*
X80297649Y-100850500D01*
X80502351Y-100850500D01*
X80502352Y-100850500D01*
X80704534Y-100818477D01*
X80899219Y-100755220D01*
X81081610Y-100662287D01*
X81174590Y-100594732D01*
X81247213Y-100541971D01*
X81247215Y-100541968D01*
X81247219Y-100541966D01*
X81391966Y-100397219D01*
X81391968Y-100397215D01*
X81391971Y-100397213D01*
X81471719Y-100287447D01*
X81512287Y-100231610D01*
X81605220Y-100049219D01*
X81668477Y-99854534D01*
X81700500Y-99652352D01*
X81700500Y-99447648D01*
X81674590Y-99284059D01*
X81668477Y-99245465D01*
X81605218Y-99050776D01*
X81534878Y-98912728D01*
X81512287Y-98868390D01*
X81504556Y-98857749D01*
X81391971Y-98702786D01*
X81247217Y-98558032D01*
X81247212Y-98558028D01*
X81151615Y-98488573D01*
X81108949Y-98433243D01*
X81100500Y-98388255D01*
X81100500Y-97555351D01*
X81120185Y-97488312D01*
X81151611Y-97455035D01*
X81312365Y-97338242D01*
X81468242Y-97182365D01*
X81597815Y-97004022D01*
X81697895Y-96807606D01*
X81766015Y-96597951D01*
X81800500Y-96380222D01*
X81800500Y-96159778D01*
X81766015Y-95942049D01*
X81697895Y-95732394D01*
X81697895Y-95732393D01*
X81628451Y-95596104D01*
X81597815Y-95535978D01*
X81581260Y-95513192D01*
X81468247Y-95357641D01*
X81468243Y-95357636D01*
X81418071Y-95307464D01*
X81384586Y-95246141D01*
X81389570Y-95176449D01*
X81431442Y-95120516D01*
X81462420Y-95103601D01*
X81542326Y-95073798D01*
X81542326Y-95073797D01*
X81542331Y-95073796D01*
X81657546Y-94987546D01*
X81743796Y-94872331D01*
X81794091Y-94737483D01*
X81800500Y-94677873D01*
X81800499Y-92782128D01*
X81794091Y-92722517D01*
X81793442Y-92720778D01*
X81743797Y-92587671D01*
X81743793Y-92587664D01*
X81657547Y-92472455D01*
X81657544Y-92472452D01*
X81542335Y-92386206D01*
X81542328Y-92386202D01*
X81407482Y-92335908D01*
X81407483Y-92335908D01*
X81347883Y-92329501D01*
X81347881Y-92329500D01*
X81347873Y-92329500D01*
X81347865Y-92329500D01*
X81224500Y-92329500D01*
X81157461Y-92309815D01*
X81111706Y-92257011D01*
X81100500Y-92205500D01*
X81100500Y-87091518D01*
X81120185Y-87024479D01*
X81136814Y-87003841D01*
X82090799Y-86049856D01*
X82152120Y-86016373D01*
X82221811Y-86021357D01*
X82225860Y-86022949D01*
X82335581Y-86068398D01*
X82588884Y-86136270D01*
X82837188Y-86168960D01*
X82848864Y-86170498D01*
X82848880Y-86170500D01*
X82848887Y-86170500D01*
X83111113Y-86170500D01*
X83111120Y-86170500D01*
X83371116Y-86136270D01*
X83624419Y-86068398D01*
X83734068Y-86022978D01*
X83803537Y-86015510D01*
X83866016Y-86046785D01*
X83869202Y-86049859D01*
X84463181Y-86643838D01*
X84496666Y-86705161D01*
X84499500Y-86731519D01*
X84499500Y-106731006D01*
X84499500Y-106868994D01*
X84499500Y-106868996D01*
X84499499Y-106868996D01*
X84526418Y-107004322D01*
X84526421Y-107004332D01*
X84579222Y-107131807D01*
X84655887Y-107246545D01*
X85746161Y-108336819D01*
X85779646Y-108398142D01*
X85774662Y-108467834D01*
X85732790Y-108523767D01*
X85667326Y-108548184D01*
X85658480Y-108548500D01*
X82820519Y-108548500D01*
X82753480Y-108528815D01*
X82732838Y-108512181D01*
X81716805Y-107496148D01*
X81683320Y-107434825D01*
X81682013Y-107389068D01*
X81696200Y-107299500D01*
X81700500Y-107272352D01*
X81700500Y-107067648D01*
X81690470Y-107004322D01*
X81668477Y-106865465D01*
X81607407Y-106677512D01*
X81605220Y-106670781D01*
X81605218Y-106670778D01*
X81605218Y-106670776D01*
X81541723Y-106546162D01*
X81512287Y-106488390D01*
X81446169Y-106397385D01*
X81391971Y-106322786D01*
X81247213Y-106178028D01*
X81081613Y-106057715D01*
X81081612Y-106057714D01*
X81081610Y-106057713D01*
X81024653Y-106028691D01*
X80899223Y-105964781D01*
X80704534Y-105901522D01*
X80529995Y-105873878D01*
X80502352Y-105869500D01*
X80297648Y-105869500D01*
X80273329Y-105873351D01*
X80095465Y-105901522D01*
X79900776Y-105964781D01*
X79718386Y-106057715D01*
X79552786Y-106178028D01*
X79408028Y-106322786D01*
X79287715Y-106488386D01*
X79194781Y-106670776D01*
X79131522Y-106865465D01*
X79099500Y-107067648D01*
X79099500Y-107272357D01*
X79115251Y-107371803D01*
X79106297Y-107441096D01*
X79080459Y-107478882D01*
X78047162Y-108512181D01*
X77985839Y-108545666D01*
X77959481Y-108548500D01*
X67820519Y-108548500D01*
X67753480Y-108528815D01*
X67732838Y-108512181D01*
X66716805Y-107496148D01*
X66683320Y-107434825D01*
X66682013Y-107389068D01*
X66696200Y-107299500D01*
X66700500Y-107272352D01*
X66700500Y-107067648D01*
X66690470Y-107004322D01*
X66668477Y-106865465D01*
X66607407Y-106677512D01*
X66605220Y-106670781D01*
X66605218Y-106670778D01*
X66605218Y-106670776D01*
X66541723Y-106546162D01*
X66512287Y-106488390D01*
X66446169Y-106397385D01*
X66391971Y-106322786D01*
X66247213Y-106178028D01*
X66081613Y-106057715D01*
X66081612Y-106057714D01*
X66081610Y-106057713D01*
X66024653Y-106028691D01*
X65899223Y-105964781D01*
X65704534Y-105901522D01*
X65529995Y-105873878D01*
X65502352Y-105869500D01*
X65297648Y-105869500D01*
X65273329Y-105873351D01*
X65095465Y-105901522D01*
X64900776Y-105964781D01*
X64718386Y-106057715D01*
X64552786Y-106178028D01*
X64408028Y-106322786D01*
X64287715Y-106488386D01*
X64194781Y-106670776D01*
X64131522Y-106865465D01*
X64099500Y-107067648D01*
X64099500Y-107272351D01*
X64131522Y-107474534D01*
X64194781Y-107669223D01*
X64287715Y-107851613D01*
X64408028Y-108017213D01*
X64552786Y-108161971D01*
X64707749Y-108274556D01*
X64718390Y-108282287D01*
X64825415Y-108336819D01*
X64900776Y-108375218D01*
X64900778Y-108375218D01*
X64900781Y-108375220D01*
X64971328Y-108398142D01*
X65095465Y-108438477D01*
X65196557Y-108454488D01*
X65297648Y-108470500D01*
X65297649Y-108470500D01*
X65502350Y-108470500D01*
X65502352Y-108470500D01*
X65619068Y-108452013D01*
X65688362Y-108460967D01*
X65726148Y-108486805D01*
X66527162Y-109287819D01*
X66560647Y-109349142D01*
X66555663Y-109418834D01*
X66513791Y-109474767D01*
X66448327Y-109499184D01*
X66439481Y-109499500D01*
X60624500Y-109499500D01*
X60557461Y-109479815D01*
X60511706Y-109427011D01*
X60500500Y-109375500D01*
X60500500Y-82622135D01*
X60899500Y-82622135D01*
X60899500Y-85717870D01*
X60899501Y-85717876D01*
X60905908Y-85777483D01*
X60956202Y-85912328D01*
X60956206Y-85912335D01*
X61042452Y-86027544D01*
X61042455Y-86027547D01*
X61157664Y-86113793D01*
X61157671Y-86113797D01*
X61292517Y-86164091D01*
X61292516Y-86164091D01*
X61299444Y-86164835D01*
X61352127Y-86170500D01*
X64447872Y-86170499D01*
X64507483Y-86164091D01*
X64642331Y-86113796D01*
X64757546Y-86027546D01*
X64843796Y-85912331D01*
X64894091Y-85777483D01*
X64900500Y-85717873D01*
X64900500Y-84994500D01*
X64920185Y-84927461D01*
X64972989Y-84881706D01*
X65024500Y-84870500D01*
X65989480Y-84870500D01*
X66056519Y-84890185D01*
X66102274Y-84942989D01*
X66112218Y-85012147D01*
X66083193Y-85075703D01*
X66077161Y-85082181D01*
X64855890Y-86303451D01*
X64855887Y-86303454D01*
X64787793Y-86405366D01*
X64787792Y-86405367D01*
X64779227Y-86418184D01*
X64779222Y-86418193D01*
X64726421Y-86545667D01*
X64726418Y-86545677D01*
X64699500Y-86681004D01*
X64699500Y-92205500D01*
X64679815Y-92272539D01*
X64627011Y-92318294D01*
X64575501Y-92329500D01*
X64452130Y-92329500D01*
X64452123Y-92329501D01*
X64392516Y-92335908D01*
X64257671Y-92386202D01*
X64257664Y-92386206D01*
X64142455Y-92472452D01*
X64142452Y-92472455D01*
X64056206Y-92587664D01*
X64056202Y-92587671D01*
X64005908Y-92722517D01*
X64000419Y-92773578D01*
X63999501Y-92782123D01*
X63999500Y-92782135D01*
X63999500Y-94677870D01*
X63999501Y-94677876D01*
X64005908Y-94737483D01*
X64056202Y-94872328D01*
X64056206Y-94872335D01*
X64142452Y-94987544D01*
X64142455Y-94987547D01*
X64257664Y-95073793D01*
X64257671Y-95073797D01*
X64337580Y-95103601D01*
X64393514Y-95145472D01*
X64417931Y-95210936D01*
X64403080Y-95279209D01*
X64381929Y-95307463D01*
X64331756Y-95357636D01*
X64331752Y-95357641D01*
X64202187Y-95535974D01*
X64102104Y-95732393D01*
X64102103Y-95732396D01*
X64033985Y-95942047D01*
X64033985Y-95942049D01*
X63999500Y-96159778D01*
X63999500Y-96380222D01*
X64001724Y-96394265D01*
X64033985Y-96597952D01*
X64102103Y-96807603D01*
X64102104Y-96807606D01*
X64202187Y-97004025D01*
X64331752Y-97182358D01*
X64331756Y-97182363D01*
X64331758Y-97182365D01*
X64487635Y-97338242D01*
X64648386Y-97455034D01*
X64691051Y-97510362D01*
X64699500Y-97555351D01*
X64699500Y-98388255D01*
X64679815Y-98455294D01*
X64648385Y-98488573D01*
X64552787Y-98558028D01*
X64552782Y-98558032D01*
X64408028Y-98702786D01*
X64287715Y-98868386D01*
X64194781Y-99050776D01*
X64131522Y-99245465D01*
X64099500Y-99447648D01*
X64099500Y-99652351D01*
X64131522Y-99854534D01*
X64194781Y-100049223D01*
X64287715Y-100231613D01*
X64408028Y-100397213D01*
X64552786Y-100541971D01*
X64675215Y-100630919D01*
X64718390Y-100662287D01*
X64834607Y-100721503D01*
X64900776Y-100755218D01*
X64900778Y-100755218D01*
X64900781Y-100755220D01*
X65005137Y-100789127D01*
X65095465Y-100818477D01*
X65196557Y-100834488D01*
X65297648Y-100850500D01*
X65297649Y-100850500D01*
X65502351Y-100850500D01*
X65502352Y-100850500D01*
X65704534Y-100818477D01*
X65899219Y-100755220D01*
X66081610Y-100662287D01*
X66174590Y-100594732D01*
X66247213Y-100541971D01*
X66247215Y-100541968D01*
X66247219Y-100541966D01*
X66391966Y-100397219D01*
X66391968Y-100397215D01*
X66391971Y-100397213D01*
X66471719Y-100287447D01*
X66512287Y-100231610D01*
X66605220Y-100049219D01*
X66668477Y-99854534D01*
X66700500Y-99652352D01*
X66700500Y-99447648D01*
X66674590Y-99284059D01*
X66668477Y-99245465D01*
X66605218Y-99050776D01*
X66534878Y-98912728D01*
X66512287Y-98868390D01*
X66504556Y-98857749D01*
X66391971Y-98702786D01*
X66247217Y-98558032D01*
X66247212Y-98558028D01*
X66151615Y-98488573D01*
X66108949Y-98433243D01*
X66100500Y-98388255D01*
X66100500Y-97555351D01*
X66120185Y-97488312D01*
X66151611Y-97455035D01*
X66312365Y-97338242D01*
X66468242Y-97182365D01*
X66597815Y-97004022D01*
X66697895Y-96807606D01*
X66766015Y-96597951D01*
X66800500Y-96380222D01*
X66800500Y-96159778D01*
X66766015Y-95942049D01*
X66697895Y-95732394D01*
X66697895Y-95732393D01*
X66628451Y-95596104D01*
X66597815Y-95535978D01*
X66581260Y-95513192D01*
X66468247Y-95357641D01*
X66468243Y-95357636D01*
X66418071Y-95307464D01*
X66384586Y-95246141D01*
X66389570Y-95176449D01*
X66431442Y-95120516D01*
X66462420Y-95103601D01*
X66542326Y-95073798D01*
X66542326Y-95073797D01*
X66542331Y-95073796D01*
X66657546Y-94987546D01*
X66739020Y-94878711D01*
X71149500Y-94878711D01*
X71149500Y-95121288D01*
X71181161Y-95361785D01*
X71243947Y-95596104D01*
X71336773Y-95820205D01*
X71336776Y-95820212D01*
X71458064Y-96030289D01*
X71458066Y-96030292D01*
X71458067Y-96030293D01*
X71605733Y-96222736D01*
X71605739Y-96222743D01*
X71777256Y-96394260D01*
X71777263Y-96394266D01*
X71890321Y-96481018D01*
X71969711Y-96541936D01*
X72179788Y-96663224D01*
X72249668Y-96692169D01*
X72386604Y-96748890D01*
X72403900Y-96756054D01*
X72638211Y-96818838D01*
X72818586Y-96842584D01*
X72878711Y-96850500D01*
X72878712Y-96850500D01*
X73121289Y-96850500D01*
X73169388Y-96844167D01*
X73361789Y-96818838D01*
X73596100Y-96756054D01*
X73820212Y-96663224D01*
X74030289Y-96541936D01*
X74222738Y-96394265D01*
X74394265Y-96222738D01*
X74541936Y-96030289D01*
X74663224Y-95820212D01*
X74756054Y-95596100D01*
X74818838Y-95361789D01*
X74850500Y-95121288D01*
X74850500Y-94878712D01*
X74849660Y-94872335D01*
X74824060Y-94677876D01*
X74818838Y-94638211D01*
X74756054Y-94403900D01*
X74663224Y-94179788D01*
X74541936Y-93969711D01*
X74394265Y-93777262D01*
X74394260Y-93777256D01*
X74222743Y-93605739D01*
X74222736Y-93605733D01*
X74030293Y-93458067D01*
X74030292Y-93458066D01*
X74030289Y-93458064D01*
X73820212Y-93336776D01*
X73820205Y-93336773D01*
X73596104Y-93243947D01*
X73361785Y-93181161D01*
X73121289Y-93149500D01*
X73121288Y-93149500D01*
X72878712Y-93149500D01*
X72878711Y-93149500D01*
X72638214Y-93181161D01*
X72403895Y-93243947D01*
X72179794Y-93336773D01*
X72179785Y-93336777D01*
X71969706Y-93458067D01*
X71777263Y-93605733D01*
X71777256Y-93605739D01*
X71605739Y-93777256D01*
X71605733Y-93777263D01*
X71458067Y-93969706D01*
X71336777Y-94179785D01*
X71336773Y-94179794D01*
X71243947Y-94403895D01*
X71181161Y-94638214D01*
X71149500Y-94878711D01*
X66739020Y-94878711D01*
X66743796Y-94872331D01*
X66794091Y-94737483D01*
X66800500Y-94677873D01*
X66800499Y-92782128D01*
X66794091Y-92722517D01*
X66793442Y-92720778D01*
X66743797Y-92587671D01*
X66743793Y-92587664D01*
X66657547Y-92472455D01*
X66657544Y-92472452D01*
X66542335Y-92386206D01*
X66542328Y-92386202D01*
X66407482Y-92335908D01*
X66407483Y-92335908D01*
X66347883Y-92329501D01*
X66347881Y-92329500D01*
X66347873Y-92329500D01*
X66347865Y-92329500D01*
X66224500Y-92329500D01*
X66157461Y-92309815D01*
X66111706Y-92257011D01*
X66100500Y-92205500D01*
X66100500Y-87091518D01*
X66120185Y-87024479D01*
X66136814Y-87003841D01*
X67090799Y-86049856D01*
X67152120Y-86016373D01*
X67221811Y-86021357D01*
X67225860Y-86022949D01*
X67335581Y-86068398D01*
X67588884Y-86136270D01*
X67837188Y-86168960D01*
X67848864Y-86170498D01*
X67848880Y-86170500D01*
X67848887Y-86170500D01*
X68111113Y-86170500D01*
X68111120Y-86170500D01*
X68371116Y-86136270D01*
X68624419Y-86068398D01*
X68866697Y-85968043D01*
X69093803Y-85836924D01*
X69301851Y-85677282D01*
X69301855Y-85677277D01*
X69301860Y-85677274D01*
X69487274Y-85491860D01*
X69487277Y-85491855D01*
X69487282Y-85491851D01*
X69646924Y-85283803D01*
X69778043Y-85056697D01*
X69878398Y-84814419D01*
X69946270Y-84561116D01*
X69980500Y-84301120D01*
X69980500Y-84038880D01*
X69946270Y-83778884D01*
X69878398Y-83525581D01*
X69878394Y-83525571D01*
X69778046Y-83283309D01*
X69778041Y-83283299D01*
X69646924Y-83056196D01*
X69487281Y-82848148D01*
X69487274Y-82848140D01*
X69301860Y-82662726D01*
X69301851Y-82662718D01*
X69093803Y-82503075D01*
X68866700Y-82371958D01*
X68866690Y-82371953D01*
X68624428Y-82271605D01*
X68624421Y-82271603D01*
X68624419Y-82271602D01*
X68371116Y-82203730D01*
X68313339Y-82196123D01*
X68111127Y-82169500D01*
X68111120Y-82169500D01*
X67848880Y-82169500D01*
X67848872Y-82169500D01*
X67617772Y-82199926D01*
X67588884Y-82203730D01*
X67421307Y-82248632D01*
X67335581Y-82271602D01*
X67335571Y-82271605D01*
X67093309Y-82371953D01*
X67093299Y-82371958D01*
X66866196Y-82503075D01*
X66658148Y-82662718D01*
X66472718Y-82848148D01*
X66313075Y-83056196D01*
X66181958Y-83283299D01*
X66181951Y-83283314D01*
X66136539Y-83392952D01*
X66092699Y-83447356D01*
X66026405Y-83469421D01*
X66021978Y-83469500D01*
X65024499Y-83469500D01*
X64957460Y-83449815D01*
X64911705Y-83397011D01*
X64900499Y-83345500D01*
X64900499Y-82622129D01*
X64900498Y-82622123D01*
X64900497Y-82622116D01*
X64894091Y-82562517D01*
X64890226Y-82552155D01*
X64843797Y-82427671D01*
X64843793Y-82427664D01*
X64757547Y-82312455D01*
X64757544Y-82312452D01*
X64642335Y-82226206D01*
X64642328Y-82226202D01*
X64507482Y-82175908D01*
X64507483Y-82175908D01*
X64447883Y-82169501D01*
X64447881Y-82169500D01*
X64447873Y-82169500D01*
X64447864Y-82169500D01*
X61352129Y-82169500D01*
X61352123Y-82169501D01*
X61292516Y-82175908D01*
X61157671Y-82226202D01*
X61157664Y-82226206D01*
X61042455Y-82312452D01*
X61042452Y-82312455D01*
X60956206Y-82427664D01*
X60956202Y-82427671D01*
X60905908Y-82562517D01*
X60901879Y-82600000D01*
X60899501Y-82622123D01*
X60899500Y-82622135D01*
X60500500Y-82622135D01*
X60500500Y-80624500D01*
X60520185Y-80557461D01*
X60572989Y-80511706D01*
X60624500Y-80500500D01*
X100359482Y-80500500D01*
X100426521Y-80520185D01*
G37*
%TD.AperFunction*%
%TD*%
M02*
