%TF.GenerationSoftware,KiCad,Pcbnew,9.0.0+dfsg-1*%
%TF.CreationDate,2025-03-17T15:53:04+01:00*%
%TF.ProjectId,control-matrix-4,636f6e74-726f-46c2-9d6d-61747269782d,1.0*%
%TF.SameCoordinates,Original*%
%TF.FileFunction,Soldermask,Top*%
%TF.FilePolarity,Negative*%
%FSLAX46Y46*%
G04 Gerber Fmt 4.6, Leading zero omitted, Abs format (unit mm)*
G04 Created by KiCad (PCBNEW 9.0.0+dfsg-1) date 2025-03-17 15:53:04*
%MOMM*%
%LPD*%
G01*
G04 APERTURE LIST*
%ADD10R,1.800000X1.800000*%
%ADD11C,1.800000*%
%ADD12C,2.250000*%
%ADD13C,1.600000*%
%ADD14O,1.600000X1.600000*%
%ADD15C,3.200000*%
%ADD16R,3.000000X3.000000*%
%ADD17C,3.000000*%
G04 APERTURE END LIST*
D10*
%TO.C,D3*%
X95400000Y-93730000D03*
D11*
X95400000Y-96270000D03*
%TD*%
D12*
%TO.C,SW1*%
X124754220Y-105600000D03*
X119778230Y-102727110D03*
X116905330Y-97751110D03*
X116905330Y-92005330D03*
X119778230Y-87029340D03*
X124754220Y-84156450D03*
X130500000Y-84156450D03*
X135476000Y-87029340D03*
X138348890Y-92005329D03*
X138348890Y-97751110D03*
X135476000Y-102727110D03*
X130500000Y-105600000D03*
X124904750Y-97600580D03*
%TD*%
D13*
%TO.C,R2*%
X80400000Y-107170000D03*
D14*
X80400000Y-99550000D03*
%TD*%
D10*
%TO.C,D2*%
X80400000Y-93730000D03*
D11*
X80400000Y-96270000D03*
%TD*%
D15*
%TO.C,H2*%
X103000000Y-95000000D03*
%TD*%
D10*
%TO.C,D4*%
X110400000Y-93730000D03*
D11*
X110400000Y-96270000D03*
%TD*%
D13*
%TO.C,R4*%
X110400000Y-107170000D03*
D14*
X110400000Y-99550000D03*
%TD*%
D15*
%TO.C,H1*%
X73000000Y-95000000D03*
%TD*%
D13*
%TO.C,R1*%
X65400000Y-107170000D03*
D14*
X65400000Y-99550000D03*
%TD*%
D10*
%TO.C,D1*%
X65400000Y-93730000D03*
D11*
X65400000Y-96270000D03*
%TD*%
D13*
%TO.C,R3*%
X95400000Y-107170000D03*
D14*
X95400000Y-99550000D03*
%TD*%
D16*
%TO.C,J1*%
X62900000Y-84170000D03*
D17*
X67980000Y-84170000D03*
%TD*%
D16*
%TO.C,J2*%
X77900000Y-84170000D03*
D17*
X82980000Y-84170000D03*
%TD*%
D16*
%TO.C,J3*%
X92900000Y-84170000D03*
D17*
X97980000Y-84170000D03*
%TD*%
D16*
%TO.C,J4*%
X107900000Y-84170000D03*
D17*
X112980000Y-84170000D03*
%TD*%
D16*
%TO.C,J9*%
X142060000Y-84100000D03*
D17*
X147140000Y-84100000D03*
%TD*%
M02*
