%TF.GenerationSoftware,KiCad,Pcbnew,9.0.0+dfsg-1*%
%TF.CreationDate,2025-03-17T12:29:00+01:00*%
%TF.ProjectId,control-matrix-6,636f6e74-726f-46c2-9d6d-61747269782d,1.0*%
%TF.SameCoordinates,Original*%
%TF.FileFunction,Copper,L1,Top*%
%TF.FilePolarity,Positive*%
%FSLAX46Y46*%
G04 Gerber Fmt 4.6, Leading zero omitted, Abs format (unit mm)*
G04 Created by KiCad (PCBNEW 9.0.0+dfsg-1) date 2025-03-17 12:29:00*
%MOMM*%
%LPD*%
G01*
G04 APERTURE LIST*
%TA.AperFunction,ComponentPad*%
%ADD10R,1.800000X1.800000*%
%TD*%
%TA.AperFunction,ComponentPad*%
%ADD11C,1.800000*%
%TD*%
%TA.AperFunction,ComponentPad*%
%ADD12C,2.250000*%
%TD*%
%TA.AperFunction,ComponentPad*%
%ADD13C,1.600000*%
%TD*%
%TA.AperFunction,ComponentPad*%
%ADD14O,1.600000X1.600000*%
%TD*%
%TA.AperFunction,ComponentPad*%
%ADD15R,3.000000X3.000000*%
%TD*%
%TA.AperFunction,ComponentPad*%
%ADD16C,3.000000*%
%TD*%
%TA.AperFunction,Conductor*%
%ADD17C,0.400000*%
%TD*%
G04 APERTURE END LIST*
D10*
%TO.P,D3,1,K*%
%TO.N,Net-(D3-K)*%
X95400000Y-93730000D03*
D11*
%TO.P,D3,2,A*%
%TO.N,Net-(D3-A)*%
X95400000Y-96270000D03*
%TD*%
D12*
%TO.P,SW1,1,1*%
%TO.N,unconnected-(SW1-Pad1)*%
X154754220Y-105600000D03*
%TO.P,SW1,2,2*%
%TO.N,Net-(D1-K)*%
X149778230Y-102727110D03*
%TO.P,SW1,3,3*%
%TO.N,Net-(D2-K)*%
X146905330Y-97751110D03*
%TO.P,SW1,4,4*%
%TO.N,Net-(D3-K)*%
X146905330Y-92005330D03*
%TO.P,SW1,5,5*%
%TO.N,Net-(D4-K)*%
X149778230Y-87029340D03*
%TO.P,SW1,6,6*%
%TO.N,Net-(D5-K)*%
X154754220Y-84156450D03*
%TO.P,SW1,7,7*%
%TO.N,Net-(D6-K)*%
X160500000Y-84156450D03*
%TO.P,SW1,8,8*%
%TO.N,unconnected-(SW1-Pad8)*%
X165476000Y-87029340D03*
%TO.P,SW1,9,9*%
%TO.N,unconnected-(SW1-Pad9)*%
X168348890Y-92005329D03*
%TO.P,SW1,10,10*%
%TO.N,unconnected-(SW1-Pad10)*%
X168348890Y-97751110D03*
%TO.P,SW1,11,11*%
%TO.N,unconnected-(SW1-Pad11)*%
X165476000Y-102727110D03*
%TO.P,SW1,12,12*%
%TO.N,unconnected-(SW1-Pad12)*%
X160500000Y-105600000D03*
%TO.P,SW1,13,13*%
%TO.N,GND*%
X154904750Y-97600580D03*
%TD*%
D13*
%TO.P,R2,1*%
%TO.N,+12V*%
X80400000Y-107170000D03*
D14*
%TO.P,R2,2*%
%TO.N,Net-(D2-A)*%
X80400000Y-99550000D03*
%TD*%
D10*
%TO.P,D2,1,K*%
%TO.N,Net-(D2-K)*%
X80400000Y-93730000D03*
D11*
%TO.P,D2,2,A*%
%TO.N,Net-(D2-A)*%
X80400000Y-96270000D03*
%TD*%
D10*
%TO.P,D6,1,K*%
%TO.N,Net-(D6-K)*%
X140400000Y-93730000D03*
D11*
%TO.P,D6,2,A*%
%TO.N,Net-(D6-A)*%
X140400000Y-96270000D03*
%TD*%
D13*
%TO.P,R6,1*%
%TO.N,+12V*%
X140400000Y-107170000D03*
D14*
%TO.P,R6,2*%
%TO.N,Net-(D6-A)*%
X140400000Y-99550000D03*
%TD*%
D10*
%TO.P,D5,1,K*%
%TO.N,Net-(D5-K)*%
X125400000Y-93730000D03*
D11*
%TO.P,D5,2,A*%
%TO.N,Net-(D5-A)*%
X125400000Y-96270000D03*
%TD*%
D10*
%TO.P,D4,1,K*%
%TO.N,Net-(D4-K)*%
X110400000Y-93730000D03*
D11*
%TO.P,D4,2,A*%
%TO.N,Net-(D4-A)*%
X110400000Y-96270000D03*
%TD*%
D13*
%TO.P,R5,1*%
%TO.N,+12V*%
X125400000Y-107170000D03*
D14*
%TO.P,R5,2*%
%TO.N,Net-(D5-A)*%
X125400000Y-99550000D03*
%TD*%
D13*
%TO.P,R4,1*%
%TO.N,+12V*%
X110400000Y-107170000D03*
D14*
%TO.P,R4,2*%
%TO.N,Net-(D4-A)*%
X110400000Y-99550000D03*
%TD*%
D13*
%TO.P,R1,1*%
%TO.N,+12V*%
X65400000Y-107170000D03*
D14*
%TO.P,R1,2*%
%TO.N,Net-(D1-A)*%
X65400000Y-99550000D03*
%TD*%
D10*
%TO.P,D1,1,K*%
%TO.N,Net-(D1-K)*%
X65400000Y-93730000D03*
D11*
%TO.P,D1,2,A*%
%TO.N,Net-(D1-A)*%
X65400000Y-96270000D03*
%TD*%
D13*
%TO.P,R3,1*%
%TO.N,+12V*%
X95400000Y-107170000D03*
D14*
%TO.P,R3,2*%
%TO.N,Net-(D3-A)*%
X95400000Y-99550000D03*
%TD*%
D15*
%TO.P,J1,1,Pin_1*%
%TO.N,Net-(D1-K)*%
X62900000Y-84170000D03*
D16*
%TO.P,J1,2,Pin_2*%
X67980000Y-84170000D03*
%TD*%
D15*
%TO.P,J2,1,Pin_1*%
%TO.N,Net-(D2-K)*%
X77900000Y-84170000D03*
D16*
%TO.P,J2,2,Pin_2*%
X82980000Y-84170000D03*
%TD*%
D15*
%TO.P,J6,1,Pin_1*%
%TO.N,Net-(D6-K)*%
X137900000Y-84170000D03*
D16*
%TO.P,J6,2,Pin_2*%
X142980000Y-84170000D03*
%TD*%
D15*
%TO.P,J3,1,Pin_1*%
%TO.N,Net-(D3-K)*%
X92900000Y-84170000D03*
D16*
%TO.P,J3,2,Pin_2*%
X97980000Y-84170000D03*
%TD*%
D15*
%TO.P,J4,1,Pin_1*%
%TO.N,Net-(D4-K)*%
X107900000Y-84170000D03*
D16*
%TO.P,J4,2,Pin_2*%
X112980000Y-84170000D03*
%TD*%
D15*
%TO.P,J9,1,Pin_1*%
%TO.N,GND*%
X172060000Y-84100000D03*
D16*
%TO.P,J9,2,Pin_2*%
%TO.N,+12V*%
X177140000Y-84100000D03*
%TD*%
D15*
%TO.P,J5,1,Pin_1*%
%TO.N,Net-(D5-K)*%
X122900000Y-84170000D03*
D16*
%TO.P,J5,2,Pin_2*%
X127980000Y-84170000D03*
%TD*%
D17*
%TO.N,Net-(D1-K)*%
X67980000Y-84170000D02*
X65400000Y-86750000D01*
X62900000Y-84170000D02*
X67980000Y-84170000D01*
X65400000Y-86750000D02*
X65400000Y-93730000D01*
%TO.N,Net-(D1-A)*%
X65400000Y-96270000D02*
X65400000Y-99550000D01*
%TO.N,Net-(D2-A)*%
X80400000Y-96270000D02*
X80400000Y-99550000D01*
%TO.N,Net-(D2-K)*%
X80400000Y-86750000D02*
X80400000Y-93730000D01*
X82980000Y-84170000D02*
X80400000Y-86750000D01*
X77900000Y-84170000D02*
X82980000Y-84170000D01*
%TO.N,Net-(D3-K)*%
X95400000Y-91170000D02*
X95400000Y-86750000D01*
X92900000Y-84170000D02*
X97980000Y-84170000D01*
X95400000Y-91170000D02*
X95400000Y-93730000D01*
X97130000Y-93730000D02*
X98500000Y-95100000D01*
X98500000Y-95100000D02*
X98500000Y-103900000D01*
X144200000Y-100900000D02*
X144200000Y-94710660D01*
X144200000Y-94710660D02*
X146905330Y-92005330D01*
X114250000Y-105850000D02*
X116200000Y-107800000D01*
X98500000Y-103900000D02*
X100450000Y-105850000D01*
X95400000Y-93730000D02*
X97130000Y-93730000D01*
X119900000Y-107800000D02*
X124400000Y-103300000D01*
X124400000Y-103300000D02*
X141800000Y-103300000D01*
X116200000Y-107800000D02*
X119900000Y-107800000D01*
X100450000Y-105850000D02*
X114250000Y-105850000D01*
X95400000Y-86750000D02*
X97980000Y-84170000D01*
X141800000Y-103300000D02*
X144200000Y-100900000D01*
%TO.N,Net-(D3-A)*%
X95400000Y-96270000D02*
X95400000Y-99550000D01*
%TO.N,Net-(D4-A)*%
X110400000Y-96270000D02*
X110400000Y-99550000D01*
%TO.N,Net-(D4-K)*%
X107900000Y-84170000D02*
X112980000Y-84170000D01*
X112980000Y-84170000D02*
X110400000Y-86750000D01*
X110400000Y-86750000D02*
X110400000Y-93730000D01*
%TO.N,Net-(D5-K)*%
X125400000Y-91170000D02*
X125400000Y-86750000D01*
X131050000Y-81100000D02*
X127980000Y-84170000D01*
X154754220Y-84156450D02*
X151697770Y-81100000D01*
X125400000Y-86750000D02*
X127980000Y-84170000D01*
X122900000Y-84170000D02*
X127980000Y-84170000D01*
X125400000Y-91170000D02*
X125400000Y-93730000D01*
X151697770Y-81100000D02*
X131050000Y-81100000D01*
%TO.N,Net-(D5-A)*%
X125400000Y-96270000D02*
X125400000Y-99550000D01*
%TO.N,Net-(D6-A)*%
X140400000Y-96270000D02*
X140400000Y-99550000D01*
%TO.N,Net-(D6-K)*%
X150970000Y-84170000D02*
X154500000Y-87700000D01*
X140400000Y-86750000D02*
X140400000Y-93730000D01*
X142980000Y-84170000D02*
X140400000Y-86750000D01*
X137900000Y-84170000D02*
X142980000Y-84170000D01*
X142980000Y-84170000D02*
X150970000Y-84170000D01*
X154500000Y-87700000D02*
X156956450Y-87700000D01*
X156956450Y-87700000D02*
X160500000Y-84156450D01*
%TO.N,GND*%
X172060000Y-92940000D02*
X170200000Y-94800000D01*
X172060000Y-84100000D02*
X172060000Y-92940000D01*
X170200000Y-94800000D02*
X157705330Y-94800000D01*
X157705330Y-94800000D02*
X154904750Y-97600580D01*
%TO.N,+12V*%
X177140000Y-84100000D02*
X177140000Y-102660000D01*
X140400000Y-107170000D02*
X142479000Y-109249000D01*
X127479000Y-109249000D02*
X138321000Y-109249000D01*
X93321000Y-109249000D02*
X95400000Y-107170000D01*
X138321000Y-109249000D02*
X140400000Y-107170000D01*
X142479000Y-109249000D02*
X170551000Y-109249000D01*
X67479000Y-109249000D02*
X77750000Y-109249000D01*
X95400000Y-107170000D02*
X97479000Y-109249000D01*
X108321000Y-109249000D02*
X110400000Y-107170000D01*
X112479000Y-109249000D02*
X123321000Y-109249000D01*
X78301000Y-109249000D02*
X80380000Y-107170000D01*
X80400000Y-107170000D02*
X82479000Y-109249000D01*
X110400000Y-107170000D02*
X112479000Y-109249000D01*
X97479000Y-109249000D02*
X108321000Y-109249000D01*
X123321000Y-109249000D02*
X125400000Y-107170000D01*
X80380000Y-107170000D02*
X80400000Y-107170000D01*
X77750000Y-109249000D02*
X78301000Y-109249000D01*
X82479000Y-109249000D02*
X93321000Y-109249000D01*
X65400000Y-107170000D02*
X67479000Y-109249000D01*
X125400000Y-107170000D02*
X127479000Y-109249000D01*
X177140000Y-102660000D02*
X170551000Y-109249000D01*
%TD*%
M02*
